<svg width="584" height="584" viewBox="0 0 584 584" fill="none" xmlns="http://www.w3.org/2000/svg">
<path d="M584 446.641H0V446.933H584V446.641Z" fill="#EBEBEB"/>
<path d="M525.483 465.441H486.797V465.733H525.483V465.441Z" fill="#EBEBEB"/>
<path d="M386.864 468.611H376.711V468.903H386.864V468.611Z" fill="#EBEBEB"/>
<path d="M485.628 454.595H429.953V454.887H485.628V454.595Z" fill="#EBEBEB"/>
<path d="M88.9286 456.557H61.2715V456.849H88.9286V456.557Z" fill="#EBEBEB"/>
<path d="M129.517 456.557H99.3281V456.849H129.517V456.557Z" fill="#EBEBEB"/>
<path d="M229.058 461.49H153.559V461.782H229.058V461.49Z" fill="#EBEBEB"/>
<path d="M276.832 394.55H51.2919C47.6162 394.55 44.625 391.559 44.625 387.883V70.8508C44.625 67.1751 47.6162 64.1838 51.2919 64.1838H276.832C280.506 64.1838 283.497 67.1751 283.497 70.8508V387.883C283.497 391.559 280.506 394.55 276.832 394.55ZM51.2919 64.477C47.7763 64.477 44.917 67.3363 44.917 70.8519V387.885C44.917 391.4 47.7763 394.259 51.2919 394.259H276.832C280.346 394.259 283.205 391.4 283.205 387.885V70.8508C283.205 67.3363 280.346 64.4758 276.832 64.4758L51.2919 64.477Z" fill="#EBEBEB"/>
<path d="M529.466 394.55H303.927C300.252 394.55 297.262 391.559 297.262 387.883V70.8508C297.262 67.1751 300.253 64.1838 303.927 64.1838H529.466C533.143 64.1838 536.133 67.1751 536.133 70.8508V387.883C536.134 391.559 533.143 394.55 529.466 394.55ZM303.927 64.477C300.413 64.477 297.554 67.3363 297.554 70.8519V387.885C297.554 391.4 300.413 394.259 303.927 394.259H529.466C532.982 394.259 535.841 391.4 535.841 387.885V70.8508C535.841 67.3363 532.982 64.4758 529.466 64.4758L303.927 64.477Z" fill="#EBEBEB"/>
<path d="M515.574 94.6079H331.062V446.641H515.574V94.6079Z" fill="#EBEBEB"/>
<path d="M501.85 106.088H344.787V446.641H501.85V106.088Z" fill="#F5F5F5"/>
<path d="M445.398 134.335H401.24V146.545H445.398V134.335Z" fill="white"/>
<path d="M465.298 255.577H489.255C491.321 255.577 492.996 257.252 492.996 259.318C492.996 261.384 491.321 263.059 489.255 263.059H465.298C463.232 263.059 461.557 261.384 461.557 259.318C461.557 257.252 463.232 255.577 465.298 255.577Z" fill="white"/>
<path d="M204.909 132.07H82.2031V230.964H204.909V132.07Z" fill="#EBEBEB"/>
<path d="M198.32 224.377L198.32 138.654L88.7818 138.654L88.7818 224.377H198.32Z" fill="#FAFAFA"/>
<path d="M185.547 182.638V178.543L101.558 178.543V182.638L185.547 182.638Z" fill="#E0E0E0"/>
<path d="M185.547 191.967V187.872L101.558 187.872V191.967L185.547 191.967Z" fill="#E0E0E0"/>
<path d="M185.547 201.295V197.2L101.558 197.2V201.295L185.547 201.295Z" fill="#E0E0E0"/>
<path d="M164.488 210.624V206.529H122.615V210.624H164.488Z" fill="#E0E0E0"/>
<path d="M101.553 138.652C101.553 145.707 95.8407 151.421 88.7848 151.421C86.3752 151.421 84.1245 150.749 82.2031 149.59V132.07H99.736C100.895 133.992 101.553 136.242 101.553 138.652Z" fill="#EBEBEB"/>
<path d="M204.91 132.07V149.59C202.989 150.749 200.738 151.421 198.328 151.421C191.274 151.421 185.547 145.708 185.547 138.652C185.547 136.242 186.218 133.992 187.376 132.07H204.91Z" fill="#EBEBEB"/>
<path d="M101.553 224.382C101.553 226.792 100.896 229.042 99.7371 230.964H82.2031V213.431C84.1245 212.272 86.3752 211.601 88.7848 211.601C95.8407 211.601 101.553 217.327 101.553 224.382Z" fill="#EBEBEB"/>
<path d="M204.909 213.431V230.964H187.376C186.217 229.042 185.547 226.792 185.547 224.382C185.547 217.327 191.272 211.601 198.328 211.601C200.736 211.601 202.986 212.272 204.909 213.431Z" fill="#EBEBEB"/>
<path d="M154.297 161.272C155.26 155.342 151.233 149.755 145.303 148.792C139.372 147.83 133.785 151.857 132.823 157.787C131.86 163.717 135.887 169.305 141.817 170.267C147.747 171.229 153.335 167.202 154.297 161.272Z" fill="#E0E0E0"/>
<path d="M304.076 306.196H61.2715V314.93H304.076V306.196Z" fill="#EBEBEB"/>
<path d="M301.971 314.931H223.088V446.642H301.971V314.931Z" fill="#F5F5F5"/>
<path d="M143.155 314.931H64.2715V446.642H143.155V314.931Z" fill="#F5F5F5"/>
<path d="M66.9649 314.931H64.2715V446.642H66.9649V314.931Z" fill="#EBEBEB"/>
<path d="M225.781 314.931H223.088V446.642H225.781V314.931Z" fill="#EBEBEB"/>
<path d="M105.704 285.137H91.2012L92.3645 306.196H104.541L105.704 285.137Z" fill="#F0F0F0"/>
<path d="M231.652 297.061H155.861V306.196H231.652V297.061Z" fill="#F0F0F0"/>
<path d="M231.654 298.132H196.711V305.126H231.654V298.132Z" fill="#FAFAFA"/>
<path d="M291.999 499.391C417.071 499.391 518.462 493.47 518.462 486.166C518.462 478.862 417.071 472.941 291.999 472.941C166.928 472.941 65.5371 478.862 65.5371 486.166C65.5371 493.47 166.928 499.391 291.999 499.391Z" fill="#F5F5F5"/>
<path d="M397.944 404.385C418.378 404.385 434.943 387.82 434.943 367.386C434.943 346.952 418.378 330.387 397.944 330.387C377.51 330.387 360.945 346.952 360.945 367.386C360.945 387.82 377.51 404.385 397.944 404.385Z" fill="white"/>
<path d="M397.944 404.84C377.292 404.84 360.49 388.038 360.49 367.386C360.49 346.734 377.292 329.933 397.944 329.933C418.597 329.933 435.399 346.735 435.399 367.386C435.399 388.039 418.597 404.84 397.944 404.84ZM397.944 330.843C377.794 330.843 361.4 347.236 361.4 367.386C361.4 387.537 377.794 403.931 397.944 403.931C418.095 403.931 434.489 387.537 434.489 367.386C434.489 347.236 418.095 330.843 397.944 330.843Z" fill="#407BFF"/>
<path d="M403.898 346.41H391.988V388.364H403.898V346.41Z" fill="#407BFF"/>
<path d="M418.92 373.341V361.431H376.967V373.341H418.92Z" fill="#407BFF"/>
<path d="M147.299 87.6819L146.498 86.8304C151.962 81.69 158.752 78.4184 166.132 77.3684L166.297 78.5247C159.156 79.5409 152.587 82.7073 147.299 87.6819Z" fill="#407BFF"/>
<path d="M138.659 100.45L137.57 100.026C138.728 97.0643 140.279 94.26 142.18 91.6892L143.119 92.3853C141.28 94.872 139.779 97.5853 138.659 100.45Z" fill="#407BFF"/>
<path d="M171.242 145.19C188.94 145.19 203.288 130.842 203.288 113.143C203.288 95.4444 188.94 81.0967 171.242 81.0967C153.543 81.0967 139.195 95.4444 139.195 113.143C139.195 130.842 153.543 145.19 171.242 145.19Z" fill="#407BFF"/>
<path d="M190.345 98.7067C185.134 93.3012 176.527 93.2417 171.241 98.528C165.956 93.2428 157.349 93.3012 152.138 98.7067C147.024 104.012 147.417 112.558 152.628 117.77L167.777 132.919C169.69 134.833 172.793 134.833 174.707 132.919L189.856 117.77C195.066 112.559 195.459 104.013 190.345 98.7067Z" fill="white"/>
<path d="M171.241 127.151C171.227 127.151 171.213 127.151 171.199 127.15C170.716 127.132 170.293 126.819 170.136 126.36L163.371 106.587L160.542 114.858C160.38 115.331 159.936 115.649 159.437 115.649H148.117C147.472 115.649 146.949 115.126 146.949 114.481C146.949 113.835 147.472 113.313 148.117 113.313H158.602L162.266 102.601C162.429 102.128 162.871 101.81 163.371 101.81C163.871 101.81 164.315 102.127 164.476 102.601L171.358 122.717L178.036 106.987C178.21 106.575 178.602 106.301 179.047 106.278C179.496 106.247 179.913 106.484 180.13 106.873L183.73 113.314H194.364C195.009 113.314 195.532 113.836 195.532 114.482C195.532 115.128 195.009 115.65 194.364 115.65H183.044C182.621 115.65 182.231 115.421 182.024 115.052L179.254 110.095L172.316 126.44C172.132 126.872 171.708 127.151 171.241 127.151Z" fill="#407BFF"/>
<path d="M349.075 445.243H227.168C218.653 445.243 212.157 438.276 212.733 429.761L232.45 137.873C233.026 129.358 240.462 122.391 248.977 122.391H370.883C379.398 122.391 385.895 129.358 385.319 137.873L365.602 429.761C365.026 438.276 357.588 445.243 349.075 445.243Z" fill="#263238"/>
<path d="M376.04 241.263H372.964C370.588 241.263 368.774 239.318 368.934 236.94L372.704 181.127C372.865 178.751 374.941 176.805 377.319 176.805H380.394C382.771 176.805 384.585 178.749 384.425 181.127L380.655 236.94C380.493 239.317 378.417 241.263 376.04 241.263Z" fill="#263238"/>
<path d="M230.659 204.031H227.589C225.645 204.031 224.162 202.44 224.293 200.495L225.655 180.339C225.786 178.394 227.484 176.803 229.429 176.803H232.498C234.443 176.803 235.926 178.394 235.794 180.339L234.433 200.495C234.302 202.44 232.604 204.031 230.659 204.031Z" fill="#407BFF"/>
<path d="M228.229 240.027H225.16C223.215 240.027 221.732 238.437 221.864 236.492L223.226 216.337C223.356 214.392 225.055 212.801 226.999 212.801H230.069C232.014 212.801 233.497 214.392 233.365 216.337L232.003 236.492C231.871 238.437 230.173 240.027 228.229 240.027Z" fill="#407BFF"/>
<path d="M346.493 445.243H224.586C216.071 445.243 209.575 438.276 210.151 429.761L229.868 137.873C230.442 129.358 237.88 122.391 246.395 122.391H368.301C376.816 122.391 383.313 129.358 382.737 137.873L363.02 429.761C362.444 438.276 355.007 445.243 346.493 445.243Z" fill="#407BFF"/>
<path opacity="0.3" d="M211.428 426.549L230.675 141.613H381.422L362.173 426.549H211.428Z" fill="white"/>
<path opacity="0.1" d="M270.943 426.549L324.737 141.613H358.505L304.711 426.549H270.943Z" fill="white"/>
<path opacity="0.1" d="M245.438 426.549L299.232 141.613H316.336L262.543 426.549H245.438Z" fill="white"/>
<path d="M292.166 129.55H321.562C322.612 129.55 323.413 130.409 323.342 131.458C323.271 132.508 322.354 133.367 321.304 133.367H291.907C290.857 133.367 290.056 132.508 290.127 131.458C290.199 130.409 291.116 129.55 292.166 129.55Z" fill="white"/>
<path d="M286.044 473.327L275.737 474.318L272.021 450.541L282.329 449.552L286.044 473.327Z" fill="#FFB573"/>
<path d="M274.565 469.28L285.349 465.922C285.753 465.796 286.153 465.981 286.31 466.366L289.833 474.938C290.198 475.827 289.661 476.943 288.727 477.217C284.825 478.359 281.117 478.663 276.411 480.681C270.908 483.042 268.6 486.145 262.687 486.145C258.442 486.145 257.49 482.259 259.28 481.716C267.428 479.242 266.385 477.209 272.323 470.825C272.969 470.132 273.712 469.545 274.565 469.28Z" fill="#263238"/>
<path opacity="0.2" d="M272.023 450.548L273.937 462.803L284.249 461.813L282.336 449.557L272.023 450.548Z" fill="black"/>
<path d="M279.479 150.2C265.964 148.61 252.521 149.68 239.031 152.297C234.457 153.183 230.9 156.952 230.375 161.599C228.911 174.516 227.244 203.47 233.76 246.658C233.761 246.663 288.981 242.01 288.981 242.01C289.096 234.169 283.519 198.468 288.128 161.404C288.82 155.823 284.987 150.847 279.479 150.2Z" fill="white"/>
<path d="M247.318 161.271L249.298 165.23C249.497 165.626 249.893 165.885 250.334 165.907L252.469 166.017C252.851 166.037 253.228 165.922 253.536 165.694L257.22 162.952L252.669 159.643L247.318 161.271Z" fill="#263238"/>
<path d="M252.55 164.892C250.958 164.299 250.057 164.69 250.057 164.69C248.315 170.82 246.407 188.423 246.217 196.205C251.494 211.578 253.218 213.138 253.218 213.138L255.9 194.628C255.9 194.628 252.898 175.71 252.55 164.892Z" fill="#263238"/>
<path d="M267.788 123.568C266.528 131.184 265.457 145.105 270.913 150.022C266.914 154.223 261.668 159.092 252.674 159.642C243.681 160.192 245.07 153.963 247.35 150.636C255.744 148.399 255.339 142.135 253.691 136.287L267.788 123.568Z" fill="#FFB573"/>
<path d="M273.21 149.351C272.504 149.032 271.74 148.824 271.227 148.706C270.886 148.624 270.532 148.763 270.359 149.066C269.487 150.542 266.845 157.115 252.67 159.643C254.999 161.018 258.101 165.3 259.44 167.346C263.69 165.141 274.751 158.54 273.694 150.003C273.648 149.722 273.477 149.468 273.21 149.351Z" fill="#F5F5F5"/>
<path d="M247.427 150.982C247.544 150.4 247.045 149.892 246.469 150.001C245.882 150.112 245.299 150.3 245.021 150.394C244.907 150.431 244.821 150.492 244.722 150.567C243.637 151.571 237.715 160.115 243.256 167.033C244.489 165.157 248.453 160.887 252.669 159.643C248.684 157.839 246.715 154.494 247.427 150.982Z" fill="#F5F5F5"/>
<path opacity="0.2" d="M262.04 128.758L253.695 136.28C254.09 137.664 254.407 139.07 254.547 140.44C257.762 139.89 262.094 136.232 262.336 132.843C262.456 131.153 262.337 129.536 262.04 128.758Z" fill="black"/>
<path d="M250.896 100.552C243.705 103.362 243.23 109.277 243.941 115.746C244.653 122.216 251.621 117.928 253.183 113.896C254.743 109.866 260.86 96.6566 250.896 100.552Z" fill="#263238"/>
<path d="M273.845 113.434C271.847 123.607 271.19 129.65 265.364 134.334C256.6 141.38 244.713 135.289 243.667 124.795C242.724 115.349 246.149 100.299 256.62 97.3339C266.936 94.4127 275.842 103.261 273.845 113.434Z" fill="#FFB573"/>
<path d="M273.427 121.861C264.862 122.315 266.678 117.448 268.235 114.658C269.792 111.867 266.613 107.261 268.689 104.859C264.99 106.33 261.107 105.119 256.166 101.68C252.332 99.0112 247.536 109.698 242.864 104.341C238.451 99.2799 242.551 91.654 253.149 90.4218C263.748 89.1907 265.682 96.7033 272.648 96.034C279.614 95.3659 277.19 101.095 275.827 102.263C281.667 102.654 284.847 108.235 273.427 121.861Z" fill="#263238"/>
<path d="M274.529 102.978C274.529 102.978 278.909 100.869 278.974 95.5154C281.245 99.5718 280.992 104.173 274.529 102.978Z" fill="#263238"/>
<path d="M252.289 124.302C255.448 124.808 257.542 123.12 257.638 123.039C257.744 122.952 257.76 122.798 257.676 122.694C257.592 122.59 257.437 122.577 257.331 122.663C257.306 122.683 254.865 124.64 251.385 123.586C251.256 123.548 251.118 123.62 251.075 123.751C251.033 123.88 251.103 124.017 251.231 124.057C251.597 124.168 251.95 124.247 252.289 124.302Z" fill="#263238"/>
<path d="M275.921 124.954C274.209 127.179 271.651 128.428 269.387 128.719C265.982 129.155 264.857 125.988 266.285 123.032C267.572 120.372 270.894 116.938 274.079 117.864C277.217 118.776 277.88 122.41 275.921 124.954Z" fill="#FFB573"/>
<path d="M272.544 346.157C272.951 315.658 276.846 243.031 276.846 243.031L233.795 246.659C233.795 246.659 242.358 321.516 247.527 352.627C252.899 384.976 269.382 460.736 269.382 460.736L286.858 459.248C286.858 459.248 280.5 369.737 272.544 346.157Z" fill="#263238"/>
<path d="M268.322 461.218L289.099 459.459L288.282 452.75L266.637 454.201L268.322 461.218Z" fill="#407BFF"/>
<path d="M258.504 114.042C258.392 114.876 257.864 115.504 257.325 115.443C256.785 115.382 256.438 114.658 256.55 113.824C256.662 112.99 257.19 112.363 257.73 112.423C258.27 112.483 258.617 113.208 258.504 114.042Z" fill="#263238"/>
<path d="M248.973 113.253C248.861 114.086 248.333 114.714 247.793 114.653C247.254 114.592 246.907 113.868 247.019 113.034C247.131 112.2 247.659 111.573 248.199 111.634C248.738 111.693 249.085 112.419 248.973 113.253Z" fill="#263238"/>
<path d="M251.662 114.279C251.662 114.279 249.048 118.307 246.633 120.163C247.871 121.465 250.437 121.105 250.437 121.105L251.662 114.279Z" fill="#ED893E"/>
<path opacity="0.4" d="M242.919 113.507C242.748 114.836 244.112 115.949 245.948 116.185C247.785 116.421 249.516 115.395 249.687 114.065" fill="#407BFF"/>
<path opacity="0.4" d="M253.98 114.745C253.729 116.063 255.026 117.255 256.844 117.601C258.663 117.947 260.452 117.026 260.703 115.709" fill="#407BFF"/>
<path d="M257.568 117.923C257.361 117.923 257.151 117.909 256.939 117.884C255.993 117.762 255.135 117.377 254.523 116.801C253.886 116.202 253.587 115.467 253.682 114.732C253.605 114.671 252.944 114.41 251.807 114.263C250.664 114.116 249.956 114.2 249.836 114.305C249.672 115.723 247.899 116.711 245.915 116.466C244.967 116.344 244.11 115.959 243.497 115.383C242.86 114.784 242.561 114.049 242.656 113.314L243.214 113.386C243.143 113.938 243.381 114.501 243.883 114.973C244.41 115.468 245.158 115.8 245.987 115.906C247.66 116.127 249.156 115.344 249.306 114.171C249.389 113.522 250.749 113.561 251.873 113.705C252.998 113.849 254.324 114.158 254.24 114.805C254.169 115.357 254.407 115.92 254.908 116.392C255.435 116.887 256.182 117.219 257.012 117.325C257.84 117.434 258.648 117.3 259.283 116.955C259.888 116.626 260.261 116.141 260.331 115.59L260.367 115.311L274.787 117.164L274.716 117.724L260.835 115.939C260.669 116.556 260.223 117.086 259.552 117.45C258.977 117.76 258.29 117.923 257.568 117.923Z" fill="#263238"/>
<path d="M262.167 110.378C262.248 110.376 262.33 110.354 262.407 110.309C262.643 110.17 262.726 109.868 262.593 109.634C261.265 107.292 259.012 107.174 258.917 107.171C258.647 107.159 258.415 107.372 258.398 107.644C258.38 107.915 258.583 108.144 258.852 108.155C258.925 108.159 260.681 108.27 261.74 110.139C261.83 110.296 261.996 110.382 262.167 110.378Z" fill="#263238"/>
<path d="M245.893 109.058C246.051 109.072 246.213 109.009 246.323 108.876C247.715 107.179 249.467 107.314 249.541 107.32C249.808 107.344 250.051 107.145 250.083 106.875C250.114 106.606 249.925 106.366 249.658 106.339C249.561 106.332 247.318 106.132 245.574 108.259C245.4 108.472 245.426 108.781 245.633 108.952C245.71 109.015 245.801 109.049 245.893 109.058Z" fill="#263238"/>
<path d="M308.405 341.239C299.469 295.318 297.468 259.4 288.98 242.01L247.275 246.658C247.275 246.658 272.123 315.095 284.25 344.301C296.855 374.669 321.735 426.549 321.735 426.549H342.567C342.567 426.549 323.122 362.157 308.405 341.239Z" fill="#263238"/>
<path d="M176.207 167.384L171.729 164.532C170.211 163.565 168.204 163.799 166.986 165.083L163.928 168.307C162.535 169.777 162.673 172.08 164.234 173.412L166.422 175.277C168.318 176.895 170.533 178.094 172.923 178.8L179.522 180.745L183.852 176.098C185.133 171.198 176.207 167.384 176.207 167.384Z" fill="#FFB573"/>
<path d="M242.935 165.205C241.301 169.2 239.699 172.911 237.955 176.711C236.215 180.48 234.441 184.246 232.497 187.977C230.559 191.713 228.467 195.407 226.11 199.117C224.918 200.968 223.643 202.816 222.181 204.667C220.698 206.516 219.086 208.38 216.805 210.239C215.648 211.16 214.304 212.101 212.49 212.898C212.008 213.093 211.548 213.281 211.007 213.44L210.193 213.666C209.892 213.743 209.359 213.836 208.948 213.889C207.224 214.086 205.824 213.86 204.69 213.576C202.437 212.967 201.071 212.124 199.803 211.354C198.563 210.567 197.546 209.775 196.592 208.982C192.863 205.808 190.066 202.589 187.31 199.314C184.587 196.049 182.019 192.764 179.558 189.419C177.074 186.063 174.715 182.776 172.291 179.253L185.207 170.917C189.253 177.418 193.879 183.949 198.705 189.78C201.134 192.649 203.716 195.462 206.149 197.476C206.745 197.965 207.329 198.398 207.792 198.681C208.229 198.97 208.66 199.091 208.361 198.98C208.202 198.936 207.816 198.836 207.093 198.913C206.929 198.92 206.647 198.989 206.591 199C206.56 199.001 206.53 199.007 206.502 199.018C206.446 199.04 206.446 199.022 206.433 199.036C206.457 199.012 206.794 198.816 207.194 198.468C208.022 197.766 209.078 196.581 210.069 195.264C211.071 193.935 212.056 192.448 213.005 190.894C214.916 187.782 216.638 184.379 218.287 180.915C219.922 177.438 221.494 173.882 222.931 170.259C224.358 166.664 225.785 162.918 226.959 159.372L242.935 165.205Z" fill="#407BFF"/>
<g opacity="0.6">
<path d="M242.935 165.205C241.301 169.2 239.699 172.911 237.955 176.711C236.215 180.48 234.441 184.246 232.497 187.977C230.559 191.713 228.467 195.407 226.11 199.117C224.918 200.968 223.643 202.816 222.181 204.667C220.698 206.516 219.086 208.38 216.805 210.239C215.648 211.16 214.304 212.101 212.49 212.898C212.008 213.093 211.548 213.281 211.007 213.44L210.193 213.666C209.892 213.743 209.359 213.836 208.948 213.889C207.224 214.086 205.824 213.86 204.69 213.576C202.437 212.967 201.071 212.124 199.803 211.354C198.563 210.567 197.546 209.775 196.592 208.982C192.863 205.808 190.066 202.589 187.31 199.314C184.587 196.049 182.019 192.764 179.558 189.419C177.074 186.063 174.715 182.776 172.291 179.253L185.207 170.917C189.253 177.418 193.879 183.949 198.705 189.78C201.134 192.649 203.716 195.462 206.149 197.476C206.745 197.965 207.329 198.398 207.792 198.681C208.229 198.97 208.66 199.091 208.361 198.98C208.202 198.936 207.816 198.836 207.093 198.913C206.929 198.92 206.647 198.989 206.591 199C206.56 199.001 206.53 199.007 206.502 199.018C206.446 199.04 206.446 199.022 206.433 199.036C206.457 199.012 206.794 198.816 207.194 198.468C208.022 197.766 209.078 196.581 210.069 195.264C211.071 193.935 212.056 192.448 213.005 190.894C214.916 187.782 216.638 184.379 218.287 180.915C219.922 177.438 221.494 173.882 222.931 170.259C224.358 166.664 225.785 162.918 226.959 159.372L242.935 165.205Z" fill="white"/>
</g>
<path d="M273.522 147.278C269.141 155.401 253.548 186.604 251.661 205.827C244.754 188.354 246.266 149.554 246.266 149.554C242.87 149.644 236.645 151.152 231.928 153.001C228.875 154.198 226.778 157.108 226.531 160.366C225.815 169.842 224.821 192.403 228.426 220.488C233.268 258.213 237.806 316.874 237.806 316.874C237.806 316.874 276.407 315.266 306.186 308.984C302.552 280.15 290.123 231.818 290.011 218.871C289.867 202.216 290.254 169.65 290.782 156.058C290.938 152.035 288.224 148.598 284.334 147.8C278.991 146.703 273.522 147.278 273.522 147.278Z" fill="#407BFF"/>
<path opacity="0.7" d="M273.522 147.278C269.141 155.401 253.548 186.604 251.661 205.827C244.754 188.354 246.266 149.554 246.266 149.554C242.87 149.644 236.645 151.152 231.928 153.001C228.875 154.198 226.778 157.107 226.531 160.366C225.815 169.842 224.821 192.403 228.426 220.488C233.268 258.213 237.806 316.873 237.806 316.873C237.806 316.873 276.407 315.266 306.186 308.984C302.552 280.15 290.123 231.817 290.011 218.871C289.867 202.212 290.254 169.635 290.782 156.049C290.932 152.169 288.44 148.7 284.7 147.878C279.244 146.677 273.522 147.278 273.522 147.278Z" fill="white"/>
<path d="M264.422 310.618C257.72 273.632 252.4 219.356 251.967 212.822L252.573 212.781C253.006 219.311 258.323 273.547 265.02 310.51L264.422 310.618Z" fill="white"/>
<path d="M261.077 244.817H225.484C224.087 244.817 222.699 243.675 222.399 242.278L210.49 186.951C210.189 185.554 211.085 184.412 212.482 184.412H248.075C249.472 184.412 250.86 185.554 251.161 186.951L263.069 242.278C263.37 243.675 262.473 244.817 261.077 244.817Z" fill="white"/>
<path d="M259.973 245.324H223.784C222.363 245.324 220.951 244.162 220.646 242.742L208.538 186.486C208.232 185.066 209.144 183.904 210.564 183.904H246.753C248.174 183.904 249.586 185.066 249.891 186.486L261.999 242.742C262.305 244.162 261.393 245.324 259.973 245.324Z" fill="#407BFF"/>
<path d="M264.124 213.536L255.116 213.2C254.032 213.159 252.952 213.347 251.945 213.752L247.295 215.62C245.391 216.385 244.527 218.523 245.38 220.361L247.251 224.391C247.996 225.996 249.824 226.856 251.571 226.424L256.726 225.147C256.726 225.147 266.401 224.374 266.747 219.322L264.124 213.536Z" fill="#FFB573"/>
<path d="M288.984 152.28C291.22 155.733 293.255 158.988 295.273 162.419C297.284 165.817 299.256 169.256 301.115 172.809C302.963 176.375 304.74 180.021 306.337 183.947C307.122 185.928 307.858 187.983 308.468 190.245C309.05 192.533 309.615 194.957 309.497 198.271L309.485 198.576L309.478 198.728C309.478 198.764 309.474 198.833 309.46 198.958C309.414 199.38 309.349 199.804 309.267 200.219C309.178 200.59 309.075 200.96 308.961 201.325C308.845 201.686 308.721 201.971 308.588 202.293C308.061 203.484 307.445 204.415 306.885 205.121C305.727 206.595 304.665 207.494 303.644 208.349C301.608 209.986 299.709 211.139 297.823 212.213C294.064 214.317 290.385 215.957 286.696 217.513C283.023 219.081 279.35 220.504 275.66 221.85C271.957 223.225 268.335 224.487 264.499 225.774L260.051 211.059C263.509 210.097 267.124 208.925 270.612 207.735C274.11 206.507 277.572 205.211 280.937 203.822C284.279 202.407 287.558 200.876 290.449 199.225C291.876 198.408 293.224 197.527 294.154 196.758C294.6 196.397 294.963 196.004 294.963 195.958C295 195.919 294.877 196.023 294.738 196.344C294.689 196.444 294.673 196.514 294.624 196.646C294.572 196.78 294.535 196.921 294.51 197.063C294.462 197.241 294.432 197.428 294.42 197.614C294.417 197.68 294.416 197.689 294.414 197.665L294.411 197.64L294.405 197.587C294.412 197.079 294.2 195.714 293.772 194.333C293.352 192.921 292.769 191.386 292.107 189.835C290.763 186.715 289.09 183.539 287.272 180.409C285.449 177.275 283.517 174.15 281.47 171.084C279.428 168.049 277.264 164.926 275.121 162.125L288.984 152.28Z" fill="#407BFF"/>
<g opacity="0.7">
<path d="M288.984 152.28C291.22 155.733 293.255 158.988 295.273 162.419C297.284 165.817 299.256 169.256 301.115 172.809C302.963 176.375 304.74 180.021 306.337 183.947C307.122 185.928 307.858 187.983 308.468 190.245C309.05 192.533 309.615 194.957 309.497 198.271L309.485 198.576L309.478 198.728C309.478 198.764 309.474 198.833 309.46 198.958C309.414 199.38 309.349 199.804 309.267 200.219C309.178 200.59 309.075 200.96 308.961 201.325C308.845 201.686 308.721 201.971 308.588 202.293C308.061 203.484 307.445 204.415 306.885 205.121C305.727 206.595 304.665 207.494 303.644 208.349C301.608 209.986 299.709 211.139 297.823 212.213C294.064 214.317 290.385 215.957 286.696 217.513C283.023 219.081 279.35 220.504 275.66 221.85C271.957 223.225 268.335 224.487 264.499 225.774L260.051 211.059C263.509 210.097 267.124 208.925 270.612 207.735C274.11 206.507 277.572 205.211 280.937 203.822C284.279 202.407 287.558 200.876 290.449 199.225C291.876 198.408 293.224 197.527 294.154 196.758C294.6 196.397 294.963 196.004 294.963 195.958C295 195.919 294.877 196.023 294.738 196.344C294.689 196.444 294.673 196.514 294.624 196.646C294.572 196.78 294.535 196.921 294.51 197.063C294.462 197.241 294.432 197.428 294.42 197.614C294.417 197.68 294.416 197.689 294.414 197.665L294.411 197.64L294.405 197.587C294.412 197.079 294.2 195.714 293.772 194.333C293.352 192.921 292.769 191.386 292.107 189.835C290.763 186.715 289.09 183.539 287.272 180.409C285.449 177.275 283.517 174.15 281.47 171.084C279.428 168.049 277.264 164.926 275.121 162.125L288.984 152.28Z" fill="white"/>
</g>
<path d="M277.168 192.807C277.015 192.807 276.864 192.733 276.776 192.593C276.639 192.376 276.703 192.089 276.919 191.952L278.745 190.793C282.24 188.571 283.981 184.508 283.179 180.445L279.513 161.868C278.805 158.282 275.89 156.898 273.608 156.803C271.32 156.708 268.304 157.843 267.299 161.357L262.097 179.565C260.959 183.546 262.355 187.739 265.654 190.246L267.375 191.554C267.578 191.709 267.618 192 267.464 192.205C267.31 192.409 267.02 192.448 266.815 192.293L265.093 190.985C261.488 188.245 259.962 183.663 261.207 179.31L266.409 161.102C267.358 157.784 270.209 155.756 273.647 155.876C277.095 156.021 279.756 158.302 280.423 161.687L284.089 180.264C284.965 184.706 283.063 189.146 279.242 191.575L277.417 192.735C277.338 192.785 277.253 192.807 277.168 192.807Z" fill="#263238"/>
<path d="M279.967 162.241C279.96 162.241 279.954 162.241 279.947 162.241L266.833 161.692C266.577 161.681 266.379 161.465 266.389 161.209C266.4 160.954 266.624 160.787 266.871 160.766L279.986 161.315C280.242 161.325 280.44 161.541 280.43 161.797C280.419 162.046 280.215 162.241 279.967 162.241Z" fill="#263238"/>
<path d="M273.593 156.802C273.342 156.802 273.135 156.602 273.13 156.35C273.076 154.066 272.399 149.962 270.214 149.066C269.977 148.969 269.864 148.698 269.96 148.461C270.057 148.224 270.328 148.111 270.565 148.208C273.803 149.536 274.041 155.635 274.058 156.326C274.064 156.583 273.862 156.795 273.606 156.8C273.601 156.802 273.596 156.802 273.593 156.802Z" fill="#263238"/>
<path d="M233.47 172.675C233.44 172.675 233.41 172.672 233.378 172.665C233.127 172.615 232.965 172.371 233.015 172.12C234.552 164.446 240.932 152.325 246.549 148.782C246.767 148.648 247.052 148.711 247.187 148.927C247.324 149.144 247.26 149.43 247.043 149.567C241.613 152.993 235.425 164.806 233.924 172.303C233.879 172.523 233.687 172.675 233.47 172.675Z" fill="#263238"/>
<path d="M237.306 173.882C236.577 175.741 234.992 176.857 233.766 176.376C232.541 175.895 232.138 173.998 232.868 172.14C233.597 170.281 235.182 169.165 236.408 169.646C237.634 170.128 238.036 172.025 237.306 173.882Z" fill="white"/>
<path d="M268.134 191.968C268.098 192.84 267.601 193.528 267.025 193.505C266.45 193.481 266.013 192.754 266.049 191.881C266.085 191.009 266.582 190.321 267.157 190.344C267.733 190.367 268.171 191.095 268.134 191.968Z" fill="white"/>
<path d="M278.208 192.388C278.172 193.261 277.675 193.949 277.1 193.925C276.524 193.901 276.087 193.174 276.123 192.302C276.159 191.429 276.656 190.741 277.232 190.765C277.807 190.788 278.244 191.516 278.208 192.388Z" fill="white"/>
<path d="M476.272 176.197L475.107 176.12C475.455 170.966 473.751 166.101 470.31 162.421C466.877 158.747 462.156 156.726 457.016 156.726V155.558C462.482 155.558 467.507 157.711 471.162 161.622C474.826 165.541 476.642 170.717 476.272 176.197Z" fill="#407BFF"/>
<path d="M474.747 181.477L474.105 191.124L475.271 191.201L475.913 181.555L474.747 181.477Z" fill="#407BFF"/>
<path d="M457.014 159.643H376.469C367.516 159.643 359.696 166.968 359.091 175.921L358.358 186.772C357.753 195.725 364.583 203.05 373.536 203.05H454.081L469.708 212.696L472.192 175.921C472.797 166.969 465.967 159.643 457.014 159.643Z" fill="#407BFF"/>
<path d="M452.926 175.185H378.275V177.897H452.926V175.185Z" fill="white"/>
<path d="M452.277 184.799H396.854V187.511H452.277V184.799Z" fill="white"/>
<path d="M335.778 217.689H418.148C427.303 217.689 434.289 225.181 433.671 234.336L432.921 245.433C432.302 254.589 424.305 262.079 415.15 262.079H332.78L315.467 271.944L318.007 234.336C318.625 225.181 326.622 217.689 335.778 217.689Z" fill="white"/>
<path opacity="0.15" d="M335.778 217.689H418.148C427.303 217.689 434.289 225.181 433.671 234.336L432.921 245.433C432.302 254.589 424.305 262.079 415.15 262.079H332.78L315.467 271.944L318.007 234.336C318.625 225.181 326.622 217.689 335.778 217.689Z" fill="#407BFF"/>
<path opacity="0.5" d="M413.967 233.583H337.627V236.357H413.967V233.583Z" fill="#407BFF"/>
<path opacity="0.5" d="M367.127 243.414H336.961V246.188H367.127V243.414Z" fill="#407BFF"/>
<path opacity="0.5" d="M393.793 243.414H374.525V246.188H393.793V243.414Z" fill="#407BFF"/>
</svg>
