<svg xmlns="http://www.w3.org/2000/svg" width="35" height="37" fill="none" viewBox="0 0 35 37">
  <path fill="#EE111F" fill-rule="evenodd" d="M29.697 8.573c.556 0 1.018.473 1.018 1.074v.556c0 .587-.462 1.074-1.018 1.074H6.031c-.557 0-1.02-.487-1.02-1.074v-.556c0-.601.463-1.074 1.02-1.074h4.163c.846 0 1.582-.616 1.772-1.484l.219-.998c.338-1.36 1.454-2.262 2.73-2.262h5.897c1.262 0 2.39.903 2.716 2.19l.234 1.068c.189.87.924 1.486 1.772 1.486h4.163Zm-2.115 20.32c.434-4.15 1.196-14.009 1.196-14.108a1.108 1.108 0 0 0-.259-.816 1.026 1.026 0 0 0-.747-.343H7.965a.998.998 0 0 0-.747.343c-.192.23-.286.514-.273.816.003.018.03.365.076.946.203 2.58.768 9.763 1.133 13.163.258 2.504 1.862 4.078 4.186 4.135 1.793.042 3.64.057 5.529.057 1.779 0 3.585-.014 5.434-.057 2.404-.042 4.007-1.589 4.279-4.135Z" clip-rule="evenodd"/>
</svg>
