<svg width="192" height="86" viewBox="0 0 192 86" fill="none" xmlns="http://www.w3.org/2000/svg">
<g clip-path="url(#clip0_145_1466)">
<path d="M54.7907 17.0555H39.1586V8.35248C39.1566 6.13852 38.2764 4.01574 36.7112 2.44988C35.1459 0.884023 33.0234 0.00296161 30.8093 0H18.4624C18.0876 0 17.7281 0.148891 17.4631 0.41392C17.198 0.678948 17.0491 1.0384 17.0491 1.41321V17.0741H8.34931C6.13618 17.0761 4.01422 17.9558 2.44895 19.5203C0.88369 21.0847 0.0029618 23.2062 0 25.4191V37.7689C0 38.1437 0.148903 38.5031 0.413949 38.7682C0.678994 39.0332 1.03847 39.1821 1.4133 39.1821H17.0491V47.8813C17.0521 50.0947 17.9327 52.2165 19.4979 53.7815C21.063 55.3466 23.185 56.2271 25.3984 56.2301H37.7453C38.1201 56.2301 38.4796 56.0812 38.7446 55.8162C39.0097 55.5511 39.1586 55.1917 39.1586 54.8169V39.1634H47.8584C50.0729 39.1605 52.1958 38.2795 53.7616 36.7138C55.3275 35.148 56.2085 33.0253 56.2114 30.811V18.4687C56.2114 18.2825 56.1747 18.0981 56.1032 17.9261C56.0317 17.7542 55.9269 17.5981 55.7949 17.4667C55.6628 17.3354 55.5062 17.2315 55.3338 17.1609C55.1615 17.0903 54.9769 17.0545 54.7907 17.0555ZM26.7446 36.337C26.2416 36.3351 25.7448 36.2266 25.2868 36.0186C24.8289 35.8106 24.4202 35.5079 24.0878 35.1304C23.7555 34.7529 23.507 34.3092 23.3587 33.8286C23.2104 33.348 23.1657 32.8414 23.2275 32.3423C23.2894 31.8431 23.4564 31.3628 23.7176 30.9329C23.9787 30.5031 24.328 30.1335 24.7425 29.8485C25.157 29.5636 25.6272 29.3697 26.1221 29.2798C26.6169 29.1899 27.1253 29.206 27.6135 29.3269C27.85 29.3866 28.098 29.3839 28.3331 29.319C28.5683 29.2542 28.7826 29.1294 28.9551 28.9569C29.1276 28.7844 29.2524 28.5701 29.3172 28.335C29.3821 28.0998 29.3848 27.8519 29.3251 27.6154C29.2017 27.1265 29.1837 26.6169 29.2722 26.1205C29.3607 25.6241 29.5538 25.1522 29.8386 24.7361C30.1234 24.3199 30.4934 23.9691 30.924 23.7068C31.3547 23.4445 31.8363 23.2768 32.3367 23.2147C32.8371 23.1527 33.345 23.1977 33.8267 23.3469C34.3085 23.496 34.7529 23.7459 35.1307 24.0799C35.5085 24.4138 35.811 24.8243 36.0181 25.2841C36.2252 25.7438 36.3322 26.2423 36.332 26.7466V36.337H26.7446ZM53.3848 30.8184C53.3839 32.2837 52.8013 33.6887 51.7651 34.7248C50.7289 35.761 49.3238 36.3435 47.8584 36.3445H39.1586V26.7503C39.1682 25.0816 38.5236 23.4755 37.363 22.2764C36.2024 21.0773 34.6181 20.3807 32.9499 20.3358C31.2816 20.2909 29.6622 20.9014 28.4388 22.0364C27.2154 23.1713 26.4854 24.7404 26.4053 26.4073C25.2506 26.4689 24.1343 26.8431 23.1758 27.49C22.2174 28.1369 21.4527 29.032 20.9637 30.0798C20.4746 31.1276 20.2795 32.2886 20.3992 33.4386C20.5189 34.5887 20.9489 35.6846 21.6433 36.6092C22.0075 37.0971 22.4409 37.5292 22.9298 37.8919C24.0297 38.7185 25.3687 39.1648 26.7446 39.1634H36.332V53.385H25.3984C23.934 53.384 22.5299 52.8019 21.4944 51.7665C20.4589 50.7311 19.8767 49.327 19.8757 47.8627V37.7502C19.8762 37.4219 19.7613 37.1039 19.5513 36.8516C19.5235 36.8163 19.4936 36.7827 19.4618 36.7509C19.3307 36.6195 19.1749 36.5153 19.0034 36.4443C18.8319 36.3733 18.6481 36.3368 18.4624 36.337H2.82661V25.4005C2.82858 23.9368 3.41119 22.5337 4.44657 21.4991C5.48196 20.4645 6.88554 19.8829 8.34931 19.8819H18.4624C18.648 19.8819 18.8318 19.8453 19.0033 19.7743C19.1748 19.7033 19.3306 19.5992 19.4618 19.468C19.593 19.3367 19.6971 19.1809 19.7682 19.0095C19.8392 18.838 19.8757 18.6543 19.8757 18.4687V2.82642H30.8093C32.2737 2.82938 33.6773 3.41266 34.7125 4.44846C35.7476 5.48426 36.33 6.88813 36.332 8.35248V18.4687C36.332 18.8435 36.4809 19.2029 36.7459 19.468C37.011 19.733 37.3704 19.8819 37.7453 19.8819H53.3848V30.8184Z" fill="url(#paint0_linear_145_1466)"/>
<path style="mix-blend-mode:overlay" d="M36.3315 39.1631H39.1582V41.7732L36.3315 50.7559V39.1631Z" fill="url(#paint1_linear_145_1466)"/>
<path style="mix-blend-mode:overlay" d="M36.3315 36.3371V35.2781L39.1582 29.4053V36.3371H36.3315Z" fill="url(#paint2_linear_145_1466)"/>
</g>
<path d="M70.5599 41.8818V16.3316H75.525L84.4042 36.2644H83.2445L92.1237 16.3316H97.0525V41.8818H91.9062V24.5221H93.3559L85.419 41.8818H82.1572L74.1841 24.5221H75.7062V41.8818H70.5599ZM111.185 42.2805C107.996 42.2805 105.507 41.4228 103.719 39.7073C101.931 37.9919 101.037 35.6604 101.037 32.7127C101.037 30.804 101.412 29.1369 102.161 27.7114C102.934 26.2859 103.997 25.1745 105.35 24.3772C106.727 23.5557 108.334 23.145 110.17 23.145C111.982 23.145 113.492 23.5315 114.7 24.3047C115.933 25.0778 116.851 26.1651 117.455 27.5664C118.083 28.9436 118.397 30.5503 118.397 32.3866V33.655H105.531V30.9369H114.41L113.794 31.4443C113.794 29.9221 113.48 28.7745 112.852 28.0013C112.248 27.204 111.366 26.8054 110.206 26.8054C108.926 26.8054 107.935 27.2765 107.235 28.2188C106.558 29.1611 106.22 30.5141 106.22 32.2778V32.8577C106.22 34.6456 106.655 35.9745 107.525 36.8443C108.419 37.7141 109.699 38.149 111.366 38.149C112.357 38.149 113.287 38.0282 114.157 37.7865C115.051 37.5208 115.896 37.11 116.694 36.5543L118.216 40.1785C117.298 40.855 116.235 41.3745 115.027 41.7369C113.843 42.0993 112.562 42.2805 111.185 42.2805ZM129.081 42.2805C127.487 42.2805 126.073 41.8939 124.841 41.1208C123.633 40.3476 122.679 39.2483 121.978 37.8228C121.301 36.3973 120.963 34.6819 120.963 32.6765C120.963 30.6953 121.301 28.9919 121.978 27.5664C122.654 26.1409 123.609 25.0537 124.841 24.3047C126.073 23.5315 127.487 23.145 129.081 23.145C130.531 23.145 131.824 23.4953 132.959 24.196C134.119 24.8725 134.892 25.7906 135.279 26.9503H134.807V15.2081H140.28V41.8818H134.88V38.2939H135.351C134.964 39.502 134.191 40.4684 133.032 41.1932C131.872 41.9181 130.555 42.2805 129.081 42.2805ZM130.712 38.149C131.968 38.149 132.983 37.702 133.756 36.808C134.53 35.9141 134.916 34.5369 134.916 32.6765C134.916 30.8161 134.53 29.451 133.756 28.5812C132.983 27.7114 131.968 27.2765 130.712 27.2765C129.456 27.2765 128.429 27.7114 127.632 28.5812C126.858 29.451 126.472 30.8161 126.472 32.6765C126.472 34.5369 126.858 35.9141 127.632 36.808C128.429 37.702 129.456 38.149 130.712 38.149ZM145.13 41.8818V16.3316H162.889V20.7168H150.53V26.6966H162.019V31.1181H150.53V37.4966H162.889V41.8818H145.13ZM179.474 42.2805C176.55 42.2805 174.086 41.749 172.081 40.6859C170.099 39.5986 168.601 38.0765 167.587 36.1194C166.572 34.1382 166.065 31.8309 166.065 29.1973C166.065 26.4913 166.608 24.1476 167.695 22.1664C168.807 20.1852 170.401 18.651 172.479 17.5638C174.557 16.4765 177.046 15.9329 179.945 15.9329C181.805 15.9329 183.436 16.1745 184.838 16.6577C186.263 17.1168 187.507 17.7812 188.571 18.651L186.758 23.0362C185.985 22.4805 185.261 22.0456 184.584 21.7315C183.907 21.3933 183.207 21.1638 182.482 21.043C181.757 20.898 180.924 20.8255 179.981 20.8255C177.324 20.8255 175.318 21.5503 173.965 23C172.636 24.4255 171.972 26.5033 171.972 29.2335C171.972 31.9396 172.6 33.9933 173.857 35.3946C175.113 36.7959 177.082 37.4966 179.764 37.4966C180.658 37.4966 181.576 37.412 182.518 37.2429C183.461 37.0738 184.391 36.8201 185.309 36.4818L184.294 38.6563V31.7704H178.677V27.7476H188.969V40.2872C187.689 40.9154 186.203 41.4107 184.512 41.7731C182.844 42.1114 181.165 42.2805 179.474 42.2805Z" fill="url(#paint3_linear_145_1466)"/>
<path d="M2.73012 82V63.5008H8.58164C10.6109 63.5008 12.3252 63.8594 13.7247 64.5766C15.1241 65.2764 16.1825 66.3172 16.8997 67.6992C17.6344 69.0637 18.0018 70.743 18.0018 72.7373C18.0018 74.7315 17.6344 76.4196 16.8997 77.8016C16.1825 79.1836 15.1241 80.2332 13.7247 80.9504C12.3252 81.6501 10.6109 82 8.58164 82H2.73012ZM4.357 80.5568H8.45044C11.0919 80.5568 13.0599 79.9095 14.3544 78.615C15.6489 77.303 16.2962 75.3438 16.2962 72.7373C16.2962 70.1133 15.6489 68.154 14.3544 66.8595C13.0599 65.565 11.0919 64.9178 8.45044 64.9178H4.357V80.5568ZM32.1776 72.7373C32.1776 70.778 32.5012 69.0987 33.1484 67.6992C33.8132 66.2822 34.7666 65.1977 36.0086 64.4454C37.2506 63.6757 38.7463 63.2909 40.4956 63.2909C42.21 63.2909 43.6882 63.6757 44.9302 64.4454C46.1897 65.1977 47.1518 66.2822 47.8166 67.6992C48.4988 69.0987 48.84 70.7693 48.84 72.711C48.84 74.6703 48.4988 76.3584 47.8166 77.7754C47.1344 79.1923 46.1635 80.2857 44.904 81.0554C43.6619 81.8251 42.1925 82.2099 40.4956 82.2099C38.7638 82.2099 37.2769 81.8251 36.0348 81.0554C34.7928 80.2857 33.8394 79.1923 33.1747 77.7754C32.5099 76.3584 32.1776 74.679 32.1776 72.7373ZM33.9094 72.7373C33.9094 75.2563 34.4692 77.2243 35.5888 78.6413C36.7083 80.0407 38.344 80.7405 40.4956 80.7405C42.5773 80.7405 44.2042 80.0407 45.3763 78.6413C46.5483 77.2243 47.1344 75.2563 47.1344 72.7373C47.1344 70.2007 46.5483 68.2415 45.3763 66.8595C44.2217 65.4601 42.5948 64.7603 40.4956 64.7603C38.344 64.7603 36.7083 65.4601 35.5888 66.8595C34.4692 68.2415 33.9094 70.2007 33.9094 72.7373ZM71.5283 82.2099C69.709 82.2099 68.1609 81.8338 66.8838 81.0816C65.6243 80.3119 64.6622 79.2186 63.9974 77.8016C63.3327 76.3846 63.0003 74.6965 63.0003 72.7373C63.0003 70.778 63.3327 69.0987 63.9974 67.6992C64.6622 66.2822 65.6243 65.1977 66.8838 64.4454C68.1609 63.6757 69.709 63.2909 71.5283 63.2909C72.8578 63.2909 74.0386 63.5008 75.0707 63.9206C76.1028 64.323 77.0037 64.9265 77.7734 65.7312L77.0912 67.0432C76.234 66.256 75.3769 65.6875 74.5197 65.3376C73.6625 64.9702 72.6654 64.7866 71.5283 64.7866C69.3067 64.7866 67.6186 65.4863 66.464 66.8858C65.3094 68.2677 64.7322 70.2182 64.7322 72.7373C64.7322 75.2563 65.3094 77.2156 66.464 78.615C67.6186 80.0145 69.3067 80.7142 71.5283 80.7142C72.6654 80.7142 73.6625 80.5393 74.5197 80.1894C75.3769 79.8221 76.234 79.2448 77.0912 78.4576L77.7734 79.7696C77.0037 80.5743 76.0941 81.1866 75.0445 81.6064C74.0124 82.0087 72.8403 82.2099 71.5283 82.2099ZM96.7142 82V64.9178H89.9968V63.5008H105.032V64.9178H98.3411V82H96.7142ZM116.677 72.7373C116.677 70.778 117 69.0987 117.647 67.6992C118.312 66.2822 119.266 65.1977 120.508 64.4454C121.75 63.6757 123.245 63.2909 124.995 63.2909C126.709 63.2909 128.187 63.6757 129.429 64.4454C130.689 65.1977 131.651 66.2822 132.316 67.6992C132.998 69.0987 133.339 70.7693 133.339 72.711C133.339 74.6703 132.998 76.3584 132.316 77.7754C131.633 79.1923 130.662 80.2857 129.403 81.0554C128.161 81.8251 126.691 82.2099 124.995 82.2099C123.263 82.2099 121.776 81.8251 120.534 81.0554C119.292 80.2857 118.338 79.1923 117.674 77.7754C117.009 76.3584 116.677 74.679 116.677 72.7373ZM118.408 72.7373C118.408 75.2563 118.968 77.2243 120.088 78.6413C121.207 80.0407 122.843 80.7405 124.995 80.7405C127.076 80.7405 128.703 80.0407 129.875 78.6413C131.047 77.2243 131.633 75.2563 131.633 72.7373C131.633 70.2007 131.047 68.2415 129.875 66.8595C128.721 65.4601 127.094 64.7603 124.995 64.7603C122.843 64.7603 121.207 65.4601 120.088 66.8595C118.968 68.2415 118.408 70.2007 118.408 72.7373ZM148.234 82V63.5008H155.529C157.435 63.5008 158.914 63.9469 159.963 64.839C161.013 65.7312 161.538 66.9907 161.538 68.6176C161.538 69.6672 161.302 70.5681 160.829 71.3203C160.357 72.055 159.701 72.6236 158.861 73.0259C158.022 73.4108 157.051 73.6032 155.949 73.6032L156.447 73.3146H156.814C157.532 73.3146 158.17 73.4895 158.73 73.8394C159.29 74.1717 159.736 74.749 160.068 75.5712L162.64 82H160.855L158.441 75.8598C158.109 74.9677 157.628 74.3991 156.998 74.1542C156.368 73.8918 155.564 73.7606 154.584 73.7606H149.861V82H148.234ZM149.861 72.3962H155.319C156.806 72.3962 157.934 72.0725 158.704 71.4253C159.491 70.778 159.885 69.8509 159.885 68.6438C159.885 67.4193 159.491 66.4922 158.704 65.8624C157.934 65.2151 156.806 64.8915 155.319 64.8915H149.861V72.3962ZM182.91 82.2099C181.423 82.2099 180.111 82.0175 178.974 81.6326C177.836 81.2478 176.822 80.688 175.93 79.9533L176.612 78.615C177.242 79.1049 177.854 79.5072 178.449 79.8221C179.061 80.137 179.726 80.3731 180.443 80.5306C181.16 80.6705 181.974 80.7405 182.883 80.7405C184.51 80.7405 185.735 80.4256 186.557 79.7958C187.379 79.1486 187.79 78.3002 187.79 77.2506C187.79 76.3409 187.502 75.6499 186.924 75.1776C186.364 74.6878 185.376 74.3029 183.959 74.023L181.283 73.472C179.586 73.1221 178.318 72.5623 177.478 71.7926C176.656 71.0229 176.245 69.9733 176.245 68.6438C176.245 67.5593 176.524 66.6146 177.084 65.8099C177.644 65.0052 178.423 64.3842 179.42 63.9469C180.417 63.5095 181.571 63.2909 182.883 63.2909C184.195 63.2909 185.385 63.4921 186.452 63.8944C187.537 64.2793 188.464 64.8565 189.233 65.6262L188.577 66.9382C187.755 66.1685 186.889 65.6175 185.98 65.2851C185.07 64.9353 184.038 64.7603 182.883 64.7603C181.361 64.7603 180.154 65.1102 179.262 65.8099C178.37 66.4922 177.924 67.4193 177.924 68.5914C177.924 69.536 178.204 70.2707 178.764 70.7955C179.341 71.3203 180.268 71.7139 181.545 71.9763L184.248 72.5274C186.05 72.8947 187.37 73.437 188.21 74.1542C189.05 74.854 189.47 75.8598 189.47 77.1718C189.47 78.169 189.198 79.0524 188.656 79.8221C188.131 80.5743 187.379 81.1603 186.399 81.5802C185.42 82 184.257 82.2099 182.91 82.2099Z" fill="url(#paint4_linear_145_1466)"/>
<defs>
<linearGradient id="paint0_linear_145_1466" x1="44.4725" y1="8.16604" x2="11.7379" y2="48.0513" gradientUnits="userSpaceOnUse">
<stop stop-color="#6156C0"/>
<stop offset="1" stop-color="#71C8CB"/>
</linearGradient>
<linearGradient id="paint1_linear_145_1466" x1="37.6442" y1="38.7939" x2="37.7821" y2="47.1539" gradientUnits="userSpaceOnUse">
<stop/>
<stop offset="1" stop-opacity="0"/>
</linearGradient>
<linearGradient id="paint2_linear_145_1466" x1="37.8642" y1="38.3954" x2="37.7262" y2="32.0378" gradientUnits="userSpaceOnUse">
<stop/>
<stop offset="1" stop-opacity="0"/>
</linearGradient>
<linearGradient id="paint3_linear_145_1466" x1="201.342" y1="27.8818" x2="46.9007" y2="27.8818" gradientUnits="userSpaceOnUse">
<stop stop-color="#6FB7C9"/>
<stop offset="1" stop-color="#3D5BAD"/>
</linearGradient>
<linearGradient id="paint4_linear_145_1466" x1="206.056" y1="72" x2="-31.8333" y2="72" gradientUnits="userSpaceOnUse">
<stop stop-color="#6FB7C9"/>
<stop offset="1" stop-color="#3D5BAD"/>
</linearGradient>
<clipPath id="clip0_145_1466">
<rect width="56.2114" height="56.2114" fill="white"/>
</clipPath>
</defs>
</svg>
