<svg xmlns="http://www.w3.org/2000/svg" width="37" height="37" fill="none" viewBox="0 0 37 37">
  <path fill="#407CE2" fill-rule="evenodd" d="M25.296 3.844a7.79 7.79 0 0 1 5.743 2.032 7.872 7.872 0 0 1 2.046 5.757v13.65a7.86 7.86 0 0 1-2.032 5.757 7.82 7.82 0 0 1-5.757 2.031h-13.65A7.8 7.8 0 0 1 5.89 31.04a7.8 7.8 0 0 1-2.031-5.758V11.633A7.8 7.8 0 0 1 5.89 5.876a7.8 7.8 0 0 1 5.758-2.032h13.649ZM16.98 25.545l9.835-9.864c.892-.906.892-2.367 0-3.258l-1.9-1.9a2.31 2.31 0 0 0-3.273 0l-.979.993a.388.388 0 0 0 0 .541s2.324 2.309 2.367 2.367a.99.99 0 0 1 .264.673.964.964 0 0 1-.965.964.918.918 0 0 1-.643-.263l-2.44-2.426a.318.318 0 0 0-.439 0l-6.97 6.97a2.632 2.632 0 0 0-.775 1.813l-.088 3.463c0 .19.059.366.19.497a.696.696 0 0 0 .497.205h3.434c.702 0 1.374-.278 1.885-.775Z" clip-rule="evenodd"/>
</svg>
