<svg xmlns="http://www.w3.org/2000/svg" width="96" height="96" fill="none" viewBox="0 0 96 96">
  <path stroke="url(#a)" stroke-linecap="round" stroke-linejoin="round" stroke-width="7" d="M90.328 51.2H5.8"/>
  <path stroke="url(#b)" stroke-linecap="round" stroke-linejoin="round" stroke-width="7" d="M11.984 34.88c2.28-13.92 9.16-20.8 23.08-23.08"/>
  <path stroke="url(#c)" stroke-linecap="round" stroke-linejoin="round" stroke-width="7" d="M35.064 83.96c-13.92-2.32-20.8-9.16-23.08-23.08l-.004.016c-.484-2.88-.76-6.12-.84-9.68"/>
  <path stroke="url(#d)" stroke-linecap="round" stroke-linejoin="round" stroke-width="7" d="M84.978 51.216c-.08 3.56-.36 6.8-.84 9.68l.008-.016c-2.284 13.92-9.164 20.76-23.084 23.08"/>
  <path stroke="url(#e)" stroke-linecap="round" stroke-linejoin="round" stroke-width="7" d="M61.064 11.8c13.92 2.28 20.8 9.16 23.08 23.08"/>
  <defs>
    <linearGradient id="a" x1="96.991" x2="-8.288" y1="51.2" y2="51.2" gradientUnits="userSpaceOnUse">
      <stop stop-color="#6FB7C9"/>
      <stop offset="1" stop-color="#3D5BAD"/>
    </linearGradient>
    <linearGradient id="b" x1="36.884" x2="8.138" y1="23.34" y2="23.34" gradientUnits="userSpaceOnUse">
      <stop stop-color="#6FB7C9"/>
      <stop offset="1" stop-color="#3D5BAD"/>
    </linearGradient>
    <linearGradient id="c" x1="36.95" x2="7.153" y1="67.588" y2="67.588" gradientUnits="userSpaceOnUse">
      <stop stop-color="#6FB7C9"/>
      <stop offset="1" stop-color="#3D5BAD"/>
    </linearGradient>
    <linearGradient id="d" x1="86.864" x2="57.076" y1="67.588" y2="67.588" gradientUnits="userSpaceOnUse">
      <stop stop-color="#6FB7C9"/>
      <stop offset="1" stop-color="#3D5BAD"/>
    </linearGradient>
    <linearGradient id="e" x1="85.964" x2="57.218" y1="23.34" y2="23.34" gradientUnits="userSpaceOnUse">
      <stop stop-color="#6FB7C9"/>
      <stop offset="1" stop-color="#3D5BAD"/>
    </linearGradient>
  </defs>
</svg>
