<svg width="232" height="156" viewBox="0 0 232 156" fill="none" xmlns="http://www.w3.org/2000/svg">
<g clip-path="url(#clip0_17_126)">
<path d="M167.27 32.769H137.236V16.0478C137.232 11.794 135.541 7.71551 132.534 4.707C129.526 1.69849 125.448 0.00569019 121.194 0H97.4722C96.752 0 96.0614 0.286068 95.5521 0.795271C95.0429 1.30447 94.7568 1.9951 94.7568 2.71522V32.8048H78.0417C73.7896 32.8086 69.7126 34.4988 66.7052 37.5046C63.6978 40.5104 62.0057 44.5864 62 48.8382V72.566C62 73.2861 62.2861 73.9767 62.7953 74.4859C63.3046 74.9951 63.9952 75.2812 64.7154 75.2812H94.7568V91.9952C94.7625 96.2477 96.4544 100.324 99.4616 103.331C102.469 106.338 106.546 108.03 110.798 108.036H134.521C135.241 108.036 135.931 107.75 136.441 107.241C136.95 106.731 137.236 106.041 137.236 105.321V75.2454H153.951C158.206 75.2397 162.285 73.5471 165.293 70.5388C168.302 67.5305 169.994 63.452 170 59.1976V35.4842C170 35.1264 169.929 34.7722 169.792 34.4418C169.655 34.1114 169.453 33.8115 169.2 33.5591C168.946 33.3068 168.645 33.1071 168.314 32.9715C167.983 32.8359 167.628 32.7671 167.27 32.769ZM113.385 69.8149C112.419 69.8113 111.464 69.6028 110.584 69.2031C109.704 68.8035 108.919 68.2219 108.28 67.4966C107.642 66.7712 107.164 65.9188 106.879 64.9954C106.594 64.072 106.509 63.0987 106.627 62.1397C106.746 61.1807 107.067 60.2578 107.569 59.4319C108.071 58.606 108.742 57.8959 109.538 57.3485C110.335 56.801 111.238 56.4286 112.189 56.2558C113.14 56.0831 114.116 56.1139 115.054 56.3463C115.509 56.4609 115.985 56.4557 116.437 56.3311C116.889 56.2065 117.301 55.9668 117.632 55.6354C117.963 55.304 118.203 54.8923 118.328 54.4405C118.452 53.9887 118.458 53.5123 118.343 53.0579C118.106 52.1186 118.071 51.1395 118.241 50.1858C118.411 49.232 118.782 48.3253 119.329 47.5258C119.877 46.7263 120.587 46.0522 121.415 45.5483C122.242 45.0444 123.168 44.7221 124.129 44.6029C125.091 44.4837 126.066 44.5702 126.992 44.8568C127.917 45.1433 128.771 45.6234 129.497 46.265C130.223 46.9067 130.804 47.6954 131.202 48.5787C131.6 49.462 131.806 50.4199 131.805 51.3887V69.8149H113.385ZM164.569 59.2119C164.567 62.0272 163.448 64.7267 161.457 66.7174C159.466 68.7081 156.767 69.8274 153.951 69.8293H137.236V51.3958C137.255 48.1897 136.016 45.1039 133.786 42.8001C131.556 40.4962 128.512 39.1577 125.307 39.0715C122.102 38.9853 118.99 40.1582 116.64 42.3389C114.289 44.5195 112.887 47.5342 112.733 50.7367C110.514 50.8551 108.37 51.5741 106.528 52.817C104.687 54.0598 103.217 55.7798 102.278 57.7929C101.338 59.806 100.963 62.0366 101.193 64.2462C101.423 66.4558 102.25 68.5615 103.584 70.3379C104.283 71.2752 105.116 72.1054 106.055 72.8024C108.169 74.3905 110.741 75.248 113.385 75.2454H131.805V102.57H110.798C107.985 102.568 105.287 101.449 103.298 99.4598C101.308 97.4704 100.19 94.7728 100.188 91.9594V72.5301C100.188 71.8994 99.9678 71.2884 99.5643 70.8036C99.5108 70.7358 99.4534 70.6712 99.3923 70.6102C99.1404 70.3577 98.8411 70.1575 98.5116 70.021C98.1821 69.8846 97.8289 69.8145 97.4722 69.8149H67.4308V48.8024C67.4346 45.9902 68.554 43.2944 70.5433 41.3066C72.5326 39.3188 75.2293 38.2013 78.0417 38.1994H97.4722C97.8288 38.1994 98.1819 38.1292 98.5113 37.9927C98.8408 37.8563 99.1401 37.6563 99.3923 37.4041C99.6444 37.152 99.8444 36.8527 99.9809 36.5233C100.117 36.1938 100.188 35.8407 100.188 35.4842V5.43045H121.194C124.008 5.43613 126.705 6.55679 128.694 8.5469C130.683 10.537 131.801 13.2343 131.805 16.0478V35.4842C131.805 36.2043 132.091 36.8949 132.601 37.4041C133.11 37.9133 133.8 38.1994 134.521 38.1994H164.569V59.2119Z" fill="url(#paint0_linear_17_126)"/>
<path style="mix-blend-mode:overlay" d="M131.805 75.2451H137.235V80.26L131.805 97.5185V75.2451Z" fill="url(#paint1_linear_17_126)"/>
<path style="mix-blend-mode:overlay" d="M131.805 69.8148V67.7802L137.235 56.4966V69.8148H131.805Z" fill="url(#paint2_linear_17_126)"/>
</g>
<path d="M50.8731 152V123.8H56.3531L66.1531 145.8H64.8731L74.6731 123.8H80.1131V152H74.4331V132.84H76.0331L67.2731 152H63.6731L54.8731 132.84H56.5531V152H50.8731ZM95.7113 152.44C92.1913 152.44 89.4446 151.493 87.4713 149.6C85.4979 147.707 84.5113 145.133 84.5113 141.88C84.5113 139.773 84.9246 137.933 85.7513 136.36C86.6046 134.787 87.7779 133.56 89.2713 132.68C90.7913 131.773 92.5646 131.32 94.5913 131.32C96.5913 131.32 98.2579 131.747 99.5913 132.6C100.951 133.453 101.965 134.653 102.631 136.2C103.325 137.72 103.671 139.493 103.671 141.52V142.92H89.4713V139.92H99.2713L98.5913 140.48C98.5913 138.8 98.2446 137.533 97.5513 136.68C96.8846 135.8 95.9113 135.36 94.6313 135.36C93.2179 135.36 92.1246 135.88 91.3513 136.92C90.6046 137.96 90.2313 139.453 90.2313 141.4V142.04C90.2313 144.013 90.7113 145.48 91.6713 146.44C92.6579 147.4 94.0713 147.88 95.9113 147.88C97.0046 147.88 98.0313 147.747 98.9913 147.48C99.9779 147.187 100.911 146.733 101.791 146.12L103.471 150.12C102.458 150.867 101.285 151.44 99.9513 151.84C98.6446 152.24 97.2313 152.44 95.7113 152.44ZM115.463 152.44C113.703 152.44 112.143 152.013 110.783 151.16C109.45 150.307 108.397 149.093 107.623 147.52C106.877 145.947 106.503 144.053 106.503 141.84C106.503 139.653 106.877 137.773 107.623 136.2C108.37 134.627 109.423 133.427 110.783 132.6C112.143 131.747 113.703 131.32 115.463 131.32C117.063 131.32 118.49 131.707 119.743 132.48C121.023 133.227 121.877 134.24 122.303 135.52H121.783V122.56H127.823V152H121.863V148.04H122.383C121.957 149.373 121.103 150.44 119.823 151.24C118.543 152.04 117.09 152.44 115.463 152.44ZM117.263 147.88C118.65 147.88 119.77 147.387 120.623 146.4C121.477 145.413 121.903 143.893 121.903 141.84C121.903 139.787 121.477 138.28 120.623 137.32C119.77 136.36 118.65 135.88 117.263 135.88C115.877 135.88 114.743 136.36 113.863 137.32C113.01 138.28 112.583 139.787 112.583 141.84C112.583 143.893 113.01 145.413 113.863 146.4C114.743 147.387 115.877 147.88 117.263 147.88ZM133.177 152V123.8H152.777V128.64H139.137V135.24H151.817V140.12H139.137V147.16H152.777V152H133.177ZM171.082 152.44C167.856 152.44 165.136 151.853 162.922 150.68C160.736 149.48 159.082 147.8 157.962 145.64C156.842 143.453 156.282 140.907 156.282 138C156.282 135.013 156.882 132.427 158.082 130.24C159.309 128.053 161.069 126.36 163.362 125.16C165.656 123.96 168.402 123.36 171.602 123.36C173.656 123.36 175.456 123.627 177.002 124.16C178.576 124.667 179.949 125.4 181.122 126.36L179.122 131.2C178.269 130.587 177.469 130.107 176.722 129.76C175.976 129.387 175.202 129.133 174.402 129C173.602 128.84 172.682 128.76 171.642 128.76C168.709 128.76 166.496 129.56 165.002 131.16C163.536 132.733 162.802 135.027 162.802 138.04C162.802 141.027 163.496 143.293 164.882 144.84C166.269 146.387 168.442 147.16 171.402 147.16C172.389 147.16 173.402 147.067 174.442 146.88C175.482 146.693 176.509 146.413 177.522 146.04L176.402 148.44V140.84H170.202V136.4H181.562V150.24C180.149 150.933 178.509 151.48 176.642 151.88C174.802 152.253 172.949 152.44 171.082 152.44Z" fill="url(#paint3_linear_17_126)"/>
<defs>
<linearGradient id="paint0_linear_17_126" x1="147.446" y1="15.6896" x2="84.5522" y2="92.3217" gradientUnits="userSpaceOnUse">
<stop stop-color="#6156C0"/>
<stop offset="1" stop-color="#71C8CB"/>
</linearGradient>
<linearGradient id="paint1_linear_17_126" x1="134.327" y1="74.5359" x2="134.592" y2="90.5979" gradientUnits="userSpaceOnUse">
<stop/>
<stop offset="1" stop-opacity="0"/>
</linearGradient>
<linearGradient id="paint2_linear_17_126" x1="134.749" y1="73.7694" x2="134.484" y2="61.5545" gradientUnits="userSpaceOnUse">
<stop/>
<stop offset="1" stop-opacity="0"/>
</linearGradient>
<linearGradient id="paint3_linear_17_126" x1="250.288" y1="141" x2="-38.6667" y2="141" gradientUnits="userSpaceOnUse">
<stop stop-color="#6FB7C9"/>
<stop offset="1" stop-color="#3D5BAD"/>
</linearGradient>
<clipPath id="clip0_17_126">
<rect width="108" height="108" fill="white" transform="translate(62)"/>
</clipPath>
</defs>
</svg>
