<svg xmlns="http://www.w3.org/2000/svg" width="100" height="280" fill="none" viewBox="0 0 100 280">
  <path fill="#79C8EF" d="M40.346 17.597c.309-1.454-.5-2.911-1.806-3.255-1.306-.343-2.615.558-2.923 2.012-.308 1.454.5 2.912 1.806 3.255 1.306.343 2.615-.558 2.923-2.012ZM5.29 17.52c.308-1.454-.5-2.911-1.807-3.254-1.306-.344-2.615.557-2.923 2.011-.308 1.455.5 2.912 1.807 3.255 1.306.343 2.615-.557 2.923-2.012Zm9.386 2.087c1.342 0 2.43-1.211 2.43-2.705 0-1.495-1.088-2.706-2.43-2.706s-2.43 1.212-2.43 2.706 1.088 2.705 2.43 2.705Zm37.411-2.009c.308-1.454-.5-2.912-1.807-3.255-1.306-.343-2.615.558-2.923 2.012-.308 1.454.5 2.911 1.807 3.255 1.306.343 2.614-.558 2.923-2.012ZM5.288 4.444c.308-1.455-.5-2.912-1.807-3.255C2.175.846.866 1.746.558 3.201c-.308 1.454.5 2.911 1.807 3.254C3.67 6.8 4.98 5.898 5.288 4.444Zm9.388 2.087c1.342 0 2.43-1.21 2.43-2.705 0-1.494-1.088-2.706-2.43-2.706s-2.43 1.212-2.43 2.706 1.088 2.705 2.43 2.705Zm49.153 11.065c.308-1.454-.5-2.912-1.807-3.255-1.306-.343-2.615.558-2.923 2.012-.308 1.454.5 2.911 1.807 3.255 1.306.343 2.615-.558 2.923-2.012Zm-35.692 1.218c.949-1.057.949-2.77 0-3.826-.95-1.057-2.488-1.057-3.436 0-.95 1.056-.95 2.77 0 3.826.948 1.056 2.487 1.056 3.436 0ZM28.135 5.74c.949-1.057.949-2.77 0-3.827s-2.488-1.057-3.436 0c-.95 1.057-.95 2.77 0 3.826.948 1.057 2.487 1.057 3.436 0Zm12.209-1.216c.309-1.455-.5-2.912-1.806-3.255-1.306-.343-2.615.557-2.923 2.012-.309 1.454.5 2.911 1.806 3.254 1.307.344 2.615-.557 2.923-2.011Zm11.741 0c.308-1.454-.5-2.912-1.807-3.255-1.306-.343-2.615.558-2.923 2.012-.308 1.454.5 2.911 1.807 3.255 1.306.343 2.614-.558 2.923-2.012Zm11.742-.002c.308-1.454-.5-2.911-1.807-3.255-1.306-.343-2.614.558-2.923 2.012-.308 1.454.5 2.912 1.807 3.255 1.306.343 2.615-.558 2.923-2.012ZM5.292 263.91c.308-1.454-.5-2.911-1.807-3.254-1.306-.344-2.615.557-2.923 2.011-.308 1.455.5 2.912 1.807 3.255 1.306.343 2.614-.557 2.923-2.012Zm0-13.075c.308-1.455-.5-2.912-1.807-3.255-1.306-.343-2.615.557-2.923 2.012-.308 1.454.5 2.911 1.807 3.254 1.306.343 2.614-.557 2.923-2.011Zm68.854 28.118c1.24-.572 1.828-2.154 1.315-3.535-.514-1.38-1.935-2.036-3.175-1.464-1.24.572-1.829 2.154-1.315 3.535.513 1.38 1.935 2.036 3.175 1.464Zm-59.47-12.945c1.342 0 2.43-1.211 2.43-2.705 0-1.495-1.088-2.706-2.43-2.706s-2.43 1.211-2.43 2.706c0 1.494 1.088 2.705 2.43 2.705Zm14.098-2.099c.308-1.454-.5-2.912-1.806-3.255-1.307-.343-2.615.558-2.924 2.012-.308 1.454.501 2.911 1.807 3.255 1.306.343 2.615-.558 2.923-2.012Zm-11.691-13.234c.215-1.475-.685-2.865-2.01-3.104-1.324-.24-2.572.762-2.787 2.237-.215 1.475.684 2.865 2.009 3.104 1.325.239 2.573-.762 2.788-2.237Zm70.23 26.385c.308-1.454-.5-2.911-1.806-3.254-1.306-.344-2.615.557-2.924 2.011-.308 1.455.501 2.912 1.807 3.255 1.306.343 2.615-.558 2.923-2.012Zm-58.539-26.224c.308-1.455-.5-2.912-1.806-3.255-1.307-.343-2.615.557-2.924 2.012-.308 1.454.501 2.911 1.807 3.254 1.306.344 2.615-.557 2.923-2.011Zm70.279 26.225c.309-1.454-.5-2.912-1.806-3.255-1.306-.343-2.615.558-2.923 2.012-.308 1.454.5 2.911 1.806 3.255 1.306.343 2.615-.558 2.924-2.012Zm-96.121 2.11c1.342 0 2.43-1.212 2.43-2.706s-1.088-2.705-2.43-2.705-2.43 1.211-2.43 2.705 1.088 2.706 2.43 2.706Zm11.744 0c1.342 0 2.43-1.212 2.43-2.706s-1.088-2.705-2.43-2.705-2.43 1.211-2.43 2.705 1.088 2.706 2.43 2.706Zm14.149-2.26c.215-1.475-.685-2.865-2.01-3.104-1.324-.239-2.572.762-2.787 2.237-.215 1.475.684 2.865 2.01 3.104 1.324.24 2.572-.762 2.787-2.237Zm11.742.001c.215-1.475-.684-2.865-2.01-3.104-1.324-.239-2.572.762-2.787 2.237-.215 1.475.685 2.865 2.01 3.104 1.324.24 2.572-.762 2.787-2.237Zm11.743.001c.214-1.475-.685-2.864-2.01-3.104-1.325-.239-2.573.762-2.788 2.237-.215 1.475.685 2.865 2.01 3.104 1.324.24 2.572-.762 2.787-2.237Zm10.263 2.052c1.24-.572 1.829-2.155 1.315-3.535-.513-1.381-1.935-2.036-3.174-1.465-1.24.572-1.829 2.155-1.315 3.535.513 1.381 1.934 2.036 3.174 1.465ZM9.564 55.883v6.794h5.509v6.133h6.101v-6.133h5.506v-6.794h-5.506v-6.13h-6.101v6.13H9.564Z"/>
  <path fill="#1C244A" d="M14.661 68.81v-5.68H9.56a.388.388 0 0 1-.289-.133.482.482 0 0 1-.12-.322v-6.79a.48.48 0 0 1 .12-.322.388.388 0 0 1 .289-.133h5.102v-5.682a.48.48 0 0 1 .12-.321.388.388 0 0 1 .288-.133h6.097c.108 0 .212.047.288.133.077.085.12.2.12.321v5.682h5.103c.108 0 .212.048.288.133.077.085.12.2.12.321v6.794a.48.48 0 0 1-.12.321.388.388 0 0 1-.288.134h-5.103v5.681a.481.481 0 0 1-.122.316.388.388 0 0 1-.286.13H15.07a.388.388 0 0 1-.287-.13.481.481 0 0 1-.12-.319Zm6.101-6.133a.482.482 0 0 1 .12-.318.389.389 0 0 1 .284-.134h5.102v-5.887h-5.102a.388.388 0 0 1-.289-.133.482.482 0 0 1-.12-.322v-5.681H15.48v5.681a.481.481 0 0 1-.121.322.39.39 0 0 1-.29.133H9.967v5.887h5.102a.39.39 0 0 1 .29.133c.077.085.12.2.121.322v5.681h5.282v-5.684Z"/>
</svg>
