<svg width="232" height="67" viewBox="0 0 232 67" fill="none" xmlns="http://www.w3.org/2000/svg">
<path d="M223.309 66.9927H8.5888C3.86711 66.9927 0 63.2222 0 58.6186V8.37412C0 3.77047 3.86711 4.00543e-05 8.5888 4.00543e-05H223.309C228.03 4.00543e-05 231.898 3.77047 231.898 8.37412V58.6186C231.898 63.2222 228.03 66.9927 223.309 66.9927Z" fill="white"/>
<path d="M223.309 1.34198C227.285 1.34198 230.521 4.49692 230.521 8.37412V58.6186C230.521 62.4958 227.285 65.6507 223.309 65.6507H8.5888C4.61219 65.6507 1.37635 62.4958 1.37635 58.6186V8.37412C1.37635 4.49692 4.61219 1.34198 8.5888 1.34198H223.309ZM223.309 4.00543e-05H8.5888C3.86711 4.00543e-05 0 3.77047 0 8.37412V58.6186C0 63.2222 3.86711 66.9927 8.5888 66.9927H223.309C228.03 66.9927 231.898 63.2222 231.898 58.6186V8.37412C231.898 3.77047 228.03 4.00543e-05 223.309 4.00543e-05Z" fill="#A6A6A6"/>
<path d="M17.9255 12.6258C17.4209 13.1408 17.1289 13.9426 17.1289 14.981V52.0195C17.1289 53.0579 17.4209 53.8597 17.9255 54.3747L18.0501 54.4878L39.3374 33.741V33.2511L18.0501 12.5043L17.9255 12.6258Z" fill="url(#paint0_linear_99_1319)"/>
<path d="M46.4258 40.6602L39.3379 33.7411V33.2512L46.4344 26.3321L46.5933 26.4221L54.9974 31.0844C57.3958 32.4075 57.3958 34.5848 54.9974 35.9162L46.5933 40.5701L46.4258 40.6602Z" fill="url(#paint1_linear_99_1319)"/>
<path d="M46.593 40.5701L39.3377 33.4961L17.9258 54.3748C18.7224 55.1913 20.0214 55.2897 21.4987 54.4732L46.593 40.5701Z" fill="url(#paint2_linear_99_1319)"/>
<path d="M46.593 26.4221L21.4987 12.519C20.0214 11.7109 18.7224 11.8093 17.9258 12.6258L39.3377 33.4961L46.593 26.4221Z" fill="url(#paint3_linear_99_1319)"/>
<path d="M81.4514 17.1563C81.4514 18.5548 81.022 19.6748 80.176 20.5102C79.2033 21.5004 77.9364 21.9987 76.384 21.9987C74.9003 21.9987 73.6335 21.492 72.5942 20.4934C71.5528 19.4801 71.0332 18.2366 71.0332 16.7481C71.0332 15.2596 71.5528 14.0161 72.5942 13.0112C73.6335 12.0042 74.9003 11.4976 76.384 11.4976C77.1227 11.4976 77.8269 11.6462 78.499 11.9225C79.1689 12.201 79.7143 12.5778 80.1094 13.0426L79.2119 13.926C78.5226 13.1326 77.5843 12.7411 76.384 12.7411C75.3018 12.7411 74.3635 13.1096 73.5669 13.8528C72.7789 14.5981 72.3838 15.5632 72.3838 16.7481C72.3838 17.933 72.7789 18.9065 73.5669 19.6518C74.3635 20.3866 75.3018 20.7635 76.384 20.7635C77.5328 20.7635 78.499 20.3866 79.2613 19.6434C79.7637 19.1515 80.0493 18.4732 80.1244 17.6064H76.384V16.3964H81.3741C81.4342 16.6581 81.4514 16.9114 81.4514 17.1563Z" fill="black" stroke="black" strokeWidth="0.16" stroke-miterlimit="10"/>
<path d="M89.3678 12.9606H84.6805V16.1428H88.9062V17.3528H84.6805V20.535H89.3678V21.7681H83.3535V11.7275H89.3678V12.9606Z" fill="black" stroke="black" strokeWidth="0.16" stroke-miterlimit="10"/>
<path d="M94.956 21.7681H93.629V12.9606H90.7539V11.7275H97.8332V12.9606H94.956V21.7681Z" fill="black" stroke="black" strokeWidth="0.16" stroke-miterlimit="10"/>
<path d="M102.955 21.7681V11.7275H104.28V21.7681H102.955Z" fill="black" stroke="black" strokeWidth="0.16" stroke-miterlimit="10"/>
<path d="M110.153 21.7681H108.837V12.9606H105.951V11.7275H113.039V12.9606H110.153V21.7681Z" fill="black" stroke="black" strokeWidth="0.16" stroke-miterlimit="10"/>
<path d="M126.441 20.4767C125.426 21.492 124.168 21.9987 122.667 21.9987C121.157 21.9987 119.899 21.492 118.883 20.4767C117.87 19.4634 117.365 18.2199 117.365 16.7481C117.365 15.2764 117.87 14.0328 118.883 13.0195C119.899 12.0042 121.157 11.4976 122.667 11.4976C124.159 11.4976 125.417 12.0042 126.433 13.0279C127.455 14.0496 127.96 15.2847 127.96 16.7481C127.96 18.2199 127.455 19.4634 126.441 20.4767ZM119.865 19.6351C120.629 20.3866 121.559 20.7635 122.667 20.7635C123.766 20.7635 124.704 20.3866 125.46 19.6351C126.222 18.8835 126.609 17.9184 126.609 16.7481C126.609 15.5778 126.222 14.6127 125.46 13.8611C124.704 13.1096 123.766 12.7327 122.667 12.7327C121.559 12.7327 120.629 13.1096 119.865 13.8611C119.102 14.6127 118.716 15.5778 118.716 16.7481C118.716 17.9184 119.102 18.8835 119.865 19.6351Z" fill="black" stroke="black" strokeWidth="0.16" stroke-miterlimit="10"/>
<path d="M129.822 21.7681V11.7275H131.433L136.44 19.5364H136.498L136.44 17.6061V11.7275H137.765V21.7681H136.382L131.138 13.574H131.081L131.138 15.5126V21.7681H129.822Z" fill="black" stroke="black" strokeWidth="0.16" stroke-miterlimit="10"/>
<path d="M117.039 36.4316C113.004 36.4316 109.708 39.4254 109.708 43.5559C109.708 47.6529 113.004 50.678 117.039 50.678C121.082 50.678 124.378 47.6529 124.378 43.5559C124.378 39.4254 121.082 36.4316 117.039 36.4316ZM117.039 47.8727C114.825 47.8727 112.92 46.0911 112.92 43.5559C112.92 40.9871 114.825 39.2369 117.039 39.2369C119.253 39.2369 121.166 40.9871 121.166 43.5559C121.166 46.0911 119.253 47.8727 117.039 47.8727ZM101.044 36.4316C97.0011 36.4316 93.7138 39.4254 93.7138 43.5559C93.7138 47.6529 97.0011 50.678 101.044 50.678C105.085 50.678 108.375 47.6529 108.375 43.5559C108.375 39.4254 105.085 36.4316 101.044 36.4316ZM101.044 47.8727C98.8284 47.8727 96.9174 46.0911 96.9174 43.5559C96.9174 40.9871 98.8284 39.2369 101.044 39.2369C103.258 39.2369 105.163 40.9871 105.163 43.5559C105.163 46.0911 103.258 47.8727 101.044 47.8727ZM82.0115 38.6152V41.6424H89.4258C89.2089 43.334 88.6292 44.5775 87.7402 45.4442C86.6581 46.491 84.9725 47.6529 82.0115 47.6529C77.4487 47.6529 73.8758 44.0625 73.8758 39.6138C73.8758 35.1651 77.4487 31.5747 82.0115 31.5747C84.4787 31.5747 86.2737 32.5147 87.5985 33.7331L89.7865 31.5998C87.9335 29.8747 85.4685 28.5495 82.0115 28.5495C75.7546 28.5495 70.4961 33.5133 70.4961 39.6138C70.4961 45.7143 75.7546 50.678 82.0115 50.678C85.3934 50.678 87.9335 49.5978 89.9304 47.5712C91.9767 45.5761 92.6144 42.7708 92.6144 40.5056C92.6144 39.8022 92.5543 39.1553 92.4469 38.6152H82.0115ZM159.839 40.962C159.236 39.3688 157.374 36.4316 153.582 36.4316C149.824 36.4316 146.696 39.3186 146.696 43.5559C146.696 47.5461 149.792 50.678 153.943 50.678C157.299 50.678 159.236 48.6829 160.032 47.521L157.541 45.9027C156.71 47.0876 155.579 47.8727 153.943 47.8727C152.317 47.8727 151.151 47.1463 150.404 45.7143L160.176 41.7722L159.839 40.962ZM149.876 43.334C149.792 40.5873 152.064 39.1804 153.691 39.1804C154.967 39.1804 156.049 39.8022 156.41 40.6919L149.876 43.334ZM141.933 50.2447H145.146V29.3095H141.933V50.2447ZM136.673 38.0185H136.565C135.844 37.1853 134.468 36.4316 132.724 36.4316C129.065 36.4316 125.72 39.5635 125.72 43.5789C125.72 47.5712 129.065 50.678 132.724 50.678C134.468 50.678 135.844 49.9181 136.565 49.0597H136.673V50.0814C136.673 52.805 135.18 54.2684 132.773 54.2684C130.811 54.2684 129.593 52.8867 129.091 51.7248L126.297 52.8616C127.103 54.7499 129.235 57.0737 132.773 57.0737C136.54 57.0737 139.717 54.9132 139.717 49.6564V36.865H136.673V38.0185ZM132.999 47.8727C130.785 47.8727 128.932 46.066 128.932 43.5789C128.932 41.0688 130.785 39.2369 132.999 39.2369C135.18 39.2369 136.9 41.0688 136.9 43.5789C136.9 46.066 135.18 47.8727 132.999 47.8727ZM174.878 29.3095H167.195V50.2447H170.399V42.3123H174.878C178.436 42.3123 181.925 39.8022 181.925 35.8099C181.925 31.8196 178.427 29.3095 174.878 29.3095ZM174.962 39.4002H170.399V32.2216H174.962C177.354 32.2216 178.719 34.1581 178.719 35.8099C178.719 37.4302 177.354 39.4002 174.962 39.4002ZM194.765 36.3919C192.451 36.3919 190.044 37.3884 189.054 39.597L191.897 40.7589C192.509 39.597 193.634 39.2202 194.823 39.2202C196.485 39.2202 198.171 40.1937 198.196 41.9125V42.1323C197.617 41.8057 196.376 41.3221 194.849 41.3221C191.787 41.3221 188.667 42.9655 188.667 46.0325C188.667 48.8378 191.175 50.6445 193.994 50.6445C196.15 50.6445 197.34 49.6962 198.087 48.5929H198.196V50.2112H201.291V42.1804C201.291 38.4686 198.448 36.3919 194.765 36.3919ZM194.379 47.8643C193.331 47.8643 191.871 47.3577 191.871 46.0911C191.871 44.4707 193.692 43.849 195.268 43.849C196.678 43.849 197.34 44.1525 198.196 44.5524C197.945 46.491 196.234 47.8643 194.379 47.8643ZM212.563 36.8503L208.881 45.9257H208.771L204.964 36.8503H201.51L207.23 49.5329L203.966 56.5901H207.313L216.128 36.8503H212.563ZM183.686 50.2447H186.898V29.3095H183.686V50.2447Z" fill="black"/>
<defs>
<linearGradient id="paint0_linear_99_1319" x1="37.4473" y1="52.4052" x2="9.3489" y2="23.5864" gradientUnits="userSpaceOnUse">
<stop stop-color="#00A0FF"/>
<stop offset="0.0066" stop-color="#00A1FF"/>
<stop offset="0.2601" stop-color="#00BEFF"/>
<stop offset="0.5122" stop-color="#00D2FF"/>
<stop offset="0.7604" stop-color="#00DFFF"/>
<stop offset="1" stop-color="#00E3FF"/>
</linearGradient>
<linearGradient id="paint1_linear_99_1319" x1="58.1206" y1="33.4938" x2="16.5561" y2="33.4938" gradientUnits="userSpaceOnUse">
<stop stop-color="#FFE000"/>
<stop offset="0.4087" stop-color="#FFBD00"/>
<stop offset="0.7754" stop-color="#FFA500"/>
<stop offset="1" stop-color="#FF9C00"/>
</linearGradient>
<linearGradient id="paint2_linear_99_1319" x1="42.6478" y1="29.6506" x2="4.54403" y2="-9.43018" gradientUnits="userSpaceOnUse">
<stop stop-color="#FF3A44"/>
<stop offset="1" stop-color="#C31162"/>
</linearGradient>
<linearGradient id="paint3_linear_99_1319" x1="12.536" y1="66.6973" x2="29.551" y2="49.2462" gradientUnits="userSpaceOnUse">
<stop stop-color="#32A071"/>
<stop offset="0.0685" stop-color="#2DA771"/>
<stop offset="0.4762" stop-color="#15CF74"/>
<stop offset="0.8009" stop-color="#06E775"/>
<stop offset="1" stop-color="#00F076"/>
</linearGradient>
</defs>
</svg>
