<svg width="529" height="309" viewBox="0 0 529 309" fill="none" xmlns="http://www.w3.org/2000/svg">
<path d="M517.093 11.2844H293.818V308.737H517.093V11.2844Z" fill="#E7F0FD"/>
<path d="M525.62 3.48523H302.346V300.938H525.62V3.48523Z" stroke="#96BED5" strokeWidth="5" stroke-miterlimit="10"/>
<g style="mix-blend-mode:multiply">
<path d="M502.548 127.405V193.289L482.061 182.771C479.128 182.771 463.51 287.605 463.51 287.605H355.723C355.723 287.605 340.101 182.771 337.175 182.771L318.312 192.632V126.118C318.312 110.305 354.956 100.927 365.993 94.8945C383.99 85.0562 388.386 72.334 387.901 60.161H388.598L387.882 60.0266C385.572 45.4803 380.16 41.3791 380.048 26.9481H449.259C448.224 38.9752 447.569 51.4824 439.115 60.2877C437.352 62.1232 433.811 63.1217 429.372 63.5671C429.757 75.1872 436.232 88.4163 453.197 94.8791C467.633 100.378 502.548 114.03 502.548 127.405Z" fill="#E7F0FD"/>
</g>
<path d="M426.712 110.305C416.199 110.305 414.551 163.885 417.373 184.073C419.463 198.999 453.636 207.113 459.068 200.159C471.532 184.18 446.73 110.305 426.712 110.305Z" fill="#E7F0FD"/>
<path d="M394.276 110.305C404.789 110.305 406.44 163.885 403.615 184.073C401.524 198.999 366.747 207.551 361.92 200.159C348.781 180.044 374.235 110.305 394.276 110.305Z" fill="#E7F0FD"/>
<path d="M428.364 212.339C428.618 207.155 405.121 200.858 376.249 209.398C353.945 215.991 360.701 251.117 369.993 251.044C374.613 251.009 377.727 241.317 386.677 241.443C408.562 241.781 419.233 233.598 421.381 219.939C422.197 214.759 428.16 216.494 428.364 212.339Z" fill="#E7F0FD"/>
<path d="M414.778 239.566C413.566 244.8 446.799 242.096 450.934 226.417C454.591 212.539 440.266 209.559 433.418 216.51C428.571 221.429 428.964 222.927 425.13 229.873C420.495 238.245 415.433 236.674 414.778 239.566Z" fill="#E7F0FD"/>
<path d="M452.011 234.574C448.162 239.658 442.295 243.344 436.382 245.514C429.541 248.029 422.731 248.064 415.483 247.818C400.997 247.334 383.728 245.587 373.168 257.637C368.006 263.532 364.996 271.335 365.639 279.211C365.843 281.68 367.61 283.796 370.258 283.796C372.568 283.796 375.055 281.691 374.854 279.211C374.599 276.457 374.911 273.68 375.771 271.05C376.632 268.421 378.023 265.996 379.859 263.923C384.178 259.108 390.01 257.211 396.643 256.838C411.052 256.04 426.142 259.377 439.943 253.935C447.911 250.794 454.775 246.052 459.961 239.197C461.458 237.219 460.276 234.07 458.309 232.922C455.953 231.548 453.52 232.584 452.023 234.57L452.011 234.574Z" fill="#E7F0FD"/>
<path d="M224.253 11.2844H0.978516V308.737H224.253V11.2844Z" fill="#E7F0FD"/>
<path d="M232.784 3.48523H9.50977V300.938H232.784V3.48523Z" stroke="#96BED5" strokeWidth="5" stroke-miterlimit="10"/>
<path d="M79.4202 114.03C103.946 114.03 123.829 94.1962 123.829 69.7304C123.829 45.2647 103.946 25.4313 79.4202 25.4313C54.8941 25.4313 35.0117 45.2647 35.0117 69.7304C35.0117 94.1962 54.8941 114.03 79.4202 114.03Z" fill="white"/>
<path d="M100.302 30.623L79.4219 69.7304V25.4274C86.7025 25.4171 93.8732 27.1991 100.298 30.6154L100.302 30.623Z" fill="#D1E2FB"/>
<path d="M123.834 69.7304H79.4219L100.302 30.623C107.411 34.4004 113.356 40.035 117.501 46.9237C121.646 53.8124 123.835 61.6959 123.834 69.7304Z" fill="#96BED5"/>
<path d="M123.833 69.7305C123.833 78.572 121.181 87.2113 116.218 94.5367C111.255 101.862 104.208 107.539 95.9841 110.836C87.7601 114.133 78.7351 114.899 70.0706 113.037C61.4062 111.175 53.4985 106.769 47.3652 100.386L79.4282 69.7381L123.833 69.7305Z" fill="#C1C1E9"/>
<path d="M79.421 69.7305L47.358 100.378C44.9259 97.8507 42.8028 95.0445 41.0332 92.0183L79.421 69.7305Z" fill="#8383D3"/>
<path d="M107.164 51.7742L127.913 36.7211H144.89" stroke="white" strokeWidth="5" stroke-miterlimit="10"/>
<path d="M107.164 85.0524L144.728 108.93" stroke="white" strokeWidth="5" stroke-miterlimit="10"/>
<path d="M206.734 141.39H117.725V262.756H206.734V141.39Z" fill="white"/>
<path d="M206.733 274.518H35.0117V281.895H206.733V274.518Z" fill="white"/>
<g style="mix-blend-mode:multiply">
<path d="M107.164 141.39H35.0117V150.33H107.164V141.39Z" fill="#E7F0FD"/>
</g>
<g style="mix-blend-mode:multiply">
<path d="M107.164 160.13H35.0117V169.069H107.164V160.13Z" fill="#E7F0FD"/>
</g>
<g style="mix-blend-mode:multiply">
<path d="M107.164 178.865H35.0117V187.805H107.164V178.865Z" fill="#E7F0FD"/>
</g>
<g style="mix-blend-mode:multiply">
<path d="M107.164 197.605H35.0117V206.545H107.164V197.605Z" fill="#E7F0FD"/>
</g>
<g style="mix-blend-mode:multiply">
<path d="M107.164 216.345H35.0117V225.284H107.164V216.345Z" fill="#E7F0FD"/>
</g>
<g style="mix-blend-mode:multiply">
<path d="M107.164 235.08H35.0117V244.02H107.164V235.08Z" fill="#E7F0FD"/>
</g>
<g style="mix-blend-mode:multiply">
<path d="M107.164 253.82H35.0117V262.76H107.164V253.82Z" fill="#E7F0FD"/>
</g>
<g style="mix-blend-mode:multiply">
<path d="M206.734 30.623H148.76V36.3908H206.734V30.623Z" fill="#E7F0FD"/>
</g>
<g style="mix-blend-mode:multiply">
<path d="M206.734 40.0389H148.76V45.8067H206.734V40.0389Z" fill="#E7F0FD"/>
</g>
<g style="mix-blend-mode:multiply">
<path d="M188.179 49.4548H148.76V55.2226H188.179V49.4548Z" fill="#E7F0FD"/>
</g>
<g style="mix-blend-mode:multiply">
<path d="M206.734 111.461H148.76V117.228H206.734V111.461Z" fill="#E7F0FD"/>
</g>
<g style="mix-blend-mode:multiply">
<path d="M206.734 120.876H148.76V126.644H206.734V120.876Z" fill="#E7F0FD"/>
</g>
</svg>
