<svg id="Layer_1" data-name="Layer 1" xmlns="http://www.w3.org/2000/svg" viewBox="0 0 7235.13 4255.96">
  <defs>
    <style>
      .cls-1 {
        fill: #eaeaea;
      }

      .cls-2 {
        fill: #d5d6da;
      }

      .cls-3 {
        fill: #b8c1c9;
      }

      .cls-4 {
        fill: #00a3fe;
      }

      .cls-5 {
        fill: #657285;
      }

      .cls-6, .cls-7, .cls-9 {
        fill: #fff;
      }

      .cls-6 {
        opacity: 0.6;
      }

      .cls-8 {
        fill: #131f2d;
      }

      .cls-9 {
        opacity: 0.2;
      }

      .cls-10 {
        fill: #016eb9;
      }

      .cls-11 {
        fill: #364154;
      }

      .cls-12 {
        fill: #f4f4f4;
      }

      .cls-13 {
        fill: #ff7955;
      }

      .cls-14 {
        fill: #ef6343;
      }

      .cls-15 {
        fill: #f9f9f9;
      }

      .cls-16 {
        fill: #2c3a64;
      }
    </style>
  </defs>
  <title>heroImage</title>
  <g>
    <path class="cls-1" d="M5709.61,4072.15s621.93-12.11,893.82-389.61c459.48-638-293.87-1172.31-733-1078.12C4913.56,2809.67,5200.18,759.92,3664.52,1222c-431.8,129.94-1654.69-856.47-1980.07,381.2-77.38,294.32-346.17,640.83-744.12,827.57-778.84,365.49-428.07,1636,128.44,1642.21S5709.61,4072.15,5709.61,4072.15Z"/>
    <path class="cls-2" d="M1228,3846c172.39-86.93,275.68,45.13,459.42-41.86s-194.25-516.54-42-647c73.13-62.67,102-151.12,103.54-169.65,14.9-174.61-146-397.6,19.85-426.68,168.41-29.52,324.66,122.46,442.12,194.27-16.24-693.51,149.44-1307.5,708-1173.55,35.65-94.88,72.56-187.54,110.36-277.3,318.29-756,718.27-741.53,830.59-681,341.39,183.93-78.93,1025.6,244.28,830.53s106.91,444.66-118.05,886.81,136.91,219.3,355.52,547.28-568,1181.55-568,1181.55l-1343.55.69-.12-.35c-267.49.85-1283.41-1.66-1283.41-1.66S1054.54,3933.46,1228,3846Z"/>
    <g>
      <g>
        <path class="cls-3" d="M4549.48,3993.28l-916.63-353.93c-123.33-47.62-184.7-186.2-137.08-309.53L4557.84,579.19c47.62-123.33,186.2-184.71,309.53-137.09L5784,796c123.33,47.62,184.7,186.2,137.08,309.53L4859,3856.2C4811.39,3979.52,4672.81,4040.9,4549.48,3993.28Z"/>
        <g>
          <g>
            <g>
              <circle class="cls-4" cx="4828.91" cy="993.56" r="169.53" transform="translate(711.81 3705.56) rotate(-45)"/>
              <path class="cls-5" d="M4829,824a169.65,169.65,0,1,0,61,11.43A169.61,169.61,0,0,0,4829,824Zm0-24.25a193,193,0,0,1,69.76,13c99.68,38.49,149.46,150.9,111,250.58a193.63,193.63,0,0,1-250.57,111c-99.68-38.49-149.46-150.9-111-250.57a193.86,193.86,0,0,1,180.81-124Z"/>
            </g>
            <path class="cls-6" d="M4802.72,927c-32.68,14.47-66,10.87-74.35-8s11.33-46,44-60.45,66-10.88,74.35,8S4835.4,912.48,4802.72,927Z"/>
          </g>
          <g>
            <g>
              <circle class="cls-4" cx="5441.88" cy="1230.24" r="169.53" transform="translate(723.98 4208.32) rotate(-45)"/>
              <path class="cls-5" d="M5441.92,1060.66a169.65,169.65,0,1,0,61,11.43,169.61,169.61,0,0,0-61-11.43Zm0-24.25a193,193,0,0,1,69.76,13c99.68,38.49,149.46,150.9,111,250.58a193.77,193.77,0,1,1-180.73-263.63Z"/>
            </g>
            <path class="cls-6" d="M5415.69,1163.64c-32.69,14.47-66,10.87-74.35-8s11.33-46,44-60.45,66-10.88,74.35,8S5448.37,1149.16,5415.69,1163.64Z"/>
          </g>
          <g>
            <g>
              <circle class="cls-4" cx="4542.05" cy="1736.47" r="169.53" transform="translate(102.46 3720.32) rotate(-45)"/>
              <path class="cls-5" d="M4542.09,1566.9a169.64,169.64,0,1,0,61,11.43,169.59,169.59,0,0,0-61-11.43Zm0-24.25a193,193,0,0,1,69.76,13c99.68,38.49,149.46,150.9,111,250.57a193.77,193.77,0,1,1-180.74-263.62Z"/>
            </g>
            <path class="cls-6" d="M4515.86,1669.87c-32.68,14.48-66,10.88-74.34-8s11.33-46,44-60.46,66-10.87,74.34,8S4548.55,1655.4,4515.86,1669.87Z"/>
          </g>
          <g>
            <g>
              <circle class="cls-4" cx="5155.02" cy="1973.15" r="169.53" transform="translate(114.64 4223.08) rotate(-45)"/>
              <path class="cls-5" d="M5155.06,1803.58a169.64,169.64,0,1,0,61,11.43,169.59,169.59,0,0,0-61-11.43Zm0-24.25a193,193,0,0,1,69.76,13.05c99.68,38.49,149.46,150.89,111,250.57a193.77,193.77,0,1,1-180.74-263.62Z"/>
            </g>
            <path class="cls-6" d="M5128.83,1906.55c-32.68,14.48-66,10.88-74.34-8s11.32-46,44-60.46,66-10.87,74.34,8S5161.51,1892.08,5128.83,1906.55Z"/>
          </g>
          <g>
            <g>
              <circle class="cls-4" cx="4258.99" cy="2469.58" r="169.53"/>
              <path class="cls-7" d="M4259,2300a169.64,169.64,0,1,0,61,11.43,169.59,169.59,0,0,0-61-11.43Zm0-24.25a193.06,193.06,0,0,1,69.77,13c99.67,38.49,149.46,150.9,111,250.57a193.63,193.63,0,0,1-250.57,111c-99.68-38.49-149.46-150.9-111-250.58a193.83,193.83,0,0,1,180.81-124Z"/>
            </g>
            <path class="cls-6" d="M4232.79,2403c-32.68,14.47-66,10.87-74.34-8s11.33-46,44-60.46,66-10.87,74.35,8S4265.48,2388.51,4232.79,2403Z"/>
          </g>
          <g>
            <g>
              <circle class="cls-4" cx="4871.95" cy="2706.26" r="169.53" transform="translate(-486.66 4237.64) rotate(-45)"/>
              <path class="cls-5" d="M4872,2536.69a169.64,169.64,0,1,0,61,11.43,169.59,169.59,0,0,0-61-11.43Zm0-24.25a193.83,193.83,0,1,1-108.41,33.16A193,193,0,0,1,4872,2512.44Z"/>
            </g>
            <ellipse class="cls-6" cx="4830.6" cy="2605.42" rx="64.72" ry="37.45" transform="translate(-641.27 2179.28) rotate(-23.89)"/>
          </g>
          <g>
            <g>
              <circle class="cls-4" cx="3974.97" cy="3205.15" r="169.53" transform="translate(-1102.14 3749.49) rotate(-45)"/>
              <path class="cls-7" d="M3975,3035.58a169.63,169.63,0,1,0,61,11.42,169.6,169.6,0,0,0-61-11.42Zm0-24.26a193,193,0,0,1,69.76,13c99.68,38.49,149.46,150.9,111,250.58A193.76,193.76,0,1,1,3975,3011.32Z"/>
            </g>
            <path class="cls-6" d="M3948.78,3138.55c-32.69,14.47-66,10.87-74.35-8s11.33-46,44-60.45,66-10.88,74.34,8S3981.46,3124.07,3948.78,3138.55Z"/>
          </g>
          <g>
            <g>
              <circle class="cls-4" cx="4587.94" cy="3441.83" r="169.53" transform="translate(-1089.96 4252.25) rotate(-45)"/>
              <path class="cls-7" d="M4588,3272.26a169.63,169.63,0,1,0,61,11.42,169.6,169.6,0,0,0-61-11.42Zm0-24.26a193.86,193.86,0,1,1-108.41,33.17A193,193,0,0,1,4588,3248Z"/>
            </g>
            <ellipse class="cls-6" cx="4546.58" cy="3340.98" rx="64.72" ry="37.45" transform="translate(-963.45 2127.28) rotate(-23.89)"/>
          </g>
        </g>
        <path class="cls-5" d="M4210.84,3506.37h0a15.76,15.76,0,0,1-9-20.39l974.26-2523.2a15.76,15.76,0,0,1,20.39-9h0a15.77,15.77,0,0,1,9,20.39l-974.26,2523.2A15.76,15.76,0,0,1,4210.84,3506.37Z"/>
        <path class="cls-5" d="M4673,1364.64h0a15.76,15.76,0,0,1,20.39-9L5299,1589.45a15.76,15.76,0,0,1,9,20.39h0a15.76,15.76,0,0,1-20.39,9L4682,1385A15.76,15.76,0,0,1,4673,1364.64Z"/>
        <path class="cls-5" d="M4388.93,2100.2h0a15.78,15.78,0,0,1,20.39-9L5014.94,2325a15.78,15.78,0,0,1,9,20.39h0a15.76,15.76,0,0,1-20.39,9L4398,2120.59A15.77,15.77,0,0,1,4388.93,2100.2Z"/>
        <path class="cls-5" d="M4104,2838.22h0a15.76,15.76,0,0,1,20.39-9L4730,3063a15.78,15.78,0,0,1,9,20.39h0a15.77,15.77,0,0,1-20.39,9L4113,2858.61A15.77,15.77,0,0,1,4104,2838.22Z"/>
      </g>
      <g>
        <path class="cls-4" d="M3334.88,3957.57h0c-166.77,63.49-355.17-21-418.66-187.79L1877.87,1042.4c-63.49-166.78,21-355.18,187.78-418.67h0c166.77-63.5,355.17,21,418.66,187.78l1038.35,2727.4C3586.16,3705.68,3501.66,3894.08,3334.88,3957.57Z"/>
        <path class="cls-4" d="M2197.37,747.69a65.27,65.27,0,0,1-122,46.46L1978.26,539,1824.35,134.77a65.46,65.46,0,0,1,37.76-84.22l.42-.16a65.47,65.47,0,0,1,83.81,37.92l154.24,405.14Z"/>
        <path class="cls-8" d="M2101.47,493.12l-122.31,45.59L1825.24,134.44A65.46,65.46,0,0,1,1863,50.22l.42-.16A65.47,65.47,0,0,1,1947.23,88Z"/>
        <rect class="cls-8" x="2684.7" y="2944.13" width="651.42" height="357" transform="translate(-901.1 1248.19) rotate(-20.44)"/>
        <g>
          <rect class="cls-2" x="2160.55" y="1025.89" width="139.55" height="8.13" transform="translate(-219.28 843.9) rotate(-20.44)"/>
          <rect class="cls-2" x="2178.07" y="1072.89" width="139.55" height="8.12" transform="translate(-234.59 852.98) rotate(-20.44)"/>
          <rect class="cls-2" x="2195.59" y="1119.9" width="139.55" height="8.13" transform="translate(-249.9 862.07) rotate(-20.44)"/>
          <rect class="cls-2" x="2213.11" y="1166.9" width="139.55" height="8.12" transform="translate(-265.22 871.13) rotate(-20.44)"/>
          <rect class="cls-2" x="2230.63" y="1213.9" width="139.55" height="8.12" transform="translate(-280.53 880.23) rotate(-20.44)"/>
        </g>
        <rect class="cls-2" x="2130.69" y="1262.5" width="378.87" height="16.75" transform="translate(-297.77 890.45) rotate(-20.44)"/>
        <g>
          <rect class="cls-2" x="2269.39" y="1317.87" width="139.55" height="8.12" transform="translate(-314.41 900.31) rotate(-20.44)"/>
          <rect class="cls-2" x="2286.91" y="1364.87" width="139.55" height="8.12" transform="matrix(0.94, -0.35, 0.35, 0.94, -329.72, 909.39)"/>
          <rect class="cls-2" x="2304.43" y="1411.87" width="139.55" height="8.12" transform="translate(-345.03 918.47) rotate(-20.44)"/>
          <rect class="cls-2" x="2321.95" y="1458.88" width="139.55" height="8.12" transform="translate(-360.35 927.55) rotate(-20.44)"/>
          <rect class="cls-2" x="2339.47" y="1505.88" width="139.55" height="8.12" transform="translate(-375.66 936.63) rotate(-20.44)"/>
        </g>
        <g>
          <rect class="cls-2" x="2391.89" y="1646.5" width="139.55" height="8.13" transform="translate(-421.48 963.8) rotate(-20.44)"/>
          <rect class="cls-2" x="2409.41" y="1693.5" width="139.55" height="8.13" transform="translate(-436.79 972.88) rotate(-20.44)"/>
          <rect class="cls-2" x="2426.93" y="1740.5" width="139.55" height="8.13" transform="translate(-452.1 981.96) rotate(-20.44)"/>
          <rect class="cls-2" x="2444.45" y="1787.51" width="139.55" height="8.12" transform="translate(-467.42 991.04) rotate(-20.44)"/>
          <rect class="cls-2" x="2461.97" y="1834.51" width="139.55" height="8.13" transform="translate(-482.73 1000.12) rotate(-20.44)"/>
        </g>
        <rect class="cls-2" x="2362.03" y="1883.1" width="378.87" height="16.75" transform="translate(-499.97 1010.34) rotate(-20.44)"/>
        <g>
          <rect class="cls-2" x="2515.25" y="1977.44" width="139.55" height="8.13" transform="translate(-529.3 1027.73) rotate(-20.44)"/>
          <rect class="cls-2" x="2532.77" y="2024.44" width="139.55" height="8.12" transform="translate(-544.61 1036.81) rotate(-20.44)"/>
          <rect class="cls-2" x="2550.29" y="2071.44" width="139.55" height="8.13" transform="translate(-559.93 1045.89) rotate(-20.44)"/>
          <rect class="cls-2" x="2567.82" y="2118.44" width="139.55" height="8.12" transform="translate(-575.24 1054.97) rotate(-20.44)"/>
          <rect class="cls-2" x="2585.34" y="2165.45" width="139.55" height="8.12" transform="translate(-590.55 1064.05) rotate(-20.44)"/>
        </g>
        <rect class="cls-2" x="2485.4" y="2214.04" width="378.87" height="16.75" transform="translate(-607.8 1074.29) rotate(-20.44)"/>
        <g>
          <rect class="cls-2" x="2637.03" y="2304.13" width="139.55" height="8.12" transform="translate(-635.74 1090.85) rotate(-20.44)"/>
          <rect class="cls-2" x="2654.55" y="2351.13" width="139.55" height="8.12" transform="translate(-651.05 1099.92) rotate(-20.44)"/>
          <rect class="cls-2" x="2672.08" y="2398.13" width="139.55" height="8.13" transform="translate(-666.37 1109.01) rotate(-20.44)"/>
          <rect class="cls-2" x="2689.6" y="2445.14" width="139.55" height="8.12" transform="matrix(0.94, -0.35, 0.35, 0.94, -681.68, 1118.09)"/>
          <rect class="cls-2" x="2707.12" y="2492.14" width="139.55" height="8.13" transform="translate(-697 1127.17) rotate(-20.44)"/>
        </g>
        <rect class="cls-2" x="2607.18" y="2540.73" width="378.87" height="16.75" transform="translate(-714.24 1137.4) rotate(-20.44)"/>
        <g>
          <rect class="cls-2" x="2761.82" y="2638.87" width="139.55" height="8.13" transform="translate(-744.8 1155.51) rotate(-20.44)"/>
          <rect class="cls-2" x="2779.34" y="2685.87" width="139.55" height="8.13" transform="translate(-760.11 1164.59) rotate(-20.44)"/>
          <rect class="cls-2" x="2796.86" y="2732.88" width="139.55" height="8.12" transform="translate(-775.43 1173.68) rotate(-20.44)"/>
          <rect class="cls-2" x="2814.38" y="2779.88" width="139.55" height="8.13" transform="translate(-790.75 1182.76) rotate(-20.44)"/>
          <rect class="cls-2" x="2831.9" y="2826.88" width="139.55" height="8.12" transform="translate(-806.06 1191.85) rotate(-20.44)"/>
        </g>
        <rect class="cls-2" x="2731.96" y="2875.48" width="378.87" height="16.75" transform="translate(-823.3 1202.07) rotate(-20.44)"/>
        <path class="cls-9" d="M3323.26,3961.91h0c-125.89,46.93-267.29-17.68-314.22-143.57L1933.71,933.61c-46.93-125.89,17.67-267.29,143.57-314.21h0c125.89-46.93,267.29,17.67,314.21,143.56L3466.83,3647.69C3513.76,3773.58,3449.15,3915,3323.26,3961.91Z"/>
        <path class="cls-8" d="M2538.91,1521.87A17.16,17.16,0,1,1,2561,1532,17.15,17.15,0,0,1,2538.91,1521.87Z"/>
        <rect class="cls-8" x="2261.07" y="1573.32" width="234.67" height="16.75" transform="translate(-402.67 930.37) rotate(-20.44)"/>
        <path class="cls-2" d="M2154.81,774.7,3007.5,3062.14A18.4,18.4,0,0,1,2973,3075L2120.32,787.55a18.4,18.4,0,0,1,34.49-12.85Z"/>
        <path class="cls-8" d="M2154.81,774.7l272,729.63-34.5,12.86-272-729.64a18.4,18.4,0,0,1,34.49-12.85Z"/>
      </g>
      <g>
        <rect class="cls-10" x="5050.74" y="3391.08" width="769.62" height="622.18" rx="21.4" transform="translate(10871.1 7404.34) rotate(180)"/>
        <rect class="cls-4" x="5245.13" y="3391.08" width="769.62" height="622.18" rx="83.76"/>
        <path class="cls-11" d="M5508.28,3656.55h76v-76a45.61,45.61,0,0,1,45.62-45.62h0a45.62,45.62,0,0,1,45.62,45.62v76h76a45.62,45.62,0,0,1,45.63,45.62h0a45.63,45.63,0,0,1-45.63,45.62h-76v76a45.63,45.63,0,0,1-45.62,45.62h0a45.62,45.62,0,0,1-45.62-45.62v-76h-76a45.62,45.62,0,0,1-45.62-45.62h0A45.61,45.61,0,0,1,5508.28,3656.55Z"/>
      </g>
      <path class="cls-11" d="M1978.35,2193.37H4688a60.86,60.86,0,0,1,57.31,40.39l655.46,1836.08H2574.82a47.89,47.89,0,0,1-45.08-31.75L1907.31,2294.24C1889.72,2245.09,1926.15,2193.37,1978.35,2193.37Z"/>
      <path class="cls-12" d="M2146.28,2310.66H4682.54a35.68,35.68,0,0,1,33.62,23.72l551.12,1549.19a35.68,35.68,0,0,1-33.62,47.63H2697.4a35.68,35.68,0,0,1-33.61-23.72L2112.67,2358.3A35.68,35.68,0,0,1,2146.28,2310.66Z"/>
      <path class="cls-8" d="M1978.35,2193.37l658.53,1844.72a47.87,47.87,0,0,0,45.07,31.75H2574.82a47.89,47.89,0,0,1-45.08-31.75L1907.31,2294.24c-17.59-49.15,18.84-100.87,71-100.87Z"/>
      <path class="cls-11" d="M2575.81,4070H6402.53a49.28,49.28,0,0,0,49.28-49.29h0a49.28,49.28,0,0,0-49.28-49.28H2575.81a49.28,49.28,0,0,0-49.28,49.28h0A49.28,49.28,0,0,0,2575.81,4070Z"/>
      <path class="cls-8" d="M2575.81,3971.4H3835.6a49.28,49.28,0,0,1,49.29,49.28h0A49.29,49.29,0,0,1,3835.6,4070H2575.81a49.28,49.28,0,0,1-49.28-49.29h0A49.28,49.28,0,0,1,2575.81,3971.4Z"/>
      <g>
        <path class="cls-13" d="M4039.76,1851.54c-123.37,38.91-336.86-66.15-336.86-66.15s96.26-72.23,107-222.08c.18-2.06.31-4.12.4-6.21q.95-16.65.39-34.62l33.77,27.21,126.4,101.92s-6.48,50.23-9.08,134a264,264,0,0,1,48.24,33.92C4030.11,1837.28,4039.76,1851.54,4039.76,1851.54Z"/>
        <path class="cls-13" d="M3566,1769.41s326.11-51.44,541,90.78c0,0,146,954.2,18.86,1044.49s-559.82,0-559.82,0Z"/>
        <path class="cls-4" d="M4001.15,3931.2H3411.86s68.48-1005.53,88-1250.31c15.89-198.54,49.48-674.57,61.61-847.39,2.82-40.27,4.48-64.09,4.48-64.09l140.68-24,241.64,313.17s38.21,835.16,36.82,966.8,15.25,644.51,16,730.76S4001.15,3931.2,4001.15,3931.2Z"/>
        <path class="cls-4" d="M3948.3,2058.62l52.84,1872.58h277.64S4265.93,2699.6,4265,2586.45s30.17-600.61-56.47-676.26c-72.43-63.24-246.71-124.64-246.71-124.64Z"/>
        <path class="cls-4" d="M3963.6,1742.34s79.15,54.54,76.17,74.12-13.84,50.54-13.84,50.54l-48.41-9.83,40.85,28.74S3972,2021,3948.3,2058.62Z"/>
        <path class="cls-10" d="M3528.3,2300.13c34.65-213,435.1,101.75,401.81,381.11-61.59,516.82-323.83,1093.07-518.25,1250Z"/>
        <path class="cls-14" d="M3809.93,1563.31a14.92,14.92,0,0,0-1.78-5.72l2.18-.49,34.16-7.41,126.4,101.92s-5.47,47.45-9.38,134.18C3961.18,1785.35,3831.26,1713.43,3809.93,1563.31Z"/>
        <path class="cls-13" d="M4022.39,1682.57s-220.06-6.16-214.12-143.15-18.45-230,122.3-231.89,165.77,51.6,174.91,97.8S4079.78,1680.64,4022.39,1682.57Z"/>
        <path class="cls-8" d="M3808.15,1557.59s28.65,7.56,51.35-22.7S3920,1388.13,3970,1380.56s115.75,29.51,137,8.32c30.93-30.87,70.84-81.4,70.84-81.4s-247.66-176.57-346.51-94.87S3697.8,1413.85,3808.15,1557.59Z"/>
        <path class="cls-10" d="M3969.79,3931.2c-.2-1.89-19.26-190.51-13.76-354.45,2.32-69.26.36-150.7-1.54-229.45-2.71-112.34-8.74-220.52.33-291.06,15.53-120.71,12.43-669.4,6.06-728.87-6.21-58-.27-121.57,5.48-140.74,5.86-19.54-19.25-126.54-19.53-127.63l2.94-.76c1.15,4.48,28.24,109.86,22.14,130.21-5.69,19-14.18,81.06-8,138.6,6.38,59.52,18.58,608.11,3,728.94-9,70.31-12.12,179-9.41,291.23,1.89,78.8,3.86,160.28,1.53,229.63-5.49,163.74,22.31,352.46,22.5,354.35Z"/>
        <path class="cls-4" d="M4457.77,2424.92s74.55,128.35-3.63,162.12-86.61-1.81-86.61-1.81Z"/>
        <path class="cls-4" d="M3833,2504s11.86,24.18,10.52,45.89c-1.39,22.71-12,57-12,57s-460.32,98-549.77,16.07c-96-87.94,82.15-748.68,158.41-813.31,32.86-27.87,102.16-44.88,166.13-55.05,35.25-5.63,68.87-9.17,93.9-11.32,25.78-2.23,42.48-3,42.48-3l-10.37,38.37-40.37,149.18-47.06,174s-140.71,289.63-145.25,316.86S3833,2504,3833,2504Z"/>
        <path class="cls-10" d="M3897.09,2012.34s-117.39-51.11-201.75-97.68c-55.09-30.41-83.28-87.33-89.06-160.08,35.25-5.63,68.87-9.17,93.9-11.32,4.05,1.31,6.47,2.18,6.47,2.18l25.64,33.23Z"/>
        <path class="cls-4" d="M3948.3,2058.62,3765.47,1710s-68.2,13.83-91.1,35.29c0,0,11.64,104.87,20.71,128.07,0,0,35.31-4,40.35-1,0,0-17.15,26.22-22.19,29.25C3713.24,1901.55,3872.18,1975.63,3948.3,2058.62Z"/>
        <path class="cls-10" d="M3979.4,2275.59a14.68,14.68,0,1,1,14.68,14.68A14.68,14.68,0,0,1,3979.4,2275.59Z"/>
        <path class="cls-10" d="M3979.4,3097.85a14.68,14.68,0,1,1,14.68,14.68A14.68,14.68,0,0,1,3979.4,3097.85Z"/>
        <path class="cls-10" d="M3986.81,2722.07a14.68,14.68,0,1,1,14.68,14.68A14.68,14.68,0,0,1,3986.81,2722.07Z"/>
        <path class="cls-10" d="M3986.81,3455.12a14.68,14.68,0,1,1,14.68,14.68A14.68,14.68,0,0,1,3986.81,3455.12Z"/>
        <path class="cls-8" d="M3824.43,1822.4s50.88,25,133.11,9.55l-9.24,226.67Z"/>
        <g>
          <polygon class="cls-8" points="4145.85 2090.58 4621.94 2133.23 4331.44 2649.29 3883.32 2623.55 4145.85 2090.58"/>
          <path class="cls-2" d="M4189.72,2088.2s.2-72.94,40.52-67.9,52.49,78.32,52.49,78.32Z"/>
          <polygon class="cls-8" points="4618.84 2126.72 4142.75 2084.07 3880.21 2617.04 3883.43 2623.66 4145.96 2090.69 4622.06 2133.34 4618.84 2126.72"/>
          <path class="cls-1" d="M4230.24,2020.3s67.27,33,43.5,138.86-53.4,163.88-36.14,226.48l320.71,29.44s-34.85-83.22,3.87-167.45,11.21-180.49-24.33-188.86Z"/>
        </g>
        <path class="cls-13" d="M4390.41,2553.23s-48.76-58.59-38.67-101,46.4-52.16,68.59-37.17,54.47,49.28,48.42,75.51S4415,2565.41,4390.41,2553.23Z"/>
        <path class="cls-13" d="M3808.68,2518.36s82.59-36.31,120.42-25.72,88.85,18.15,92.84,31.77-27.21,64-73.64,66.57-128.14,24.21-147.81,0S3808.68,2518.36,3808.68,2518.36Z"/>
      </g>
      <g>
        <path class="cls-1" d="M1872.52,2683.23s642,3.31,1071.44,198.74c0,0-64.27,1030.33-772.06,1187.87C2171.9,4069.84,1571,3712.68,1872.52,2683.23Z"/>
        <path class="cls-4" d="M1932.16,2760.72s583.46,31.89,918,169.17c0,0-34.63,840-653.1,1039C2197.09,3968.87,1708.58,3727.82,1932.16,2760.72Z"/>
        <polygon class="cls-15" points="2574.52 3244.29 2403.73 3212.82 2434.42 3046.24 2277.99 3017.42 2247.3 3183.99 2084.94 3154.08 2056.11 3310.5 2218.47 3340.42 2187.78 3507 2344.2 3535.82 2374.9 3369.25 2545.69 3400.72 2574.52 3244.29"/>
      </g>
      <g>
        <rect class="cls-8" x="3687.41" y="2152.85" width="185.42" height="108.06"/>
        <rect class="cls-8" x="3769.61" y="2129" width="21.02" height="38.81"/>
        <rect class="cls-16" x="3686.8" y="2152.85" width="1.82" height="108.06"/>
        <g>
          <rect class="cls-7" x="3701.44" y="2184.39" width="42.75" height="54.27"/>
          <rect class="cls-7" x="3751.47" y="2184.39" width="107.33" height="11.72"/>
          <rect class="cls-7" x="3751.47" y="2205.66" width="107.33" height="11.72"/>
          <rect class="cls-7" x="3751.47" y="2226.93" width="107.33" height="11.72"/>
        </g>
      </g>
    </g>
    <g>
      <rect class="cls-2" x="5352.92" y="2193.04" width="869.56" height="463.76" rx="8.65" transform="translate(11575.39 4849.84) rotate(180)"/>
      <path class="cls-13" d="M5877,2300.08c62.74-10.68,96.52,54.73,96.52,54.73s33.78-65.41,96.53-54.73,80.84,73.42,63.94,117.47-160.47,160.19-160.47,160.19S5829.9,2461.6,5813,2417.55,5814.21,2310.75,5877,2300.08Z"/>
      <polygon class="cls-1" points="6006.52 2472.08 6012.37 2422.94 5961.03 2422.94 5961.03 2395.5 5934.27 2471.81 5934.27 2418.27 5907.09 2418.27 5889.66 2469.09 5876.58 2391.49 5856.81 2430.85 5854.16 2429.52 5878 2382.04 5890.65 2457.05 5904.96 2415.3 5937.24 2415.3 5937.24 2454.34 5964 2378.03 5964 2419.97 6015.72 2419.97 6011.66 2454.07 6046.25 2380.08 6046.25 2418.73 6077.22 2418.73 6077.22 2439.73 6089.98 2409.97 6092.71 2411.14 6074.25 2454.21 6074.25 2421.7 6043.28 2421.7 6043.28 2393.46 6006.52 2472.08"/>
      <g>
        <path class="cls-10" d="M5443.7,2343.74h290.49a14.35,14.35,0,0,0,14.31-14.31h0a14.35,14.35,0,0,0-14.31-14.31H5443.7a14.35,14.35,0,0,0-14.31,14.31h0A14.35,14.35,0,0,0,5443.7,2343.74Z"/>
        <path class="cls-10" d="M5443.7,2403h290.49a14.35,14.35,0,0,0,14.31-14.31h0a14.35,14.35,0,0,0-14.31-14.31H5443.7a14.35,14.35,0,0,0-14.31,14.31h0A14.35,14.35,0,0,0,5443.7,2403Z"/>
        <path class="cls-10" d="M5443.7,2468.86h290.49a14.35,14.35,0,0,0,14.31-14.31h0a14.35,14.35,0,0,0-14.31-14.31H5443.7a14.35,14.35,0,0,0-14.31,14.31h0A14.35,14.35,0,0,0,5443.7,2468.86Z"/>
        <path class="cls-10" d="M5443.7,2534.72h290.49a14.35,14.35,0,0,0,14.31-14.31h0a14.35,14.35,0,0,0-14.31-14.31H5443.7a14.35,14.35,0,0,0-14.31,14.31h0A14.35,14.35,0,0,0,5443.7,2534.72Z"/>
      </g>
    </g>
    <g>
      <rect class="cls-1" x="2766.66" y="488.01" width="878.08" height="463.76" rx="8.69" transform="translate(6411.41 1439.79) rotate(180)"/>
      <g>
        <path class="cls-10" d="M2940.1,638.71h290.48a14.34,14.34,0,0,0,14.31-14.3h0a14.35,14.35,0,0,0-14.31-14.31H2940.1a14.35,14.35,0,0,0-14.31,14.31h0A14.34,14.34,0,0,0,2940.1,638.71Z"/>
        <path class="cls-10" d="M2940.1,698h290.48a14.35,14.35,0,0,0,14.31-14.31h0a14.35,14.35,0,0,0-14.31-14.31H2940.1a14.35,14.35,0,0,0-14.31,14.31h0A14.35,14.35,0,0,0,2940.1,698Z"/>
        <path class="cls-10" d="M2940.1,763.83h290.48a14.35,14.35,0,0,0,14.31-14.31h0a14.35,14.35,0,0,0-14.31-14.31H2940.1a14.35,14.35,0,0,0-14.31,14.31h0A14.35,14.35,0,0,0,2940.1,763.83Z"/>
        <path class="cls-10" d="M2940.1,829.69h290.48a14.35,14.35,0,0,0,14.31-14.31h0a14.35,14.35,0,0,0-14.31-14.31H2940.1a14.35,14.35,0,0,0-14.31,14.31h0A14.35,14.35,0,0,0,2940.1,829.69Z"/>
      </g>
      <g>
        <path class="cls-13" d="M3530.8,781.07c6.71,31.43-.24,85.3-70.57,107.47s-122.17-32.95-128.05-87.3,106.52-255,106.52-255S3517.35,718.08,3530.8,781.07Z"/>
        <path class="cls-1" d="M3392.33,777.6h31v-31a9,9,0,1,1,18.08,0v31h31a9,9,0,0,1,0,18.08h-31v31a9,9,0,0,1-18.08,0v-31h-31a9,9,0,0,1,0-18.08Z"/>
      </g>
    </g>
    <path class="cls-8" d="M660.32,4065.13H6637.85a2.17,2.17,0,0,1,2.17,2.17v14.9a2.18,2.18,0,0,1-2.18,2.18H660.32a2.17,2.17,0,0,1-2.17-2.17v-14.9A2.18,2.18,0,0,1,660.32,4065.13Z"/>
  </g>
</svg>
