<svg xmlns="http://www.w3.org/2000/svg" viewBox="0 0 512 512">
  <defs>
    <style>
      .cls-1 {
        fill: #fff;
      }

      .cls-2 {
        fill: #87a2ff;
      }

      .cls-3 {
        fill: #5447e8;
      }

      .cls-4 {
        fill: #fde4f3;
      }

      .cls-5 {
        fill: #fccc41;
      }

      .cls-10, .cls-12, .cls-13, .cls-14, .cls-15, .cls-16, .cls-6, .cls-8 {
        fill: none;
      }

      .cls-12, .cls-13, .cls-15, .cls-6, .cls-8 {
        stroke: #000;
      }

      .cls-12, .cls-13, .cls-14, .cls-15, .cls-16, .cls-6 {
        stroke-linecap: round;
        stroke-linejoin: round;
      }

      .cls-6 {
        stroke-width: 0.67px;
      }

      .cls-7 {
        fill: #f8679b;
      }

      .cls-10, .cls-8 {
        stroke-miterlimit: 10;
      }

      .cls-8 {
        stroke-width: 2px;
      }

      .cls-9 {
        fill: #bcd6ff;
      }

      .cls-10, .cls-16 {
        stroke: #fde4f3;
      }

      .cls-11 {
        fill: #ffa2ff;
      }

      .cls-12 {
        stroke-width: 0.77px;
      }

      .cls-13 {
        stroke-width: 0.97px;
      }

      .cls-14 {
        stroke: #bcd6ff;
        stroke-width: 0.54px;
      }

      .cls-15 {
        stroke-width: 0.91px;
      }

      .cls-16 {
        stroke-width: 0.66px;
      }

      .cls-17 {
        opacity: 0.41;
      }

      .cls-18 {
        opacity: 0.47;
      }
    </style>
  </defs>
  <title>heroImage</title>
  <g id="PREVIEW">
    <g>
      <path class="cls-1" d="M61,242.47a16.88,16.88,0,0,1-16.86-16.86V63.49A16.87,16.87,0,0,1,61,46.64h86.9l1.45-2.94a6,6,0,0,1,5.39-3.36,6.1,6.1,0,0,1,2.31.46l14,5.84h52.11A16.87,16.87,0,0,1,240,63.49v12l12.4,5.18.25.12.31.07a6,6,0,0,1,4,8.3L240,126.26v99.35a16.88,16.88,0,0,1-16.85,16.86Z"/>
      <g>
        <path class="cls-2" d="M233.21,62.72V224.84a10.89,10.89,0,0,1-10.85,10.86H163l-3.32-2.77-2.81,2.77H99.85l-2.55-2.64-3.58,2.64H60.24a10.9,10.9,0,0,1-10.86-10.86V62.72A10.89,10.89,0,0,1,60.24,51.87H222.36A10.88,10.88,0,0,1,233.21,62.72Z"/>
        <g>
          <polygon points="94.32 180.55 154.23 61.06 250.68 85.87 185.13 229.66 94.32 180.55"/>
          <g>
            <polygon class="cls-3" points="84.53 187.19 153.98 45.57 249.3 85.4 183.94 229.06 84.53 187.19"/>
            <polygon class="cls-4" points="95.85 177.82 157.3 51.02 244.28 86.12 185.4 215.54 95.85 177.82"/>
            <g>
              <path class="cls-5" d="M178.25,62.62,220.6,81.05l.51-2.24a6.82,6.82,0,0,0-1.88-6.36l-2.44-2.38.87-5.74A6.71,6.71,0,0,0,213.21,59l-14-4.82a6.7,6.7,0,0,0-5.38.45L190,58.71l-4-.35a6.82,6.82,0,0,0-5.39,2Z"/>
              <line class="cls-6" x1="189.99" y1="58.71" x2="216.79" y2="70.07"/>
            </g>
            <g>
              <rect class="cls-7" x="180.84" y="85.07" width="8.05" height="35.56" transform="translate(58.16 -66.56) rotate(24.12)"/>
              <rect class="cls-7" x="180.84" y="85.07" width="8.05" height="35.56" transform="translate(354.26 -23.86) rotate(114.11)"/>
            </g>
          </g>
          <g>
            <path d="M134.75,116.42a.52.52,0,0,1-.05-.5.54.54,0,0,1,.69-.27l67.71,29.47a.52.52,0,0,1,.27.69.52.52,0,0,1-.68.27L135,116.61A.51.51,0,0,1,134.75,116.42Z"/>
            <path d="M131.92,122.92a.48.48,0,0,1,0-.49.51.51,0,0,1,.68-.27l67.71,29.46a.52.52,0,0,1,.27.69.52.52,0,0,1-.68.27l-67.72-29.47A.51.51,0,0,1,131.92,122.92Z"/>
            <path d="M129.09,129.43a.52.52,0,0,1,0-.5.51.51,0,0,1,.68-.27l67.71,29.46a.52.52,0,0,1-.41,1l-67.71-29.47A.52.52,0,0,1,129.09,129.43Z"/>
            <path d="M126.26,135.93a.52.52,0,0,1,0-.5.51.51,0,0,1,.68-.27l67.71,29.47a.51.51,0,0,1,.27.68.51.51,0,0,1-.68.27l-67.71-29.46A.62.62,0,0,1,126.26,135.93Z"/>
            <path d="M123.43,142.43a.52.52,0,0,1,.64-.77l67.71,29.47a.52.52,0,0,1-.41,1l-67.71-29.46A.54.54,0,0,1,123.43,142.43Z"/>
            <path d="M120.6,148.93a.55.55,0,0,1,0-.5.52.52,0,0,1,.68-.27L189,177.63a.52.52,0,1,1-.42,1l-67.71-29.46A.54.54,0,0,1,120.6,148.93Z"/>
            <path d="M117.77,155.43a.53.53,0,0,1,0-.49.51.51,0,0,1,.68-.27l67.72,29.46a.52.52,0,0,1-.42,1L118,155.62A.54.54,0,0,1,117.77,155.43Z"/>
            <path d="M115,161.94a.52.52,0,0,1,0-.5.51.51,0,0,1,.69-.27l67.71,29.46a.52.52,0,1,1-.42,1l-67.71-29.47A.56.56,0,0,1,115,161.94Z"/>
          </g>
        </g>
        <g>
          <g>
            <g>
              <path class="cls-8" d="M64.26,124.12S75.11,72.66,87.89,65.38s24.2,6.87,24.2,6.87"/>
              <g>
                <polygon points="108.05 71.33 111.74 66.89 115.02 70.39 110.81 74.76 108.05 71.33"/>
                <path d="M121.7,77.78a6.06,6.06,0,1,1-3.4-7.87A6.06,6.06,0,0,1,121.7,77.78Z"/>
              </g>
            </g>
            <g>
              <path class="cls-8" d="M100.54,128.27s.86-52.58-10-62.52-25.12,1.32-25.12,1.32"/>
              <g>
                <polygon points="69.57 67.07 66.97 61.92 62.99 64.61 66.12 69.81 69.57 67.07"/>
                <path d="M54.84,70.33a6.06,6.06,0,1,0,5.06-6.92A6.05,6.05,0,0,0,54.84,70.33Z"/>
              </g>
            </g>
          </g>
          <g>
            <path class="cls-9" d="M73.6,163.07a16,16,0,0,1-6.77-5.14c-9.07-11.63-4.39-35.35-4.18-36.35l5.88,1.19c-1.23,6.1-3.09,23.63,3,31.47a10.48,10.48,0,0,0,8.28,4.07,12.2,12.2,0,0,0,9.62-3.55c8.5-8.38,8-28,8-28.25l6-.19c0,.92.58,22.51-9.77,32.71a18.1,18.1,0,0,1-14.1,5.27A18.33,18.33,0,0,1,73.6,163.07Z"/>
            <path class="cls-9" d="M150.55,216.14c-8.44-6.67-19-9.08-29.11-11.42l-4.2-1c-2.53-.61-5.2-1.31-7.87-2.18-1.15-.37-2.29-.77-3.43-1.21l-.06,0c1.08-2.57,2.27-5.1,3.59-7.56.85-1.61,1.76-3.18,2.72-4.73.48-.8,1-1.58,1.5-2.36l-5-3.3c-.63,1-1.23,1.9-1.82,2.87q-1.41,2.31-2.69,4.68-2.06,3.87-3.77,7.92a1.29,1.29,0,0,0-.16-.09l-.63-.35a28.35,28.35,0,0,1-10-8.87c-4.67-7-5.23-16.5-5.46-24.52h0c0-.6,0-1.19,0-1.77l-6,.16c0,.58,0,1.18,0,1.79h0c.27,8.78.88,19.24,6.47,27.66a33.6,33.6,0,0,0,11,10.13c.81.49,1.63.94,2.47,1.37l.23.13a96.76,96.76,0,0,0-3,10.41,66,66,0,0,0-1.4,21.8h6a59,59,0,0,1,1.21-20.48,90.31,90.31,0,0,1,2.61-9.28l.13.06c.31.11.61.23.92.33a95.92,95.92,0,0,0,11,3.24c1.41.35,2.83.68,4.26,1,9.51,2.19,19.34,4.45,26.73,10.28A31.14,31.14,0,0,1,157,235.7h6.24A37.22,37.22,0,0,0,150.55,216.14Z"/>
          </g>
          <g>
            <path d="M129,183.48a15.91,15.91,0,1,1-8.91-20.66A15.9,15.9,0,0,1,129,183.48Z"/>
            <path class="cls-10" d="M124.14,181.53a10.64,10.64,0,1,1-6-13.81A10.63,10.63,0,0,1,124.14,181.53Z"/>
          </g>
          <g>
            <path d="M109.37,201.57l-4.56,4.76c-.32-.1-.62-.22-.93-.33a39.24,39.24,0,0,1,2.06-5.64C107.08,200.8,108.22,201.2,109.37,201.57Z"/>
            <path d="M100.25,197.76,98,203.36c-.84-.43-1.66-.88-2.47-1.36l4.07-4.58Z"/>
          </g>
        </g>
        <g>
          <g>
            <path class="cls-5" d="M227.52,176a0,0,0,0,0,0,0L163.12,227.7l-11.63-4.62L150.71,212l60.52-53.64C222.38,164.75,227.52,176,227.52,176Z"/>
            <g>
              <path d="M152.86,216.06a.45.45,0,0,1-.14-.1.39.39,0,0,1,0-.53l62-53.11a.37.37,0,0,1,.53,0,.38.38,0,0,1,0,.53l-62,53.11A.37.37,0,0,1,152.86,216.06Z"/>
              <path d="M156.87,219.65a.45.45,0,0,1-.14-.1.38.38,0,0,1,.05-.53l60.49-50.59a.37.37,0,0,1,.53,0,.38.38,0,0,1-.05.53l-60.49,50.59A.35.35,0,0,1,156.87,219.65Z"/>
              <path d="M162,225.39a.33.33,0,0,1-.14-.1.38.38,0,0,1,0-.53l60.73-52a.36.36,0,0,1,.52,0,.37.37,0,0,1,0,.53l-60.72,52A.35.35,0,0,1,162,225.39Z"/>
            </g>
            <path class="cls-11" d="M227.52,176a0,0,0,0,0,0,0c-.43.18-5.61-.06-10.68-6.14-4.52-5.44-5.93-8.33-5.7-10.66a7.35,7.35,0,0,1,.12-.85C227.11,160.25,227.52,176,227.52,176Z"/>
            <polygon class="cls-11" points="167.19 222.16 163.12 227.7 155.26 226.07 151.01 223.85 150.06 219.57 150.71 212.03 157.55 210.69 156.14 216.19 162.99 214.85 161 221.35 167.19 222.16"/>
          </g>
          <path d="M155.26,226.07l-5.67-1.17.47-5.33q.6.13,1.2.33h0a6.32,6.32,0,0,1,3.77,3.6,5.12,5.12,0,0,1,.25,1.08A4.59,4.59,0,0,1,155.26,226.07Z"/>
          <path d="M223.9,171.07c-.67.63-2.88-.62-4.94-2.8s-3.18-4.45-2.52-5.08,2.88.62,4.94,2.8S224.56,170.44,223.9,171.07Z"/>
        </g>
        <g>
          <line class="cls-12" x1="69.97" y1="196.55" x2="69.97" y2="222.09"/>
          <line class="cls-12" x1="77.4" y1="201.66" x2="61.86" y2="217.6"/>
          <line class="cls-12" x1="82.74" y1="209.32" x2="57.2" y2="209.32"/>
          <line class="cls-12" x1="77.99" y1="217.11" x2="61.86" y2="201.76"/>
        </g>
        <g>
          <line class="cls-12" x1="140.78" y1="54.93" x2="140.78" y2="80.47"/>
          <line class="cls-12" x1="148.21" y1="60.05" x2="132.67" y2="75.98"/>
          <line class="cls-12" x1="153.55" y1="67.7" x2="128.01" y2="67.7"/>
          <line class="cls-12" x1="148.8" y1="75.49" x2="132.67" y2="60.15"/>
        </g>
        <g>
          <line class="cls-12" x1="212.1" y1="201.83" x2="212.1" y2="227.37"/>
          <line class="cls-12" x1="219.53" y1="206.94" x2="203.99" y2="222.87"/>
          <line class="cls-12" x1="224.87" y1="214.6" x2="199.33" y2="214.6"/>
          <line class="cls-12" x1="220.12" y1="222.38" x2="203.99" y2="207.04"/>
        </g>
        <g>
          <g>
            <path class="cls-5" d="M87.64,165.46a8.28,8.28,0,0,1-4.12,4.85L78.26,173l-8.83,4.53A8.45,8.45,0,0,1,58.14,174a8.16,8.16,0,0,1-.54-6.31,8.33,8.33,0,0,1,4.11-4.85l7.78-4,6.32-3.24a8.44,8.44,0,0,1,11.29,3.53A8.21,8.21,0,0,1,87.64,165.46Z"/>
            <path class="cls-4" d="M77.77,173.19l-8.34,4.35A8.45,8.45,0,0,1,58.14,174a8.16,8.16,0,0,1-.54-6.31,8.33,8.33,0,0,1,4.11-4.85l7-3.63a25.65,25.65,0,0,1,4.73,5.55A39,39,0,0,1,77.77,173.19Z"/>
          </g>
          <path d="M78,173.15l-.64.33c-2.15-5.29-4.71-10.56-9.14-14l.69-.35C73.29,162.66,75.84,167.89,78,173.15Z"/>
        </g>
      </g>
    </g>
    <g>
      <path class="cls-1" d="M296.39,240.93a16.87,16.87,0,0,1-16.86-16.85V62A16.87,16.87,0,0,1,296.39,45.1h60.5a20.19,20.19,0,0,1,18.52-12.46c.62,0,1.24,0,1.85.09a25.18,25.18,0,0,1,15-7.57A21.92,21.92,0,0,1,394.7,25a14,14,0,0,1,10.55,4.15,14.19,14.19,0,0,1,3.52,8A12.36,12.36,0,0,1,416,45.1h42.52A16.87,16.87,0,0,1,475.36,62V224.08a16.8,16.8,0,0,1-6.63,13.39l-.11.08c-.53.39-1,.73-1.54,1a16.74,16.74,0,0,1-8.57,2.35Z"/>
      <g>
        <path class="cls-3" d="M469.36,62.72V224.84a10.9,10.9,0,0,1-4.29,8.64c-.34.25-.69.49-1.06.71a10.7,10.7,0,0,1-5.5,1.51H447.32L383.75,217,310.47,235.7H296.39a10.9,10.9,0,0,1-10.86-10.86V62.72a10.89,10.89,0,0,1,10.86-10.85H458.51A10.88,10.88,0,0,1,469.36,62.72Z"/>
        <g>
          <path class="cls-9" d="M463.53,186.4c-3.63-7.92-9.06-15-14.3-21.75-4.88-6.33-9.92-12.87-13.5-20.09a61.74,61.74,0,0,1-4.45-42c9.33,1.25,19-2.4,23.85-9.81a12.57,12.57,0,0,0,2.41-7.52,7.18,7.18,0,0,0-4.32-6.46c-2-.75-4.43-.43-7.19,1-8.7,4.39-12.94,13.69-15,20.72-.12.42-.24.85-.35,1.27a25.59,25.59,0,0,1-7.33-2.34c-9.75-4.83-16.81-15.62-18.42-28.16a56.19,56.19,0,0,1,1.1-19.34h-.77a56.46,56.46,0,0,0-1.07,19.44c1.64,12.78,8.85,23.79,18.83,28.73a26.28,26.28,0,0,0,7.47,2.4,62.53,62.53,0,0,0,4.53,42.45c3.61,7.29,8.68,13.86,13.58,20.21,5.22,6.77,10.61,13.77,14.21,21.62,6.59,14.37,7,31.78,1.16,47.47.37-.22.72-.46,1.06-.71C470.56,217.86,470.07,200.65,463.53,186.4Zm-31.74-85.75c2.8-9.73,8-16.93,14.58-20.26,2.56-1.29,4.78-1.61,6.59-.93a6.52,6.52,0,0,1,3.83,5.8,11.77,11.77,0,0,1-2.28,7.07c-4.72,7.15-14,10.67-23,9.49C431.57,101.43,431.68,101,431.79,100.65Z"/>
          <g>
            <path class="cls-9" d="M322.94,235.7h-.75a44.43,44.43,0,0,0-2.48-15.56c-4-11.55-12.33-22.27-25.42-32.79l-2.12-1.68c-2.25-1.77-4.55-3.58-6.64-5.57v-1a86.51,86.51,0,0,0,7.1,6c.71.56,1.42,1.12,2.12,1.69,13.22,10.6,21.61,21.44,25.67,33.12A45.12,45.12,0,0,1,322.94,235.7Z"/>
            <path class="cls-9" d="M341,87.42c-2.48,7.89-7.48,18.26-17.14,22.9-3.82,1.84-8,2.61-12.14,3.35a72.43,72.43,0,0,0-7.93,1.75,36.9,36.9,0,0,0-18.3,13V127a37.71,37.71,0,0,1,18.09-12.31,72.61,72.61,0,0,1,8-1.77c4-.73,8.22-1.49,11.94-3.28,9.42-4.53,14.31-14.71,16.76-22.45a75.18,75.18,0,0,0,2.34-35.33h.76A75.71,75.71,0,0,1,341,87.42Z"/>
          </g>
        </g>
        <g>
          <g>
            <path class="cls-11" d="M407.1,73.92a83.88,83.88,0,0,1,1.16,12.8c.16,4.88.19,9.77.48,14.64a12.85,12.85,0,0,1-11.38,13.55l-5.44.72v.12l.72,5.69.26,2.11.85,4.62,1.74,25.51-32.1-24.9L361.52,108c-8-.12-14.16-7-11.34-14.13,1.84-4.64,6-4.35,9.06-3.32a26.07,26.07,0,0,1,40.28-32C403.87,62.67,406,68.14,407.1,73.92Z"/>
            <g>
              <path d="M378.12,78.52c-.95.58-1.61,1.42-1.47,2.18a1.36,1.36,0,0,0,.51.81,1.81,1.81,0,0,0,.92.4,4.4,4.4,0,0,0,1.67-.2,26.53,26.53,0,0,0,3.09-1,5.25,5.25,0,0,0,1.27-.66,1.62,1.62,0,0,0,.61-1.88,1.57,1.57,0,0,0-1.36-1A10.87,10.87,0,0,0,378.12,78.52Z"/>
              <path d="M404.37,74.93c1.08.26,2,.84,2.08,1.61a1.35,1.35,0,0,1-.23.93,1.84,1.84,0,0,1-.75.67,4.45,4.45,0,0,1-1.64.34,27.16,27.16,0,0,1-3.25,0,5.55,5.55,0,0,1-1.41-.22,1.64,1.64,0,0,1-1.18-1.6,1.58,1.58,0,0,1,1-1.42A11,11,0,0,1,404.37,74.93Z"/>
              <path class="cls-13" d="M394.16,80.1a68.27,68.27,0,0,1,2.17,10,4.08,4.08,0,0,1-.2,2.57c-.59,1.1-2,1.44-3.21,1.62"/>
            </g>
            <path d="M391.94,98.32a5.78,5.78,0,0,1-3.1-1.77.46.46,0,0,1,0-.66.45.45,0,0,1,.65,0,4.72,4.72,0,0,0,7,0,.47.47,0,1,1,.7.62,5.71,5.71,0,0,1-4.2,1.89A5.88,5.88,0,0,1,391.94,98.32Z"/>
            <path d="M392.65,121.44c-14.69.22-19.08-5.47-19.08-5.47a75.93,75.93,0,0,0,18.36-.22Z"/>
            <path d="M361.6,103.68h-.06a.38.38,0,0,1-.36-.39,13.75,13.75,0,0,0-2.23-7.9,9.07,9.07,0,0,0-3.1-3,5.42,5.42,0,0,0-4.13-.58.38.38,0,0,1-.46-.25.38.38,0,0,1,.25-.47,6.17,6.17,0,0,1,4.7.65A9.83,9.83,0,0,1,359.58,95a14.57,14.57,0,0,1,2.35,8.34A.38.38,0,0,1,361.6,103.68Z"/>
            <g>
              <path d="M384.28,88.08a2.73,2.73,0,1,1-3-2.41A2.73,2.73,0,0,1,384.28,88.08Z"/>
              <path d="M404.48,85.77a2.73,2.73,0,1,1-3-2.41A2.74,2.74,0,0,1,404.48,85.77Z"/>
            </g>
          </g>
          <path d="M350.13,94c.79-1.57,2.17-3.37,3.89-3.79a6.14,6.14,0,0,1,5,1,12,12,0,0,1,3,3.62c1.48,0,2-1.61,2.21-3.07s0-3.08.83-4.3,2.15-1.61,3.23-2.43c2.05-1.57,2.89-4.26,3.25-6.82,1.08-7.77-1.09-15.61-3.69-23a87.28,87.28,0,0,0-18.45,6.41,6.17,6.17,0,0,0-1.92,1.33,5.61,5.61,0,0,0-1.08,2.54,31.72,31.72,0,0,0-.56,7C345.9,79.41,347.82,87.4,350.13,94Z"/>
          <path d="M348.37,66a10.61,10.61,0,0,1,9.24-13.67,6.5,6.5,0,0,0,2.75-.54c1.15-.69,1.52-2.15,2-3.41a14.14,14.14,0,0,1,14.82-8.89,4.93,4.93,0,0,0,2.26,0,4.67,4.67,0,0,0,1.8-1.49A19,19,0,0,1,393,31.89c2.8-.34,5.93.09,7.86,2.15S403,39.51,403,42.49a11.54,11.54,0,0,1,5.34,2.11,8,8,0,0,1,2.4,6,12.87,12.87,0,0,1-22.21,9,14.61,14.61,0,0,1-25.66,3.79c-3.11,1.54-6.4,3-9.51,4.55a3.63,3.63,0,0,0-2.16-.4C350.43,67.54,348.59,66.75,348.37,66Z"/>
          <path class="cls-9" d="M447.05,235.7l-62.28-12.6-74,12.6c.15-13.49,1.31-48.19,8.94-68.72a44.32,44.32,0,0,1,4.32-8.56c.17-.29.36-.56.54-.83s.34-.5.51-.74.47-.68.71-1,.5-.67.76-1l.77-1c.53-.65,1.06-1.29,1.61-1.91.27-.32.56-.63.83-.93l.85-.92.85-.88c.59-.59,1.17-1.16,1.77-1.73.88-.85,1.79-1.65,2.71-2.43l.91-.77.08-.07q.85-.71,1.71-1.38l.06-.05,1.65-1.25.22-.16.92-.67c.31-.22.62-.45.94-.66s.62-.44.92-.65l.92-.61c1.23-.83,2.43-1.59,3.61-2.3l.88-.53c1.46-.86,2.87-1.64,4.18-2.34.26-.14.53-.29.78-.41l.77-.4c.25-.14.5-.26.74-.38l.89-.44c1.72-.85,3.22-1.52,4.41-2,.15-.06.28-.13.43-.18l.3-.13.49-.2.6-.25.21-.08.29-.11.36-.14.18-.07h0l28.61,21,1.73-21.65h0l.07,0,.22.07c.2,0,.47.14.82.25l.71.23.5.17.77.25,1.65.56,2.05.73c1.84.67,4,1.49,6.26,2.44l.87.36.21.09.06,0,1.46.7,1.06.52c1.13.56,2.28,1.17,3.43,1.83.58.33,1.15.67,1.73,1s1.11.68,1.66,1l.06,0c1.13.73,2.25,1.51,3.34,2.33l.28.21,1.37,1.07.05.05c.41.33.83.68,1.23,1,.86.75,1.68,1.52,2.48,2.33.52.52,1,1.06,1.51,1.61l0,0q.75.84,1.44,1.74l.5.66c.15.2.3.41.44.62l.39.56c.21.31.41.62.6.94s.4.64.58,1,.37.66.54,1,.23.45.34.67a26.36,26.36,0,0,1,1.05,2.44C442.29,180.15,446,220.89,447.05,235.7Z"/>
          <path class="cls-4" d="M447.05,235.7H310.75c.15-13.49,1.31-48.19,8.94-68.72a44.32,44.32,0,0,1,4.32-8.56c.17-.29.36-.56.54-.83s.34-.5.51-.74.47-.68.71-1,.5-.67.76-1l.77-1c.53-.65,1.06-1.29,1.61-1.91.27-.32.56-.63.83-.93l.85-.92.85-.88c.59-.59,1.17-1.16,1.77-1.73.88-.85,1.79-1.65,2.71-2.43l.91-.77.08-.07q.85-.71,1.71-1.38l.06-.05,1.65-1.25.22-.16.92-.67c.31-.22.62-.45.94-.66s.62-.44.92-.65l.92-.61c1.23-.83,2.43-1.59,3.61-2.3l.88-.53c1.46-.86,2.87-1.64,4.18-2.34.26-.14.53-.29.78-.41l.77-.4c.25-.14.5-.26.74-.38l.89-.44c1.72-.85,3.22-1.52,4.41-2,.15-.06.28-.13.43-.18l.3-.13.49-.2.6-.25.21-.08.29-.11c3.49,2.58,27.47,20.81,35.84,41.93.11.26.22.53.31.8l-.19-1.65h0l-5-41.7,0-.19h0l.07,0c.42.1,2.06.54,4.47,1.34q1,.32,2.07.72c2.13.77,4.63,1.76,7.31,3l.21.09.06,0,1.46.7,1.06.52c1.13.57,2.28,1.18,3.43,1.83.58.33,1.15.67,1.73,1s1.11.68,1.66,1l.06,0c1.13.74,2.25,1.51,3.34,2.33l.28.21,1.37,1.07.05.05c.41.33.83.68,1.23,1,.86.75,1.68,1.52,2.48,2.33.52.52,1,1.06,1.51,1.61l0,0q.75.84,1.44,1.74l.5.66c.15.2.3.41.44.62l.39.56c.21.31.41.62.6.94s.4.64.58,1,.37.66.54,1,.23.45.34.67a26.36,26.36,0,0,1,1.05,2.44C442.29,180.15,446,220.89,447.05,235.7Z"/>
          <g>
            <path d="M406,235.7h-1c-.45-18.64-1.65-41.47-4.72-52.41-5.57-19.87-41.29-25.72-41.65-25.77a.51.51,0,0,1-.39-.32.49.49,0,0,1,.11-.5l8.92-9.63L358,144.31l-.94-.28-13.19-3.94a.49.49,0,0,1-.33-.61.48.48,0,0,1,.6-.33l13.07,3.9.94.28,10.13,3a.53.53,0,0,1,.33.34.48.48,0,0,1-.12.46l-8.83,9.54c5.1.93,29.55,6,38.78,20.29.32.5.62,1,.91,1.52a21.89,21.89,0,0,1,1.85,4.52c2,7.21,3.24,19.53,4,32.43v0c0,.47.06.94.08,1.41C405.58,223.24,405.81,229.69,406,235.7Z"/>
            <path d="M420.12,147.11a.49.49,0,0,1-.37.44c-.22.06-22,5.69-20.29,30.6a.48.48,0,0,1-.12.36.52.52,0,0,1-.33.16h0a.47.47,0,0,1-.47-.45c0-.42-.05-.83-.07-1.23a37.16,37.16,0,0,1,.24-6.07c0-.29.08-.58.12-.85h0c2.4-15.73,15.07-21.5,19.33-23l-18.32-6.72a.47.47,0,0,1-.31-.42.47.47,0,0,1,.25-.46l9.7-5.36,1.06.52-9.35,5.17,18.65,6.86A.49.49,0,0,1,420.12,147.11Z"/>
            <path d="M351.12,235.7h-1L350,181.92a.49.49,0,1,1,1,0Z"/>
            <path d="M430.63,235.7h-1l-1.51-18.57-.55-6.75-2.73-33.65a.49.49,0,0,1,.44-.53.5.5,0,0,1,.53.45l2.77,34.15.46,5.75Z"/>
          </g>
          <path class="cls-13" d="M405.2,179.68h16.92s.5,25.12-7.71,23.38S405.2,179.68,405.2,179.68Z"/>
          <g>
            <path d="M413.2,167.44a.46.46,0,0,1-.4.52h-.08a.47.47,0,0,1-.47-.41,0,0,0,0,1,0,0,1.79,1.79,0,0,1,0-.23l-.06-.49c-.8-7.53-1.85-15.45-4.66-22.85-2.18-5.75-6.39-13.56-14.15-18.27l-.17-1.08a.47.47,0,0,1,.36,0c8.18,4.83,12.61,13,14.88,19,2.88,7.61,3.93,15.72,4.73,23.4a.77.77,0,0,1,0,.15Z"/>
            <g>
              <g>
                <path class="cls-2" d="M425.68,214.35h0c-8-.67-15.56-6.84-19.21-15.72-3.51-8.52-3.14-18.08,1-25.59a16.52,16.52,0,0,1,5.13-6,.49.49,0,0,1,.68.14.48.48,0,0,1-.14.67,15.71,15.71,0,0,0-4.82,5.62c-4,7.25-4.32,16.5-.93,24.75,3.51,8.54,10.73,14.48,18.39,15.12a.49.49,0,0,1,0,1Z"/>
                <path class="cls-2" d="M410.33,216.46a.54.54,0,0,1-.3-.1.5.5,0,0,1-.09-.69,47.44,47.44,0,0,0,8.88-35.7c-1-6-3.19-10.19-6.58-12.41a.49.49,0,1,1,.54-.81c3.62,2.37,6,6.76,7,13.07a48.4,48.4,0,0,1-9.08,36.44A.47.47,0,0,1,410.33,216.46Z"/>
              </g>
              <path d="M412.25,216a3.57,3.57,0,1,1-3.57-3.57A3.57,3.57,0,0,1,412.25,216Z"/>
              <path d="M430.33,213.84a3.57,3.57,0,1,1-3.57-3.56A3.57,3.57,0,0,1,430.33,213.84Z"/>
            </g>
            <g>
              <path d="M361.94,186.24c.17.66.34,1.32.5,2a.48.48,0,0,1-.17.5.51.51,0,0,1-.18.09H362l-.11,0a.48.48,0,0,1-.35-.34c-.18-.67-.34-1.36-.51-2-2.39-9.57-4.52-19.76-4.74-29.94-.25-11.67,2.13-22.24,6.9-30.65l.15,1.75c-4.22,8-6.32,18-6.07,28.88C357.43,166.57,359.57,176.71,361.94,186.24Z"/>
              <g>
                <circle cx="363.38" cy="195.5" r="9.37" transform="translate(112.35 522.99) rotate(-80.81)"/>
                <path class="cls-4" d="M363.38,188.63a5.8,5.8,0,0,0-1.11.1,2.61,2.61,0,0,0-.42.08,6.84,6.84,0,1,0,1.53-.18Zm0,12.77a5.9,5.9,0,1,1,5.89-5.9A5.9,5.9,0,0,1,363.38,201.4Z"/>
              </g>
            </g>
          </g>
        </g>
        <g>
          <line class="cls-12" x1="319.07" y1="72.8" x2="319.07" y2="98.34"/>
          <line class="cls-12" x1="326.49" y1="77.92" x2="310.95" y2="93.85"/>
          <line class="cls-12" x1="331.84" y1="85.57" x2="306.3" y2="85.57"/>
          <line class="cls-12" x1="327.08" y1="93.36" x2="310.95" y2="78.01"/>
        </g>
        <g>
          <line class="cls-12" x1="452.34" y1="145.14" x2="452.34" y2="170.68"/>
          <line class="cls-12" x1="459.77" y1="150.26" x2="444.23" y2="166.19"/>
          <line class="cls-12" x1="465.11" y1="157.91" x2="439.57" y2="157.91"/>
          <line class="cls-12" x1="460.36" y1="165.7" x2="444.23" y2="150.35"/>
        </g>
        <g>
          <g>
            <g>
              <rect class="cls-4" x="452.76" y="109.24" width="3.02" height="10.69" transform="translate(-3.35 214.95) rotate(-26.53)"/>
              <path class="cls-4" d="M450.62,124.25a1.52,1.52,0,0,1-.27-2.85l12.12-5.58a1.51,1.51,0,0,1,1.26,2.75l-12.12,5.58A1.55,1.55,0,0,1,450.62,124.25Z"/>
            </g>
            <path d="M429.15,61.07a.5.5,0,0,1-.38.22.62.62,0,0,1-.5-.43l-.67-1.5-.44-1-2.9-6.51h1.57l2.4,5.36.72,1.61.35.79A1.49,1.49,0,0,1,429.15,61.07Z"/>
            <path class="cls-4" d="M445.43,115.54l-22.17-48a2,2,0,0,1,1.07-2.71l11-4.51a2,2,0,0,1,2.59,1l22.43,48.24Z"/>
            <polygon class="cls-5" points="457.59 107.19 436.02 62.57 425.5 66.41 446.25 112.5 457.59 107.19"/>
            <g>
              <polygon class="cls-4" points="436.02 62.57 425.24 65.72 424.73 64.56 423.96 62.83 423.19 61.08 433.08 57.23 434.83 60.41 434.87 60.49 436.02 62.57"/>
              <polygon points="434.87 60.49 424.73 64.56 423.96 62.83 434.83 60.41 434.87 60.49"/>
            </g>
            <g>
              <path d="M427.79,73.6a.58.58,0,0,1-.37-.3.55.55,0,0,1,.26-.73l3.77-1.83a.55.55,0,0,1,.73.26.54.54,0,0,1-.25.73l-3.77,1.83A.53.53,0,0,1,427.79,73.6Z"/>
              <path d="M429.58,78.08a.55.55,0,0,1-.11-1l4.11-2a.55.55,0,0,1,.49,1L430,78A.56.56,0,0,1,429.58,78.08Z"/>
              <path d="M431.75,81.64a.51.51,0,0,1-.36-.28.55.55,0,0,1,.24-.74l3.63-1.86A.56.56,0,0,1,436,79a.55.55,0,0,1-.24.74l-3.63,1.86A.51.51,0,0,1,431.75,81.64Z"/>
            </g>
          </g>
          <g>
            <g>
              <rect class="cls-4" x="302.53" y="151.64" width="10.69" height="3.02" transform="matrix(0.15, -0.99, 0.99, 0.15, 111.46, 435.4)"/>
              <path class="cls-4" d="M316.39,147.32a1.52,1.52,0,0,1,.35,1.27,1.5,1.5,0,0,1-1.75,1.22l-13.13-2.36a1.51,1.51,0,0,1,.53-3l13.13,2.35A1.61,1.61,0,0,1,316.39,147.32Z"/>
            </g>
            <path d="M297.84,211.42a.47.47,0,0,1,.44,0,.61.61,0,0,1,.16.63l-.51,2.67-2.27,11.84-1.43-.2,2.17-11.3.49-2.58A1.51,1.51,0,0,1,297.84,211.42Z"/>
            <path class="cls-4" d="M315.66,157.44l-9.3,52.07a2,2,0,0,1-2.43,1.61L292.3,208.5a2,2,0,0,1-1.54-2.31l9.22-52.4Z"/>
            <polygon class="cls-5" points="300.92 157.33 293.06 206.26 303.89 209.13 313.25 159.46 300.92 157.33"/>
            <g>
              <polygon class="cls-4" points="293.06 206.26 303.71 209.85 303.47 211.09 303.1 212.95 302.73 214.83 292.42 212.32 292.81 208.71 292.82 208.63 293.06 206.26"/>
              <polygon points="292.82 208.63 303.47 211.09 303.1 212.95 292.81 208.71 292.82 208.63"/>
            </g>
            <g>
              <path d="M306.13,201.92a.6.6,0,0,1,.13.45.55.55,0,0,1-.63.46l-4.14-.66a.55.55,0,0,1-.45-.63.55.55,0,0,1,.63-.46l4.13.66A.63.63,0,0,1,306.13,201.92Z"/>
              <path d="M307.22,197.22a.52.52,0,0,1,.13.45.54.54,0,0,1-.62.46l-4.53-.69a.57.57,0,0,1-.47-.63.56.56,0,0,1,.63-.46l4.53.69A.57.57,0,0,1,307.22,197.22Z"/>
              <path d="M307.49,193.06a.57.57,0,0,1,.13.44.55.55,0,0,1-.62.47l-4-.56a.55.55,0,0,1,.15-1.09l4,.56A.57.57,0,0,1,307.49,193.06Z"/>
            </g>
          </g>
        </g>
      </g>
    </g>
    <g>
      <path class="cls-1" d="M66.54,472.17a16.88,16.88,0,0,1-16.86-16.86V343.13L32.41,296.59a12.37,12.37,0,0,1,.39-9.46l2.52-5.38a6.11,6.11,0,0,1,.7-1.88A6,6,0,0,1,40.23,277l79.66-13.14a6.58,6.58,0,0,1,1-.08,6,6,0,0,1,5.57,3.78l3.52,8.82h98.7a16.87,16.87,0,0,1,16.85,16.85V455.31a16.8,16.8,0,0,1-6.63,13.39l-.1.08c-.55.4-1.05.74-1.56,1a16.77,16.77,0,0,1-8.56,2.35Z"/>
      <g>
        <path class="cls-3" d="M239.77,293.19V455.31a10.9,10.9,0,0,1-4.29,8.64c-.34.25-.69.49-1.06.71a10.7,10.7,0,0,1-5.5,1.51H66.8a10.9,10.9,0,0,1-10.86-10.86V293.19A10.89,10.89,0,0,1,66.8,282.34H228.92A10.88,10.88,0,0,1,239.77,293.19Z"/>
        <g>
          <g>
            <g>
              <path d="M172.14,417.16,117,278.9,48.75,290.17l-7.08-7.29-3.18,6.79a6.28,6.28,0,0,0-.2,4.83L99.94,460.67a4.75,4.75,0,0,0,5.87,2.88l73.34-23.11a4.64,4.64,0,0,0,2.87-2.56l3.23-7.23Z"/>
              <polygon class="cls-9" points="41.47 282.88 105.59 455.74 185.25 430.65 121.12 269.74 41.47 282.88"/>
              <polygon class="cls-4" points="46.25 288.19 74.01 363.04 115.94 443.44 167.25 424.55 146.27 340.31 120.61 275.92 46.25 288.19"/>
              <polygon class="cls-9" points="64.27 283.18 72.03 287.37 101.61 281.69 105.79 274.82 64.27 283.18"/>
              <g>
                <path class="cls-14" d="M42.12,297.3h0a1.9,1.9,0,0,0,0,1.37l6.34,16.88a1.33,1.33,0,0,0,2.15.67h0a1.85,1.85,0,0,0,.43-2L44.7,297.34A1.34,1.34,0,0,0,42.12,297.3Z"/>
                <path class="cls-14" d="M51,322.36h0a2,2,0,0,0,0,1.37l6.35,16.88a1.33,1.33,0,0,0,2.15.67h0a1.87,1.87,0,0,0,.43-2L53.55,322.4A1.33,1.33,0,0,0,51,322.36Z"/>
              </g>
            </g>
            <g>
              <g>
                <path class="cls-1" d="M118.58,338.29l.94-.3c4-1.2,18.48-4.56,26.54,1.54l34.67,87.14-74.34,24.57L73.77,362.66A103.9,103.9,0,0,1,87,351.3Z"/>
                <g>
                  <path class="cls-11" d="M106.32,298.82a54.58,54.58,0,0,1,3.78,7.83c1.25,3.06,2.42,6.14,3.76,9.16a8.35,8.35,0,0,1,.28,6.06,8.79,8.79,0,0,1-4.59,5.08l-3.41,1.68,0,.07,1.81,3.44.67,1.28,1.64,2.73-4.11,9L90.48,343.4l-6.12-12.7c-5.31,1.73-11-1.26-10.78-6.38.12-3.35,2.89-4.1,5.18-4.15a17.44,17.44,0,0,1-4.4-5.49,17.14,17.14,0,0,1,8.27-23.35,17.61,17.61,0,0,1,23.69,7.49Z"/>
                  <g>
                    <path d="M88.34,308.28a1.59,1.59,0,0,0-.45,1.71.93.93,0,0,0,.52.4,1.25,1.25,0,0,0,.7,0,2.9,2.9,0,0,0,1-.5A17.45,17.45,0,0,0,92,308.6a3.44,3.44,0,0,0,.68-.7,1.06,1.06,0,0,0,0-1.33,1.13,1.13,0,0,0-1.14-.36A7.67,7.67,0,0,0,88.34,308.28Z"/>
                    <path d="M103.68,300.82a1.77,1.77,0,0,1,1.75.55.91.91,0,0,1,.07.64,1.29,1.29,0,0,1-.34.59,3.31,3.31,0,0,1-1,.59,19.21,19.21,0,0,1-2.13.74,3.57,3.57,0,0,1-1,.18,1.12,1.12,0,0,1-1.15-.74,1,1,0,0,1,.29-1.12A7.83,7.83,0,0,1,103.68,300.82Z"/>
                  </g>
                  <path d="M102.09,317.68a4.18,4.18,0,0,1-2.46-.42.32.32,0,0,1-.13-.43.34.34,0,0,1,.44-.12,3.47,3.47,0,0,0,2.68.2,3.27,3.27,0,0,0,1.94-1.79.34.34,0,0,1,.42-.18.31.31,0,0,1,.18.41,3.91,3.91,0,0,1-2.32,2.15A4.56,4.56,0,0,1,102.09,317.68Z"/>
                  <path d="M108,332.14c-9.61,3.47-13.83.86-13.83.86a53.66,53.66,0,0,0,12-4.3Z"/>
                  <path d="M83.39,327.93h0a.26.26,0,0,1-.33-.16,9.27,9.27,0,0,0-3.33-4.49,6.41,6.41,0,0,0-2.76-1.23,3.92,3.92,0,0,0-2.85.56.26.26,0,0,1-.36-.05.24.24,0,0,1,0-.35,4.47,4.47,0,0,1,3.25-.66,7.15,7.15,0,0,1,3,1.32,9.78,9.78,0,0,1,3.5,4.75A.24.24,0,0,1,83.39,327.93Z"/>
                  <g>
                    <path d="M94.64,312.93a1.8,1.8,0,0,1-.87,2.46,2,2,0,0,1-2.55-.84,1.8,1.8,0,0,1,.87-2.45A1.93,1.93,0,0,1,94.64,312.93Z"/>
                    <path d="M106.61,307.05a1.81,1.81,0,0,1-.87,2.46,1.94,1.94,0,0,1-2.55-.84,1.79,1.79,0,0,1,.87-2.45A2,2,0,0,1,106.61,307.05Z"/>
                  </g>
                </g>
                <path d="M74,322.49c.06-.42.47-.71.85-.91a8.06,8.06,0,0,1,7.63.17,10.94,10.94,0,0,0-1.34-4.21c1.49-.41,2.49-2,3.3-3.29,3.17-5.11,5.08-11.38,3.49-17.18a26.58,26.58,0,0,0-3.77-7.55,53.6,53.6,0,0,0-11.85,7.33,15,15,0,0,0-3.94,4.43c-1.7,3.28-1.14,7.32.25,10.76S72.49,319.1,74,322.49Z"/>
                <path d="M79.3,292.83a21.54,21.54,0,0,1,16.33-6.66,12.82,12.82,0,0,1,4,.74c2.59,1,4.58,3.06,6.39,5.15,0,.7-.73,1.26-1.34,1.61a29.69,29.69,0,0,1-10,3.58,21.16,21.16,0,0,1-8.39-.14A13.13,13.13,0,0,1,79.3,292.83Z"/>
                <path class="cls-9" d="M123.53,389.71c-.17-.2-.37-.41-.57-.61l-34.86-37-.83-.89,0-.05-.25-.26.38-.58,1.12-1.8,1-1.58-.3-6,.2.05,14.55,3.25.73.17h1l.27-1,2.72-10.07,6,4.67,3.27.16.66,0,0,.24,4.72,49.06Z"/>
                <polyline class="cls-15" points="89.62 347.53 102.47 362.55 105.67 344.49 118.42 353.57 114.65 338.09"/>
                <path class="cls-15" d="M76.76,359l11.46,1.4-5.88,12.54s32.06,6.45,41.19,16.78,22.15,46.41,22.15,46.41"/>
                <path class="cls-15" d="M133.29,335.92l-8.52,13.63,11,3.25s-17.5,20.9-10.53,38.71"/>
                <line class="cls-15" x1="105.67" y1="344.49" x2="124.36" y2="390.12"/>
                <path class="cls-15" d="M136.75,380.83l15.48-6s9.92,17.55,2.07,20.86S136.75,380.83,136.75,380.83Z"/>
              </g>
              <g>
                <path d="M117.92,338.25l.37.15.32.13a31.62,31.62,0,0,1,9.23,6.1,41.79,41.79,0,0,1,4.4,4.76c.77,1,1.5,2,2.2,3,.25.37.5.75.74,1.13a101.13,101.13,0,0,1,7.53,14.71h0l.2.41a.64.64,0,0,0,.08.19s0,0,0,0a.44.44,0,0,0,.54.23s0,0,0,0l0,0a.42.42,0,0,0,.21-.56c0-.09-.07-.17-.11-.24a.38.38,0,0,0-.06-.13c-2.84-6.54-6-13.41-10.69-19.3a44,44,0,0,0-4.62-5,33,33,0,0,0-8.74-5.87Z"/>
                <g>
                  <g>
                    <path class="cls-2" d="M167.89,406.39h0c-7.26,1.64-15.63-1.7-21.32-8.51a27.7,27.7,0,0,1-6.27-22.84,15.33,15.33,0,0,1,2.86-6.69.46.46,0,1,1,.71.57,14.37,14.37,0,0,0-2.69,6.29,26.84,26.84,0,0,0,6.08,22.09c5.48,6.56,13.5,9.78,20.43,8.21a.45.45,0,0,1,.54.34A.44.44,0,0,1,167.89,406.39Z"/>
                    <path class="cls-2" d="M154.94,412.53a.57.57,0,0,1-.29,0,.45.45,0,0,1-.27-.58,43.91,43.91,0,0,0-2.12-34c-2.55-5-5.66-8.1-9.27-9.11a.45.45,0,1,1,.25-.87c3.85,1.08,7.16,4.3,9.82,9.57a44.85,44.85,0,0,1,2.17,34.68A.47.47,0,0,1,154.94,412.53Z"/>
                  </g>
                  <path d="M156.51,411.59a3.3,3.3,0,1,1-4.14-2.15A3.31,3.31,0,0,1,156.51,411.59Z"/>
                  <path d="M170.32,404.64a3.3,3.3,0,1,1-4.14-2.15A3.3,3.3,0,0,1,170.32,404.64Z"/>
                </g>
                <g>
                  <path d="M104.82,401.48a.5.5,0,0,1-.13.12.25.25,0,0,1-.11,0l-.11,0a.45.45,0,0,1-.41-.21c-.34-.54-.68-1.1-1-1.65-4.74-7.73-9.44-16.06-12.47-24.92a1.15,1.15,0,0,1-.06-.17,64.74,64.74,0,0,1-3-12.85c-.08-.52-.14-1.05-.17-1.58a48.9,48.9,0,0,1-.09-9,.06.06,0,0,1,0-.06c0-.28,0-.55.09-.83l1.12-1.8c-.12.73-.21,1.48-.28,2.24,0,.45-.07.89-.1,1.34a58,58,0,0,0,3.28,22.3c.08.24.16.49.26.73,3,8.59,7.58,16.68,12.2,24.21l1,1.61A.47.47,0,0,1,104.82,401.48Z"/>
                  <g>
                    <path d="M116,404.53a8.67,8.67,0,1,1-10.88-5.66A8.65,8.65,0,0,1,116,404.53Z"/>
                    <path class="cls-4" d="M113.75,405.22a6.35,6.35,0,0,0-8-4.14,4.66,4.66,0,0,0-1,.4,1.92,1.92,0,0,0-.35.18,6.36,6.36,0,1,0,9.28,3.56Zm-4.41,7.11a5.45,5.45,0,1,1,3.54-6.84A5.46,5.46,0,0,1,109.34,412.33Z"/>
                  </g>
                </g>
              </g>
            </g>
          </g>
          <g>
            <path class="cls-1" d="M234.06,294.17H149.3a2.21,2.21,0,0,0-2.21,2.21v28.26a2.21,2.21,0,0,0,2.21,2.21h4.62l-10.24,11.57,18.19-11.57h72.19a2.21,2.21,0,0,0,2.22-2.21V296.38A2.21,2.21,0,0,0,234.06,294.17Z"/>
            <g>
              <line class="cls-15" x1="185.38" y1="302.51" x2="229.81" y2="302.51"/>
              <line class="cls-15" x1="185.38" y1="306.25" x2="229.81" y2="306.25"/>
              <line class="cls-15" x1="185.38" y1="310" x2="229.81" y2="310"/>
              <line class="cls-15" x1="185.38" y1="313.74" x2="229.81" y2="313.74"/>
              <line class="cls-15" x1="185.38" y1="317.49" x2="229.81" y2="317.49"/>
              <line class="cls-15" x1="185.38" y1="321.23" x2="229.81" y2="321.23"/>
            </g>
            <g>
              <rect class="cls-7" x="164.01" y="300.35" width="4.79" height="21.17" transform="translate(5.38 -2.82) rotate(0.99)"/>
              <rect class="cls-7" x="164.01" y="300.35" width="4.79" height="21.17" transform="translate(480.16 149.91) rotate(90.99)"/>
            </g>
          </g>
          <g>
            <path class="cls-7" d="M204.35,370.29s-14.89-15.58-25.5-6.86C156.59,381.71,204,416,204,416s51.83-36.21,24.77-53.41C217.55,355.43,204.35,370.29,204.35,370.29Z"/>
            <path class="cls-16" d="M176.07,391.2l4.63-7.38,4,7.95,7.16-16.67s2.83,29,3,28.41S199,383.44,199,383.44l1.49,7.57h13.42l4.62-17.8,2.08,26.7,1.2-11.17h15.8"/>
          </g>
          <g>
            <g>
              <line class="cls-12" x1="192.36" y1="331.86" x2="192.36" y2="357.41"/>
              <line class="cls-12" x1="199.79" y1="336.98" x2="184.25" y2="352.91"/>
              <line class="cls-12" x1="205.13" y1="344.64" x2="179.59" y2="344.64"/>
              <line class="cls-12" x1="200.38" y1="352.42" x2="184.25" y2="337.08"/>
            </g>
            <g>
              <line class="cls-12" x1="222.32" y1="429.57" x2="222.32" y2="455.11"/>
              <line class="cls-12" x1="229.75" y1="434.68" x2="214.21" y2="450.61"/>
              <line class="cls-12" x1="235.09" y1="442.34" x2="209.55" y2="442.34"/>
              <line class="cls-12" x1="230.33" y1="450.12" x2="214.21" y2="434.78"/>
            </g>
            <g>
              <line class="cls-12" x1="75.26" y1="429.57" x2="75.26" y2="455.11"/>
              <line class="cls-12" x1="82.68" y1="434.68" x2="67.14" y2="450.61"/>
              <line class="cls-12" x1="88.03" y1="442.34" x2="62.48" y2="442.34"/>
              <line class="cls-12" x1="83.27" y1="450.12" x2="67.14" y2="434.78"/>
            </g>
          </g>
        </g>
      </g>
    </g>
    <g>
      <path class="cls-1" d="M296.39,469.7a16.87,16.87,0,0,1-16.86-16.86V290.72a16.87,16.87,0,0,1,16.86-16.85H458.51a16.87,16.87,0,0,1,16.85,16.85V452.84a16.83,16.83,0,0,1-6.63,13.4l-.11.08c-.54.4-1.05.73-1.55,1a16.67,16.67,0,0,1-8.56,2.35Z"/>
      <g>
        <path class="cls-9" d="M469.87,290.72V452.84a10.9,10.9,0,0,1-4.29,8.64c-.34.25-.69.49-1.06.71a10.7,10.7,0,0,1-5.5,1.51h-4l-66.38-17.62L303.15,463.7H296.9A10.9,10.9,0,0,1,286,452.84V290.72a10.89,10.89,0,0,1,10.86-10.85H459A10.88,10.88,0,0,1,469.87,290.72Z"/>
        <g>
          <path class="cls-2" d="M296.32,461.05A69,69,0,0,1,286,447.67v1.94a70.92,70.92,0,0,0,9.57,12.14q1,1,2,1.95h1.46C298.11,462.83,297.2,462,296.32,461.05Zm52.91-181.18h-1c3,18.71-3.55,38.76-17.71,51.64a43,43,0,0,1-9.82,6.78,2.17,2.17,0,0,0-.07-.24,16,16,0,0,0-20.67-9.88,7.67,7.67,0,0,0-3.75,2.89c-1.44,2.3-.9,5.72,1.25,7.94a12.28,12.28,0,0,0,7.48,3.29A27.6,27.6,0,0,0,320,339.76c.84,4.6-.48,9.93-3.71,14.86-2.69,4.11-6.34,7.59-9.87,10.95-.65.63-1.31,1.25-2,1.88A108.7,108.7,0,0,0,286,390.32v2a105.41,105.41,0,0,1,19.11-24.19l2-1.87c3.57-3.41,7.26-6.93,10-11.13,3.43-5.24,4.78-10.93,3.8-15.85a45,45,0,0,0,10.25-7.07C345.54,319.18,352.23,298.86,349.23,279.87ZM305.05,341.3a11.4,11.4,0,0,1-6.89-3c-1.56-1.62-2.49-4.53-1.13-6.72a6.83,6.83,0,0,1,3.3-2.49,12.82,12.82,0,0,1,5-1,15.23,15.23,0,0,1,6.59,1.54,14.22,14.22,0,0,1,7.72,8.67c0,.13.08.26.11.4A27.14,27.14,0,0,1,305.05,341.3Z"/>
          <path class="cls-2" d="M459.4,345.39c-4.25-7-6.69-15.57-7.67-26.94-.11-1.28-.2-2.52-.26-3.72a33.35,33.35,0,0,0,6.54-3.81c2.92-2.2,7.73-6.76,7.22-12.58a8.2,8.2,0,0,0-5.39-6.59,5.44,5.44,0,0,0-5.92,1.05,9.65,9.65,0,0,0-2.24,4.85,61.71,61.71,0,0,0-1.24,16.44c-8.19,3.41-18.2,3.77-25.81-1.79-5.36-3.91-9.2-10.39-11.72-19.82a83.65,83.65,0,0,1-2.35-12.61h-1a84.33,84.33,0,0,0,2.38,12.87c2.59,9.66,6.55,16.32,12.1,20.37,7.82,5.71,18,5.43,26.45,2q.09,1.65.24,3.39c1,11.54,3.48,20.24,7.82,27.38a62.24,62.24,0,0,0,11.32,13.19v-1.37A59.27,59.27,0,0,1,459.4,345.39Zm-6.74-47.51a8.69,8.69,0,0,1,2-4.37,4.05,4.05,0,0,1,2.93-1.18,5.76,5.76,0,0,1,1.94.36,7.29,7.29,0,0,1,4.74,5.74c.47,5.34-4.08,9.61-6.83,11.69a31.93,31.93,0,0,1-6,3.54A59.78,59.78,0,0,1,452.66,297.88Z"/>
        </g>
        <g>
          <path d="M355.23,337.34h-.07a.54.54,0,0,1-.46-.6l3.07-22.21a.53.53,0,1,1,1.05.15l-3.06,22.21A.54.54,0,0,1,355.23,337.34Z"/>
          <g>
            <g>
              <rect class="cls-4" x="347.81" y="359.5" width="5.67" height="1.6" transform="translate(-56.94 654.65) rotate(-81.61)"/>
              <path class="cls-4" d="M346.12,363.39a.79.79,0,0,1-.19-.67.82.82,0,0,1,.93-.65l7,1.26a.79.79,0,0,1,.64.93.81.81,0,0,1-.93.65l-7-1.26A.77.77,0,0,1,346.12,363.39Z"/>
            </g>
            <path class="cls-4" d="M346.51,358l4.94-27.65a1.07,1.07,0,0,1,1.29-.86l6.17,1.4a1.07,1.07,0,0,1,.82,1.22L354.83,360Z"/>
            <polygon class="cls-5" points="354.33 358.08 358.5 332.11 352.76 330.58 347.78 356.95 354.33 358.08"/>
            <g>
              <polygon class="cls-4" points="358.5 332.11 352.85 330.2 352.98 329.54 353.18 328.56 353.37 327.56 358.85 328.89 358.64 330.81 358.63 330.85 358.5 332.11"/>
              <polygon points="358.63 330.85 352.98 329.54 353.18 328.56 358.64 330.81 358.63 330.85"/>
            </g>
            <g>
              <path d="M351.57,334.41a.27.27,0,0,1-.07-.24.28.28,0,0,1,.33-.24l2.2.35a.29.29,0,1,1-.09.57l-2.2-.35A.26.26,0,0,1,351.57,334.41Z"/>
              <path d="M351,336.91a.27.27,0,0,1-.07-.24.29.29,0,0,1,.33-.25l2.41.37a.29.29,0,0,1,.24.33.28.28,0,0,1-.33.24l-2.41-.36A.31.31,0,0,1,351,336.91Z"/>
              <path d="M350.85,339.11a.24.24,0,0,1-.07-.23.29.29,0,0,1,.33-.25l2.14.3a.29.29,0,0,1,.25.33.29.29,0,0,1-.33.24l-2.14-.29A.27.27,0,0,1,350.85,339.11Z"/>
            </g>
          </g>
          <path class="cls-4" d="M455.06,463.7H329.22A335.24,335.24,0,0,1,337.38,424c.14-.51.29-1,.43-1.53.06-.2.12-.4.17-.6s.1-.31.14-.47c.8-2.68,1.64-5.31,2.54-7.84.95-2.71,2-5.3,3-7.73.22-.5.44-1,.67-1.47,3.38-7.28,7.32-12.92,11.89-15.43,3.3-1.81,6.53-3.39,9.61-4.75l1-.43a110.48,110.48,0,0,1,26.82-7.95c.75-.11,1.15-.15,1.15-.15l35.52-.5h.48l.07,0h0l.94.2a56.81,56.81,0,0,1,21.07,9.7c.35.26.7.54,1.05.83h0a33.21,33.21,0,0,1,12.57,23.21C468.15,426.73,460.76,449.36,455.06,463.7Z"/>
          <path class="cls-5" d="M394.81,375.61s-12.26,14.3-28.6,60.77l65.87-61.28Z"/>
          <g>
            <path d="M438.31,325.66a28,28,0,0,1,11.63-3.26,16.18,16.18,0,0,1,11.27,3.82,18.29,18.29,0,0,1,5.09,9,27.1,27.1,0,0,1-5.14,23.72,25.61,25.61,0,0,1-22,9.1c-4.1-.42-8.26-2-11-5.18a15.89,15.89,0,0,1-3.45-9.91,32.34,32.34,0,0,1,1.79-10.52c1.64-5.16,4.14-10.37,8.6-13.3Z"/>
            <g>
              <path class="cls-7" d="M371.37,312.92a99.22,99.22,0,0,0,.35,15.17c.48,5.74,1.1,11.47,1.41,17.22a15.16,15.16,0,0,0,15.17,14.34l6.47.11v.14l-.07,6.77,0,2.5-.37,5.54s-14.74,22.78-6.06,28.9,42.13-27.06,42.13-27.06l-1-29.79c9.38-1.23,15.64-10.17,11.38-18.09-2.78-5.19-7.57-4.3-11.06-2.67a30.76,30.76,0,0,0-51.52-32.1C373.64,299.3,371.87,306,371.37,312.92Z"/>
              <g class="cls-17">
                <path class="cls-3" d="M371.37,312.92a99.22,99.22,0,0,0,.35,15.17c.48,5.74,1.1,11.47,1.41,17.22a15.16,15.16,0,0,0,15.17,14.34l6.47.11v.14l-.07,6.77,0,2.5-.37,5.54s-14.74,22.78-6.06,28.9,42.13-27.06,42.13-27.06l-1-29.79c9.38-1.23,15.64-10.17,11.38-18.09-2.78-5.19-7.57-4.3-11.06-2.67a30.76,30.76,0,0,0-51.52-32.1C373.64,299.3,371.87,306,371.37,312.92Z"/>
              </g>
              <g>
                <path d="M389.19,338.45a.56.56,0,0,1-.39-.17l-3.45-3.65a2.54,2.54,0,0,1-.71-1.06,2.29,2.29,0,0,1,.15-1.39c.4-1.11.87-2.23,1.33-3.31,1.1-2.6,2.24-5.29,2.35-8a.55.55,0,0,1,.55-.51.52.52,0,0,1,.51.55c-.11,2.91-1.29,5.69-2.42,8.38-.46,1.06-.92,2.16-1.31,3.25a1.33,1.33,0,0,0-.13.74,1.74,1.74,0,0,0,.45.62l3.46,3.64a.54.54,0,0,1-.39.91Z"/>
                <path d="M390.37,342a7.52,7.52,0,0,1-3.12-.67.54.54,0,0,1-.26-.71.53.53,0,0,1,.71-.26,6.92,6.92,0,0,0,8.23-2.21.53.53,0,0,1,.87.62A7.91,7.91,0,0,1,390.37,342Z"/>
                <g>
                  <path d="M382.45,317.72c1.16-.32,1.13-1.58,0-1.9a10.59,10.59,0,0,0-3.78-.36,8.59,8.59,0,0,0-4.72,1.78c-.38.32-.15.84.39.95a14.3,14.3,0,0,0,5.42.15A27.71,27.71,0,0,0,382.45,317.72Z"/>
                  <path d="M400,317.85a1,1,0,0,1,0-1.9,10.59,10.59,0,0,1,3.78-.36,8.59,8.59,0,0,1,4.72,1.78c.38.32.15.84-.39.95a14.3,14.3,0,0,1-5.42.14A27.62,27.62,0,0,1,400,317.85Z"/>
                </g>
              </g>
              <path d="M394.7,366.67c17.25-1.71,21.62-9,21.62-9a89,89,0,0,1-21.55,2.21Z"/>
              <path d="M428.7,341.67h.06a.44.44,0,0,0,.37-.5,16.32,16.32,0,0,1,1.55-9.57,10.94,10.94,0,0,1,3.23-4,6.39,6.39,0,0,1,4.76-1.23.45.45,0,0,0,.51-.36.44.44,0,0,0-.36-.51,7.29,7.29,0,0,0-5.42,1.39,11.52,11.52,0,0,0-3.51,4.31,17.15,17.15,0,0,0-1.63,10.09A.43.43,0,0,0,428.7,341.67Z"/>
              <g>
                <path d="M400,326.44a3.22,3.22,0,1,0,3.22-3.22A3.22,3.22,0,0,0,400,326.44Z"/>
                <path d="M376,326.46a3.22,3.22,0,1,0,3.21-3.23A3.21,3.21,0,0,0,376,326.46Z"/>
              </g>
            </g>
            <path d="M430.28,326.18c-1.27.73-2.37,1.76-3.62,2.53-.35.21-2.09,1-3.72,1.77a2.26,2.26,0,0,1-3.21-1.81,12.55,12.55,0,0,0-2.14-6.49,19.06,19.06,0,0,0-3.32-3.15c-5.13-4.25-9.7-9.41-12.1-15.63-2.28-5.91-2.36-12.89.72-18.4a5.81,5.81,0,0,1,4.9-2.63,143.68,143.68,0,0,1,25,3.65c2.83.67,5.78,1.51,7.85,3.55a11.25,11.25,0,0,1,3,7,29.11,29.11,0,0,1-.59,7.72c-1.28,7.33-1,15.54-3.38,22.61.17-.53-6.63-1.66-7.28-1.54A6.77,6.77,0,0,0,430.28,326.18Z"/>
            <path d="M408,282.62A30,30,0,0,0,397.93,295a49.06,49.06,0,0,0-4,15.56c-.17,0-.7.17-.87.17H360.91c1.41-6.25,2.36-13,6.34-18.05a28.66,28.66,0,0,1,14.57-9.25,57,57,0,0,1,17.37-1.77A32.16,32.16,0,0,1,408,282.62Z"/>
          </g>
          <path d="M366.21,436.91a.55.55,0,0,1-.38-.15.54.54,0,0,1,0-.76c11-11.1,64.81-31.91,73.08-35.06l-14.1-9.13a.54.54,0,0,1-.23-.55.52.52,0,0,1,.41-.42l28.6-6a.53.53,0,1,1,.22,1l-27.33,5.7,13.89,9a.54.54,0,0,1,.24.51.52.52,0,0,1-.34.44c-.62.23-62.15,23.58-73.68,35.2A.55.55,0,0,1,366.21,436.91Z"/>
          <path d="M378.14,392.47a.55.55,0,0,1-.36.42l-15.54,5c2.49,2.76,11.83,14.17,8.23,26.8l0,.1c-.79,2.74-2,6.26-3.5,10.18-.15.37-.29.75-.44,1.13s-.2.53-.31.8c-3.38,8.79-7.8,19.12-11.16,26.79h-1.17c5.16-11.77,12.95-30.11,15.58-39.3,3.95-13.82-8.42-26.24-8.54-26.37a.55.55,0,0,1-.15-.5.53.53,0,0,1,.36-.38l15.35-5-10.4-7.72a.55.55,0,0,1-.2-.33.54.54,0,0,1,.09-.42.53.53,0,0,1,.75-.11l.14.1L377.93,392A.55.55,0,0,1,378.14,392.47Z"/>
          <g>
            <g>
              <g>
                <path class="cls-7" d="M358.21,364.64s-9.87,8.68-12.09,20.59c-1.27,6.87-2.32,18.64-3,27.39-.49,6.45-.76,11.25-.76,11.25l-27.57.51s.92-4.76,1.86-10.33a137.63,137.63,0,0,0,1.88-14.86c.17-6.81-1.36-22.13.17-24.68s6.13-6.47,6.13-6.47,2.38-7.32,6.81-7.32c0,0,1.36-6.13,5.27-5.27,0,0,.85-4.26,3.75-3.92s16,4.77,16,4.77-.51,4.93-4.77,4.93c0,0,2,4.09-7,4.6l.85,1.87S353.61,362.42,358.21,364.64Z"/>
                <g class="cls-18">
                  <path class="cls-3" d="M358.21,364.64s-9.87,8.68-12.09,20.59c-1.27,6.87-2.32,18.64-3,27.39-.49,6.45-.76,11.25-.76,11.25l-27.57.51s.92-4.76,1.86-10.33a137.63,137.63,0,0,0,1.88-14.86c.17-6.81-1.36-22.13.17-24.68s6.13-6.47,6.13-6.47,2.38-7.32,6.81-7.32c0,0,1.36-6.13,5.27-5.27,0,0,.85-4.26,3.75-3.92s16,4.77,16,4.77-.51,4.93-4.77,4.93c0,0,2,4.09-7,4.6l.85,1.87S353.61,362.42,358.21,364.64Z"/>
                </g>
              </g>
              <path class="cls-2" d="M359.12,363.56a.82.82,0,0,1,.43,1.4c-2.9,2.77-10.31,12.1-12.74,21.25-1.8,6.75-2.41,17.8-3.07,26.55-2.85.8-7.39,1.65-12.76,2.77-8,1.66-12.4.07-14.56-1.62a115.8,115.8,0,0,0,1.41-14.42c.17-6.81-.76-22.05.44-24.77,1.66-3.77,6.26-6.83,6.26-6.83s2.4-7.47,6.83-7.47c0,0,1.39-6,5.3-5.1,0,0,1-4.37,3.89-4s16.4,4.86,16.4,4.86-.27,5.36-4.53,5.36c0,0,2,4-7,4.47l.38,1.27S354.12,362.78,359.12,363.56Z"/>
              <path d="M346.21,366.73a1.79,1.79,0,0,1-1.1-.29l-13.64-5.22a.53.53,0,0,1,.38-1l13.74,5.26a.48.48,0,0,1,.23.17s.09,0,.34,0a9.13,9.13,0,0,0,3.37-.95,4.2,4.2,0,0,0,2.38-2,1.52,1.52,0,0,0,.08-.86l-15.25-6a.55.55,0,0,1-.31-.7.53.53,0,0,1,.69-.3l15.5,6.06a.53.53,0,0,1,.28.27,2.4,2.4,0,0,1,0,1.83,5,5,0,0,1-3,2.59A10,10,0,0,1,346.21,366.73Z"/>
              <path d="M341.64,372.06c-3.09,0-8.5-1.86-8.73-1.94a.53.53,0,0,1,.35-1c.05,0,5.47,1.88,8.38,1.88a4,4,0,0,0,3.12-1.93,2.81,2.81,0,0,0,.53-2.43.54.54,0,0,1,.28-.7.55.55,0,0,1,.71.28,3.78,3.78,0,0,1-.63,3.44A5.05,5.05,0,0,1,341.64,372.06Z"/>
              <path d="M337.14,379.08a4.08,4.08,0,0,1-.77-.07c-3.41-.64-9.44-3.37-9.7-3.48a.54.54,0,1,1,.44-1c.06,0,6.17,2.79,9.45,3.41,2.37.45,3.86-2.11,4.34-3.11-1-.68-4-2.63-6.61-4.07-3.07-1.72-8.89-2.67-9-2.68a.54.54,0,0,1,.17-1.06c.24,0,6.06,1,9.3,2.81s7,4.34,7.06,4.36a.54.54,0,0,1,.2.64C342,375,340.4,379.08,337.14,379.08Z"/>
            </g>
            <polygon class="cls-4" points="354.21 421.83 349.94 463.7 303 463.7 310.29 421.83 354.21 421.83"/>
            <path d="M348.86,463.7h-1.07l-.49-41-4.84-.13-4.65-.13-21.81-.6-.71,0-4.75-.13a.54.54,0,0,1-.52-.55.52.52,0,0,1,.53-.52h0l4.93.13,22.62.62,4.4.12,5.32.15a.54.54,0,0,1,.4.2.48.48,0,0,1,.12.33Z"/>
          </g>
        </g>
        <g>
          <g>
            <g>
              <g>
                <path class="cls-5" d="M334.76,308.37a8.28,8.28,0,0,1-4.12,4.85l-5.26,2.7-8.83,4.53a8.45,8.45,0,0,1-11.29-3.54,8.16,8.16,0,0,1-.54-6.31,8.33,8.33,0,0,1,4.11-4.85l7.78-4,6.32-3.24a8.44,8.44,0,0,1,11.29,3.53A8.21,8.21,0,0,1,334.76,308.37Z"/>
                <path class="cls-4" d="M324.89,316.1l-8.34,4.35a8.45,8.45,0,0,1-11.29-3.54,8.16,8.16,0,0,1-.54-6.31,8.33,8.33,0,0,1,4.11-4.85l7-3.63a25.65,25.65,0,0,1,4.73,5.55A39,39,0,0,1,324.89,316.1Z"/>
              </g>
              <path d="M325.11,316.06l-.64.33c-2.15-5.29-4.7-10.56-9.14-14l.69-.35C320.41,305.57,323,310.8,325.11,316.06Z"/>
            </g>
            <g>
              <g>
                <path class="cls-5" d="M437.74,365.54a8.31,8.31,0,0,1,4.11-4.86L447.1,358l8.82-4.56a8.46,8.46,0,0,1,11.3,3.5,8.21,8.21,0,0,1,.56,6.31,8.33,8.33,0,0,1-4.1,4.86l-7.77,4-6.31,3.26a8.44,8.44,0,0,1-11.3-3.5A8.25,8.25,0,0,1,437.74,365.54Z"/>
                <path class="cls-4" d="M447.59,357.79l8.33-4.38a8.46,8.46,0,0,1,11.3,3.5,8.21,8.21,0,0,1,.56,6.31,8.33,8.33,0,0,1-4.1,4.86l-7,3.66A26.08,26.08,0,0,1,452,366.2,39.44,39.44,0,0,1,447.59,357.79Z"/>
              </g>
              <path d="M447.37,357.83l.64-.33c2.17,5.28,4.74,10.54,9.18,13.93l-.69.36C452.1,368.3,449.53,363.08,447.37,357.83Z"/>
            </g>
          </g>
          <g>
            <line class="cls-12" x1="305.44" y1="354.93" x2="305.44" y2="380.47"/>
            <line class="cls-12" x1="312.87" y1="360.04" x2="297.33" y2="375.97"/>
            <line class="cls-12" x1="318.21" y1="367.7" x2="292.67" y2="367.7"/>
            <line class="cls-12" x1="313.46" y1="375.49" x2="297.33" y2="360.14"/>
          </g>
          <g>
            <line class="cls-12" x1="447.15" y1="424.63" x2="447.15" y2="450.17"/>
            <line class="cls-12" x1="454.57" y1="429.75" x2="439.03" y2="445.68"/>
            <line class="cls-12" x1="459.92" y1="437.4" x2="434.38" y2="437.4"/>
            <line class="cls-12" x1="455.16" y1="445.19" x2="439.03" y2="429.84"/>
          </g>
        </g>
      </g>
    </g>
  </g>
</svg>
