<svg xmlns="http://www.w3.org/2000/svg" width="342" height="352" fill="none" viewBox="0 0 342 352">
  <path fill="url(#a)" d="M231.881 22.232H114.923a51.102 51.102 0 0 0-44.261 25.573L12.183 149.164a51.176 51.176 0 0 0 0 51.145l58.479 101.36a51.102 51.102 0 0 0 44.261 25.572h116.958a51.102 51.102 0 0 0 44.261-25.572l58.479-101.36a51.18 51.18 0 0 0 0-51.145l-58.479-101.36a51.102 51.102 0 0 0-44.261-25.572Z" opacity=".2"/>
  <path fill="url(#b)" d="M40.017 167.822c.005 6.526 5.312 11.812 11.854 11.807h204.825c6.542.005 11.85-5.281 11.855-11.807v-119.8H40.017v119.8Z"/>
  <path fill="url(#c)" d="M256.696 25.788H51.871c-6.542-.005-11.85 5.368-11.854 12.002v10.229H268.55v-10.23c-.005-6.633-5.313-12.006-11.855-12Z"/>
  <rect width="27.566" height="3.557" x="149.394" y="109.378" fill="url(#d)" rx="1.081"/>
  <rect width="40.905" height="3.557" x="149.394" y="125.384" fill="url(#e)" rx="1.081"/>
  <rect width="10.671" height="3.557" x="181.404" y="109.378" fill="url(#f)" rx="1.081"/>
  <rect width="21.342" height="3.557" x="149.394" y="117.381" fill="url(#g)" rx="1.081"/>
  <rect width="8.003" height="3.557" x="174.291" y="117.381" fill="url(#h)" rx="1.081"/>
  <rect width="10.671" height="3.557" x="198.301" y="109.378" fill="url(#i)" rx="1.081"/>
  <rect width="59.579" height="8.892" x="149.394" y="135.164" fill="url(#j)" rx="2.401"/>
  <rect width="84.581" height="49.986" x="53.378" y="101.521" fill="url(#k)" opacity=".24" rx="1.813"/>
  <rect width="16.895" height="3.557" x="104.93" y="117.381" fill="#fff" rx="1.081"/>
  <rect width="24.899" height="3.557" x="104.93" y="132.498" fill="#fff" opacity=".34" rx="1.081"/>
  <rect width="13.339" height="3.557" x="104.042" y="124.494" fill="#fff" opacity=".34" rx="1.081"/>
  <path fill="#fff" d="M78.253 113.236v-4.75c-10.305-.008-18.666 8.353-18.674 18.674h4.75c.006-7.696 6.24-13.93 13.924-13.924Zm-14.647 13.928H58.69c-.005 4.638 1.905 9.098 5.331 12.449l3.56-3.166c-2.554-2.499-3.978-5.825-3.975-9.283Z"/>
  <path fill="#fff" d="M90.888 114.291a18.616 18.616 0 0 0-13.524-5.805v4.75c7.682-.001 13.913 6.23 13.925 13.924h4.75a18.605 18.605 0 0 0-5.15-12.869Z" opacity=".34"/>
  <path fill="#fff" d="M91.316 126.272c-.01 5.699-3.46 10.819-8.714 12.931a13.773 13.773 0 0 1-15.157-3.335l-3.42 3.274a18.473 18.473 0 0 0 20.327 4.472c7.046-2.833 11.673-9.699 11.686-17.342h-4.722Z"/>
  <rect width="16.006" height="4.446" x="69.362" y="121.825" fill="#fff" opacity=".34" rx="1.309"/>
  <rect width="20.453" height="1.778" x="67.583" y="128.942" fill="#fff" opacity=".34" rx=".604"/>
  <rect width="140.5" height="32.902" x="53.355" y="56.023" fill="#fff" rx="3.376"/>
  <circle cx="76.03" cy="72.475" r="9.337" fill="url(#l)"/>
  <rect width="66.693" height="4.446" x="92.481" y="74.698" fill="url(#m)" rx="1.178"/>
  <rect width="24.009" height="5.335" x="92.481" y="65.805" fill="url(#n)" rx="1.543"/>
  <circle cx="81.366" cy="45.798" r="1.334" fill="#fff"/>
  <circle cx="87.591" cy="45.798" r="1.334" fill="#fff"/>
  <circle cx="93.815" cy="45.798" r="1.334" fill="#fff"/>
  <path fill="url(#o)" d="M219.643 237.422c45.665 14.02 73.329 0 73.329 0l1.367-160.945-34.186 1.962c-29.954 64.771-29.332 139.917-40.51 158.983Z"/>
  <path fill="url(#p)" d="M301.093 33.37c0 .371 1.249 28.9 1.249 28.9s-23.246 3.087-23.12 2.593c.126-.494 1.76-35.516 1.76-35.516l20.111 4.023Z"/>
  <path fill="url(#q)" d="M275.358 14.229s-6.808 25.41-6.808 27.224c0 1.815 15.111 4.455 18.765 3.795 3.653-.66 8.801-29.04 8.801-29.04l-20.758-1.98Z"/>
  <path fill="url(#r)" d="M301.452 36.45c-11.643.304-14.227-6.811-14.227-6.811s1.772-12.616 0-13.631l13.829 1.325.398 19.118Z"/>
  <path fill="url(#s)" d="M288.113 30.4c9.447-7.627 12.991-1.995 9.139 3.213-3.853 5.208-7.075 5.514-7.075 5.514l-2.064-8.727Z"/>
  <path fill="url(#t)" d="m289.95 17.786-2.597 10.19s-1.173 7.208-3.812 7.332c-2.639.124-12.589-2.4-13.394-2.132-.806.268-2.816 7.724-2.439 8.718.377.994 16.168 3.832 19.645 3.418 3.476-.415 7.875-20.07 7.875-20.07l-5.278-7.456Z"/>
  <path fill="url(#u)" d="m244.542 283.67-13.67 58.69-18.343-2.298 10.943-56.392h21.07Z"/>
  <mask id="v" width="33" height="60" x="212" y="283" maskUnits="userSpaceOnUse" style="mask-type:luminance">
    <path fill="#fff" fill-rule="evenodd" d="m244.204 283.674-13.525 58.677-18.147-2.298 10.827-56.379h20.845Z" clip-rule="evenodd"/>
  </mask>
  <g mask="url(#v)">
    <path fill="url(#w)" d="M223.467 297.817c-15.906 1.528 3.535 9.69 12.072 20.96 8.537 11.27 4.111-15.348 4.111-15.348l-13.14-7.696" opacity=".34"/>
  </g>
  <path fill="url(#x)" d="m313.714 272.996 24.197 59.329-16.593 8.253-22.534-53.092 14.93-14.49Z"/>
  <mask id="y" width="40" height="68" x="298" y="273" maskUnits="userSpaceOnUse" style="mask-type:luminance">
    <path fill="#fff" fill-rule="evenodd" d="m313.758 273.08 24.134 59.453-16.551 8.271-22.475-53.204 14.892-14.52Z" clip-rule="evenodd"/>
  </mask>
  <g mask="url(#y)">
    <path fill="url(#z)" d="M308.905 311.368c-12.58 4.25 9.947.616 21.637 3.062 11.689 2.445.073-10.547.073-10.547l-14.836-.419"/>
    <path fill="url(#A)" d="M303.463 316.177c25.332 1.118 24.924-8.687 24.924-8.687l-25.204 2.121" opacity=".34"/>
  </g>
  <path fill="url(#B)" d="M171.623 347.693c0-3.305 2.089-6.203 5.151-7.112 12.519-3.715 37.111-15.367 38.838-21.344 0 0 6.571 8.229-1.369 13.473l21.405-3.566-3.242 15.869-60.783 2.68Z"/>
  <path fill="url(#C)" d="M284.484 351.249c-1.81-2.704-1.774-9.172 12.634-10.33 17.68-1.421 16.379-13.732 14.537-19.579 0 0 9.952 3.093 6.245 11.782l15.784-14.774 6.005 14.78-32.793 17.448-22.412.673Z"/>
  <path fill="url(#D)" d="M302.341 50.984v-8.299l-21.139 10.97-1.092 5.037 22.231-7.708Z"/>
  <path fill="url(#E)" d="M219.643 302.648c10.071 9.489 26.335 8.563 26.335 8.563l23.162-85.085 22.531-90.397-48.998-5.898-8.381 95.275-14.649 77.542Z"/>
  <mask id="F" width="73" height="182" x="219" y="129" maskUnits="userSpaceOnUse" style="mask-type:luminance">
    <path fill="#fff" fill-rule="evenodd" d="M219.737 302.239c10.052 9.462 26.283 8.539 26.283 8.539l23.115-84.848 22.485-90.146-48.899-5.882-8.364 95.011-14.62 77.326Z" clip-rule="evenodd"/>
  </mask>
  <g mask="url(#F)">
    <path fill="url(#G)" d="M235.587 149.929c12.884-2.038 3.974 92.157 27.92 119.005 23.947 26.848 15.27-111.8 15.27-111.8l-11.1-45.481"/>
  </g>
  <path fill="url(#H)" d="M302.286 312.888c19.614 4.186 25.843-5.92 25.843-5.92l-33.321-78.246s-2.611-85.244-3.861-94.582c-1.444-10.79-46.406 2.085-46.406 2.085l23.421 102.513 34.324 74.15Z"/>
  <mask id="I" width="84" height="186" x="244" y="129" maskUnits="userSpaceOnUse" style="mask-type:luminance">
    <path fill="#fff" fill-rule="evenodd" d="M302.178 313.548c19.537 4.2 25.743-5.938 25.743-5.938l-33.192-78.498s-2.601-85.519-3.846-94.887c-1.438-10.824-46.225 2.092-46.225 2.092l23.33 102.843 34.19 74.388Z" clip-rule="evenodd"/>
  </mask>
  <g mask="url(#I)">
    <path fill="url(#J)" d="M238.379 134.337c47.484 14.328 53.677 14.669 54.883 50.553 1.206 35.884 16.644-31.398 16.644-31.398l-15.027-18.401-21.939-9.427-34.561 8.673"/>
    <path fill="url(#K)" d="M278.056 261.068c-2.359 6.501 27.781 1.861 38.386 2.92 10.604 1.06-8.931-17.988-8.931-17.988l-18.139.28"/>
  </g>
  <path fill="url(#L)" d="M238.509 139.126s43.791 1.986 59.591-2.066c0 0 17.334-53.483 14.625-62.487-2.709-9.004-10.383-25.663-10.383-25.663l-19.194 8.537s-48.25 40.258-44.639 81.679Z"/>
  <mask id="M" width="75" height="93" x="238" y="48" maskUnits="userSpaceOnUse" style="mask-type:luminance">
    <path fill="#fff" fill-rule="evenodd" d="M238.617 139.72s43.527 1.997 59.233-2.079c0 0 17.229-53.787 14.537-62.843-2.693-9.056-10.321-25.81-10.321-25.81l-19.079 8.586s-47.96 40.488-44.37 82.146Z" clip-rule="evenodd"/>
  </mask>
  <g mask="url(#M)">
    <path fill="url(#N)" d="M297.73 92.525c-17.488 31.23-6.162 42.968-59.112 42.515-52.951-.453 2.206-15.92 2.206-15.92l48.052-20.896 8.854-5.699"/>
  </g>
  <path fill="url(#O)" d="m193.8 41.637 72.45 16.448-16.804 74.161-72.451-16.448L193.8 41.637Z"/>
  <path fill="url(#P)" d="m226.314 49.018 7.419 1.684-16.804 74.161-7.419-1.685 16.804-74.16Z"/>
  <path fill="url(#Q)" d="m197.43 62.072 10.477 2.379-3.29 14.52-10.477-2.38 3.29-14.519Z"/>
  <path fill="url(#R)" d="M219.181 113.41s-3.594.389-4.792 0c-1.198-.388-15.307-2.254-15.307-2.254s-2.263 2.799 5.99 3.887c0 0-13.71 4.197-17.171 3.342 0 0-2.396 4.431 7.055 4.276 0 0 2.928 3.498 10.781 2.565 7.853-.933 26.355-2.565 26.355-2.565l-12.911-9.251Z"/>
  <mask id="S" width="45" height="15" x="188" y="111" maskUnits="userSpaceOnUse" style="mask-type:luminance">
    <path fill="#fff" fill-rule="evenodd" d="M219.79 113.478s-3.546.392-4.728 0c-1.182-.391-15.104-2.272-15.104-2.272s-2.233 2.821 5.91 3.918c0 0-13.527 4.231-16.942 3.369 0 0-2.364 4.466 6.961 4.309 0 0 2.889 3.526 10.638 2.586 7.749-.94 26.004-2.586 26.004-2.586l-12.739-9.324Z" clip-rule="evenodd"/>
  </mask>
  <g mask="url(#S)">
    <path fill="url(#T)" d="M216.238 112.401c-5.976-1.665-1.283 10.826-5.645 13.741-4.361 2.914 8.424 1.985 8.424 1.985l.278-11.978" opacity=".34"/>
  </g>
  <path fill="url(#U)" d="m302.068 48.91-21.656 5.7s-18.962 21.002-20.358 24.077c0 0-35.789 79.958 4.607 185.329 36.294 1.677 75.028-20.623 75.028-20.623-82.804-117.324 3.855-126.661-37.621-194.483Z"/>
  <mask id="V" width="95" height="217" x="245" y="48" maskUnits="userSpaceOnUse" style="mask-type:luminance">
    <path fill="#fff" fill-rule="evenodd" d="m302.183 48.988-21.684 5.703s-18.987 21.013-20.385 24.09c0 0-35.836 79.998 4.613 185.423 36.341 1.678 75.126-20.634 75.126-20.634-82.912-117.383 3.859-126.725-37.67-194.582Z" clip-rule="evenodd"/>
  </mask>
  <g mask="url(#V)">
    <path fill="url(#W)" d="m254.796 159.797 3.228 35.915 36.385-1.359-2.226-34.778-37.387.222Z"/>
    <path fill="#fff" d="M252.427 158.016c-.233 1.383-.941 11.989-.941 11.989l41.833.179.364-12.105-41.256-.063Z"/>
    <path fill="url(#X)" d="M240.491 165.601c4.638-17.313 41.746-6.152 48.718-50.029 2.716-17.092-32.269 10.614-32.269 10.614l-18.641 4.233"/>
  </g>
  <path fill="#fff" d="m260.548 78.256 20.565-24.447 21.877-5.787 2.909 6.134-23.838 5.225 2.601 3.474-24.114 15.4Z"/>
  <g opacity=".69">
    <path fill="url(#Y)" d="m275.234 86.352-9.446-.938c-.522-.052-.837-.573-.703-1.163l1.38-6.086c.134-.59.666-1.027 1.189-.975l9.446.937c.522.052.837.573.703 1.164l-1.38 6.085c-.134.59-.666 1.027-1.189.976Z"/>
    <mask id="Z" width="13" height="10" x="265" y="77" maskUnits="userSpaceOnUse" style="mask-type:luminance">
      <path fill="#fff" fill-rule="evenodd" d="m275.234 86.353-9.446-.938c-.522-.052-.837-.573-.703-1.163l1.38-6.086c.134-.59.666-1.027 1.189-.975l9.446.937c.522.052.837.573.703 1.164l-1.38 6.085c-.134.59-.666 1.028-1.189.976Z" clip-rule="evenodd"/>
    </mask>
    <g mask="url(#Z)">
      <path fill="url(#aa)" d="M264.394 84.826c10.84 1.527 11.165 1.85 12.719-2.491 1.555-4.341.975 4.302.975 4.302l-3.302 1.729-11.182-2.231"/>
    </g>
    <ellipse cx="268.716" cy="81.2" fill="#fff" rx="1.926" ry="1.594" transform="rotate(-59.403 268.716 81.2)"/>
    <path fill="#fff" d="m276.227 80.629-4.454-.442.102-.45 4.454.442-.102.45Zm-.349 1.534-4.453-.442.102-.45 4.453.442-.102.45Zm-1.547 1.415-3.254-.323.102-.45 3.254.324-.102.45Z"/>
    <path fill="url(#ab)" d="m273.757 77.795-2.761-.274.313-1.38c.196-.862.972-1.5 1.735-1.424.763.076 1.222.836 1.027 1.698l-.314 1.38Z"/>
    <mask id="ac" width="5" height="4" x="270" y="74" maskUnits="userSpaceOnUse" style="mask-type:luminance">
      <path fill="#fff" fill-rule="evenodd" d="m273.757 77.795-2.762-.274.313-1.38c.196-.862.972-1.5 1.735-1.424.763.076 1.222.836 1.027 1.698l-.313 1.38Z" clip-rule="evenodd"/>
    </mask>
    <g mask="url(#ac)">
      <path fill="url(#ad)" d="M274.296 76.443c-.57.989-3.175.354-3.498.635-.322.282.491.881.491.881l2.737.272.292-1.395"/>
    </g>
    <path fill="url(#ae)" d="m275.371 79.197-6.538-.648.369-1.628 6.538.649-.369 1.627Z"/>
  </g>
  <path fill="url(#af)" d="M213.504 111.391s-.914 16.009 3.217 23.72l52.563 2.721c5.407 0 10.388-2 13.014-5.225l19.307-47.04a12.718 12.718 0 0 0 .893-10.479 12.615 12.615 0 0 0-7.291-7.536c-5.779-2.256-12.33.062-15.433 5.46l-17.543 37.031-48.727 1.348Z"/>
  <path fill="url(#ag)" d="M301.564 16.104c-4.559 1.68-26.247.604-27.678-2.446 0 0 4.117-12.838 6.127-12.878 0 0 17.896-3.241 21.881 3.489 1.173 1.981-.33 11.835-.33 11.835Z"/>
  <mask id="ah" width="30" height="17" x="273" y="0" maskUnits="userSpaceOnUse" style="mask-type:luminance">
    <path fill="#fff" fill-rule="evenodd" d="M301.467 16c-4.529 1.67-26.071.6-27.493-2.43 0 0 4.09-12.755 6.086-12.795 0 0 17.776-3.22 21.734 3.466 1.166 1.97-.327 11.76-.327 11.76Z" clip-rule="evenodd"/>
  </mask>
  <g mask="url(#ah)">
    <path fill="url(#ai)" d="M303.391 14.16c-1.168-5.043-10.191 5.816-19.64 4.16-9.45-1.655 12.388 8.128 12.388 8.128l7.697-4.838 2.817-4.587"/>
  </g>
  <circle cx="259.213" cy="91.149" r="2.223" fill="#fff"/>
  <path fill="url(#aj)" d="M71.139 190.299h54.243v10.671H71.139z" transform="rotate(-180 71.139 190.299)"/>
  <mask id="ak" width="56" height="12" x="16" y="179" maskUnits="userSpaceOnUse" style="mask-type:luminance">
    <path fill="#fff" d="M71.046 190.532h-54.06v-10.791h54.06z"/>
  </mask>
  <g mask="url(#ak)">
    <path fill="url(#al)" d="M62.38 181.449c7.057 8.135-45.544 4.149-47.255 8.135-1.71 3.986 69.92 12.644 69.92 12.644l-1.282-20.346-6.771-7.576"/>
  </g>
  <rect width="88.035" height="129.829" x="88.034" y="319.237" fill="url(#am)" rx="3.234" transform="rotate(-180 88.034 319.237)"/>
  <mask id="an" width="89" height="131" x="0" y="188" maskUnits="userSpaceOnUse" style="mask-type:luminance">
    <rect width="87.351" height="130.288" x="88.259" y="318.832" fill="#fff" rx="3.234" transform="rotate(-180 88.259 318.832)"/>
  </mask>
  <g mask="url(#an)">
    <path fill="url(#ao)" d="M62.964 184.855c35.644 58.662 10.971 131.685-42.628 133.978-53.599 2.293 110.602 14.728 110.602 14.728l15.314-125.203-42.114-38.007H82.452"/>
  </g>
  <rect width="76.475" height="24.009" x="82.7" y="183.185" fill="url(#ap)" rx="2.502" transform="rotate(-180 82.7 183.185)"/>
  <mask id="aq" width="77" height="25" x="6" y="159" maskUnits="userSpaceOnUse" style="mask-type:luminance">
    <rect width="76.418" height="23.82" x="82.796" y="183.144" fill="#fff" rx="2.502" transform="rotate(-180 82.796 183.144)"/>
  </mask>
  <g mask="url(#aq)">
    <rect width="1.521" height="14.098" x="77.061" y="178.558" fill="url(#ar)" opacity=".32" rx=".39" transform="rotate(180 77.061 178.558)"/>
    <rect width="1.521" height="14.098" x="70.157" y="178.558" fill="url(#as)" opacity=".32" rx=".39" transform="rotate(-180 70.157 178.558)"/>
    <rect width="1.521" height="14.098" x="49.441" y="178.558" fill="url(#at)" opacity=".32" rx=".39" transform="rotate(180 49.441 178.558)"/>
    <rect width="1.521" height="14.098" x="42.537" y="178.558" fill="url(#au)" opacity=".32" rx=".39" transform="rotate(180 42.537 178.558)"/>
    <rect width="1.521" height="14.098" x="35.633" y="178.558" fill="url(#av)" opacity=".32" rx=".39" transform="rotate(180 35.633 178.558)"/>
    <rect width="1.521" height="14.098" x="28.727" y="178.558" fill="url(#aw)" opacity=".32" rx=".39" transform="rotate(180 28.727 178.558)"/>
    <rect width="1.521" height="14.098" x="21.822" y="178.558" fill="url(#ax)" opacity=".32" rx=".39" transform="rotate(180 21.822 178.558)"/>
    <rect width="1.521" height="14.098" x="14.918" y="178.558" fill="url(#ay)" opacity=".32" rx=".39" transform="rotate(180 14.918 178.558)"/>
    <rect width="1.521" height="14.098" x="63.253" y="178.558" fill="url(#az)" opacity=".32" rx=".39" transform="rotate(-180 63.253 178.558)"/>
    <rect width="1.521" height="14.098" x="56.347" y="178.558" fill="url(#aA)" opacity=".32" rx=".39" transform="rotate(180 56.347 178.558)"/>
  </g>
  <path fill="url(#aB)" d="M78.253 301.453h56.022v89.813H78.253z" transform="rotate(-180 78.253 301.453)"/>
  <path fill="#fff" d="M78.253 267.661H22.231V245.43h56.022z"/>
  <path fill="url(#aC)" d="M91.592 235.65h44.462v8.892H91.592z"/>
  <mask id="aD" width="45" height="10" x="91" y="235" maskUnits="userSpaceOnUse" style="mask-type:luminance">
    <path fill="#fff" d="M91.736 235.771h44.245v9.021H91.736z"/>
  </mask>
  <g mask="url(#aD)">
    <path fill="url(#aE)" d="M98.829 237.197c-5.775 6.801 37.276 3.469 38.676 6.801 1.4 3.333-57.227 10.571-57.227 10.571l1.05-17.01 5.542-6.333"/>
  </g>
  <rect width="72.028" height="78.253" x="78.253" y="242.765" fill="url(#aF)" rx="2.276"/>
  <mask id="aG" width="73" height="80" x="78" y="242" maskUnits="userSpaceOnUse" style="mask-type:luminance">
    <rect width="71.947" height="78.35" x="78.379" y="242.895" fill="#fff" rx="2.276"/>
  </mask>
  <g mask="url(#aG)">
    <path fill="url(#aH)" d="M99.214 240.674c-29.359 35.277-9.037 79.19 35.111 80.569 44.147 1.379-91.098 8.856-91.098 8.856l-12.614-75.292 34.688-22.856h17.861"/>
  </g>
  <rect width="62.247" height="19.563" x="82.7" y="217.864" fill="url(#aI)" rx="2.06"/>
  <mask id="aJ" width="64" height="20" x="82" y="218" maskUnits="userSpaceOnUse" style="mask-type:luminance">
    <rect width="62.95" height="19.024" x="82.853" y="218.898" fill="#fff" rx="2.06"/>
  </mask>
  <g mask="url(#aJ)">
    <rect width="1.253" height="11.259" x="87.575" y="223.002" fill="url(#aK)" opacity=".32" rx=".321"/>
    <rect width="1.253" height="11.259" x="93.262" y="223.002" fill="url(#aL)" opacity=".32" rx=".321"/>
    <rect width="1.253" height="11.259" x="110.327" y="223.002" fill="url(#aM)" opacity=".32" rx=".321"/>
    <rect width="1.253" height="11.259" x="116.016" y="223.002" fill="url(#aN)" opacity=".32" rx=".321"/>
    <rect width="1.253" height="11.259" x="121.702" y="223.002" fill="url(#aO)" opacity=".32" rx=".321"/>
    <rect width="1.253" height="11.259" x="127.391" y="223.002" fill="url(#aP)" opacity=".32" rx=".321"/>
    <rect width="1.253" height="11.259" x="133.079" y="223.002" fill="url(#aQ)" opacity=".32" rx=".321"/>
    <rect width="1.253" height="11.259" x="138.768" y="223.002" fill="url(#aR)" opacity=".32" rx=".321"/>
    <rect width="1.253" height="11.259" x="98.95" y="223.002" fill="url(#aS)" opacity=".32" rx=".321"/>
    <rect width="1.253" height="11.259" x="104.639" y="223.002" fill="url(#aT)" opacity=".32" rx=".321"/>
  </g>
  <path fill="url(#aU)" d="M86.257 256.104h46.24v54.243h-46.24z"/>
  <path fill="#fff" d="M86.257 289.004h46.24v18.674h-46.24z"/>
  <rect width="73.807" height="30.234" x="121.826" y="296.119" fill="url(#aV)" rx="12.525"/>
  <mask id="aW" width="75" height="30" x="121" y="296" maskUnits="userSpaceOnUse" style="mask-type:luminance">
    <rect width="73.526" height="29.585" x="121.893" y="296.207" fill="#fff" rx="12.525"/>
  </mask>
  <g mask="url(#aW)">
    <path fill="url(#aX)" d="M157.833 294.836h42.25v39.447h-42.25z"/>
    <mask id="aY" width="44" height="41" x="157" y="294" maskUnits="userSpaceOnUse" style="mask-type:luminance">
      <path fill="#fff" d="M157.832 294.837h42.25v39.447h-42.25z"/>
    </mask>
    <g mask="url(#aY)">
      <path fill="#3F87E7" d="M154.218 296.208c38.52 1.624 37.284 20.958 27.602 32.27-9.681 11.312 20.805 6.787 20.805 6.787l3.296-38.05-21.835-10.695h-21.629"/>
    </g>
    <path fill="url(#aZ)" d="M129.707 293.305c-16.374 25.277 10.154 32.983 29.946 32.983 19.793 0-42.718 15.249-42.718 15.249l-11.432-19.128 10.196-29.618 22.874-3.085"/>
  </g>
  <defs>
    <linearGradient id="a" x1="5.336" x2="341.468" y1="327.241" y2="327.241" gradientUnits="userSpaceOnUse">
      <stop stop-color="#A7F6FF"/>
      <stop offset="1" stop-color="#34A595"/>
    </linearGradient>
    <linearGradient id="b" x1="40.017" x2="268.551" y1="179.629" y2="179.629" gradientUnits="userSpaceOnUse">
      <stop offset=".103" stop-color="#F6FBFF"/>
      <stop offset=".887" stop-color="#E9EFFC"/>
    </linearGradient>
    <linearGradient id="c" x1="40.017" x2="268.551" y1="48.019" y2="48.019" gradientUnits="userSpaceOnUse">
      <stop stop-color="#98C5FF"/>
      <stop offset="1" stop-color="#3580E4"/>
    </linearGradient>
    <linearGradient id="d" x1="-43.315" x2="-43.86" y1="87.47" y2="144.277" gradientUnits="userSpaceOnUse">
      <stop offset=".102" stop-color="#E4ECF8"/>
      <stop offset=".885" stop-color="#B4D2FF"/>
    </linearGradient>
    <linearGradient id="e" x1="-134.52" x2="-134.766" y1="95.413" y2="151.541" gradientUnits="userSpaceOnUse">
      <stop offset=".102" stop-color="#E4ECF8"/>
      <stop offset=".885" stop-color="#B4D2FF"/>
    </linearGradient>
    <linearGradient id="f" x1="106.596" x2="102.563" y1="92.48" y2="153.097" gradientUnits="userSpaceOnUse">
      <stop offset=".102" stop-color="#E4ECF8"/>
      <stop offset=".885" stop-color="#B4D2FF"/>
    </linearGradient>
    <linearGradient id="g" x1="6.121" x2="5.185" y1="87.527" y2="145.01" gradientUnits="userSpaceOnUse">
      <stop offset=".102" stop-color="#E4ECF8"/>
      <stop offset=".885" stop-color="#B4D2FF"/>
    </linearGradient>
    <linearGradient id="h" x1="124.961" x2="117.671" y1="88.694" y2="151.23" gradientUnits="userSpaceOnUse">
      <stop offset=".102" stop-color="#E4ECF8"/>
      <stop offset=".885" stop-color="#B4D2FF"/>
    </linearGradient>
    <linearGradient id="i" x1="119.612" x2="115.579" y1="98.96" y2="159.577" gradientUnits="userSpaceOnUse">
      <stop offset=".102" stop-color="#E4ECF8"/>
      <stop offset=".885" stop-color="#B4D2FF"/>
    </linearGradient>
    <linearGradient id="j" x1="42.633" x2="42.238" y1="130.429" y2="172.346" gradientUnits="userSpaceOnUse">
      <stop offset=".032" stop-color="#E1EBFF"/>
      <stop offset="1" stop-color="#99BEFF"/>
    </linearGradient>
    <linearGradient id="k" x1="53.471" x2="41.948" y1="57.987" y2="139.151" gradientUnits="userSpaceOnUse">
      <stop stop-color="#FFADA9"/>
      <stop offset="1" stop-color="#FF6559"/>
    </linearGradient>
    <linearGradient id="l" x1="52.299" x2="47.122" y1="46.106" y2="98.287" gradientUnits="userSpaceOnUse">
      <stop offset=".032" stop-color="#E1EBFF"/>
      <stop offset="1" stop-color="#99BEFF"/>
    </linearGradient>
    <linearGradient id="m" x1="-271.99" x2="-272.013" y1="53.084" y2="106.432" gradientUnits="userSpaceOnUse">
      <stop offset=".032" stop-color="#E1EBFF"/>
      <stop offset="1" stop-color="#99BEFF"/>
    </linearGradient>
    <linearGradient id="n" x1="-4.994" x2="-5.247" y1="51.711" y2="101.139" gradientUnits="userSpaceOnUse">
      <stop offset=".032" stop-color="#E1EBFF"/>
      <stop offset="1" stop-color="#99BEFF"/>
    </linearGradient>
    <linearGradient id="o" x1="259.594" x2="200.679" y1="106.161" y2="117.739" gradientUnits="userSpaceOnUse">
      <stop offset=".102" stop-color="#fff"/>
      <stop offset=".885" stop-color="#E3EBFD"/>
    </linearGradient>
    <linearGradient id="p" x1="259.051" x2="288.388" y1="31.455" y2="51.818" gradientUnits="userSpaceOnUse">
      <stop offset=".102" stop-color="#FFAFBC"/>
      <stop offset=".885" stop-color="#FFDDDC"/>
    </linearGradient>
    <linearGradient id="q" x1="258.594" x2="282.198" y1="25.403" y2="56.167" gradientUnits="userSpaceOnUse">
      <stop offset=".102" stop-color="#FFAFBC"/>
      <stop offset=".885" stop-color="#FFDDDC"/>
    </linearGradient>
    <linearGradient id="r" x1="286.295" x2="281.683" y1="1.273" y2="29.344" gradientUnits="userSpaceOnUse">
      <stop offset=".102" stop-color="#915758"/>
      <stop offset=".885" stop-color="#2C090B"/>
    </linearGradient>
    <linearGradient id="s" x1="266.429" x2="290.319" y1="21.968" y2="51.179" gradientUnits="userSpaceOnUse">
      <stop offset=".102" stop-color="#FFAFBC"/>
      <stop offset=".885" stop-color="#FFDDDC"/>
    </linearGradient>
    <linearGradient id="t" x1="269.819" x2="267.489" y1=".224" y2="28.697" gradientUnits="userSpaceOnUse">
      <stop offset=".102" stop-color="#915758"/>
      <stop offset=".885" stop-color="#2C090B"/>
    </linearGradient>
    <linearGradient id="u" x1="212.529" x2="244.542" y1="342.36" y2="342.36" gradientUnits="userSpaceOnUse">
      <stop offset=".102" stop-color="#FCADBA"/>
      <stop offset=".885" stop-color="#FBDAD9"/>
    </linearGradient>
    <linearGradient id="w" x1="217.402" x2="240.797" y1="321.559" y2="321.559" gradientUnits="userSpaceOnUse">
      <stop offset=".101" stop-color="#FF7638"/>
      <stop offset=".885" stop-color="#FF3929"/>
    </linearGradient>
    <linearGradient id="x" x1="298.784" x2="337.911" y1="340.578" y2="340.578" gradientUnits="userSpaceOnUse">
      <stop offset=".102" stop-color="#FCADBA"/>
      <stop offset=".885" stop-color="#FBDAD9"/>
    </linearGradient>
    <linearGradient id="z" x1="305.198" x2="335.756" y1="314.736" y2="314.736" gradientUnits="userSpaceOnUse">
      <stop offset=".102" stop-color="#FCADBA"/>
      <stop offset=".885" stop-color="#FBDAD9"/>
    </linearGradient>
    <linearGradient id="A" x1="303.183" x2="328.388" y1="316.266" y2="316.266" gradientUnits="userSpaceOnUse">
      <stop offset=".101" stop-color="#FF7638"/>
      <stop offset=".885" stop-color="#FF3929"/>
    </linearGradient>
    <linearGradient id="B" x1="171.623" x2="235.648" y1="347.693" y2="347.693" gradientUnits="userSpaceOnUse">
      <stop offset=".102" stop-color="#915758"/>
      <stop offset=".885" stop-color="#2C090B"/>
    </linearGradient>
    <linearGradient id="C" x1="283.667" x2="339.689" y1="351.249" y2="351.249" gradientUnits="userSpaceOnUse">
      <stop offset=".102" stop-color="#915758"/>
      <stop offset=".885" stop-color="#2C090B"/>
    </linearGradient>
    <linearGradient id="D" x1="280.11" x2="302.341" y1="58.692" y2="58.692" gradientUnits="userSpaceOnUse">
      <stop stop-color="#FFADA9"/>
      <stop offset="1" stop-color="#FF6559"/>
    </linearGradient>
    <linearGradient id="E" x1="219.643" x2="291.671" y1="311.236" y2="311.236" gradientUnits="userSpaceOnUse">
      <stop stop-color="#98C5FF"/>
      <stop offset="1" stop-color="#3580E4"/>
    </linearGradient>
    <linearGradient id="G" x1="235.587" x2="280.309" y1="272.385" y2="272.385" gradientUnits="userSpaceOnUse">
      <stop stop-color="#98C5FF"/>
      <stop offset="1" stop-color="#3580E4"/>
    </linearGradient>
    <linearGradient id="H" x1="244.541" x2="328.129" y1="313.903" y2="313.903" gradientUnits="userSpaceOnUse">
      <stop stop-color="#98C5FF"/>
      <stop offset=".648" stop-color="#3580E4"/>
    </linearGradient>
    <linearGradient id="J" x1="238.379" x2="309.906" y1="195.426" y2="195.426" gradientUnits="userSpaceOnUse">
      <stop stop-color="#98C5FF"/>
      <stop offset=".648" stop-color="#3580E4"/>
    </linearGradient>
    <linearGradient id="K" x1="277.925" x2="319.596" y1="264.613" y2="264.613" gradientUnits="userSpaceOnUse">
      <stop stop-color="#98C5FF"/>
      <stop offset=".648" stop-color="#3580E4"/>
    </linearGradient>
    <linearGradient id="L" x1="268.826" x2="357.224" y1="199.522" y2="137.447" gradientUnits="userSpaceOnUse">
      <stop stop-color="#FFADA9"/>
      <stop offset="1" stop-color="#FF6559"/>
    </linearGradient>
    <linearGradient id="N" x1="181.021" x2="183.683" y1="165.341" y2="160.337" gradientUnits="userSpaceOnUse">
      <stop stop-color="#FFADA9"/>
      <stop offset="1" stop-color="#FF6559"/>
    </linearGradient>
    <linearGradient id="O" x1="176.542" x2="265.816" y1="132.538" y2="133.399" gradientUnits="userSpaceOnUse">
      <stop stop-color="#FFE5CF"/>
      <stop offset="1" stop-color="#FFAE6C"/>
    </linearGradient>
    <linearGradient id="P" x1="183.63" x2="206.741" y1="202.144" y2="207.33" gradientUnits="userSpaceOnUse">
      <stop stop-color="#FFE5CF"/>
      <stop offset="1" stop-color="#FFAE6C"/>
    </linearGradient>
    <linearGradient id="Q" x1="193.152" x2="206.772" y1="79.84" y2="81.28" gradientUnits="userSpaceOnUse">
      <stop stop-color="#FFE5CF"/>
      <stop offset="1" stop-color="#FFAE6C"/>
    </linearGradient>
    <linearGradient id="R" x1="187.63" x2="232.092" y1="125.384" y2="125.384" gradientUnits="userSpaceOnUse">
      <stop offset=".102" stop-color="#FCADBA"/>
      <stop offset=".885" stop-color="#FBDAD9"/>
    </linearGradient>
    <linearGradient id="T" x1="209.687" x2="219.295" y1="128.268" y2="128.268" gradientUnits="userSpaceOnUse">
      <stop offset=".101" stop-color="#FF7638"/>
      <stop offset=".885" stop-color="#FF3929"/>
    </linearGradient>
    <linearGradient id="U" x1="245.43" x2="339.689" y1="264.106" y2="264.106" gradientUnits="userSpaceOnUse">
      <stop offset=".102" stop-color="#fff"/>
      <stop offset=".885" stop-color="#E3EBFD"/>
    </linearGradient>
    <linearGradient id="W" x1="326.698" x2="304.529" y1="203.016" y2="133.86" gradientUnits="userSpaceOnUse">
      <stop offset=".102" stop-color="#fff"/>
      <stop offset=".885" stop-color="#E3EBFD"/>
    </linearGradient>
    <linearGradient id="X" x1="238.299" x2="289.359" y1="165.601" y2="165.601" gradientUnits="userSpaceOnUse">
      <stop offset=".102" stop-color="#fff"/>
      <stop offset=".885" stop-color="#CDDEFD"/>
    </linearGradient>
    <linearGradient id="Y" x1="265.054" x2="277.834" y1="86.356" y2="86.356" gradientUnits="userSpaceOnUse">
      <stop stop-color="#98C5FF"/>
      <stop offset="1" stop-color="#3580E4"/>
    </linearGradient>
    <linearGradient id="aa" x1="262.07" x2="262.108" y1="79.113" y2="87.768" gradientUnits="userSpaceOnUse">
      <stop stop-color="#00BEDE"/>
      <stop offset=".997" stop-color="#4A8BFD"/>
    </linearGradient>
    <linearGradient id="ab" x1="271.187" x2="271.095" y1="74.717" y2="77.522" gradientUnits="userSpaceOnUse">
      <stop stop-color="#FFE5CF"/>
      <stop offset="1" stop-color="#FFAE6C"/>
    </linearGradient>
    <linearGradient id="ad" x1="309.234" x2="309.359" y1="-104.703" y2="-103.787" gradientUnits="userSpaceOnUse">
      <stop stop-color="#FFE5CF"/>
      <stop offset="1" stop-color="#FFAE6C"/>
    </linearGradient>
    <linearGradient id="ae" x1="292.948" x2="293.163" y1="-108.558" y2="-97.076" gradientUnits="userSpaceOnUse">
      <stop stop-color="#FFE5CF"/>
      <stop offset="1" stop-color="#FFAE6C"/>
    </linearGradient>
    <linearGradient id="af" x1="246.914" x2="336.976" y1="217.489" y2="101.778" gradientUnits="userSpaceOnUse">
      <stop offset=".102" stop-color="#fff"/>
      <stop offset=".885" stop-color="#E3EBFD"/>
    </linearGradient>
    <linearGradient id="ag" x1="275.791" x2="275.687" y1="-2.862" y2="12.081" gradientUnits="userSpaceOnUse">
      <stop offset=".102" stop-color="#fff"/>
      <stop offset=".885" stop-color="#E3EBFD"/>
    </linearGradient>
    <linearGradient id="ai" x1="292.705" x2="292.472" y1="-.927" y2="3.851" gradientUnits="userSpaceOnUse">
      <stop offset=".102" stop-color="#fff"/>
      <stop offset=".885" stop-color="#DDE4FD"/>
    </linearGradient>
    <linearGradient id="aj" x1="140.275" x2="140.302" y1="214.405" y2="197.572" gradientUnits="userSpaceOnUse">
      <stop stop-color="#00A6F0"/>
      <stop offset="1" stop-color="#006FF1"/>
    </linearGradient>
    <linearGradient id="al" x1="94.789" x2="93.218" y1="221.515" y2="210.105" gradientUnits="userSpaceOnUse">
      <stop stop-color="#98C5FF"/>
      <stop offset="1" stop-color="#3580E4"/>
    </linearGradient>
    <linearGradient id="am" x1="88.034" x2="176.069" y1="449.066" y2="449.066" gradientUnits="userSpaceOnUse">
      <stop stop-color="#77C1BC"/>
      <stop offset="1" stop-color="#34A595"/>
    </linearGradient>
    <linearGradient id="ao" x1="146.252" x2="9.583" y1="170.351" y2="170.351" gradientUnits="userSpaceOnUse">
      <stop stop-color="#77C1BC"/>
      <stop offset="1" stop-color="#34A595"/>
    </linearGradient>
    <linearGradient id="ap" x1="82.7" x2="159.175" y1="207.194" y2="207.194" gradientUnits="userSpaceOnUse">
      <stop offset=".102" stop-color="#915758"/>
      <stop offset=".885" stop-color="#2C090B"/>
    </linearGradient>
    <linearGradient id="ar" x1="77.061" x2="78.582" y1="192.656" y2="192.656" gradientUnits="userSpaceOnUse">
      <stop offset=".102" stop-color="#915758"/>
      <stop offset=".885" stop-color="#2C090B"/>
    </linearGradient>
    <linearGradient id="as" x1="70.157" x2="71.678" y1="192.656" y2="192.656" gradientUnits="userSpaceOnUse">
      <stop offset=".102" stop-color="#915758"/>
      <stop offset=".885" stop-color="#2C090B"/>
    </linearGradient>
    <linearGradient id="at" x1="49.441" x2="50.962" y1="192.656" y2="192.656" gradientUnits="userSpaceOnUse">
      <stop offset=".102" stop-color="#915758"/>
      <stop offset=".885" stop-color="#2C090B"/>
    </linearGradient>
    <linearGradient id="au" x1="42.537" x2="44.058" y1="192.656" y2="192.656" gradientUnits="userSpaceOnUse">
      <stop offset=".102" stop-color="#915758"/>
      <stop offset=".885" stop-color="#2C090B"/>
    </linearGradient>
    <linearGradient id="av" x1="35.633" x2="37.154" y1="192.656" y2="192.656" gradientUnits="userSpaceOnUse">
      <stop offset=".102" stop-color="#915758"/>
      <stop offset=".885" stop-color="#2C090B"/>
    </linearGradient>
    <linearGradient id="aw" x1="28.727" x2="30.248" y1="192.656" y2="192.656" gradientUnits="userSpaceOnUse">
      <stop offset=".102" stop-color="#915758"/>
      <stop offset=".885" stop-color="#2C090B"/>
    </linearGradient>
    <linearGradient id="ax" x1="21.822" x2="23.343" y1="192.656" y2="192.656" gradientUnits="userSpaceOnUse">
      <stop offset=".102" stop-color="#915758"/>
      <stop offset=".885" stop-color="#2C090B"/>
    </linearGradient>
    <linearGradient id="ay" x1="14.918" x2="16.439" y1="192.656" y2="192.656" gradientUnits="userSpaceOnUse">
      <stop offset=".102" stop-color="#915758"/>
      <stop offset=".885" stop-color="#2C090B"/>
    </linearGradient>
    <linearGradient id="az" x1="63.253" x2="64.774" y1="192.656" y2="192.656" gradientUnits="userSpaceOnUse">
      <stop offset=".102" stop-color="#915758"/>
      <stop offset=".885" stop-color="#2C090B"/>
    </linearGradient>
    <linearGradient id="aA" x1="56.347" x2="57.868" y1="192.656" y2="192.656" gradientUnits="userSpaceOnUse">
      <stop offset=".102" stop-color="#915758"/>
      <stop offset=".885" stop-color="#2C090B"/>
    </linearGradient>
    <linearGradient id="aB" x1="78.253" x2="134.275" y1="391.266" y2="391.266" gradientUnits="userSpaceOnUse">
      <stop stop-color="#FFCC92"/>
      <stop offset="1" stop-color="#F79748"/>
    </linearGradient>
    <linearGradient id="aC" x1="147.293" x2="147.354" y1="249.442" y2="235.641" gradientUnits="userSpaceOnUse">
      <stop offset=".102" stop-color="#DCDFF8"/>
      <stop offset=".885" stop-color="#F5F7FE"/>
    </linearGradient>
    <linearGradient id="aE" x1="135.418" x2="135.904" y1="247.343" y2="225.454" gradientUnits="userSpaceOnUse">
      <stop offset=".102" stop-color="#DCDFF8"/>
      <stop offset=".885" stop-color="#F5F7FE"/>
    </linearGradient>
    <linearGradient id="aF" x1="78.253" x2="150.281" y1="321.018" y2="321.018" gradientUnits="userSpaceOnUse">
      <stop offset=".102" stop-color="#DCDFF8"/>
      <stop offset=".885" stop-color="#F5F7FE"/>
    </linearGradient>
    <linearGradient id="aH" x1="145.386" x2="223.728" y1="341.735" y2="213.081" gradientUnits="userSpaceOnUse">
      <stop offset=".102" stop-color="#DCDFF8"/>
      <stop offset=".885" stop-color="#F5F7FE"/>
    </linearGradient>
    <linearGradient id="aI" x1="82.7" x2="144.947" y1="237.427" y2="237.427" gradientUnits="userSpaceOnUse">
      <stop stop-color="#FFADA9"/>
      <stop offset="1" stop-color="#FF6559"/>
    </linearGradient>
    <linearGradient id="aK" x1="87.575" x2="88.828" y1="234.261" y2="234.261" gradientUnits="userSpaceOnUse">
      <stop stop-color="#FFADA9"/>
      <stop offset="1" stop-color="#FF6559"/>
    </linearGradient>
    <linearGradient id="aL" x1="93.262" x2="94.515" y1="234.261" y2="234.261" gradientUnits="userSpaceOnUse">
      <stop stop-color="#FFADA9"/>
      <stop offset="1" stop-color="#FF6559"/>
    </linearGradient>
    <linearGradient id="aM" x1="110.327" x2="111.58" y1="234.261" y2="234.261" gradientUnits="userSpaceOnUse">
      <stop stop-color="#FFADA9"/>
      <stop offset="1" stop-color="#FF6559"/>
    </linearGradient>
    <linearGradient id="aN" x1="116.016" x2="117.269" y1="234.261" y2="234.261" gradientUnits="userSpaceOnUse">
      <stop stop-color="#FFADA9"/>
      <stop offset="1" stop-color="#FF6559"/>
    </linearGradient>
    <linearGradient id="aO" x1="121.702" x2="122.955" y1="234.261" y2="234.261" gradientUnits="userSpaceOnUse">
      <stop stop-color="#FFADA9"/>
      <stop offset="1" stop-color="#FF6559"/>
    </linearGradient>
    <linearGradient id="aP" x1="127.391" x2="128.644" y1="234.261" y2="234.261" gradientUnits="userSpaceOnUse">
      <stop stop-color="#FFADA9"/>
      <stop offset="1" stop-color="#FF6559"/>
    </linearGradient>
    <linearGradient id="aQ" x1="133.079" x2="134.332" y1="234.261" y2="234.261" gradientUnits="userSpaceOnUse">
      <stop stop-color="#FFADA9"/>
      <stop offset="1" stop-color="#FF6559"/>
    </linearGradient>
    <linearGradient id="aR" x1="138.768" x2="140.021" y1="234.261" y2="234.261" gradientUnits="userSpaceOnUse">
      <stop stop-color="#FFADA9"/>
      <stop offset="1" stop-color="#FF6559"/>
    </linearGradient>
    <linearGradient id="aS" x1="98.95" x2="100.203" y1="234.261" y2="234.261" gradientUnits="userSpaceOnUse">
      <stop stop-color="#FFADA9"/>
      <stop offset="1" stop-color="#FF6559"/>
    </linearGradient>
    <linearGradient id="aT" x1="104.639" x2="105.892" y1="234.261" y2="234.261" gradientUnits="userSpaceOnUse">
      <stop stop-color="#FFADA9"/>
      <stop offset="1" stop-color="#FF6559"/>
    </linearGradient>
    <linearGradient id="aU" x1="86.257" x2="132.497" y1="310.347" y2="310.347" gradientUnits="userSpaceOnUse">
      <stop stop-color="#FFADA9"/>
      <stop offset="1" stop-color="#FF6559"/>
    </linearGradient>
    <linearGradient id="aV" x1="209.409" x2="209.097" y1="333.497" y2="292.813" gradientUnits="userSpaceOnUse">
      <stop offset=".102" stop-color="#DCDFF8"/>
      <stop offset=".885" stop-color="#F5F7FE"/>
    </linearGradient>
    <linearGradient id="aX" x1="164.403" x2="164.692" y1="293.628" y2="320.318" gradientUnits="userSpaceOnUse">
      <stop stop-color="#98C5FF"/>
      <stop offset="1" stop-color="#3580E4"/>
    </linearGradient>
    <linearGradient id="aZ" x1="149.481" x2="153.958" y1="319.472" y2="295.819" gradientUnits="userSpaceOnUse">
      <stop offset=".102" stop-color="#DCDFF8"/>
      <stop offset=".885" stop-color="#F5F7FE"/>
    </linearGradient>
  </defs>
</svg>
