<svg id="OBJECTS" xmlns="http://www.w3.org/2000/svg" viewBox="0 0 834.38 834.38">
  <defs>
    <style>
      .cls-1 {
        fill: #8097dc;
      }

      .cls-1, .cls-10, .cls-12, .cls-13, .cls-2, .cls-3, .cls-4, .cls-5, .cls-6, .cls-7, .cls-8, .cls-9 {
        fill-rule: evenodd;
      }

      .cls-11, .cls-2 {
        fill: #423462;
      }

      .cls-3 {
        fill: #2b234a;
      }

      .cls-4 {
        fill: #ebb39d;
      }

      .cls-5 {
        fill: #dc8c8c;
      }

      .cls-6 {
        fill: #f4f4f4;
      }

      .cls-7 {
        fill: #d4d3dc;
      }

      .cls-8 {
        fill: #fff;
      }

      .cls-9 {
        fill: #6a598f;
      }

      .cls-10 {
        fill: #5c69b3;
      }

      .cls-12, .cls-14 {
        fill: #b8405b;
      }

      .cls-13 {
        fill: #cf4970;
      }
    </style>
  </defs>
  <title>home</title>
  <g>
    <path class="cls-1" d="M468.44,763.3l287.38,7.39A16.12,16.12,0,0,0,772.31,755l5-193.94a16.12,16.12,0,0,0-15.66-16.48l-287.38-7.39a16.12,16.12,0,0,0-16.49,15.65l-5,193.94A16.11,16.11,0,0,0,468.44,763.3Z"/>
    <path class="cls-2" d="M557.17,607l114.48-8.7V574L683.84,571s-2.93-99.93-7.8-102.37-46.31-23.39-96.52,4.39c0,0-9.26-9.75-18,0S557.17,607,557.17,607Z"/>
    <path class="cls-3" d="M565.34,606.41l106.31-8.08V574L683.84,571s-.75-25.53-2.12-51.1c-12.58-10.07-29.44-2.69-29.44-2.69L574,513.32s2.37,66.95-.21,69.2-2.89-12.54-6.11-11.9C565.5,571.07,565.27,592.88,565.34,606.41Z"/>
    <path class="cls-4" d="M596.76,695.22s-18,11.78-43.68,34.51-31.26,27.35-31.26,27.35l-.09.08L529,767.57s38-15.74,65.54-32.8,28-39.24,25.17-42.68S600.2,692.39,596.76,695.22Z"/>
    <polygon class="cls-4" points="652.88 544.35 647.27 606.01 636.74 606.01 619.58 622.01 609.86 606.01 603.4 606.01 607.06 560.19 652.88 544.35"/>
    <path class="cls-2" d="M652.31,550.56l-1.75,19.28c-5.53,13.2-19.24,24.37-35.28,27.38a42,42,0,0,1-11.23.65l3-37.68,43.18-14.93A24.23,24.23,0,0,1,652.31,550.56Z"/>
    <path class="cls-4" d="M664.93,513.4a11.67,11.67,0,0,1,10.11,13,15,15,0,0,1-11.18,12.76,144.28,144.28,0,0,0,1.07-25.8Zm-4.83,28.28c-5.89,19.14-17.75,38-42.81,42.28-34.73-4.86-43.38-40.09-43.26-43.26v-34c4.14-.12,10.26-2.7,16.7-13.86,0,0,11.21,21.44,28.27,21.44,13.72,0,33.2-2,40.3-2.75C659.72,517.83,660.38,530.09,660.1,541.68Z"/>
    <path class="cls-5" d="M603.64,508.34c.13,7.26-.38,14.89-2.3,21,0,0-9.75-7.07-12.19-4.14s-5.6,16.82,11.7,14.62l6.9,41.86c-26.81-9.25-33.83-38.13-33.72-41v-34c4.14-.12,10.26-2.7,16.7-13.86A54.11,54.11,0,0,0,603.64,508.34Z"/>
    <path class="cls-5" d="M664.93,513.4a11.63,11.63,0,0,1,7.54,4.16,12,12,0,0,1,2.57,8.88,15,15,0,0,1-11.18,12.76A139.5,139.5,0,0,0,665,516.14c0-.9,0-1.81-.08-2.74Zm-90.9-1c5.16-1.52,12.18-5.9,15.88-18.18-6.13,10-11.92,12.37-15.88,12.48v5.7Zm16.13-18.59c.69,2.49,7.59,25.62,25.42,23.94,12.1-1.14,29.75-2.93,44-2.07-.09-1.56-.17-3-.25-4.15-7.1.78-26.58,2.75-40.3,2.75-17.06,0-28.27-21.44-28.27-21.44Z"/>
    <path class="cls-6" d="M647.28,606l52.4,27.17L672.38,720s14.14,24.62,16.09,49l-120.1-3.09c-6.44-24.53-3.89-52.28-.31-69.32-36.6-8-7.64-56.41,15-76.42L603.4,606h6.46l9.7,16,17.18-16Z"/>
    <path class="cls-7" d="M694.55,649.48,672.38,720s14.14,24.62,16.09,49L645,767.84c30.73-28.92,5-64,5-64l-29.18-8.42s28.54.06,37.54-4.12S677,647.6,677,647.6Z"/>
    <path class="cls-2" d="M568.44,514.16s11.1-6.28,27.87-4.65l.77,4.71S585.55,511,568.44,514.16Z"/>
    <path class="cls-5" d="M598.41,556.44S616,560,619.13,552.22C619.13,552.22,616.69,565.15,598.41,556.44Z"/>
    <path class="cls-6" d="M676.54,644.3l23.14-11.12,26.88,78.13c5.63,2.74,14.92,8.23,8.76,12.3-8.52,5.62-45.82,7.72-45.82,7.72l.26-4-1.53.32Z"/>
    <path class="cls-4" d="M719.67,716.22s-21.45,1.22-55.09,8-40.74,8.06-40.74,8.06l-23.78,4.13L610.29,757l14.52-12s40.75,5.34,73.17,4.37,43.87-20,43.14-24.38S724.05,715.49,719.67,716.22Z"/>
    <path class="cls-5" d="M719.67,716.22s-3.12.18-8.83.77c6.88,1,21.07,4,21.43,11.28.28,5.7-4.28,11.63-11,16.44,14.82-6.17,20.41-16.61,19.9-19.72C740.38,720.61,724.05,715.49,719.67,716.22Z"/>
    <path class="cls-5" d="M621.46,732.74s-9.44-.82-17.92-2l-3.56.09-1.43,6.23,1.51-.61,21.39-3.71Z"/>
    <g>
      <path class="cls-2" d="M599.93,725.72h0a3.6,3.6,0,0,1,1.83,4.74l-13.61,30.75-5.27,4a.47.47,0,0,1-.47.05.45.45,0,0,1-.28-.39l-.55-6.61,13.61-30.76A3.61,3.61,0,0,1,599.93,725.72Z"/>
      <path class="cls-2" d="M601.71,721.71h0a2.39,2.39,0,0,1,1.21,3.14l-1.18,2.66a3.57,3.57,0,0,0-1.81-1.78h0a3.6,3.6,0,0,0-2.54-.13l1.18-2.67A2.39,2.39,0,0,1,601.71,721.71Z"/>
    </g>
    <path class="cls-5" d="M600.06,736.45l-20,8.16s-1.46,4.39,4.75,3A47.34,47.34,0,0,0,597,742.79s-13.1,8.34-13.1,9,.49,4,3.78,2.93,7.92-4.45,7.92-4.45l-2.74,3.84s.61,3.84,4.87,2.37c0,0,2.56,1.34,4,1.22s8.65-.61,8.65-.61Z"/>
    <path class="cls-8" d="M547.39,717.19c6,9.58,23.43,45.45,40.53,56.25l-48.76,4.31-29.31-53.67Z"/>
    <path class="cls-2" d="M545.72,716.75l35.45,60.74a2.73,2.73,0,0,1,0,2.76,2.7,2.7,0,0,1-2.38,1.4l-39,.44a2.67,2.67,0,0,1-2.36-1.27L501.1,724a2.76,2.76,0,0,1,2-4.23l3.39-.37a2.76,2.76,0,0,1,2.05-4.06l7.81-1.07a2.88,2.88,0,0,1-.11-.42,2.51,2.51,0,0,1,2.5-3.05,3.72,3.72,0,0,1,3.48,2.68l10.46-.72a2.72,2.72,0,0,1,2.69,1.58l.85,1.82,6.79-.74A2.7,2.7,0,0,1,545.72,716.75Z"/>
    <g>
      <path class="cls-5" d="M521.76,753.25l-6.69,3.83c-1,8.18,5.37,14.76,15.77,17.43l3.13-1.7Z"/>
      <path class="cls-5" d="M517.9,755.5l14.9-8.68s3.93,1.6,2.24,3.83-9.6,7.82-9.6,7.82l13.9-6.76s3.06,1.18,1.5,3.28-11.65,9.36-11.65,9.36l9.41-2.55s3,1.28,1.15,3.2-6.63,3.34-6.63,3.34c5.53-.73,6.14,4.26-.57,4.63Z"/>
    </g>
    <polygon class="cls-8" points="648.25 595.3 654.41 609.71 628.89 632.93 619.56 621.99 648.25 595.3"/>
    <polygon class="cls-8" points="604.15 596.62 619.56 621.99 609.6 631.8 598.05 609.73 604.15 596.62"/>
    <path class="cls-8" d="M573.58,631.8s-25.81,29.13-22.88,46.8,14.77,17.28,14.77,17.28c-24.33-14.15-2.48-50.26,8.11-64.08Zm-6,14.91c1.33,0,2.13,1.45,1.77,3.24s-1.74,3.23-3.07,3.23-2.13-1.45-1.78-3.23S566.22,646.71,567.56,646.71Z"/>
    <path class="cls-8" d="M679.29,645.71l7.88,74.45S676.4,678.51,679.29,645.71Z"/>
    <path class="cls-9" d="M591.51,490.72s3.06,25.4,30.55,19.45,50.16-14,55.79-2.57c0,0-.16-15.19-26.69-6.59S597.08,514.22,591.51,490.72Z"/>
    <path class="cls-2" d="M479.91,610.7A10.28,10.28,0,0,1,490.2,621H469.63a10.28,10.28,0,0,1,10.28-10.28Zm0-11.35a4.71,4.71,0,1,1-4.71,4.71A4.71,4.71,0,0,1,479.91,599.35Z"/>
    <path class="cls-2" d="M500.26,605.56h14.42v2.78H500.26v-2.78Zm0,5.15h9.36v2.77h-9.36Z"/>
    <path class="cls-8" d="M728.74,577h9.12a5.94,5.94,0,0,1,4.21,1.75h0a5.91,5.91,0,0,1,1.76,4.21v9.12a6,6,0,0,1-6,6h-9.12a5.94,5.94,0,0,1-4.21-1.75h0a6,6,0,0,1-1.75-4.22V583a5.94,5.94,0,0,1,1.75-4.21h0a5.94,5.94,0,0,1,4.21-1.75Zm9.12,2h-9.12A3.94,3.94,0,0,0,724.8,583v9.12a3.92,3.92,0,0,0,1.16,2.79h0a4,4,0,0,0,2.79,1.16h9.12a4,4,0,0,0,3.94-3.95V583a3.9,3.9,0,0,0-1.16-2.78h0A3.94,3.94,0,0,0,737.86,579Z"/>
    <path class="cls-2" d="M728.74,602.1h9.12a5.94,5.94,0,0,1,4.21,1.75h0a5.93,5.93,0,0,1,1.76,4.21v9.12a6,6,0,0,1-6,6h-9.12a5.94,5.94,0,0,1-4.21-1.75h0a6,6,0,0,1-1.75-4.22v-9.12a6,6,0,0,1,1.75-4.21h0a5.94,5.94,0,0,1,4.21-1.75Zm9.12,2h-9.12a3.94,3.94,0,0,0-3.94,3.94v9.12A3.92,3.92,0,0,0,726,620h0a4,4,0,0,0,2.79,1.16h9.12a4,4,0,0,0,3.94-4v-9.12a3.9,3.9,0,0,0-1.16-2.78h0A3.94,3.94,0,0,0,737.86,604.12Z"/>
    <polygon class="cls-2" points="724.89 586.69 728.67 582.35 733.4 586.68 749 574.95 752.77 578.89 733.24 594.08 724.89 586.69"/>
    <path class="cls-2" d="M728.74,626.37h9.12a5.94,5.94,0,0,1,4.21,1.75h0a5.91,5.91,0,0,1,1.76,4.21v9.12a6,6,0,0,1-6,6h-9.12a5.91,5.91,0,0,1-4.21-1.76h0a5.94,5.94,0,0,1-1.75-4.21v-9.12a5.94,5.94,0,0,1,1.75-4.21h0A5.94,5.94,0,0,1,728.74,626.37Z"/>
    <path class="cls-2" d="M501.48,677.17H515.9V680H501.48v-2.78Zm0,5.15h9.36v2.77h-9.36Z"/>
    <path class="cls-10" d="M734.88,680.07a4.18,4.18,0,1,1-4.18,4.18,4.18,4.18,0,0,1,4.18-4.18ZM487,644.37a5.79,5.79,0,1,1-5.79,5.79,5.8,5.8,0,0,1,5.79-5.79Zm260.62,60.46a2.09,2.09,0,1,1-2.09,2.09A2.08,2.08,0,0,1,747.58,704.83Z"/>
    <path class="cls-10" d="M537.12,563.66a2.9,2.9,0,1,0-2.89-2.89A2.91,2.91,0,0,0,537.12,563.66Z"/>
    <path class="cls-2" d="M618.45,645.07a3.56,3.56,0,1,0-3.56-3.56A3.57,3.57,0,0,0,618.45,645.07Z"/>
    <path class="cls-2" d="M618.45,658.31a3.56,3.56,0,1,0-3.56-3.56A3.57,3.57,0,0,0,618.45,658.31Z"/>
  </g>
  <g>
    <path class="cls-1" d="M72.74,763.42l287.39,7.39a16.11,16.11,0,0,0,16.48-15.66l5-193.93a16.11,16.11,0,0,0-15.66-16.48l-287.38-7.4A16.12,16.12,0,0,0,62.08,553l-5,193.94A16.11,16.11,0,0,0,72.74,763.42Z"/>
    <g>
      <g>
        <g>
          <path class="cls-8" d="M305.83,606.46l33.76,2.32s0,33.93-10.76,47.46l-33.32-3.76S307.83,626,305.83,606.46Z"/>
          <polygon class="cls-2" points="339.47 599.38 338.93 603.98 336.49 603.7 337.03 599.1 339.47 599.38"/>
          <rect class="cls-11" x="340.61" y="602.33" width="6.59" height="2.45" transform="matrix(0.69, -0.73, 0.73, 0.69, -331.37, 440.62)"/>
        </g>
        <g>
          <path class="cls-7" d="M258.89,619.69l24.88-5.36,18.5,85.82c21.41,5-15.61,33-24.91,16.93Z"/>
          <path class="cls-5" d="M291.68,678.54s20.18-17.21,33.59-22.7l7.85,14.1s-15,32.73-33.3,42.23S271.94,695.93,291.68,678.54Z"/>
          <path class="cls-4" d="M337.85,651.48l-14.28-18.79s-7,4.13-4.13,8.39a103.74,103.74,0,0,0,8.14,9.9l-14.53-5.26s-4.64.5-2.38,6,12.78,7.89,12.78,7.89l-7.27-.12a.42.42,0,0,0-.27,0h-3.4s-3.27,6.83,2.19,8h0c.26,3.95,1.21,7.88,2.8,7.88C317.5,675.34,349.63,677.78,337.85,651.48Z"/>
        </g>
      </g>
      <g>
        <polygon class="cls-6" points="233.38 579.43 283.77 614.33 292.02 769.06 139.69 765.14 147.78 617.02 192.38 579.43 233.38 579.43"/>
        <path class="cls-7" d="M215.75,767.1l-76.06-2,7-128.46,24-3.3s-7.43,65.24,2.54,90,40.78-19.09,42.08,27.76Z"/>
        <g>
          <path class="cls-2" d="M223,612.18a3.15,3.15,0,1,0-3.14-3.14A3.15,3.15,0,0,0,223,612.18Z"/>
          <path class="cls-2" d="M223,631.16a3.15,3.15,0,1,0-3.14-3.15A3.16,3.16,0,0,0,223,631.16Z"/>
        </g>
        <g>
          <path class="cls-2" d="M177.38,501.79s-14.32-30.8-13.23-36.44,6.72-10.41,11.93-7.8c0,0,36.55-34.78,73.64-11.79,36.8,22.81,6.17,53.86,6.17,53.86Z"/>
          <g>
            <path class="cls-4" d="M241.51,525.5l-8.12,53.93c-2.87,11.57-41,11.83-41,0l4.68-41.78Z"/>
            <path class="cls-2" d="M241.51,525.5l-6.92,45.94c-24.53,5.41-33.25-13.34-33.25-13.34l1-21.88Z"/>
          </g>
          <g>
            <g>
              <path class="cls-4" d="M180,498.78A10,10,0,0,0,168.6,508.9,13.17,13.17,0,0,0,180,521.64v1.93a38.77,38.77,0,0,0,38.66,38.66h0a38.77,38.77,0,0,0,38.66-38.66v-37l-.25-5.78h-67C190.37,494.45,180,498.78,180,498.78Z"/>
              <path class="cls-5" d="M234.31,558.91a38.79,38.79,0,0,0,23-35.34v-37l-.25-5.78H231.21c-.1,7,.09,19.92,1.37,26,9.94-4.92,14.13,8.34,1.73,12.19Z"/>
              <path class="cls-5" d="M257.1,480.76h-67c.28,13.69-10.06,18-10.06,18s12.1.19,12.64-16Z"/>
              <path class="cls-5" d="M170,503.5a10.46,10.46,0,0,0-1.44,5.4A13.17,13.17,0,0,0,180,521.64v-4.47c-4.46.47-5.62-9.85.15-7.59l-.06-2.8S174.43,503.59,170,503.5Z"/>
            </g>
            <g>
              <path class="cls-5" d="M225.9,515c1.68-.32,3.25.47,3.5,1.77a2,2,0,0,1-.19,1.3,2.85,2.85,0,0,0-5.22,1,2,2,0,0,1-.66-1.13C223.07,516.67,224.23,515.35,225.9,515Z"/>
              <path class="cls-2" d="M200.82,490.38H224.5a7.89,7.89,0,0,0-6.12-6.44C212.79,482.51,200.82,490.38,200.82,490.38Z"/>
              <path class="cls-2" d="M258.72,490.38H235a7.89,7.89,0,0,1,6.12-6.44C246.75,482.51,258.72,490.38,258.72,490.38Z"/>
            </g>
          </g>
        </g>
        <g>
          <polygon class="cls-8" points="220.68 587.37 234.15 574.33 241.48 585.03 227.9 602.47 220.68 587.37"/>
          <polygon class="cls-8" points="193.43 570.09 220.68 587.37 211.63 601.78 188.59 582.63 193.43 570.09"/>
        </g>
      </g>
      <g>
        <path class="cls-6" d="M171.5,629.66,147.78,617l-34,68.32c-24,16.61,26.93,60.4,39.69,18.87Z"/>
        <path class="cls-4" d="M166.68,765.84S157,718.05,144,702.18s-28.5-17-30.5-8,12.56,48.75,29.69,71.08Z"/>
        <path class="cls-5" d="M166.68,765.84s-.58-2.91-1.66-7.52c-5.24,7-19.16,2.07-28.05-2.13,2,3.22,4.11,6.27,6.24,9Z"/>
        <path class="cls-5" d="M147.64,707.54a40.59,40.59,0,0,0-3.62-5.36c-13-15.86-28.5-17-30.5-8-.57,2.53.19,7.53,2,13.91C119.3,694.93,136.83,701.8,147.64,707.54Z"/>
      </g>
    </g>
    <g>
      <polygon class="cls-3" points="69.7 743.02 365.83 743.02 365.83 745.48 342.59 745.48 342.59 770.36 340.13 770.3 340.13 745.48 92.79 745.48 92.79 764.31 90.33 764.25 90.33 745.48 69.7 745.48 69.7 743.02"/>
      <g>
        <g>
          <path class="cls-8" d="M112.56,711.75a12,12,0,0,1,5.64,9.16h0v0h0v.05h0v0h0l.61,14.69.26,6.39-4.36.18-19.57.8-.26-6.39-.6-14.68v0h0v0h0v0h0a12,12,0,0,1,4.87-9.59l-.23-5.64h0A1.76,1.76,0,0,1,97.11,705l-.06-1.5a1.76,1.76,0,0,1,1.68-1.82h0l9-.37h0l4.36-.18h0a1.75,1.75,0,0,1,1.82,1.68l.06,1.5a1.75,1.75,0,0,1-1.68,1.82h0Z"/>
          <g>
            <path class="cls-12" d="M115.07,712a12,12,0,0,1,5.26,9.9V743H96.39v-21.1a12,12,0,0,1,5.27-9.9v-5.65h0a1.75,1.75,0,0,1-1.75-1.75v-1.5a1.76,1.76,0,0,1,1.75-1.76h13.41a1.76,1.76,0,0,1,1.75,1.76v1.5a1.75,1.75,0,0,1-1.75,1.75h0Z"/>
            <path class="cls-13" d="M116,743H96.39v-21.1a12,12,0,0,1,5.27-9.9v-5.65h0a1.75,1.75,0,0,1-1.75-1.75v-1.5a1.76,1.76,0,0,1,1.75-1.76h9a1.76,1.76,0,0,1,1.75,1.76v1.5a1.75,1.75,0,0,1-1.75,1.75h0V712a12,12,0,0,1,5.27,9.9Z"/>
            <path class="cls-7" d="M120.32,721.4c0,.17,0,.35,0,.52v14.71H96.39V721.92c0-.17,0-.35,0-.52Z"/>
            <path class="cls-6" d="M116,736.63H96.39V721.92c0-.17,0-.35,0-.52H116c0,.17,0,.35,0,.52Z"/>
            <path class="cls-3" d="M100.86,723.15h9.92v1h-9.92v-1Zm0,2.41H107v1h-6.15Z"/>
          </g>
        </g>
        <path class="cls-3" d="M175.24,712a12,12,0,0,1,5.26,9.38h0v.05h0v0h0V743H156.57v-21.1h0v0h0a12,12,0,0,1,5.26-9.38v-5.65h0a1.75,1.75,0,0,1-1.76-1.75v-1.5a1.76,1.76,0,0,1,1.76-1.76h13.4a1.76,1.76,0,0,1,1.76,1.76v1.5a1.75,1.75,0,0,1-1.76,1.75h0Z"/>
        <g>
          <path class="cls-8" d="M150.86,698.76a16.9,16.9,0,0,1,7.94,12.91h0v0h0v0h0v0h0v.07h0v0h0v0h0v0h0v0h0v0h0v0h0v0h0v0h0l.85,20.71.37,9-6.14.25-27.58,1.13-.37-9-.85-20.7v0h0v0h0v0h0v0h0v0h0v0h0v0h0v0h0v0h0v0h0v0h0v0h0A16.92,16.92,0,0,1,132,699.53l-.32-7.94h0a2.49,2.49,0,0,1-2.58-2.38l-.09-2.1a2.49,2.49,0,0,1,2.38-2.58h0L144.1,684h0l6.14-.25h0a2.47,2.47,0,0,1,2.57,2.37l.09,2.11a2.47,2.47,0,0,1-2.37,2.57h0Z"/>
          <g>
            <path class="cls-12" d="M154.38,699.14a16.87,16.87,0,0,1,7.43,14v29.72H128.07V713.1a16.87,16.87,0,0,1,7.43-14v-8h0a2.48,2.48,0,0,1-2.47-2.47V686.6a2.48,2.48,0,0,1,2.47-2.48h18.9a2.48,2.48,0,0,1,2.47,2.48v2.11a2.48,2.48,0,0,1-2.47,2.47h0Z"/>
            <path class="cls-13" d="M155.67,742.82h-27.6V713.1a16.87,16.87,0,0,1,7.43-14v-8h0a2.48,2.48,0,0,1-2.47-2.47V686.6a2.48,2.48,0,0,1,2.47-2.48h12.75a2.49,2.49,0,0,1,2.48,2.48v2.11a2.48,2.48,0,0,1-2.48,2.47h0v8a16.89,16.89,0,0,1,7.43,14Z"/>
            <path class="cls-7" d="M161.79,712.36c0,.24,0,.49,0,.74v20.72H128.07V713.1c0-.25,0-.5,0-.74Z"/>
            <path class="cls-6" d="M155.67,733.82h-27.6V713.1c0-.25,0-.5,0-.74h27.57c0,.24,0,.49,0,.74Z"/>
            <path class="cls-3" d="M134.36,714.83h14v1.38h-14v-1.38Zm0,3.39H143v1.39h-8.67Z"/>
          </g>
        </g>
        <g>
          <rect class="cls-11" x="174.05" y="720.24" width="33.74" height="22.77" rx="1.69"/>
          <g>
            <g>
              <path class="cls-7" d="M178.72,722.33a2.54,2.54,0,1,1-2.53,2.53A2.53,2.53,0,0,1,178.72,722.33Z"/>
              <path class="cls-7" d="M186.85,722.33a2.54,2.54,0,1,1-2.53,2.53A2.54,2.54,0,0,1,186.85,722.33Z"/>
              <path class="cls-7" d="M195,722.33a2.54,2.54,0,1,1-2.54,2.53A2.54,2.54,0,0,1,195,722.33Z"/>
              <path class="cls-7" d="M203.11,722.33a2.54,2.54,0,1,1-2.54,2.53A2.53,2.53,0,0,1,203.11,722.33Z"/>
            </g>
            <g>
              <path class="cls-7" d="M178.72,729.09a2.54,2.54,0,1,1-2.53,2.54A2.54,2.54,0,0,1,178.72,729.09Z"/>
              <path class="cls-7" d="M186.85,729.09a2.54,2.54,0,1,1-2.53,2.54A2.54,2.54,0,0,1,186.85,729.09Z"/>
              <path class="cls-7" d="M195,729.09a2.54,2.54,0,1,1-2.54,2.54A2.54,2.54,0,0,1,195,729.09Z"/>
              <path class="cls-7" d="M203.11,729.09a2.54,2.54,0,1,1-2.54,2.54A2.54,2.54,0,0,1,203.11,729.09Z"/>
            </g>
            <g>
              <path class="cls-7" d="M178.72,735.86a2.54,2.54,0,1,1-2.53,2.54A2.54,2.54,0,0,1,178.72,735.86Z"/>
              <path class="cls-7" d="M186.85,735.86a2.54,2.54,0,1,1-2.53,2.54A2.54,2.54,0,0,1,186.85,735.86Z"/>
              <path class="cls-7" d="M195,735.86a2.54,2.54,0,1,1-2.54,2.54A2.54,2.54,0,0,1,195,735.86Z"/>
              <path class="cls-7" d="M203.11,735.86a2.54,2.54,0,1,1-2.54,2.54A2.54,2.54,0,0,1,203.11,735.86Z"/>
            </g>
          </g>
        </g>
      </g>
    </g>
    <g>
      <g>
        <path class="cls-5" d="M363.5,682h0a8.62,8.62,0,0,1,6.92,10l-3.34,18.47a8.63,8.63,0,0,1-10,6.92h0a8.62,8.62,0,0,1-6.92-10l3.35-18.46A8.61,8.61,0,0,1,363.5,682Z"/>
        <path class="cls-4" d="M363.5,682h0l.5.11a9.11,9.11,0,0,1,2.41,7.94l-1,5.31-2.59,14.28a9.15,9.15,0,0,1-7.24,7.32,8.62,8.62,0,0,1-5.45-9.58l3.35-18.46A8.61,8.61,0,0,1,363.5,682Z"/>
        <path class="cls-12" d="M363.5,682h0a8.62,8.62,0,0,1,6.92,10l-.9,5a8.62,8.62,0,0,1-10,6.92h0a8.62,8.62,0,0,1-6.92-10l.91-5A8.61,8.61,0,0,1,363.5,682Z"/>
        <path class="cls-13" d="M363.5,682h0l.5.11a9.11,9.11,0,0,1,2.41,7.94l-1,5.31L364,703.53a8.47,8.47,0,0,1-4.43.38h0a8.62,8.62,0,0,1-6.92-10l.91-5A8.61,8.61,0,0,1,363.5,682Z"/>
        <path class="cls-8" d="M357,686.87c.58.11.93,1,.76,1.88s-.78,1.59-1.37,1.48-.93-.94-.77-1.87.79-1.6,1.38-1.49Zm-1,5.9a.47.47,0,0,1,.34.56.47.47,0,0,1-.51.41.46.46,0,0,1-.33-.56A.45.45,0,0,1,356,692.77Z"/>
        <path class="cls-8" d="M363.52,704.13c.59.11.92,1,.74,2s-.81,1.74-1.4,1.63-.93-1-.75-2S362.92,704,363.52,704.13Z"/>
      </g>
      <g>
        <path class="cls-5" d="M132.19,607.48h0a6.63,6.63,0,0,1-3.2-8.79l6.11-13.09a6.63,6.63,0,0,1,8.79-3.2h0a6.63,6.63,0,0,1,3.2,8.79L141,604.27A6.64,6.64,0,0,1,132.19,607.48Z"/>
        <path class="cls-4" d="M132.19,607.48h0l-.35-.18a7,7,0,0,1-.24-6.39l1.76-3.77L138.08,587a7,7,0,0,1,6.83-4,6.63,6.63,0,0,1,2.18,8.2L141,604.27A6.64,6.64,0,0,1,132.19,607.48Z"/>
        <path class="cls-12" d="M132.19,607.48h0a6.64,6.64,0,0,1-3.2-8.8l1.66-3.55a6.63,6.63,0,0,1,8.79-3.2h0a6.63,6.63,0,0,1,3.2,8.79L141,604.27A6.64,6.64,0,0,1,132.19,607.48Z"/>
        <path class="cls-13" d="M132.19,607.48h0l-.35-.18a7,7,0,0,1-.24-6.39l1.76-3.77,2.7-5.8a6.57,6.57,0,0,1,3.38.59h0a6.63,6.63,0,0,1,3.2,8.79L141,604.27A6.64,6.64,0,0,1,132.19,607.48Z"/>
        <path class="cls-8" d="M138,605.13c-.42-.2-.51-.89-.21-1.55s.9-1,1.32-.84.5.89.2,1.55-.9,1-1.31.84Zm1.9-4.2a.35.35,0,0,1-.14-.48.33.33,0,1,1,.6.27A.36.36,0,0,1,139.92,600.93Z"/>
        <path class="cls-8" d="M136.51,591c-.42-.2-.49-.94-.16-1.65s1-1.14,1.37-.94.49.93.16,1.65S136.93,591.18,136.51,591Z"/>
      </g>
    </g>
    <g>
      <path class="cls-10" d="M89.9,671.57a5.47,5.47,0,1,0-5.46-5.47A5.48,5.48,0,0,0,89.9,671.57Z"/>
      <path class="cls-10" d="M81.05,639.82a1.3,1.3,0,1,0-1.3-1.3A1.31,1.31,0,0,0,81.05,639.82Z"/>
      <path class="cls-10" d="M355.36,567a3.39,3.39,0,1,0-3.39-3.38A3.39,3.39,0,0,0,355.36,567Z"/>
      <path class="cls-10" d="M333.76,722.84a3.39,3.39,0,1,0-3.39-3.38A3.39,3.39,0,0,0,333.76,722.84Z"/>
    </g>
  </g>
  <g>
    <path class="cls-1" d="M468.44,374.29l287.38,7.39A16.12,16.12,0,0,0,772.31,366l5-193.94a16.13,16.13,0,0,0-15.66-16.48l-287.38-7.39a16.12,16.12,0,0,0-16.49,15.66l-5,193.93A16.11,16.11,0,0,0,468.44,374.29Z"/>
    <g>
      <g>
        <g>
          <path class="cls-4" d="M637.21,136.37l-8.13,53.93c-2.86,11.58-41,11.83-41,0l4.68-41.78Z"/>
          <path class="cls-2" d="M636,144.69l-.78,5.13a26.74,26.74,0,0,1-2.56,5.76c-13.15,22.74-32.69,24.23-43.23,23.08l3.37-30.14,41-11.2A13.79,13.79,0,0,1,636,144.69Z"/>
        </g>
        <g>
          <path class="cls-2" d="M644.85,115.33l3.53-48.22s1-4-6.65-1.67c0,0-63.6-23.69-84.8-7.48s2.6,44,2.6,44-7.58,6.34,2.6,11.12C569.23,116.37,630.25,115.33,644.85,115.33Z"/>
          <path class="cls-3" d="M644.85,115.33l1.68-23C640.05,96.49,635,94,635,94l-25.43,5.36s-7.69,2.91-28.47,3.53-14.55-7.07-14.55-7.07a52.15,52.15,0,0,1-12.59-2,58.54,58.54,0,0,0,5.61,8.19s-7.58,6.34,2.6,11.12C569.23,116.37,630.25,115.33,644.85,115.33Z"/>
          <path class="cls-9" d="M574.91,55.05c13.09,0,23.69,8.84,23.69,19.75a16,16,0,0,1-.09,1.71c-1-8.35-9.38-14.88-19.65-14.88-10.91,0-19.74,7.37-19.74,16.46,0,8.55,7.83,15.58,17.85,16.38-.68,0-1.36.07-2.06.07-13.08,0-23.69-8.84-23.69-19.74S561.83,55.05,574.91,55.05Z"/>
        </g>
        <g>
          <g>
            <path class="cls-4" d="M639.45,91.63v18a10,10,0,0,1,11.43,10.12,13.16,13.16,0,0,1-11.43,12.74v1.94a38.77,38.77,0,0,1-38.66,38.65h0a38.77,38.77,0,0,1-38.66-38.65v-37c8.15,4.13,32.21,1.11,36.89.25,6.23-1.15-2.91-3.12-2.91-3.12Z"/>
            <path class="cls-5" d="M649.44,114.38a10.5,10.5,0,0,1,1.44,5.39,13.16,13.16,0,0,1-11.43,12.74V128c4.45.48,5.62-9.85-.15-7.59l.05-2.8S645.05,114.46,649.44,114.38Z"/>
            <path class="cls-5" d="M639.45,91.63v18l-2-15.9-36.27,2.9s7.07,3.33-7,4.89L592.46,123s-5-4.57-7.48,0,2.49,10.7,7.38,12.68l2.16,37a38.81,38.81,0,0,1-32.39-38.14v-37c8.15,4.13,32.21,1.11,36.89.25,6.23-1.15-2.91-3.12-2.91-3.12Z"/>
          </g>
          <g>
            <path class="cls-5" d="M597.3,131.78c1.38.8,2,2.26,1.45,3.28a1.74,1.74,0,0,1-1,.78,2.41,2.41,0,0,0-4.14-2.38,1.76,1.76,0,0,1,.16-1.28C594.32,131.16,595.92,131,597.3,131.78Z"/>
            <path class="cls-2" d="M607.76,105.85H629s-3.72-5.06-15.16-2.88C615.82,99.44,607.76,100.57,607.76,105.85Z"/>
            <path class="cls-2" d="M589.37,105.85h-21.2s3.64-5.27,15.08-3.09C581.72,99.83,589.37,100.54,589.37,105.85Z"/>
            <path class="cls-5" d="M584.64,147.29c.08,0,27.85,3.89,28.45-4.83l.78,0c-.65,9.57-29.25,5.57-29.33,5.56Z"/>
          </g>
        </g>
      </g>
      <g>
        <path class="cls-7" d="M580,229.63,549.12,221,523,315.69l-18.66-.64s-.9,27,5.83,40.09l16.07-4.31,27.87,14.73Z"/>
        <g>
          <g>
            <polygon class="cls-6" points="629.08 190.3 674.7 216.52 687.72 379.93 534.62 375.36 549.12 220.96 588.09 190.3 629.08 190.3"/>
            <path class="cls-7" d="M675.53,227.2l12.19,152.73L534.56,376l5.28-56.19c38.67,45.73,129.65,10.41,123.53-48.33l-2.16-22.71Z"/>
          </g>
          <polygon class="cls-1" points="590.46 190.3 603.13 256.5 626.66 190.3 590.46 190.3"/>
          <g>
            <polygon class="cls-8" points="630.87 178.44 639.47 197.62 632.49 222.71 623.26 220.68 630.09 228.99 603.13 256.5 630.87 178.44"/>
            <polygon class="cls-8" points="588.96 182.47 603.13 256.5 585.77 225.85 591.13 219.2 584.11 220.31 581.25 195.68 588.96 182.47"/>
          </g>
        </g>
        <g>
          <path class="cls-8" d="M550.53,266.35l30.74,1.23a3.21,3.21,0,0,1,3.09,3.06l.56,10.87a1.65,1.65,0,0,1,1.24,1.42l0,.25,30.69,1.23a5.57,5.57,0,0,1,5.33,5.77l-2.61,65.06a5.56,5.56,0,0,1-5.76,5.33l-102.39-4.1a5.57,5.57,0,0,1-5.33-5.77l2.61-65.06a5.57,5.57,0,0,1,5.77-5.33l29.35,1.18,0-.26a1.63,1.63,0,0,1,1.62-1.32h0l1.68-10.83a3.23,3.23,0,0,1,3.33-2.73ZM576.6,282.8l0-.26a1.19,1.19,0,0,1,1.26-1.34l-.26-5a3.23,3.23,0,0,0-3.1-3.07l-17.9-.71a3.21,3.21,0,0,0-3.32,2.73l-.79,5.06a1.2,1.2,0,0,1,1,1.43l-.05.25Z"/>
          <g>
            <path class="cls-2" d="M551.49,269.24l30.76.12a3.22,3.22,0,0,1,3.21,2.95l.95,10.84a1.66,1.66,0,0,1,1.29,1.37l.83,6.44a1.19,1.19,0,0,1-1.21,1.38l-6.81,0a1.64,1.64,0,0,1-1.57-1.39l-.83-6.44a1.19,1.19,0,0,1,1.21-1.38l-.44-5a3.22,3.22,0,0,0-3.21-2.95l-17.91-.07a3.21,3.21,0,0,0-3.22,2.85l-.61,5.09a1.18,1.18,0,0,1,1.06,1.38l-.88,6.43a1.64,1.64,0,0,1-1.58,1.38l-6.81,0a1.18,1.18,0,0,1-1.2-1.39l.88-6.44A1.64,1.64,0,0,1,547,283h0l1.29-10.88A3.21,3.21,0,0,1,551.49,269.24Z"/>
            <rect class="cls-14" x="528.96" y="266.02" width="76.22" height="113.57" rx="5.55" transform="translate(242.04 888.6) rotate(-89.77)"/>
            <path class="cls-13" d="M510.24,335.59l.18-45.57a5.56,5.56,0,0,1,5.3-5.52l71.56.28a4,4,0,0,1,3.93,4L591,335.12a4,4,0,0,1-4,3.93l-73-.28A4,4,0,0,1,510.24,335.59Z"/>
            <path class="cls-12" d="M587,317.68l0,10.41a1.62,1.62,0,0,1-1.62,1.61l-11.5-.05,0,11.5a1.62,1.62,0,0,1-1.62,1.61l-10.41,0a1.62,1.62,0,0,1-1.61-1.62l.05-11.5-11.51-.05a1.62,1.62,0,0,1-1.61-1.62l0-10.41a1.62,1.62,0,0,1,1.62-1.61l11.5,0,0-11.51a1.62,1.62,0,0,1,1.63-1.6l10.41,0a1.6,1.6,0,0,1,1.6,1.62l0,11.5,11.5,0A1.63,1.63,0,0,1,587,317.68Z"/>
          </g>
        </g>
        <g>
          <path class="cls-6" d="M661.21,248.76l13.49-32.24L746.13,291s11.08,5.91-4.44,18.1-87.49,23.8-87.49,23.8l-6.69-21.22,47.77-23Z"/>
          <polygon class="cls-4" points="647.51 311.7 613.79 313.95 626.88 349.37 654.2 332.92 647.51 311.7"/>
          <path class="cls-5" d="M613.79,314l-20.91,8.21s2.22,6.28,3.51,6.46,7.94.19,7.94.19l8.31,17.73,14.24,2.83Z"/>
          <path class="cls-8" d="M653.54,240.83l43,47.48S671.29,270,653.54,240.83Z"/>
        </g>
        <path class="cls-5" d="M506.42,316.88l23.32,8.21s-1.52,6-3.55,6.57a45.66,45.66,0,0,1-4.81.92l-6.2,15.13a3.69,3.69,0,0,1-4.73,2.06l-8.27-3.15S502,330.92,506.42,316.88Z"/>
      </g>
    </g>
    <g>
      <g>
        <g>
          <path class="cls-7" d="M510.17,180.69a11.27,11.27,0,0,1,4.08.33l4,1.11c5.07,1.4,8.71,6.42,8.71,12.77,0,8-5.73,15-12.79,15.72a11,11,0,0,1-4.08-.34l-4-1.1-.2-.06-.14,0c-4.88-1.53-8.37-6.46-8.37-12.67C497.37,188.45,503.1,181.41,510.17,180.69Z"/>
          <path class="cls-8" d="M510.17,180.69c7.06-.72,12.79,5.15,12.79,13.1s-5.73,15-12.79,15.72-12.8-5.14-12.8-13.1S503.1,181.41,510.17,180.69Z"/>
          <path class="cls-6" d="M510.34,180.68a10.81,10.81,0,0,1,5,.7l-7.17,28.16a10.87,10.87,0,0,1-4.77-1.53Z"/>
          <path class="cls-7" d="M510.34,180.68a11.5,11.5,0,0,1,2.63.07L505.41,209a11.86,11.86,0,0,1-2-1Z"/>
        </g>
        <g>
          <path class="cls-7" d="M743.57,331.75a8.45,8.45,0,0,0-3.19.26l-3.13.86c-4,1.1-6.81,5-6.81,10,0,6.22,4.48,11.73,10,12.3a8.88,8.88,0,0,0,3.19-.26l3.13-.87.16-.05.1,0c3.83-1.2,6.55-5.06,6.55-9.91C753.58,337.82,749.1,332.31,743.57,331.75Z"/>
          <path class="cls-8" d="M743.57,331.75c-5.53-.57-10,4-10,10.25s4.48,11.74,10,12.3,10-4,10-10.25S749.1,332.31,743.57,331.75Z"/>
          <path class="cls-6" d="M743.44,331.74a8.46,8.46,0,0,0-3.9.55l5.62,22a8.3,8.3,0,0,0,3.73-1.2Z"/>
          <path class="cls-7" d="M743.44,331.74a8.29,8.29,0,0,0-2.06.06l5.91,22.08a8.38,8.38,0,0,0,1.6-.76Z"/>
        </g>
        <g>
          <path class="cls-7" d="M470.58,280.9a8.93,8.93,0,0,1,3.2.26l3.12.87c4,1.1,6.82,5,6.82,10,0,6.23-4.48,11.74-10,12.3a8.43,8.43,0,0,1-3.19-.26l-3.13-.86-.16-.05-.11,0c-3.82-1.2-6.55-5.06-6.55-9.91C460.57,287,465.05,281.47,470.58,280.9Z"/>
          <path class="cls-8" d="M470.58,280.9c5.53-.56,10,4,10,10.26s-4.48,11.73-10,12.3-10-4-10-10.25S465.05,281.47,470.58,280.9Z"/>
        </g>
        <g>
          <path class="cls-8" d="M731.82,179.81a5.82,5.82,0,0,1,4.39,6.95l-7.08,31.48a5.84,5.84,0,0,1-7,4.39l-14.86-3.34a5.83,5.83,0,0,1-4.39-6.95L710,180.86l0-.14c0-.05,0-.1,0-.15h0s0-.09,0-.14l0-.14a.78.78,0,0,1,.05-.14h0a1.21,1.21,0,0,1,0-.14s0-.08.05-.13h0l.06-.13.06-.13.06-.13h0a.83.83,0,0,0,.07-.13h0a.75.75,0,0,0,.07-.12l.07-.13.08-.12a1,1,0,0,1,.08-.11l.08-.12h0l.08-.11.09-.12h0l.09-.11h0l.09-.1h0l.1-.11h0l.09-.1h0l.1-.1h0l.1-.1h0l.1-.09h0l.11-.09.11-.09.11-.09h0l.11-.09.11-.07h0l.12-.08h0l.12-.08h0l.12-.07h0l.12-.07a.47.47,0,0,1,.12-.07h0l.12-.07.13-.06h0l.12-.06h0l.13-.05.13-.06h0l.13-.05h0l.14,0,.13,0h0l.14,0,.13,0h0l.14,0,.14,0,.13,0h0l.14,0h0l.14,0h.15l.14,0h1.15l.15,0,.15,0,.14,0,.15,0,1.49-6.62a2.5,2.5,0,0,1,3-1.88l10,2.25a2.51,2.51,0,0,1,1.89,3Z"/>
          <g>
            <path class="cls-7" d="M719.46,177.34l14.68,4.09a5.83,5.83,0,0,1,4,7.16l-8.66,31.08a5.84,5.84,0,0,1-7.16,4.05l-14.68-4.09a5.83,5.83,0,0,1-4-7.16l8.66-31.09A5.83,5.83,0,0,1,719.46,177.34Z"/>
            <path class="cls-8" d="M719.46,177.34l10.29,2.87a4.56,4.56,0,0,1,3.16,5.61l-6.78,24.35a4.58,4.58,0,0,1-5.61,3.17L709,210.13a4.57,4.57,0,0,1-3.17-5.61l6.45-23.14A5.83,5.83,0,0,1,719.46,177.34Z"/>
            <path class="cls-2" d="M719.46,177.34l14.67,4.09,1.83-6.54a2.5,2.5,0,0,0-1.74-3.07l-9.87-2.75a2.5,2.5,0,0,0-3.07,1.74Z"/>
            <rect class="cls-11" x="719.2" y="183.89" width="1.18" height="9.07" transform="translate(345.19 831.3) rotate(-74.44)"/>
            <rect class="cls-11" x="717.32" y="187.29" width="1.18" height="6.62" transform="translate(341.54 830.97) rotate(-74.42)"/>
          </g>
          <path class="cls-8" d="M717.46,179.66c1.25,0,2.26.74,2.26,1.66s-1,1.66-2.26,1.66-2.26-.74-2.26-1.66,1-1.66,2.26-1.66Zm2.79,4.1a.55.55,0,1,1-.65.53A.6.6,0,0,1,720.25,183.76Z"/>
        </g>
      </g>
      <g>
        <path class="cls-10" d="M750.42,194.89a3.86,3.86,0,1,1-3.86,3.86,3.86,3.86,0,0,1,3.86-3.86Z"/>
        <path class="cls-10" d="M485.89,306.8a2.14,2.14,0,1,1-2.15,2.14,2.14,2.14,0,0,1,2.15-2.14Z"/>
        <path class="cls-10" d="M482.46,327a5.58,5.58,0,1,1-5.57,5.57A5.57,5.57,0,0,1,482.46,327Z"/>
        <path class="cls-10" d="M756.76,313.77a3.22,3.22,0,1,1-3.22,3.22A3.22,3.22,0,0,1,756.76,313.77Z"/>
        <path class="cls-10" d="M494.8,215.37a2.68,2.68,0,1,1,2.68-2.68A2.68,2.68,0,0,1,494.8,215.37Z"/>
      </g>
    </g>
  </g>
  <g>
    <path class="cls-1" d="M72.74,374.29l287.38,7.39A16.11,16.11,0,0,0,376.61,366l5-193.94a16.12,16.12,0,0,0-15.66-16.48L78.56,148.22a16.12,16.12,0,0,0-16.49,15.66l-5,193.93A16.11,16.11,0,0,0,72.74,374.29Z"/>
    <g>
      <path class="cls-10" d="M349,206.7a4.18,4.18,0,1,1-4.18,4.18A4.18,4.18,0,0,1,349,206.7Z"/>
      <path class="cls-10" d="M152.94,169.78a2.57,2.57,0,1,1-2.58,2.57,2.57,2.57,0,0,1,2.58-2.57Z"/>
      <path class="cls-10" d="M351.85,368.45a2.25,2.25,0,1,1-2.25,2.25,2.25,2.25,0,0,1,2.25-2.25Z"/>
      <path class="cls-10" d="M80,306.71a2.09,2.09,0,1,1-2.1,2.09,2.08,2.08,0,0,1,2.1-2.09Z"/>
      <path class="cls-10" d="M116.79,295.45a5.47,5.47,0,1,1-5.46,5.47A5.47,5.47,0,0,1,116.79,295.45Z"/>
    </g>
    <g>
      <g>
        <g>
          <path class="cls-2" d="M189.15,144.85c-7.48-25.83.93-56.56,14.69-50.61,0,0,27.15-34.59,60.75-13.68,19.17,11.93,38.77,37.41,18.8,75.76,0,0,26.07,48.26,2.1,82.53S144.58,278.36,189.15,144.85Z"/>
          <path class="cls-3" d="M291.3,132.5a71.85,71.85,0,0,1-7.91,23.82s26.07,48.26,2.1,82.53-140.91,39.51-96.34-94c0,0,17.36,17.68,50.49,7.51s43.13-18.48,43.13-18.48A24.21,24.21,0,0,1,291.3,132.5Z"/>
          <path class="cls-9" d="M204.74,97.79s18.73-21.07,42.89-21.26,29.51,17.23,29.51,17.23S250,65.8,204.74,97.79Z"/>
        </g>
        <g>
          <path class="cls-4" d="M259.78,155.46,262.24,214h-4.1s-5.37,8.31-20,8.31S221.89,214,221.89,214h-2.25l2.7-54Z"/>
          <path class="cls-2" d="M259.78,155.46l1.58,37.46c-6.07,8.05-14.24,13-23.22,13a27,27,0,0,1-17.74-7.07L222.34,160Z"/>
        </g>
        <g>
          <g>
            <path class="cls-4" d="M282.77,133.88a9.75,9.75,0,0,1,4.53,8.43,12.77,12.77,0,0,1-11.1,12.36v4.73c0,20.64-20.37,37.52-37.53,37.52S201.15,180,201.15,159.4v-4.73a12.77,12.77,0,0,1-11.1-12.36,9.72,9.72,0,0,1,11.1-9.84s15.2-3.82,18.77-17.8C219.92,114.67,232.86,145,282.77,133.88Z"/>
            <path class="cls-5" d="M201.15,132.47s15.2-3.82,18.77-17.8h0v0l0,0h0l0,.06,0,0v0l.06.11h0l0,0,.06.13v0c.1.19.22.43.37.7l0,0h0c3,5.46,17.72,26.7,59.15,18.61-23.3,6.69-37.55,4.44-46.25-.5a84.32,84.32,0,0,1-1.33,13.13c-10.07-5.77-13.13,10-2.1,13.83l1.29,35c-15.12-3.86-30.16-18.82-30.16-36.56v-4.73a12.77,12.77,0,0,1-11.1-12.36,9.72,9.72,0,0,1,11.1-9.84Zm85.71,6.82c-4.39-1.53-10.6,2-10.6,2,5.2.47,5.3,7-.06,9.8v3.61a12.77,12.77,0,0,0,11.1-12.36A10.55,10.55,0,0,0,286.86,139.29Z"/>
          </g>
          <g>
            <path class="cls-8" d="M244.51,170.35c.16,4.15-4,7.62-9.36,7.75s-9.79-3.13-10-7.28Z"/>
            <path class="cls-5" d="M238.35,158.87s-1.65-4.19-4.91-3.83-1.33,3.86-1.33,3.86C233.28,155.66,236.42,157.62,238.35,158.87Z"/>
            <g>
              <g>
                <path class="cls-3" d="M205.28,129.85h19.21s-.08-2.9-4.34-3.94S205.28,129.85,205.28,129.85Z"/>
                <path class="cls-3" d="M266.18,129.85H247s.08-2.9,4.34-3.94S266.18,129.85,266.18,129.85Z"/>
              </g>
              <path class="cls-8" d="M214.57,127a12.41,12.41,0,1,1-8.79,3.64,12.39,12.39,0,0,1,8.79-3.64Zm37.14,0a12.41,12.41,0,1,1-8.79,3.64,12.39,12.39,0,0,1,8.79-3.64Zm7.93,4.5a11.21,11.21,0,1,0,3.28,7.92,11.18,11.18,0,0,0-3.28-7.92Zm-37.14,0a11.21,11.21,0,1,0,3.28,7.92A11.18,11.18,0,0,0,222.5,131.46Z"/>
            </g>
          </g>
        </g>
      </g>
      <g>
        <g>
          <polygon class="cls-7" points="193.94 234 188.31 226.95 143.78 311.49 188.8 333.04 193.94 234"/>
          <g>
            <path class="cls-4" d="M174.11,305.76c1.7,18.54-2,25.17-7.18,29.17s-23.67-10.71-29.21-30.4-11.24-84.13-11.24-84.13l-23.65-6.24-17.41-4.52-1.93-3.94c.64-1.12,15.11-4,15.11-4s-13.82-.64-18-.64S78.71,198,78.71,198a46.73,46.73,0,0,1,13.7-2.53,32.91,32.91,0,0,0-7.69-.47c-2.71-.72-.83-3.24,1.1-3.75,11.08-1.78,23,.58,29.93,2.45-2.36-2.61-4.64-5.22-5.71-6.74-2.73-3.86,2.89-6.11,2.89-6.11,2.42,3.06,13.19,8.85,13.19,8.85l11.57,24.44,2.18,2.55C149.2,238.34,172.41,287.22,174.11,305.76Z"/>
            <path class="cls-5" d="M174.11,305.76c1.7,18.54-2,25.17-7.18,29.17s-23.67-10.71-29.21-30.4c-.37-1.34-.75-2.89-1.13-4.61,5.32,12.66,16.18,26.16,25.57,23.31,8.16-2.48,10.17-16.57,10.64-24.66A50.09,50.09,0,0,1,174.11,305.76Z"/>
          </g>
        </g>
        <g>
          <path class="cls-6" d="M262.24,214l40.39,16.47L284.47,379.74,179.56,377l-2.64-72.27c-21.84-10.86-11.2-47.35,7.42-59.2l4-18.62L219.64,214h2.25s1.62,8.31,16.25,8.31,20-8.31,20-8.31Z"/>
          <path class="cls-7" d="M300.19,250.51,284.47,379.74l-16.24-.42c2-8.24,21.61-46.67,3.57-64.71-13,2.19-29.63-4.48-29.63-4.48,49.38,3.91,43.12-25.46,42.65-56.29,0,0,6.85-1.5,15.37-3.33ZM188.11,306.66s13.83,4.82,34-1.13C222.1,305.53,207.1,320.17,188.11,306.66Z"/>
          <g>
            <polygon class="cls-8" points="270.94 219.09 261.88 205.27 235.08 275.68 260.97 256.31 255.66 244.18 264.35 244.91 270.94 219.09"/>
            <polygon class="cls-8" points="220.02 206.52 235.08 275.68 214.99 251.42 219.49 243.64 212.74 243.46 213.1 218.15 220.02 206.52"/>
            <path class="cls-1" d="M221.93,214.16l13.15,61.52L258.14,214s-5.37,8.31-20,8.31C224.72,222.31,222.25,215.32,221.93,214.16Z"/>
          </g>
          <path class="cls-8" d="M189,252.6c5.4-1.38,9.78.09,9.78,3.28s-4.38,6.9-9.78,8.28-9.78-.09-9.78-3.28S183.58,254,189,252.6Z"/>
        </g>
        <g>
          <path class="cls-6" d="M281.54,240.67l21.09-10.2,31.6,67.73c3-.57,6.29-.38,7.31,2.52,2.09,5.95-15.76,21.71-15.76,21.71l1.29-12.73-25.42,11.85Z"/>
          <path class="cls-4" d="M305.52,318.4c12.59-8.89,26.37-15.75,31.84-13.5s-3.54,29.26-16.4,42.44C309.5,359.09,284.53,376,279.2,379.6l-20.38-.52C271.58,361.66,291.05,328.63,305.52,318.4Z"/>
          <path class="cls-5" d="M305.52,318.4c12.59-8.89,26.37-15.75,31.84-13.5,2.35,1,2,6.55-.16,13.64,2.08-16.38-39,6.46-39.13,6.55A52,52,0,0,1,305.52,318.4Z"/>
          <path class="cls-8" d="M284.82,253.84l16,64.43S298.44,278.76,284.82,253.84Z"/>
        </g>
      </g>
    </g>
    <g>
      <path class="cls-8" d="M116.94,317.93l35,.24a3.67,3.67,0,0,1,3.64,3.37l1,12.34a1.87,1.87,0,0,1,1.46,1.56l0,.29,35,.25a6.34,6.34,0,0,1,6.28,6.35l-.17,34.84L74.68,374a15.76,15.76,0,0,1-4.69-.83l.14-31.7a6.33,6.33,0,0,1,6.36-6.27l33.43.23,0-.29a1.86,1.86,0,0,1,1.8-1.57h0l1.51-12.38a3.65,3.65,0,0,1,3.67-3.23Zm30.28,17.73,0-.29a1.36,1.36,0,0,1,1.38-1.58l-.48-5.7a3.68,3.68,0,0,0-3.64-3.37l-20.39-.14a3.67,3.67,0,0,0-3.67,3.24l-.7,5.78a1.35,1.35,0,0,1,1.19,1.58l0,.29Z"/>
      <path class="cls-2" d="M116,320.32l34.42-1.27a3.6,3.6,0,0,1,3.72,3.15l1.56,12.09a1.84,1.84,0,0,1,1.5,1.47l1.23,7.16a1.34,1.34,0,0,1-1.29,1.61l-7.63.28a1.83,1.83,0,0,1-1.81-1.49l-1.23-7.16a1.34,1.34,0,0,1,1.29-1.61l-.72-5.58a3.6,3.6,0,0,0-3.72-3.16l-20,.74a3.62,3.62,0,0,0-3.48,3.34l-.44,5.72a1.33,1.33,0,0,1,1.24,1.5l-.69,7.24a1.85,1.85,0,0,1-1.7,1.62l-7.62.28a1.34,1.34,0,0,1-1.41-1.51l.7-7.23a1.83,1.83,0,0,1,1.7-1.62h0l.94-12.24A3.61,3.61,0,0,1,116,320.32Z"/>
      <path class="cls-12" d="M77,339l114.65-4.24a6.24,6.24,0,0,1,6.44,6l1.36,36.79-126.7-3.26c-.22,0-.45,0-.67,0L71,345.45A6.22,6.22,0,0,1,77,339Z"/>
      <path class="cls-13" d="M77,339l79.74-2.94a9,9,0,0,1,.58,3l.94,37.44-85.51-2.2c-.22,0-.45,0-.67,0L71,345.45A6.22,6.22,0,0,1,77,339Z"/>
      <path class="cls-2" d="M158,372.88l.14,3.61-44.72-1.15,0-.81a1.8,1.8,0,0,1,1.74-1.87l12.87-.48-.48-12.87a1.81,1.81,0,0,1,1.74-1.87l11.65-.43a1.8,1.8,0,0,1,1.87,1.74l.48,12.87,12.87-.48A1.82,1.82,0,0,1,158,372.88Z"/>
    </g>
    <g>
      <g>
        <path class="cls-5" d="M363.62,236.2h0a8.61,8.61,0,0,1,6.92,10l-3.34,18.46a8.62,8.62,0,0,1-10,6.92h0a8.62,8.62,0,0,1-6.92-10l3.35-18.46A8.61,8.61,0,0,1,363.62,236.2Z"/>
        <path class="cls-4" d="M363.62,236.2h0l.49.11a9.11,9.11,0,0,1,2.42,7.94l-1,5.31L363,263.84a9.15,9.15,0,0,1-7.24,7.32,8.62,8.62,0,0,1-5.45-9.58l3.35-18.46A8.62,8.62,0,0,1,363.62,236.2Z"/>
        <path class="cls-12" d="M363.62,236.2h0a8.62,8.62,0,0,1,6.92,10l-.91,5a8.61,8.61,0,0,1-10,6.92h0a8.61,8.61,0,0,1-6.92-10l.91-5A8.62,8.62,0,0,1,363.62,236.2Z"/>
        <path class="cls-13" d="M363.62,236.2h0l.49.11a9.11,9.11,0,0,1,2.42,7.94l-1,5.31-1.48,8.18a8.52,8.52,0,0,1-4.44.37h0a8.61,8.61,0,0,1-6.92-10l.91-5A8.62,8.62,0,0,1,363.62,236.2Z"/>
        <path class="cls-8" d="M357.09,241.07c.58.11.93,1,.76,1.88s-.78,1.6-1.37,1.49-.94-.95-.77-1.88.79-1.59,1.38-1.49Zm-1,5.9a.46.46,0,0,1,.33.56.45.45,0,0,1-.5.41.47.47,0,0,1-.34-.56A.47.47,0,0,1,356.08,247Z"/>
        <path class="cls-8" d="M363.64,258.33c.59.11.92,1,.74,2s-.81,1.74-1.41,1.63-.92-1-.74-2S363,258.22,363.64,258.33Z"/>
      </g>
      <g>
        <path class="cls-7" d="M105.71,267.16h0A8.61,8.61,0,0,1,102.89,279l-16,9.82A8.6,8.6,0,0,1,75.09,286h0a8.6,8.6,0,0,1,2.82-11.81l16-9.82A8.61,8.61,0,0,1,105.71,267.16Z"/>
        <path class="cls-6" d="M105.71,267.16h0c.09.14.17.29.25.44a9.12,9.12,0,0,1-4.31,7.09l-4.6,2.83-12.36,7.6a9.17,9.17,0,0,1-10.28-.51,8.6,8.6,0,0,1,3.5-10.45l16-9.82A8.61,8.61,0,0,1,105.71,267.16Z"/>
        <path class="cls-10" d="M105.71,267.16h0A8.63,8.63,0,0,1,102.89,279l-4.34,2.66a8.61,8.61,0,0,1-11.81-2.83h0A8.6,8.6,0,0,1,89.56,267l4.33-2.66A8.61,8.61,0,0,1,105.71,267.16Z"/>
        <path class="cls-1" d="M105.71,267.16h0c.09.14.17.29.25.44a9.12,9.12,0,0,1-4.31,7.09l-4.6,2.83L90,281.87a8.52,8.52,0,0,1-3.23-3.06h0A8.6,8.6,0,0,1,89.56,267l4.33-2.66A8.61,8.61,0,0,1,105.71,267.16Z"/>
        <path class="cls-8" d="M97.72,265.54c.31.51-.08,1.32-.89,1.82s-1.71.48-2,0,.08-1.33.89-1.82,1.71-.48,2,0Zm-5.06,3.19a.47.47,0,0,1-.2.62.46.46,0,0,1-.64-.11.45.45,0,0,1,.19-.62A.47.47,0,0,1,92.66,268.73Z"/>
        <path class="cls-8" d="M89.23,281.93c.32.51-.13,1.36-1,1.9s-1.83.56-2.15,0,.14-1.36,1-1.9S88.92,281.42,89.23,281.93Z"/>
      </g>
      <g>
        <g>
          <path class="cls-5" d="M100.85,135.6h0a8.61,8.61,0,0,0-6.92,10L97.27,164a8.61,8.61,0,0,0,10,6.92h0a8.6,8.6,0,0,0,6.92-10l-3.34-18.46A8.62,8.62,0,0,0,100.85,135.6Z"/>
          <path class="cls-4" d="M100.85,135.6h0l-.5.1a9.14,9.14,0,0,0-2.41,8l1,5.31,2.59,14.28a9.14,9.14,0,0,0,7.23,7.32,8.62,8.62,0,0,0,5.45-9.58l-3.34-18.46A8.62,8.62,0,0,0,100.85,135.6Z"/>
          <path class="cls-12" d="M100.85,135.6h0a8.61,8.61,0,0,0-6.93,10l.91,5a8.62,8.62,0,0,0,10,6.93h0a8.62,8.62,0,0,0,6.92-10l-.9-5A8.62,8.62,0,0,0,100.85,135.6Z"/>
          <path class="cls-13" d="M100.85,135.6h0l-.5.1a9.14,9.14,0,0,0-2.41,8l1,5.31,1.48,8.17a8.59,8.59,0,0,0,4.43.38h0a8.62,8.62,0,0,0,6.92-10l-.9-5A8.62,8.62,0,0,0,100.85,135.6Z"/>
          <path class="cls-8" d="M107.38,140.47c-.59.1-.93.95-.76,1.87s.78,1.6,1.37,1.49.93-1,.76-1.87-.78-1.6-1.37-1.49Zm1,5.9a.46.46,0,0,0-.33.56.47.47,0,0,0,.51.41.48.48,0,0,0,.33-.57A.46.46,0,0,0,108.38,146.37Z"/>
          <path class="cls-8" d="M100.83,157.72c-.6.11-.93,1-.75,2s.82,1.75,1.41,1.64.93-1,.74-2S101.42,157.62,100.83,157.72Z"/>
        </g>
        <path class="cls-3" d="M123.53,162.56l6.21,3.64-1.22,2.09-6.22-3.64,1.23-2.09Zm-36,9.19-3.65,3.64-1.72-1.72L85.83,170l1.72,1.72ZM73.08,135.29l4.71,2.36-1.08,2.17L72,137.46l1.08-2.17Zm51.81-5.71-3.78,4.51-1.86-1.56L123,128Z"/>
      </g>
    </g>
  </g>
</svg>
