<svg width="23" height="23" viewBox="0 0 23 23" fill="none" xmlns="http://www.w3.org/2000/svg">
<path fill-rule="evenodd" clip-rule="evenodd" d="M3.81445 10.2024C3.81445 6.01594 7.31285 2.6322 11.5445 2.6322C15.7881 2.6322 19.2865 6.01594 19.2865 10.2024C19.2865 12.312 18.5193 14.2705 17.2565 15.9305C15.8634 17.7616 14.1463 19.357 12.2136 20.6093C11.7712 20.8987 11.372 20.9206 10.8865 20.6093C8.94275 19.357 7.22567 17.7616 5.84448 15.9305C4.58076 14.2705 3.81445 12.312 3.81445 10.2024ZM8.99724 10.4382C8.99724 11.8407 10.1417 12.9437 11.5449 12.9437C12.949 12.9437 14.1044 11.8407 14.1044 10.4382C14.1044 9.0467 12.949 7.88997 11.5449 7.88997C10.1417 7.88997 8.99724 9.0467 8.99724 10.4382Z" fill="#B4BAC9"/>
</svg>
