<svg xmlns="http://www.w3.org/2000/svg" width="192" height="57" fill="none" viewBox="0 0 192 57">
  <g clip-path="url(#a)">
    <path fill="url(#b)" d="M54.79 17.495H39.16V8.793A8.36 8.36 0 0 0 30.809.44H18.462a1.413 1.413 0 0 0-1.413 1.413v15.661h-8.7A8.357 8.357 0 0 0 0 25.86v12.35a1.413 1.413 0 0 0 1.413 1.413H17.05v8.7a8.36 8.36 0 0 0 8.35 8.348h12.346a1.413 1.413 0 0 0 1.414-1.413V39.603h8.7a8.364 8.364 0 0 0 8.352-8.352V18.909a1.413 1.413 0 0 0-1.42-1.413ZM26.746 36.778a3.558 3.558 0 1 1 .868-7.01 1.409 1.409 0 0 0 1.712-1.712 3.557 3.557 0 1 1 7.007-.868v9.59h-9.587Zm26.64-5.519a5.53 5.53 0 0 1-5.527 5.527h-8.7V27.19a6.38 6.38 0 0 0-12.753-.343 6.38 6.38 0 0 0-3.475 11.485 6.34 6.34 0 0 0 3.815 1.271h9.587v14.222H25.398a5.527 5.527 0 0 1-5.522-5.522V38.19a1.402 1.402 0 0 0-.414-1 1.409 1.409 0 0 0-1-.413H2.827V25.84a5.526 5.526 0 0 1 5.522-5.518h10.113a1.414 1.414 0 0 0 1.414-1.413V3.266h10.933a5.534 5.534 0 0 1 5.523 5.527v10.116a1.413 1.413 0 0 0 1.413 1.413h15.64v10.936Z"/>
    <path fill="url(#c)" d="M36.331 39.603h2.827v2.61l-2.827 8.983V39.603Z" style="mix-blend-mode:overlay"/>
    <path fill="url(#d)" d="M36.331 36.777v-1.059l2.827-5.873v6.932h-2.827Z" style="mix-blend-mode:overlay"/>
  </g>
  <path fill="url(#e)" d="M70.56 42.323v-25.55h4.965l8.88 19.932h-1.16l8.879-19.932h4.928v25.55h-5.146v-17.36h1.45l-7.937 17.36h-3.262l-7.973-17.36h1.522v17.36H70.56Zm40.625.398c-3.189 0-5.678-.857-7.466-2.573-1.788-1.715-2.682-4.047-2.682-6.994 0-1.91.375-3.576 1.124-5.002.773-1.425 1.836-2.537 3.189-3.334 1.377-.821 2.984-1.232 4.82-1.232 1.812 0 3.322.387 4.53 1.16 1.233.773 2.151 1.86 2.755 3.261.628 1.377.942 2.984.942 4.82v1.269h-12.866v-2.718h8.879l-.616.507c0-1.522-.314-2.67-.942-3.443-.604-.797-1.486-1.196-2.646-1.196-1.28 0-2.271.471-2.971 1.414-.677.942-1.015 2.295-1.015 4.059v.58c0 1.788.435 3.116 1.305 3.986.894.87 2.174 1.305 3.841 1.305.991 0 1.921-.12 2.791-.363a8.813 8.813 0 0 0 2.537-1.232l1.522 3.624c-.918.677-1.981 1.196-3.189 1.559-1.184.362-2.465.543-3.842.543Zm17.896 0c-1.594 0-3.008-.386-4.24-1.16-1.208-.773-2.162-1.872-2.863-3.297-.677-1.426-1.015-3.141-1.015-5.147 0-1.98.338-3.684 1.015-5.11.676-1.425 1.631-2.512 2.863-3.261 1.232-.773 2.646-1.16 4.24-1.16 1.45 0 2.743.35 3.878 1.05 1.16.677 1.933 1.596 2.32 2.755h-.472V15.65h5.473v26.674h-5.4v-3.588h.471c-.387 1.208-1.16 2.174-2.319 2.9-1.16.724-2.477 1.086-3.951 1.086Zm1.631-4.131c1.256 0 2.271-.447 3.044-1.341.774-.894 1.16-2.271 1.16-4.132 0-1.86-.386-3.225-1.16-4.095-.773-.87-1.788-1.305-3.044-1.305s-2.283.435-3.08 1.305c-.774.87-1.16 2.235-1.16 4.095 0 1.86.386 3.238 1.16 4.132.797.894 1.824 1.34 3.08 1.34Zm14.418 3.733v-25.55h17.759v4.385H150.53v5.98h11.489v4.421H150.53v6.378h12.359v4.386H145.13Zm34.344.398c-2.924 0-5.388-.531-7.393-1.594-1.982-1.088-3.48-2.61-4.494-4.567-1.015-1.98-1.522-4.288-1.522-6.922 0-2.706.543-5.05 1.63-7.03 1.112-1.982 2.706-3.516 4.784-4.603 2.078-1.088 4.567-1.631 7.466-1.631 1.86 0 3.491.241 4.893.725 1.425.459 2.669 1.123 3.733 1.993l-1.813 4.385c-.773-.555-1.497-.99-2.174-1.305a7.4 7.4 0 0 0-2.102-.688c-.725-.145-1.558-.218-2.501-.218-2.657 0-4.663.725-6.016 2.175-1.329 1.425-1.993 3.503-1.993 6.233 0 2.706.628 4.76 1.885 6.162 1.256 1.4 3.225 2.102 5.907 2.102.894 0 1.812-.085 2.754-.254.943-.17 1.873-.423 2.791-.761l-1.015 2.174v-6.886h-5.617V28.19h10.292v12.54c-1.28.627-2.766 1.123-4.457 1.485a25.281 25.281 0 0 1-5.038.507Z"/>
  <defs>
    <linearGradient id="b" x1="44.472" x2="11.738" y1="8.606" y2="48.491" gradientUnits="userSpaceOnUse">
      <stop stop-color="#6156C0"/>
      <stop offset="1" stop-color="#71C8CB"/>
    </linearGradient>
    <linearGradient id="c" x1="37.644" x2="37.782" y1="39.234" y2="47.594" gradientUnits="userSpaceOnUse">
      <stop/>
      <stop offset="1" stop-opacity="0"/>
    </linearGradient>
    <linearGradient id="d" x1="37.864" x2="37.726" y1="38.835" y2="32.478" gradientUnits="userSpaceOnUse">
      <stop/>
      <stop offset="1" stop-opacity="0"/>
    </linearGradient>
    <linearGradient id="e" x1="201.342" x2="46.901" y1="28.323" y2="28.323" gradientUnits="userSpaceOnUse">
      <stop stop-color="#6FB7C9"/>
      <stop offset="1" stop-color="#3D5BAD"/>
    </linearGradient>
    <clipPath id="a">
      <path fill="#fff" d="M0 .44h56.211v56.211H0z"/>
    </clipPath>
  </defs>
</svg>
