<svg xmlns="http://www.w3.org/2000/svg" width="192" height="86" fill="none" viewBox="0 0 192 86">
  <g clip-path="url(#a)">
    <path fill="url(#b)" d="M54.79 17.055H39.16V8.352A8.36 8.36 0 0 0 30.809 0H18.462a1.413 1.413 0 0 0-1.413 1.413v15.661h-8.7A8.357 8.357 0 0 0 0 25.42v12.35a1.413 1.413 0 0 0 1.413 1.413H17.05v8.7a8.36 8.36 0 0 0 8.35 8.348h12.346a1.413 1.413 0 0 0 1.414-1.413V39.163h8.7a8.364 8.364 0 0 0 8.352-8.352V18.469a1.413 1.413 0 0 0-1.42-1.414ZM26.746 36.337a3.558 3.558 0 1 1 .868-7.01 1.409 1.409 0 0 0 1.712-1.712 3.557 3.557 0 1 1 7.007-.868v9.59h-9.587Zm26.64-5.519a5.53 5.53 0 0 1-5.527 5.526h-8.7V26.75a6.38 6.38 0 0 0-12.753-.343 6.38 6.38 0 0 0-3.475 11.485 6.339 6.339 0 0 0 3.815 1.271h9.587v14.222H25.398a5.527 5.527 0 0 1-5.522-5.522V37.75a1.401 1.401 0 0 0-.414-1 1.409 1.409 0 0 0-1-.413H2.827V25.4a5.526 5.526 0 0 1 5.522-5.518h10.113a1.414 1.414 0 0 0 1.414-1.413V2.826h10.933a5.534 5.534 0 0 1 5.523 5.526V18.47a1.413 1.413 0 0 0 1.413 1.413h15.64v10.936Z"/>
    <path fill="url(#c)" d="M36.332 39.163h2.827v2.61l-2.827 8.983V39.163Z" style="mix-blend-mode:overlay"/>
    <path fill="url(#d)" d="M36.332 36.337v-1.059l2.827-5.873v6.932h-2.827Z" style="mix-blend-mode:overlay"/>
  </g>
  <path fill="url(#e)" d="M70.56 41.882v-25.55h4.965l8.88 19.932h-1.16l8.879-19.932h4.928v25.55h-5.146v-17.36h1.45l-7.937 17.36h-3.262l-7.973-17.36h1.522v17.36H70.56Zm40.625.399c-3.189 0-5.678-.858-7.466-2.574-1.788-1.715-2.682-4.047-2.682-6.994 0-1.909.375-3.576 1.124-5.002.773-1.425 1.836-2.537 3.189-3.334 1.377-.821 2.984-1.232 4.82-1.232 1.812 0 3.322.387 4.53 1.16 1.233.773 2.151 1.86 2.755 3.261.628 1.378.942 2.984.942 4.82v1.269h-12.866v-2.718h8.879l-.616.507c0-1.522-.314-2.67-.942-3.443-.604-.797-1.486-1.196-2.646-1.196-1.28 0-2.271.471-2.971 1.414-.677.942-1.015 2.295-1.015 4.059v.58c0 1.788.435 3.117 1.305 3.986.894.87 2.174 1.305 3.841 1.305.991 0 1.921-.12 2.791-.363a8.813 8.813 0 0 0 2.537-1.232l1.522 3.624c-.918.677-1.981 1.197-3.189 1.559-1.184.362-2.465.544-3.842.544Zm17.896 0c-1.594 0-3.008-.387-4.24-1.16-1.208-.773-2.162-1.873-2.863-3.298-.677-1.426-1.015-3.141-1.015-5.147 0-1.98.338-3.684 1.015-5.11.676-1.425 1.631-2.512 2.863-3.261 1.232-.773 2.646-1.16 4.24-1.16 1.45 0 2.743.35 3.878 1.051 1.16.676 1.933 1.595 2.32 2.754h-.472V15.208h5.473v26.674h-5.4v-3.588h.471c-.387 1.208-1.16 2.174-2.319 2.9-1.16.724-2.477 1.087-3.951 1.087Zm1.631-4.132c1.256 0 2.271-.447 3.044-1.341.774-.894 1.16-2.271 1.16-4.132 0-1.86-.386-3.225-1.16-4.095-.773-.87-1.788-1.305-3.044-1.305s-2.283.435-3.08 1.305c-.774.87-1.16 2.235-1.16 4.095 0 1.86.386 3.238 1.16 4.132.797.894 1.824 1.341 3.08 1.341Zm14.418 3.733v-25.55h17.759v4.385H150.53v5.98h11.489v4.421H150.53v6.379h12.359v4.385H145.13Zm34.344.399c-2.924 0-5.388-.532-7.393-1.595-1.982-1.087-3.48-2.61-4.494-4.567-1.015-1.98-1.522-4.288-1.522-6.922 0-2.706.543-5.05 1.63-7.03 1.112-1.982 2.706-3.516 4.784-4.603 2.078-1.087 4.567-1.631 7.466-1.631 1.86 0 3.491.241 4.893.725 1.425.459 2.669 1.123 3.733 1.993l-1.813 4.385c-.773-.556-1.497-.99-2.174-1.305a7.402 7.402 0 0 0-2.102-.688c-.725-.145-1.558-.217-2.501-.217-2.657 0-4.663.724-6.016 2.174-1.329 1.425-1.993 3.503-1.993 6.233 0 2.707.628 4.76 1.885 6.162 1.256 1.4 3.225 2.102 5.907 2.102.894 0 1.812-.085 2.754-.254.943-.17 1.873-.423 2.791-.761l-1.015 2.174V31.77h-5.617v-4.022h10.292v12.54c-1.28.627-2.766 1.123-4.457 1.485a25.281 25.281 0 0 1-5.038.508Z"/>
  <path fill="url(#f)" d="M2.73 82V63.5h5.852c2.029 0 3.743.36 5.143 1.077 1.4.7 2.458 1.74 3.175 3.122.734 1.365 1.102 3.044 1.102 5.038 0 1.995-.368 3.683-1.102 5.065a7.177 7.177 0 0 1-3.175 3.148c-1.4.7-3.114 1.05-5.143 1.05H2.73Zm1.627-1.443H8.45c2.642 0 4.61-.648 5.904-1.942 1.295-1.312 1.942-3.271 1.942-5.878 0-2.624-.647-4.583-1.942-5.877-1.294-1.295-3.262-1.942-5.904-1.942H4.357v15.639Zm27.82-7.82c0-1.959.324-3.638.971-5.038.665-1.417 1.619-2.501 2.86-3.254 1.243-.77 2.738-1.154 4.488-1.154 1.714 0 3.192.385 4.434 1.154 1.26.753 2.222 1.837 2.887 3.254.682 1.4 1.023 3.07 1.023 5.012 0 1.96-.341 3.647-1.023 5.064-.683 1.417-1.654 2.51-2.913 3.28-1.242.77-2.712 1.155-4.408 1.155-1.732 0-3.22-.385-4.461-1.155-1.242-.77-2.196-1.863-2.86-3.28-.665-1.417-.997-3.096-.997-5.038Zm1.732 0c0 2.52.56 4.487 1.68 5.904 1.12 1.4 2.755 2.1 4.907 2.1 2.081 0 3.708-.7 4.88-2.1 1.172-1.417 1.758-3.385 1.758-5.904 0-2.536-.586-4.495-1.758-5.877-1.154-1.4-2.781-2.1-4.88-2.1-2.152 0-3.788.7-4.907 2.1-1.12 1.382-1.68 3.34-1.68 5.877Zm37.62 9.473c-1.82 0-3.368-.376-4.645-1.128-1.26-.77-2.222-1.863-2.887-3.28-.664-1.417-.997-3.106-.997-5.065 0-1.959.333-3.638.997-5.038.665-1.417 1.627-2.501 2.887-3.254 1.277-.77 2.825-1.154 4.644-1.154 1.33 0 2.51.21 3.543.63a7.435 7.435 0 0 1 2.702 1.81l-.682 1.312c-.857-.787-1.714-1.356-2.571-1.705-.858-.368-1.855-.551-2.992-.551-2.221 0-3.91.7-5.064 2.099-1.155 1.382-1.732 3.332-1.732 5.851 0 2.52.577 4.479 1.732 5.878 1.155 1.4 2.843 2.1 5.064 2.1 1.137 0 2.134-.176 2.992-.526.857-.367 1.714-.944 2.571-1.731l.682 1.312a7.673 7.673 0 0 1-2.728 1.836c-1.033.403-2.205.604-3.517.604ZM96.713 82V64.918h-6.717V63.5h15.035v1.417h-6.69V82h-1.628Zm19.963-9.263c0-1.959.323-3.638.97-5.038.665-1.417 1.619-2.501 2.861-3.254 1.242-.77 2.737-1.154 4.487-1.154 1.714 0 3.192.385 4.434 1.154 1.26.753 2.222 1.837 2.887 3.254.682 1.4 1.023 3.07 1.023 5.012 0 1.96-.341 3.647-1.023 5.064-.683 1.417-1.654 2.51-2.913 3.28-1.242.77-2.712 1.155-4.408 1.155-1.732 0-3.219-.385-4.461-1.155-1.242-.77-2.196-1.863-2.86-3.28-.665-1.417-.997-3.096-.997-5.038Zm1.731 0c0 2.52.56 4.487 1.68 5.904 1.119 1.4 2.755 2.1 4.907 2.1 2.081 0 3.708-.7 4.88-2.1 1.172-1.417 1.758-3.385 1.758-5.904 0-2.536-.586-4.495-1.758-5.877-1.154-1.4-2.781-2.1-4.88-2.1-2.152 0-3.788.7-4.907 2.1-1.12 1.382-1.68 3.34-1.68 5.877ZM148.234 82V63.5h7.295c1.906 0 3.385.447 4.434 1.339 1.05.892 1.575 2.152 1.575 3.779 0 1.05-.236 1.95-.709 2.702-.472.735-1.128 1.304-1.968 1.706-.839.385-1.81.577-2.912.577l.498-.288h.367c.718 0 1.356.175 1.916.524.56.333 1.006.91 1.338 1.732L162.64 82h-1.785l-2.414-6.14c-.332-.892-.813-1.46-1.443-1.706-.63-.262-1.434-.393-2.414-.393h-4.723V82h-1.627Zm1.627-9.604h5.458c1.487 0 2.615-.323 3.385-.97.787-.648 1.181-1.575 1.181-2.782 0-1.225-.394-2.152-1.181-2.782-.77-.647-1.898-.97-3.385-.97h-5.458v7.504Zm33.049 9.814c-1.487 0-2.799-.192-3.936-.577a9.554 9.554 0 0 1-3.044-1.68l.682-1.338c.63.49 1.242.892 1.837 1.207a8.168 8.168 0 0 0 1.994.709c.717.14 1.531.21 2.44.21 1.627 0 2.852-.315 3.674-.945.822-.647 1.233-1.496 1.233-2.545 0-.91-.288-1.601-.866-2.073-.56-.49-1.548-.875-2.965-1.155l-2.676-.551c-1.697-.35-2.965-.91-3.805-1.68-.822-.77-1.233-1.819-1.233-3.148 0-1.085.279-2.03.839-2.834.56-.805 1.339-1.426 2.336-1.863.997-.438 2.151-.656 3.463-.656 1.312 0 2.502.201 3.569.603a7.338 7.338 0 0 1 2.781 1.732l-.656 1.312c-.822-.77-1.688-1.32-2.597-1.653-.91-.35-1.942-.525-3.097-.525-1.522 0-2.729.35-3.621 1.05-.892.682-1.338 1.61-1.338 2.781 0 .945.28 1.68.84 2.205.577.524 1.504.918 2.781 1.18l2.703.551c1.802.368 3.122.91 3.962 1.627.84.7 1.26 1.706 1.26 3.018 0 .997-.272 1.88-.814 2.65-.525.752-1.277 1.338-2.257 1.758-.979.42-2.142.63-3.489.63Z"/>
  <defs>
    <linearGradient id="b" x1="44.472" x2="11.738" y1="8.166" y2="48.051" gradientUnits="userSpaceOnUse">
      <stop stop-color="#6156C0"/>
      <stop offset="1" stop-color="#71C8CB"/>
    </linearGradient>
    <linearGradient id="c" x1="37.645" x2="37.783" y1="38.794" y2="47.154" gradientUnits="userSpaceOnUse">
      <stop/>
      <stop offset="1" stop-opacity="0"/>
    </linearGradient>
    <linearGradient id="d" x1="37.865" x2="37.727" y1="38.395" y2="32.038" gradientUnits="userSpaceOnUse">
      <stop/>
      <stop offset="1" stop-opacity="0"/>
    </linearGradient>
    <linearGradient id="e" x1="201.342" x2="46.901" y1="27.882" y2="27.882" gradientUnits="userSpaceOnUse">
      <stop stop-color="#6FB7C9"/>
      <stop offset="1" stop-color="#3D5BAD"/>
    </linearGradient>
    <linearGradient id="f" x1="206.056" x2="-31.833" y1="72" y2="72" gradientUnits="userSpaceOnUse">
      <stop stop-color="#6FB7C9"/>
      <stop offset="1" stop-color="#3D5BAD"/>
    </linearGradient>
    <clipPath id="a">
      <path fill="#fff" d="M0 0h56.211v56.211H0z"/>
    </clipPath>
  </defs>
</svg>
