<svg width="249" height="638" viewBox="0 0 249 638" fill="none" xmlns="http://www.w3.org/2000/svg">
<g clip-path="url(#clip0_99_1322)">
<path d="M100.588 37.2743C101.366 33.9844 99.3242 30.688 96.0269 29.9115C92.7295 29.1351 89.4256 31.1725 88.6474 34.4624C87.8692 37.7522 89.9113 41.0486 93.2086 41.8251C96.5059 42.6016 99.8098 40.5641 100.588 37.2743Z" fill="#79C8EF"/>
<path d="M12.0842 37.0999C12.8624 33.8101 10.8203 30.5137 7.52295 29.7372C4.22563 28.9607 0.921738 30.9982 0.1435 34.2881C-0.634738 37.5779 1.40738 40.8743 4.7047 41.6508C8.00202 42.4273 11.3059 40.3898 12.0842 37.0999Z" fill="#79C8EF"/>
<path d="M35.7828 41.8212C39.1707 41.8212 41.9172 39.081 41.9172 35.7008C41.9172 32.3205 39.1707 29.5803 35.7828 29.5803C32.3949 29.5803 29.6484 32.3205 29.6484 35.7008C29.6484 39.081 32.3949 41.8212 35.7828 41.8212Z" fill="#79C8EF"/>
<path d="M130.229 37.2755C131.007 33.9856 128.965 30.6892 125.667 29.9127C122.37 29.1363 119.066 31.1738 118.288 34.4636C117.51 37.7535 119.552 41.0499 122.849 41.8263C126.147 42.6028 129.45 40.5653 130.229 37.2755Z" fill="#79C8EF"/>
<path d="M12.0802 7.51864C12.8585 4.22879 10.8164 0.932387 7.51905 0.155912C4.22173 -0.620562 0.917832 1.41693 0.139594 4.70678C-0.638645 7.99663 1.40348 11.293 4.7008 12.0695C7.99812 12.846 11.302 10.8085 12.0802 7.51864Z" fill="#79C8EF"/>
<path d="M35.7828 12.2409C39.1707 12.2409 41.9172 9.5007 41.9172 6.12046C41.9172 2.74022 39.1707 0 35.7828 0C32.3949 0 29.6484 2.74022 29.6484 6.12046C29.6484 9.5007 32.3949 12.2409 35.7828 12.2409Z" fill="#79C8EF"/>
<path d="M159.871 37.2708C160.649 33.981 158.607 30.6846 155.31 29.9081C152.013 29.1316 148.709 31.1691 147.931 34.459C147.152 37.7488 149.194 41.0452 152.492 41.8217C155.789 42.5982 159.093 40.5607 159.871 37.2708Z" fill="#79C8EF"/>
<path d="M69.7649 40.0258C72.1605 37.6356 72.1605 33.7604 69.7649 31.3702C67.3693 28.98 63.4852 28.98 61.0896 31.3702C58.694 33.7604 58.694 37.6356 61.0896 40.0258C63.4852 42.416 67.3693 42.416 69.7649 40.0258Z" fill="#79C8EF"/>
<path d="M69.763 10.4492C72.1586 8.05897 72.1586 4.18371 69.763 1.79352C67.3673 -0.596673 63.4833 -0.596673 61.0877 1.79352C58.692 4.18371 58.692 8.05897 61.0877 10.4492C63.4833 12.8393 67.3673 12.8393 69.763 10.4492Z" fill="#79C8EF"/>
<path d="M100.584 7.69906C101.362 4.40921 99.3203 1.11281 96.023 0.336332C92.7256 -0.440143 89.4217 1.59735 88.6435 4.8872C87.8653 8.17705 89.9074 11.4735 93.2047 12.2499C96.502 13.0264 99.8059 10.9889 100.584 7.69906Z" fill="#79C8EF"/>
<path d="M130.225 7.70028C131.003 4.41043 128.961 1.11403 125.664 0.337552C122.366 -0.438922 119.062 1.59857 118.284 4.88842C117.506 8.17827 119.548 11.4747 122.845 12.2511C126.143 13.0276 129.447 10.9901 130.225 7.70028Z" fill="#79C8EF"/>
<path d="M159.867 7.69564C160.646 4.40579 158.603 1.10939 155.306 0.332914C152.009 -0.443561 148.705 1.59393 147.927 4.88378C147.148 8.17363 149.191 11.47 152.488 12.2465C155.785 13.023 159.089 10.9855 159.867 7.69564Z" fill="#79C8EF"/>
<path d="M12.0881 594.479C12.8663 591.189 10.8242 587.893 7.52686 587.116C4.22954 586.34 0.925645 588.377 0.147406 591.667C-0.630832 594.957 1.41129 598.253 4.70861 599.03C8.00593 599.806 11.3098 597.769 12.0881 594.479Z" fill="#79C8EF"/>
<path d="M12.09 564.899C12.8682 561.609 10.8261 558.313 7.52881 557.536C4.23149 556.76 0.927598 558.797 0.149359 562.087C-0.628879 565.377 1.41324 568.673 4.71056 569.45C8.00788 570.226 11.3118 568.189 12.09 564.899Z" fill="#79C8EF"/>
<path d="M185.921 628.508C189.051 627.214 190.537 623.634 189.241 620.511C187.944 617.388 184.356 615.905 181.226 617.199C178.096 618.492 176.61 622.073 177.906 625.196C179.203 628.319 182.791 629.802 185.921 628.508Z" fill="#79C8EF"/>
<path d="M35.7828 599.224C39.1707 599.224 41.9172 596.484 41.9172 593.104C41.9172 589.724 39.1707 586.983 35.7828 586.983C32.3949 586.983 29.6484 589.724 29.6484 593.104C29.6484 596.484 32.3949 599.224 35.7828 599.224Z" fill="#79C8EF"/>
<path d="M71.3732 594.476C72.1515 591.186 70.1093 587.89 66.812 587.113C63.5147 586.337 60.2108 588.374 59.4326 591.664C58.6543 594.954 60.6964 598.251 63.9938 599.027C67.2911 599.803 70.595 597.766 71.3732 594.476Z" fill="#79C8EF"/>
<path d="M41.8607 564.538C42.4035 561.202 40.1326 558.058 36.7885 557.516C33.4443 556.974 30.2933 559.24 29.7505 562.577C29.2076 565.913 31.4785 569.057 34.8227 569.599C38.1668 570.14 41.3179 567.875 41.8607 564.538Z" fill="#79C8EF"/>
<path d="M219.164 624.227C219.942 620.937 217.9 617.64 214.603 616.864C211.306 616.087 208.002 618.125 207.224 621.415C206.445 624.705 208.487 628.001 211.785 628.778C215.082 629.554 218.386 627.516 219.164 624.227Z" fill="#79C8EF"/>
<path d="M71.3732 564.902C72.1515 561.612 70.1093 558.316 66.812 557.539C63.5147 556.763 60.2108 558.8 59.4326 562.09C58.6543 565.38 60.6964 568.676 63.9938 569.453C67.2911 570.229 70.595 568.192 71.3732 564.902Z" fill="#79C8EF"/>
<path d="M248.805 624.228C249.583 620.938 247.541 617.642 244.244 616.865C240.946 616.089 237.642 618.126 236.864 621.416C236.086 624.706 238.128 628.003 241.425 628.779C244.723 629.555 248.027 627.518 248.805 624.228Z" fill="#79C8EF"/>
<path d="M6.13437 629C9.52228 629 12.2687 626.26 12.2687 622.88C12.2687 619.5 9.52228 616.759 6.13437 616.759C2.74645 616.759 0 619.5 0 622.88C0 626.26 2.74645 629 6.13437 629Z" fill="#79C8EF"/>
<path d="M35.7828 629C39.1707 629 41.9172 626.26 41.9172 622.88C41.9172 619.5 39.1707 616.759 35.7828 616.759C32.3949 616.759 29.6484 619.5 29.6484 622.88C29.6484 626.26 32.3949 629 35.7828 629Z" fill="#79C8EF"/>
<path d="M71.5013 623.889C72.0441 620.552 69.7732 617.408 66.4291 616.867C63.0849 616.325 59.9339 618.591 59.3911 621.927C58.8483 625.264 61.1192 628.408 64.4633 628.949C67.8075 629.491 70.9585 627.225 71.5013 623.889Z" fill="#79C8EF"/>
<path d="M101.144 623.892C101.687 620.555 99.4158 617.411 96.0717 616.87C92.7275 616.328 89.5765 618.594 89.0337 621.93C88.4908 625.267 90.7617 628.411 94.1059 628.952C97.45 629.494 100.601 627.228 101.144 623.892Z" fill="#79C8EF"/>
<path d="M130.792 623.894C131.335 620.557 129.064 617.414 125.72 616.872C122.376 616.33 119.225 618.596 118.682 621.933C118.139 625.269 120.41 628.413 123.754 628.955C127.098 629.496 130.249 627.231 130.792 623.894Z" fill="#79C8EF"/>
<path d="M156.704 628.535C159.834 627.241 161.321 623.661 160.024 620.538C158.728 617.415 155.139 615.932 152.009 617.226C148.879 618.519 147.393 622.1 148.689 625.222C149.986 628.345 153.574 629.828 156.704 628.535Z" fill="#79C8EF"/>
<path d="M22.875 123.884V139.253H36.7816V153.128H52.185V139.253H66.0855V123.884H52.185V110.015H36.7816V123.884H22.875Z" fill="#79C8EF"/>
<path d="M35.7448 153.128V140.275H22.8626C22.5893 140.275 22.3272 140.167 22.1339 139.974C21.9406 139.781 21.832 139.519 21.832 139.247V123.884C21.832 123.612 21.9406 123.35 22.1339 123.157C22.3272 122.964 22.5893 122.856 22.8626 122.856H35.7448V110.003C35.7448 109.73 35.8533 109.469 36.0466 109.276C36.2399 109.083 36.502 108.975 36.7753 108.975H52.1665C52.4398 108.975 52.7019 109.083 52.8952 109.276C53.0885 109.469 53.197 109.73 53.197 110.003V122.856H66.0792C66.3525 122.856 66.6147 122.964 66.8079 123.157C67.0012 123.35 67.1098 123.612 67.1098 123.884V139.253C67.1098 139.525 67.0012 139.787 66.8079 139.98C66.6147 140.173 66.3525 140.281 66.0792 140.281H53.197V153.134C53.1922 153.404 53.0815 153.66 52.8888 153.849C52.696 154.038 52.4366 154.144 52.1665 154.144H36.7753C36.5041 154.144 36.2438 154.037 36.0509 153.847C35.858 153.657 35.748 153.398 35.7448 153.128ZM51.1482 139.253C51.1498 138.983 51.2574 138.725 51.4478 138.534C51.6383 138.343 51.8963 138.234 52.1665 138.231H65.0486V124.913H52.1665C51.8931 124.913 51.631 124.804 51.4378 124.611C51.2445 124.419 51.1359 124.157 51.1359 123.884V111.031H37.812V123.884C37.8104 124.158 37.7005 124.419 37.5063 124.612C37.312 124.804 37.0492 124.913 36.7753 124.913H23.8932V138.231H36.7753C37.0492 138.231 37.312 138.339 37.5063 138.531C37.7005 138.724 37.8104 138.986 37.812 139.259V152.112H51.1482V139.253Z" fill="#1C244A"/>
</g>
<defs>
<clipPath id="clip0_99_1322">
<rect width="249" height="638" fill="white"/>
</clipPath>
</defs>
</svg>
