<svg width="505" height="581" viewBox="0 0 505 581" fill="none" xmlns="http://www.w3.org/2000/svg">
<g clip-path="url(#clip0_99_727)">
<path d="M133.646 449.578L185.864 501.812C187.339 503.267 188.584 504.939 189.554 506.77L181.662 511.348L160.113 489.792L151.742 494.502C150.082 488.962 147.112 483.903 143.083 479.754C139.055 475.605 134.087 472.487 128.599 470.664C123.112 468.842 117.266 468.368 111.557 469.283C105.848 470.198 100.443 472.475 95.7991 475.921C91.1555 479.368 87.41 483.882 84.8795 489.083C82.3489 494.283 81.1077 500.017 81.2607 505.799C81.4138 511.581 82.9567 517.24 85.7589 522.3C88.5611 527.359 92.5402 531.669 97.3596 534.864L93.9342 541.745L88.2454 547.441L62.0206 521.203C57.385 516.576 54.4057 510.548 53.5452 504.054L52.8623 499.195C52.0013 492.706 49.0106 486.686 44.3594 482.08L94.5069 431.917C96.7963 434.215 99.4522 436.116 102.366 437.542C105.274 439.017 108.415 439.98 111.65 440.39L116.53 441.067C123.011 441.96 129.022 444.949 133.646 449.578Z" fill="white"/>
<path d="M93.9349 541.767L97.3603 534.864C103.532 538.939 110.808 541.015 118.2 540.812C125.592 540.608 132.742 538.134 138.681 533.726C144.619 529.318 149.058 523.189 151.395 516.171C153.731 509.153 153.853 501.586 151.743 494.496L160.114 489.787L181.663 511.342L189.555 506.77C191.201 509.833 192.064 513.257 192.066 516.735C192.06 519.513 191.519 522.265 190.474 524.839C189.4 527.4 187.834 529.727 185.865 531.686L144.154 573.426C142.201 575.402 139.874 576.969 137.309 578.036C133.443 579.651 129.185 580.079 125.075 579.264C120.966 578.45 117.192 576.431 114.234 573.464L88.2461 547.468L93.9349 541.767Z" fill="white"/>
<path d="M79.1311 400.193L88.6143 409.684L80.8604 417.446L71.9829 426.343L55.4121 409.767L64.9779 400.193C65.9071 399.263 67.0104 398.525 68.2246 398.022C69.4388 397.519 70.7402 397.26 72.0545 397.26C73.3688 397.26 74.6702 397.519 75.8845 398.022C77.0987 398.525 78.2019 399.263 79.1311 400.193Z" fill="#79C8EF"/>
<path d="M89.0272 419.649L97.9046 428.529L94.5178 431.917L44.3647 482.08L41.0825 485.369L32.2051 476.488L35.0853 473.607L86.0424 422.63L89.0272 419.649Z" fill="white"/>
<path d="M80.861 417.446L86.0432 422.63L35.0861 473.607L29.8984 468.418L38.8089 459.505L55.4513 442.863L71.9836 426.326L80.861 417.446Z" fill="white"/>
<path d="M142.695 479.298C147.734 484.339 151.166 490.761 152.557 497.753C153.947 504.745 153.234 511.992 150.507 518.578C147.779 525.164 143.161 530.794 137.235 534.754C131.31 538.715 124.343 540.829 117.216 540.829C110.09 540.829 103.123 538.715 97.1975 534.754C91.2719 530.794 86.6535 525.164 83.9263 518.578C81.1991 511.992 80.4856 504.745 81.8761 497.753C83.2666 490.761 86.6985 484.339 91.738 479.298C95.0784 475.941 99.0487 473.278 103.421 471.46C107.793 469.643 112.482 468.707 117.216 468.707C121.951 468.707 126.64 469.643 131.012 471.46C135.384 473.278 139.355 475.941 142.695 479.298ZM138.256 494.788L127.209 483.738L117.214 493.736L107.251 483.777L96.2372 494.794L106.172 504.787L96.2097 514.752L107.224 525.803L117.186 515.837L127.209 525.836L138.256 514.785L128.261 504.787L138.256 494.788Z" fill="white"/>
<path d="M55.4113 409.747L38.877 426.286L55.4464 442.861L71.9807 426.322L55.4113 409.747Z" fill="#79C8EF"/>
<path d="M127.214 483.738L138.261 494.788L128.266 504.787L138.261 514.785L127.214 525.836L117.219 515.837L107.256 525.803L96.209 514.752L106.171 504.787L96.209 494.822L107.256 483.777L117.219 493.736L127.214 483.738Z" fill="#79C8EF"/>
<path d="M38.8758 426.292L22.2402 442.933L38.8096 459.507L55.4452 442.867L38.8758 426.292Z" fill="#79C8EF"/>
<path d="M22.2379 442.935L38.8087 459.505L29.8982 468.418L22.1387 476.18L12.661 466.694C11.7291 465.76 10.9905 464.652 10.4876 463.432C9.98471 462.213 9.72743 460.906 9.7305 459.586C9.73357 458.267 9.99693 456.961 10.5055 455.744C11.014 454.527 11.7578 453.422 12.6941 452.492L22.2379 442.935Z" fill="#79C8EF"/>
<path d="M117.147 542.158C109.849 542.17 102.708 540.031 96.6167 536.01C89.0846 531.067 83.5828 523.578 81.1174 514.911C78.652 506.244 79.3877 496.978 83.19 488.809C86.9923 480.64 93.6071 474.113 101.825 470.422C110.043 466.73 119.314 466.121 127.944 468.705C136.574 471.289 143.986 476.894 148.824 484.495C153.662 492.096 155.604 501.186 154.293 510.101C152.983 519.016 148.508 527.162 141.687 533.048C134.867 538.934 126.155 542.168 117.147 542.158ZM98.0981 533.763C105.542 538.668 114.585 540.524 123.359 538.948C132.132 537.372 139.964 532.483 145.236 525.293C150.508 518.103 152.816 509.162 151.683 500.318C150.55 491.474 146.063 483.403 139.15 477.775C132.236 472.147 123.425 469.392 114.538 470.079C105.65 470.766 97.3668 474.843 91.3998 481.467C85.4329 488.09 82.2387 496.755 82.4779 505.668C82.717 514.581 86.3711 523.062 92.6847 529.356C94.337 531.002 96.1506 532.479 98.0981 533.763Z" fill="#1C244A"/>
<path d="M127.209 527.18C127.033 527.18 126.858 527.144 126.695 527.076C126.533 527.008 126.385 526.909 126.262 526.783L117.213 517.738L108.204 526.75C108.079 526.876 107.931 526.975 107.768 527.043C107.605 527.111 107.43 527.146 107.254 527.146C107.077 527.146 106.902 527.111 106.739 527.043C106.576 526.975 106.428 526.876 106.304 526.75L95.2566 515.733C95.0048 515.481 94.8633 515.139 94.8633 514.782C94.8633 514.426 95.0048 514.084 95.2566 513.832L104.272 504.814L95.2677 495.752C95.0158 495.5 94.8743 495.159 94.8743 494.802C94.8743 494.446 95.0158 494.104 95.2677 493.852L106.282 482.824C106.534 482.572 106.876 482.43 107.232 482.43C107.588 482.43 107.93 482.572 108.182 482.824L117.191 491.841L126.24 482.79C126.496 482.546 126.836 482.41 127.19 482.41C127.543 482.41 127.883 482.546 128.139 482.79L139.187 493.841C139.439 494.093 139.58 494.435 139.58 494.791C139.58 495.148 139.439 495.489 139.187 495.741L130.161 504.787L139.209 513.838C139.459 514.089 139.6 514.43 139.6 514.785C139.599 515.142 139.458 515.484 139.209 515.738L128.162 526.783C128.037 526.909 127.888 527.009 127.725 527.077C127.561 527.145 127.386 527.18 127.209 527.18ZM117.213 514.51C117.391 514.509 117.566 514.544 117.73 514.612C117.893 514.681 118.042 514.78 118.166 514.906L127.209 523.935L136.356 514.785L127.313 505.74C127.188 505.615 127.089 505.467 127.021 505.304C126.953 505.141 126.918 504.966 126.918 504.79C126.918 504.613 126.953 504.438 127.021 504.275C127.089 504.112 127.188 503.964 127.313 503.839L136.356 494.788L127.209 485.638L118.166 494.689C117.909 494.931 117.569 495.066 117.216 495.066C116.863 495.066 116.524 494.931 116.266 494.689L107.251 485.677L98.1093 494.822L107.119 503.839C107.371 504.091 107.512 504.433 107.512 504.79C107.512 505.146 107.371 505.488 107.119 505.74L98.1093 514.752L107.251 523.902L116.266 514.89C116.389 514.762 116.536 514.66 116.699 514.59C116.861 514.52 117.036 514.483 117.213 514.482V514.51Z" fill="#1C244A"/>
<path d="M22.1394 477.524C21.9626 477.525 21.7873 477.491 21.6237 477.424C21.4602 477.357 21.3116 477.258 21.1867 477.133L11.7035 467.658C9.57474 465.518 8.3825 462.619 8.3887 459.6C8.39489 456.581 9.59902 453.688 11.7365 451.556L64.0153 399.256C66.1479 397.13 69.0363 395.936 72.0474 395.936C75.0585 395.936 77.9468 397.13 80.0795 399.256L89.5682 408.715C89.8201 408.967 89.9616 409.308 89.9616 409.665C89.9616 410.021 89.8201 410.363 89.5682 410.615L81.8087 418.377C81.5551 418.621 81.216 418.755 80.8643 418.752C80.5125 418.748 80.1762 418.607 79.9274 418.358C79.6787 418.109 79.5374 417.773 79.5339 417.421C79.5304 417.069 79.665 416.73 79.9087 416.476L86.721 409.668L78.1961 401.14C76.5674 399.518 74.3624 398.607 72.0639 398.607C69.7654 398.607 67.5604 399.518 65.9318 401.14L13.653 453.44C12.0192 455.068 11.0981 457.277 11.0919 459.584C11.0857 461.89 11.995 464.105 13.6199 465.741L22.1394 474.268L28.9462 467.454C29.1998 467.21 29.5389 467.076 29.8906 467.079C30.2423 467.083 30.5787 467.224 30.8274 467.473C31.0761 467.722 31.2174 468.058 31.2209 468.41C31.2244 468.762 31.0898 469.101 30.8461 469.355L23.0866 477.133C22.9627 477.258 22.8151 477.357 22.6524 477.424C22.4898 477.491 22.3154 477.525 22.1394 477.524Z" fill="#1C244A"/>
<path d="M41.0772 486.713C40.9009 486.713 40.7263 486.678 40.5637 486.61C40.401 486.542 40.2536 486.442 40.13 486.316L31.2525 477.436C31.1206 477.312 31.0154 477.163 30.9434 476.997C30.8714 476.832 30.8342 476.653 30.834 476.472C30.8347 476.114 30.9773 475.772 31.2305 475.519L34.1107 472.638C34.3643 472.394 34.7034 472.259 35.0551 472.263C35.4069 472.266 35.7432 472.408 35.992 472.657C36.2407 472.905 36.382 473.242 36.3855 473.594C36.389 473.946 36.2544 474.285 36.0106 474.538L34.0997 476.472L41.0772 483.468L43.4177 481.127C43.5415 480.998 43.6898 480.895 43.8539 480.824C44.0179 480.753 44.1945 480.716 44.3732 480.714C44.5519 480.712 44.7291 480.746 44.8946 480.814C45.06 480.881 45.2103 480.981 45.3367 481.108C45.4631 481.234 45.563 481.385 45.6305 481.55C45.6981 481.716 45.732 481.893 45.7302 482.072C45.7284 482.25 45.691 482.427 45.6202 482.591C45.5493 482.755 45.4465 482.903 45.3176 483.027L42.0134 486.333C41.7629 486.577 41.4269 486.713 41.0772 486.713Z" fill="#1C244A"/>
<path d="M94.5134 433.261C94.2485 433.26 93.9898 433.181 93.7699 433.033C93.55 432.885 93.3787 432.676 93.2775 432.431C93.1763 432.186 93.1497 431.917 93.201 431.657C93.2524 431.397 93.3794 431.158 93.5662 430.97L96.0003 428.529L89.0228 421.55L87.0073 423.588C86.7536 423.832 86.4145 423.967 86.0628 423.963C85.7111 423.96 85.3747 423.818 85.126 423.569C84.8773 423.321 84.736 422.984 84.7325 422.632C84.729 422.281 84.8636 421.941 85.1073 421.688L88.0921 418.702C88.2166 418.578 88.3643 418.479 88.5268 418.412C88.6894 418.345 88.8635 418.311 89.0394 418.311C89.2161 418.31 89.3912 418.344 89.5547 418.411C89.7182 418.479 89.8668 418.577 89.9921 418.702L98.8695 427.582C99.1214 427.834 99.2629 428.176 99.2629 428.532C99.2629 428.889 99.1214 429.23 98.8695 429.482L95.4827 432.876C95.2233 433.128 94.8748 433.266 94.5134 433.261Z" fill="#1C244A"/>
<path d="M129.174 581.006C123.211 580.994 117.495 578.616 113.281 574.395L61.0682 522.194C56.2326 517.352 53.1229 511.053 52.2183 504.269L51.541 499.399C50.7115 493.2 47.8555 487.45 43.418 483.044C43.2921 482.92 43.1921 482.773 43.124 482.61C43.0559 482.447 43.021 482.273 43.0215 482.096C43.0222 481.739 43.1648 481.396 43.418 481.143L93.5655 430.986C93.6899 430.861 93.8379 430.761 94.001 430.693C94.164 430.626 94.3389 430.591 94.5155 430.591C94.6921 430.591 94.867 430.626 95.0301 430.693C95.1931 430.761 95.3411 430.861 95.4655 430.986C97.6546 433.175 100.193 434.983 102.977 436.335C105.751 437.748 108.749 438.668 111.838 439.057L116.734 439.734C123.498 440.682 129.772 443.802 134.61 448.625L186.823 500.854C188.399 502.414 189.727 504.207 190.76 506.169C192.51 509.422 193.424 513.058 193.42 516.752C193.433 519.708 192.855 522.638 191.72 525.368C190.585 528.098 188.916 530.574 186.812 532.65L145.101 574.373C143.014 576.472 140.532 578.137 137.799 579.272C135.065 580.407 132.134 580.988 129.174 580.984V581.006ZM46.2541 482.096C50.5878 486.779 53.3674 492.688 54.2119 499.014L54.8893 503.889C55.7162 510.091 58.5588 515.85 62.9792 520.277L115.192 572.506C117.963 575.285 121.498 577.177 125.347 577.94C129.197 578.703 133.186 578.303 136.807 576.791C139.207 575.79 141.384 574.322 143.212 572.473L184.923 530.749C186.768 528.916 188.235 526.737 189.24 524.337C190.223 521.929 190.729 519.353 190.733 516.752C190.734 513.494 189.926 510.288 188.381 507.42C187.476 505.695 186.309 504.122 184.923 502.754L132.715 450.526C128.294 446.113 122.556 443.261 116.37 442.4L111.491 441.723C108.108 441.292 104.824 440.284 101.782 438.743C99.1443 437.45 96.7085 435.779 94.5513 433.785L46.2541 482.096Z" fill="#1C244A"/>
<path d="M38.8076 460.849C38.4527 460.849 38.1121 460.708 37.8604 460.458L21.2896 443.882C21.1607 443.758 21.0579 443.61 20.987 443.446C20.9162 443.282 20.8788 443.105 20.877 442.927C20.8752 442.748 20.9091 442.57 20.9767 442.405C21.0443 442.239 21.1442 442.089 21.2705 441.963C21.3969 441.836 21.5472 441.736 21.7126 441.669C21.8781 441.601 22.0553 441.567 22.234 441.569C22.4127 441.571 22.5893 441.608 22.7533 441.679C22.9174 441.75 23.0657 441.853 23.1895 441.982L39.7549 458.558C39.9416 458.745 40.0686 458.984 40.12 459.244C40.1714 459.504 40.1448 459.774 40.0435 460.019C39.9423 460.264 39.771 460.473 39.5511 460.621C39.3312 460.769 39.0726 460.848 38.8076 460.849Z" fill="#1C244A"/>
<path d="M55.4457 444.207C55.2697 444.208 55.0953 444.174 54.9326 444.107C54.77 444.04 54.6223 443.941 54.4984 443.816L37.9276 427.24C37.6839 426.987 37.5493 426.648 37.5528 426.296C37.5563 425.944 37.6976 425.607 37.9463 425.359C38.195 425.11 38.5314 424.968 38.8831 424.965C39.2349 424.962 39.5739 425.096 39.8276 425.34L56.3984 441.916C56.5854 442.104 56.7126 442.343 56.7638 442.604C56.815 442.864 56.7879 443.134 56.686 443.379C56.5841 443.624 56.4119 443.834 56.1912 443.981C55.9705 444.129 55.711 444.207 55.4457 444.207Z" fill="#1C244A"/>
<path d="M71.9769 427.67C71.8007 427.67 71.6262 427.635 71.4636 427.567C71.301 427.499 71.1535 427.399 71.0297 427.274L54.4589 410.703C54.2151 410.45 54.0806 410.11 54.0841 409.759C54.0875 409.407 54.2288 409.07 54.4776 408.821C54.7263 408.573 55.0626 408.431 55.4144 408.428C55.7661 408.424 56.1052 408.559 56.3588 408.803L72.9296 425.373C73.1159 425.562 73.2424 425.802 73.2931 426.062C73.3439 426.323 73.3168 426.593 73.2151 426.838C73.1134 427.083 72.9417 427.293 72.7215 427.441C72.5013 427.589 72.2423 427.669 71.9769 427.67Z" fill="#1C244A"/>
<path d="M35.0807 474.952C34.9044 474.952 34.7298 474.917 34.5672 474.849C34.4046 474.78 34.2571 474.681 34.1335 474.555L28.9458 469.371C28.6953 469.118 28.5547 468.777 28.5547 468.421C28.5547 468.065 28.6953 467.723 28.9458 467.471L79.9084 416.493C80.0337 416.368 80.1823 416.27 80.3458 416.202C80.5093 416.135 80.6844 416.101 80.8611 416.102C81.037 416.102 81.2111 416.136 81.3736 416.203C81.5362 416.27 81.6839 416.369 81.8083 416.493L86.9905 421.682C87.1159 421.807 87.2154 421.955 87.2833 422.118C87.3512 422.281 87.3862 422.456 87.3862 422.632C87.3862 422.809 87.3512 422.984 87.2833 423.147C87.2154 423.31 87.1159 423.458 86.9905 423.583L36.0334 474.555C35.9088 474.681 35.7604 474.781 35.5968 474.849C35.4333 474.917 35.2578 474.952 35.0807 474.952ZM31.7764 468.424L35.0807 471.729L84.1433 422.652L80.8391 419.346L31.7764 468.424Z" fill="#1C244A"/>
<path d="M71.813 522.47C71.4998 522.468 71.1966 522.359 70.9539 522.161C62.2692 514.967 58.1554 502.782 60.7107 491.863C60.8087 491.538 61.026 491.263 61.3189 491.091C61.6118 490.92 61.9587 490.866 62.2898 490.94C62.621 491.014 62.9119 491.21 63.1042 491.49C63.2965 491.769 63.376 492.111 63.3266 492.447C62.2276 497.47 62.5186 502.698 64.1682 507.567C65.8178 512.437 68.7636 516.765 72.6886 520.084C72.9015 520.261 73.0549 520.498 73.128 520.765C73.201 521.031 73.1902 521.314 73.0968 521.574C73.0035 521.834 72.8323 522.059 72.6065 522.219C72.3807 522.378 72.1113 522.464 71.835 522.464L71.813 522.47Z" fill="#1C244A"/>
<path d="M118.739 567.917C118.562 567.917 118.388 567.882 118.225 567.814C118.063 567.746 117.915 567.646 117.792 567.52L93.0096 542.731C92.7659 542.477 92.6313 542.138 92.6348 541.786C92.6383 541.434 92.7796 541.098 93.0283 540.849C93.2771 540.6 93.6134 540.459 93.9651 540.455C94.3169 540.452 94.6559 540.587 94.9096 540.83L119.691 565.62C119.878 565.809 120.004 566.048 120.055 566.309C120.106 566.569 120.079 566.839 119.977 567.084C119.875 567.33 119.704 567.539 119.483 567.687C119.263 567.835 119.004 567.915 118.739 567.917Z" fill="#1C244A"/>
<path d="M181.662 512.708C181.485 512.709 181.309 512.674 181.146 512.606C180.982 512.538 180.834 512.438 180.709 512.312L159.149 490.756C159.02 490.632 158.917 490.484 158.846 490.32C158.776 490.156 158.738 489.979 158.736 489.8C158.735 489.622 158.768 489.444 158.836 489.279C158.904 489.113 159.004 488.963 159.13 488.836C159.256 488.71 159.407 488.61 159.572 488.543C159.737 488.475 159.915 488.441 160.093 488.443C160.272 488.445 160.449 488.482 160.613 488.553C160.777 488.624 160.925 488.727 161.049 488.856L182.598 510.411C182.85 510.663 182.992 511.005 182.992 511.361C182.992 511.718 182.85 512.06 182.598 512.312C182.476 512.436 182.33 512.535 182.17 512.603C182.009 512.671 181.836 512.707 181.662 512.708Z" fill="#1C244A"/>
<path d="M200.877 11.7391C200.877 11.7391 232.681 39.3103 205.283 105.542C139.099 132.937 111.508 101.135 111.508 101.135C106.323 95.9318 102.877 89.2488 101.647 82.0059C100.416 74.763 101.46 67.3166 104.636 60.6921C107.812 54.0676 112.962 48.5909 119.379 45.0162C125.795 41.4414 133.162 39.9445 140.464 40.7315C139.668 33.4205 141.159 26.0423 144.733 19.6152C148.306 13.188 153.786 8.02861 160.415 4.84891C167.045 1.66921 174.497 0.625932 181.745 1.86304C188.992 3.10015 195.677 6.55666 200.877 11.7556V11.7391Z" fill="#79C8EF"/>
<path d="M155.945 117.92C124.786 117.92 110.677 102.259 110.479 102.027C105.196 96.7206 101.654 89.9304 100.324 82.5604C98.9945 75.1904 99.9406 67.59 103.036 60.7712C106.132 53.9523 111.23 48.2382 117.653 44.3897C124.076 40.5411 131.518 38.7405 138.989 39.2277C138.505 31.7492 140.312 24.301 144.167 17.8755C148.023 11.4501 153.745 6.35273 160.57 3.26277C167.395 0.172797 175 -0.762986 182.37 0.580134C189.741 1.92325 196.527 5.48148 201.825 10.7806C202.106 10.9844 233.981 39.6959 206.511 106.06C206.373 106.388 206.112 106.649 205.784 106.787C185.86 115.033 169.327 117.92 155.945 117.92ZM136.527 41.8333C129.768 41.8437 123.164 43.8586 117.55 47.623C111.936 51.3875 107.564 56.7326 104.986 62.9825C102.408 69.2324 101.741 76.1065 103.069 82.7356C104.396 89.3648 107.659 95.4514 112.445 100.226C112.775 100.6 140.206 130.821 204.242 104.539C230.539 40.4616 200.305 13.0502 199.996 12.7802C195.001 7.75573 188.568 4.40829 181.588 3.20107C174.608 1.99385 167.425 2.98652 161.033 6.04174C154.641 9.09697 149.357 14.0637 145.911 20.2548C142.465 26.4459 141.027 33.5553 141.797 40.5993C141.819 40.7992 141.796 41.0015 141.729 41.1912C141.662 41.3809 141.554 41.5532 141.412 41.6954C141.27 41.8376 141.097 41.9461 140.908 42.0128C140.718 42.0796 140.516 42.103 140.316 42.0812C139.059 41.9275 137.794 41.8447 136.527 41.8333Z" fill="#1C244A"/>
<path d="M146.389 106.236C141.188 106.236 136.051 105.09 131.343 102.878C126.635 100.666 122.472 97.4435 119.152 93.439C115.831 89.4346 113.434 84.747 112.131 79.7102C110.827 74.6733 110.65 69.411 111.612 64.2979C111.691 63.9603 111.897 63.6663 112.188 63.4773C112.478 63.2883 112.831 63.2189 113.171 63.2836C113.512 63.3483 113.814 63.5421 114.015 63.8245C114.216 64.107 114.3 64.4561 114.25 64.7992C113.354 69.5702 113.531 74.481 114.769 79.1751C116.006 83.8691 118.273 88.2286 121.405 91.9372C124.537 95.6457 128.454 98.6103 132.874 100.616C137.294 102.621 142.104 103.617 146.957 103.531C147.313 103.531 147.655 103.673 147.907 103.925C148.159 104.177 148.3 104.519 148.3 104.875C148.3 105.232 148.159 105.574 147.907 105.826C147.655 106.078 147.313 106.219 146.957 106.219L146.389 106.236Z" fill="#1C244A"/>
<path d="M434.863 189.891L437.98 193.009C438.292 193.325 438.539 193.699 438.706 194.11C438.873 194.521 438.958 194.96 438.955 195.404C438.952 195.848 438.861 196.287 438.688 196.695C438.515 197.104 438.263 197.474 437.947 197.785L363.232 272.522C362.924 272.84 362.556 273.092 362.148 273.264C361.741 273.436 361.303 273.525 360.861 273.525C360.419 273.525 359.981 273.436 359.574 273.264C359.167 273.092 358.798 272.84 358.49 272.522L217.129 131.119C216.813 130.808 216.561 130.437 216.388 130.029C216.215 129.62 216.124 129.181 216.121 128.738C216.118 128.294 216.203 127.854 216.37 127.443C216.537 127.032 216.784 126.658 217.096 126.343L220.213 123.225C219.578 123.864 219.221 124.728 219.221 125.629C219.221 126.53 219.578 127.395 220.213 128.034L343.544 251.429L358.457 266.341C359.096 266.977 359.96 267.334 360.861 267.334C361.762 267.334 362.626 266.977 363.265 266.341L434.857 194.728C435.176 194.411 435.428 194.034 435.601 193.62C435.774 193.205 435.863 192.76 435.863 192.311C435.864 191.862 435.776 191.417 435.604 191.001C435.432 190.586 435.18 190.209 434.863 189.891Z" fill="white"/>
<path d="M305.562 60.563L434.863 189.902C435.498 190.542 435.855 191.408 435.855 192.31C435.855 193.212 435.498 194.077 434.863 194.717L363.271 266.33C362.632 266.966 361.768 267.323 360.867 267.323C359.966 267.323 359.102 266.966 358.463 266.33L343.55 251.418L220.218 128.023C219.583 127.384 219.227 126.519 219.227 125.618C219.227 124.717 219.583 123.853 220.218 123.214L291.811 51.6003C292.45 50.9645 293.315 50.6076 294.217 50.6076C295.119 50.6076 295.984 50.9645 296.624 51.6003L305.562 60.563ZM415.004 179.937L345.841 110.692L300.616 65.5208L234.102 132.033L279.304 177.249L348.495 246.46L415.004 179.937ZM405.449 207.393L404.166 206.104C403.86 205.799 403.497 205.559 403.097 205.396C402.697 205.233 402.27 205.15 401.838 205.153C401.407 205.157 400.98 205.245 400.583 205.414C400.185 205.582 399.826 205.828 399.524 206.137L374.687 230.981C374.378 231.283 374.133 231.643 373.964 232.04C373.795 232.438 373.707 232.864 373.704 233.296C373.701 233.728 373.783 234.156 373.946 234.555C374.109 234.955 374.35 235.319 374.654 235.625L375.937 236.914C376.244 237.221 376.608 237.465 377.009 237.631C377.41 237.798 377.84 237.883 378.275 237.883C378.709 237.883 379.139 237.798 379.54 237.631C379.941 237.465 380.305 237.221 380.612 236.914L405.449 212.07C405.758 211.762 406.003 211.397 406.171 210.995C406.338 210.593 406.424 210.161 406.424 209.726C406.424 209.29 406.338 208.858 406.171 208.456C406.003 208.054 405.758 207.689 405.449 207.382V207.393Z" fill="white"/>
<path d="M345.839 110.692L415.025 179.904L348.494 246.46L279.303 177.249L288.015 168.534C291.239 171.759 295.066 174.316 299.279 176.062C303.491 177.807 308.006 178.705 312.565 178.704C317.124 178.704 321.638 177.806 325.851 176.06C330.063 174.315 333.89 171.756 337.113 168.531C340.337 165.306 342.894 161.478 344.639 157.264C346.383 153.051 347.281 148.535 347.281 143.974C347.28 139.414 346.382 134.898 344.637 130.684C342.892 126.471 340.335 122.643 337.111 119.418L345.839 110.692ZM386.091 170.55L382.434 166.887C380.65 165.114 378.238 164.12 375.724 164.12C373.209 164.12 370.797 165.114 369.013 166.887L335.503 200.408C333.728 202.19 332.732 204.604 332.732 207.12C332.732 209.636 333.728 212.049 335.503 213.832L339.165 217.49C340.946 219.265 343.358 220.261 345.872 220.261C348.387 220.261 350.799 219.265 352.58 217.49L386.091 183.969C387.855 182.185 388.843 179.776 388.839 177.266C388.835 174.757 387.839 172.35 386.069 170.572L386.091 170.55Z" fill="#79C8EF"/>
<path d="M300.616 65.5208L345.84 110.692L337.128 119.402C330.615 112.887 321.781 109.227 312.57 109.228C303.359 109.228 294.526 112.889 288.013 119.404C281.501 125.92 277.842 134.756 277.843 143.97C277.843 153.183 281.503 162.019 288.016 168.534L279.309 177.243L234.102 132.033L300.616 65.5208Z" fill="#79C8EF"/>
<path d="M368.994 166.914L335.485 200.433C331.779 204.14 331.779 210.149 335.485 213.856L339.141 217.514C342.847 221.22 348.855 221.22 352.561 217.514L386.069 183.995C389.775 180.288 389.775 174.279 386.069 170.572L382.413 166.914C378.707 163.208 372.699 163.208 368.994 166.914Z" fill="white"/>
<path d="M287.978 119.424C292.83 114.556 299.017 111.237 305.756 109.887C312.495 108.537 319.483 109.217 325.835 111.841C332.188 114.465 337.619 118.914 341.443 124.627C345.266 130.339 347.31 137.058 347.316 143.932C347.321 150.807 345.288 157.529 341.473 163.247C337.658 168.966 332.234 173.424 325.886 176.057C319.537 178.691 312.551 179.382 305.81 178.043C299.069 176.704 292.876 173.395 288.016 168.534C281.505 162.024 277.843 153.195 277.836 143.987C277.829 134.778 281.476 125.944 287.978 119.424ZM334.601 133.526L323.036 121.958L312.6 132.424L302.136 121.958L290.544 133.526L301.007 143.993L290.544 154.459L302.136 166.028L312.6 155.561L323.063 166.028L334.628 154.459L324.165 143.993L334.601 133.526Z" fill="white"/>
<path d="M323.013 121.936L334.606 133.526L324.164 143.965L334.639 154.437L323.052 166.028L312.577 155.555L302.108 166.028L290.521 154.437L300.99 143.965L290.521 133.493L302.108 121.897L312.577 132.375L323.013 121.936Z" fill="#79C8EF"/>
<path d="M404.165 206.093L405.449 207.382C405.756 207.689 406 208.053 406.166 208.454C406.332 208.856 406.418 209.286 406.418 209.72C406.418 210.154 406.332 210.585 406.166 210.986C406 211.387 405.756 211.752 405.449 212.058L380.612 236.903C380.305 237.21 379.94 237.454 379.539 237.62C379.138 237.787 378.708 237.872 378.274 237.872C377.84 237.872 377.41 237.787 377.009 237.62C376.607 237.454 376.243 237.21 375.936 236.903L374.653 235.614C374.349 235.307 374.108 234.944 373.945 234.544C373.782 234.145 373.7 233.717 373.703 233.285C373.706 232.853 373.795 232.427 373.963 232.029C374.132 231.632 374.378 231.272 374.686 230.97L399.523 206.126C399.825 205.817 400.185 205.571 400.582 205.403C400.979 205.234 401.406 205.146 401.837 205.142C402.269 205.139 402.697 205.222 403.096 205.385C403.496 205.548 403.859 205.788 404.165 206.093Z" fill="#79C8EF"/>
<path d="M360.857 274.852C360.242 274.851 359.634 274.728 359.067 274.491C358.5 274.254 357.985 273.907 357.552 273.47L216.175 132.072C215.286 131.189 214.784 129.99 214.777 128.738C214.771 127.485 215.262 126.281 216.141 125.39L219.258 122.272C219.512 122.028 219.851 121.893 220.203 121.897C220.555 121.9 220.891 122.042 221.14 122.29C221.388 122.539 221.53 122.876 221.533 123.228C221.537 123.579 221.402 123.919 221.158 124.172L218.041 127.29C217.665 127.677 217.458 128.198 217.464 128.738C217.47 129.277 217.69 129.793 218.074 130.171L359.436 271.575C359.817 271.945 360.328 272.153 360.859 272.153C361.391 272.153 361.902 271.945 362.283 271.575L436.992 196.838C437.378 196.46 437.599 195.944 437.605 195.404C437.611 194.864 437.403 194.343 437.025 193.957L433.908 190.839C433.779 190.715 433.677 190.567 433.606 190.403C433.535 190.238 433.497 190.062 433.496 189.883C433.494 189.704 433.528 189.527 433.595 189.362C433.663 189.196 433.763 189.046 433.889 188.919C434.016 188.793 434.166 188.693 434.331 188.625C434.497 188.558 434.674 188.524 434.853 188.526C435.031 188.527 435.208 188.565 435.372 188.636C435.536 188.707 435.684 188.809 435.808 188.938L438.925 192.062C439.361 192.502 439.706 193.025 439.941 193.598C440.175 194.172 440.294 194.787 440.291 195.407C440.288 196.027 440.163 196.64 439.923 197.212C439.683 197.783 439.333 198.302 438.892 198.738L364.183 273.475C363.747 273.913 363.228 274.26 362.658 274.496C362.087 274.733 361.475 274.854 360.857 274.852Z" fill="#1C244A"/>
<path d="M360.858 268.655C360.236 268.658 359.619 268.537 359.043 268.299C358.468 268.062 357.945 267.713 357.505 267.272L219.277 129.003C218.388 128.112 217.889 126.905 217.889 125.646C217.889 124.387 218.388 123.179 219.277 122.288L290.869 50.6748C291.759 49.786 292.965 49.2869 294.223 49.2869C295.48 49.2869 296.686 49.786 297.576 50.6748L435.804 188.944C436.693 189.835 437.192 191.043 437.192 192.301C437.192 193.56 436.693 194.768 435.804 195.659L364.212 267.272C363.772 267.713 363.249 268.062 362.673 268.299C362.098 268.536 361.481 268.657 360.858 268.655ZM294.223 51.9528C293.953 51.9519 293.685 52.0044 293.436 52.1075C293.186 52.2105 292.959 52.3621 292.769 52.5533L221.177 124.167C220.985 124.358 220.833 124.585 220.73 124.835C220.626 125.085 220.573 125.353 220.573 125.624C220.573 125.894 220.626 126.162 220.73 126.412C220.833 126.662 220.985 126.89 221.177 127.081L359.405 265.35C359.799 265.721 360.32 265.928 360.861 265.928C361.403 265.928 361.923 265.721 362.318 265.35L433.91 193.736C434.101 193.545 434.253 193.318 434.357 193.068C434.46 192.818 434.513 192.55 434.513 192.279C434.513 192.009 434.46 191.741 434.357 191.491C434.253 191.241 434.101 191.014 433.91 190.822L295.682 52.5533C295.489 52.3606 295.26 52.2082 295.007 52.1051C294.755 52.0021 294.484 51.9503 294.212 51.9528H294.223Z" fill="#1C244A"/>
<path d="M348.494 247.805C348.136 247.804 347.794 247.661 347.541 247.408L233.154 132.986C233.028 132.862 232.929 132.714 232.861 132.551C232.793 132.388 232.758 132.213 232.758 132.036C232.758 131.859 232.793 131.684 232.861 131.521C232.929 131.358 233.028 131.21 233.154 131.086L299.663 64.5513C299.915 64.2993 300.256 64.1578 300.613 64.1578C300.969 64.1578 301.311 64.2993 301.563 64.5513L415.956 179.001C416.208 179.253 416.349 179.594 416.349 179.951C416.349 180.307 416.208 180.649 415.956 180.901L349.441 247.408C349.19 247.66 348.85 247.803 348.494 247.805ZM236.001 132.033L348.494 244.554L413.109 179.921L300.615 67.3993L236.001 132.033Z" fill="#1C244A"/>
<path d="M236.982 118.361C236.806 118.362 236.631 118.328 236.468 118.261C236.306 118.193 236.158 118.094 236.034 117.969C235.909 117.845 235.809 117.697 235.742 117.534C235.674 117.371 235.639 117.196 235.639 117.019C235.639 116.842 235.674 116.668 235.742 116.504C235.809 116.341 235.909 116.193 236.034 116.069L284.656 67.4323C284.91 67.1885 285.249 67.0539 285.601 67.0574C285.953 67.0609 286.289 67.2022 286.538 67.451C286.786 67.6998 286.928 68.0363 286.931 68.3881C286.935 68.74 286.8 69.0791 286.556 69.3328L237.934 117.969C237.809 118.095 237.661 118.194 237.497 118.261C237.334 118.328 237.158 118.362 236.982 118.361Z" fill="#1C244A"/>
<path d="M378.277 239.211C377.664 239.215 377.055 239.097 376.488 238.863C375.921 238.63 375.406 238.285 374.973 237.85L373.684 236.561C373.249 236.129 372.906 235.614 372.675 235.046C372.444 234.478 372.331 233.869 372.34 233.256C372.355 232.031 372.849 230.86 373.717 229.995L398.554 205.156C399.417 204.284 400.591 203.791 401.817 203.784C403.044 203.776 404.223 204.256 405.097 205.118L406.385 206.407C407.256 207.279 407.745 208.462 407.745 209.695C407.745 210.928 407.256 212.111 406.385 212.984L381.548 237.828C381.121 238.263 380.612 238.608 380.05 238.846C379.489 239.083 378.886 239.207 378.277 239.211ZM401.875 206.484C401.347 206.487 400.843 206.699 400.471 207.073L375.634 231.917C375.263 232.285 375.051 232.783 375.044 233.306C375.041 233.557 375.087 233.806 375.182 234.039C375.277 234.272 375.417 234.483 375.595 234.661L376.884 235.95C377.257 236.299 377.749 236.493 378.261 236.493C378.772 236.493 379.264 236.299 379.637 235.95L404.474 211.105C404.835 210.738 405.037 210.243 405.037 209.728C405.037 209.213 404.835 208.719 404.474 208.351L403.186 207.062C402.842 206.704 402.371 206.496 401.875 206.484Z" fill="#1C244A"/>
<path d="M312.588 180.053C304.255 180.048 296.182 177.152 289.744 171.86C283.306 166.569 278.902 159.207 277.281 151.031C275.661 142.855 276.925 134.37 280.858 127.021C284.791 119.673 291.15 113.916 298.85 110.732C306.551 107.547 315.117 107.132 323.09 109.557C331.062 111.983 337.947 117.098 342.571 124.032C347.196 130.966 349.273 139.289 348.45 147.584C347.628 155.878 343.955 163.631 338.058 169.52C334.713 172.864 330.742 175.516 326.371 177.323C322.001 179.131 317.317 180.058 312.588 180.053ZM312.544 110.604C304.82 110.608 297.337 113.291 291.37 118.195C285.402 123.099 281.318 129.921 279.815 137.499C278.312 145.076 279.482 152.941 283.126 159.753C286.769 166.565 292.662 171.902 299.798 174.856C306.935 177.809 314.875 178.196 322.264 175.95C329.654 173.704 336.037 168.965 340.326 162.54C344.614 156.115 346.542 148.401 345.783 140.713C345.023 133.024 341.621 125.838 336.158 120.377C333.059 117.273 329.377 114.813 325.325 113.136C321.273 111.459 316.929 110.598 312.544 110.604Z" fill="#1C244A"/>
<path d="M345.839 221.627C344.417 221.633 343.007 221.357 341.692 220.814C340.377 220.271 339.183 219.473 338.179 218.465L334.522 214.802C332.493 212.769 331.354 210.014 331.354 207.142C331.354 204.27 332.493 201.515 334.522 199.482L368.033 165.961C370.065 163.933 372.819 162.794 375.69 162.794C378.561 162.794 381.315 163.933 383.348 165.961L387.01 169.619C389.036 171.654 390.174 174.41 390.174 177.282C390.174 180.154 389.036 182.91 387.01 184.945L353.494 218.465C352.49 219.472 351.297 220.27 349.983 220.813C348.669 221.355 347.26 221.632 345.839 221.627ZM375.687 165.482C374.618 165.479 373.559 165.687 372.572 166.096C371.584 166.504 370.687 167.104 369.932 167.862L336.422 201.383C334.895 202.91 334.038 204.982 334.038 207.142C334.038 209.302 334.895 211.374 336.422 212.901L340.079 216.565C341.609 218.085 343.679 218.938 345.836 218.938C347.993 218.938 350.063 218.085 351.594 216.565L385.11 183.044C386.634 181.514 387.49 179.442 387.49 177.282C387.49 175.122 386.634 173.05 385.11 171.52L381.448 167.862C380.694 167.106 379.798 166.506 378.811 166.097C377.824 165.689 376.766 165.48 375.698 165.482H375.687Z" fill="#1C244A"/>
<path d="M302.108 167.372C301.932 167.372 301.756 167.338 301.593 167.271C301.429 167.204 301.281 167.105 301.156 166.981L289.591 155.412C289.339 155.16 289.197 154.818 289.197 154.462C289.197 154.106 289.339 153.764 289.591 153.512L299.112 143.987L289.591 134.463C289.339 134.21 289.197 133.869 289.197 133.512C289.197 133.156 289.339 132.814 289.591 132.562L301.156 120.994C301.408 120.742 301.749 120.6 302.106 120.6C302.462 120.6 302.803 120.742 303.055 120.994L312.577 130.518L322.06 121.027C322.312 120.775 322.654 120.633 323.01 120.633C323.367 120.633 323.708 120.775 323.96 121.027L335.553 132.623C335.803 132.874 335.943 133.215 335.943 133.57C335.943 133.925 335.803 134.266 335.553 134.518L326.064 144.009L335.586 153.534C335.838 153.786 335.979 154.128 335.979 154.484C335.979 154.84 335.838 155.182 335.586 155.434L324.021 167.003C323.769 167.255 323.427 167.396 323.071 167.396C322.715 167.396 322.373 167.255 322.121 167.003L312.577 157.456L303.055 166.981C302.931 167.105 302.783 167.203 302.621 167.27C302.458 167.338 302.284 167.372 302.108 167.372ZM312.572 154.211C312.748 154.211 312.922 154.247 313.085 154.315C313.248 154.383 313.395 154.482 313.519 154.608L323.046 164.127L332.733 154.437L323.217 144.913C323.091 144.789 322.991 144.642 322.923 144.479C322.855 144.316 322.82 144.141 322.82 143.965C322.821 143.607 322.964 143.265 323.217 143.012L332.7 133.526L323.013 123.836L313.524 133.322C313.272 133.574 312.931 133.716 312.574 133.716C312.218 133.716 311.876 133.574 311.625 133.322L302.108 123.798L292.421 133.493L301.943 143.012C302.195 143.264 302.336 143.606 302.336 143.962C302.336 144.319 302.195 144.661 301.943 144.913L292.421 154.437L302.108 164.127L311.625 154.608C311.877 154.355 312.22 154.212 312.577 154.211H312.572Z" fill="#1C244A"/>
<path d="M329.319 475.37L337.926 483.98L345.14 491.197C347.134 493.194 348.255 495.9 348.257 498.722C348.263 500.112 347.993 501.49 347.464 502.776C346.935 504.062 346.156 505.23 345.173 506.214L330.42 491.456L321.878 482.917L313.348 474.373L298.605 459.632C299.592 458.646 300.764 457.865 302.053 457.333C303.342 456.801 304.724 456.529 306.118 456.532C307.513 456.535 308.893 456.814 310.18 457.351C311.467 457.889 312.635 458.675 313.618 459.665L320.838 466.887L329.319 475.37Z" fill="white"/>
<path d="M311.365 510.538L326.102 525.285C324.106 527.278 321.4 528.397 318.58 528.397C315.759 528.397 313.054 527.278 311.057 525.285L279.617 493.764C278.622 492.786 277.831 491.62 277.29 490.334C276.749 489.048 276.469 487.667 276.467 486.272C276.454 483.445 277.561 480.727 279.545 478.714L294.288 493.455L302.884 502.032L311.365 510.538Z" fill="white"/>
<path d="M447.918 391.368L346.637 492.679L345.15 491.186L337.931 483.964L367.68 454.206L371.744 458.277L378.523 451.495L438.633 391.368L413.422 366.154L353.312 426.282L346.538 433.058L350.602 437.123L320.853 466.881L313.639 459.665L312.146 458.172L413.422 356.866L415.762 359.202L445.374 388.828L447.918 391.368Z" fill="white"/>
<path d="M454.121 380.08L445.375 388.828L415.764 359.202L424.503 350.46L433.282 359.235L433.249 359.274L444.158 370.187L444.191 370.153L454.121 380.08Z" fill="white"/>
<path d="M378.524 451.495L371.745 458.277L367.681 454.206L359.04 445.496L350.636 437.09L350.603 437.123L346.539 433.058L353.313 426.282L378.524 451.495Z" fill="white"/>
<path d="M413.422 366.15L353.312 426.277L378.523 451.495L438.632 391.368L413.422 366.15Z" fill="#79C8EF"/>
<path d="M321.905 482.917L330.441 491.456L311.365 510.538L302.862 502.032L294.287 493.455L313.364 474.373L321.905 482.917Z" fill="white"/>
<path d="M367.681 454.206L337.932 483.964L329.324 475.359L359.007 445.529L367.681 454.206Z" fill="white"/>
<path d="M367.681 454.206L359.008 445.529L359.041 445.496L367.681 454.206Z" fill="white"/>
<path d="M433.279 359.236L433.244 359.271L444.155 370.185L444.19 370.15L433.279 359.236Z" fill="white"/>
<path d="M456.863 357.472L444.191 370.154L433.281 359.235L445.953 346.56L451.405 352.019L456.863 357.472Z" fill="white"/>
<path d="M359.007 445.529L329.323 475.359L320.854 466.881L350.603 437.123L359.007 445.529Z" fill="white"/>
<path d="M350.635 437.091L350.6 437.126L359.003 445.532L359.038 445.497L350.635 437.091Z" fill="white"/>
<path d="M313.634 461.009C313.279 461.009 312.938 460.868 312.687 460.618L311.194 459.125C310.942 458.873 310.801 458.531 310.801 458.175C310.801 457.818 310.942 457.476 311.194 457.224L412.475 355.919C412.599 355.793 412.747 355.694 412.91 355.626C413.073 355.558 413.248 355.523 413.425 355.523C413.602 355.523 413.776 355.558 413.94 355.626C414.103 355.694 414.251 355.793 414.375 355.919L416.715 358.255C416.844 358.378 416.947 358.527 417.018 358.691C417.089 358.855 417.126 359.032 417.128 359.21C417.13 359.389 417.096 359.566 417.028 359.732C416.961 359.897 416.861 360.048 416.735 360.174C416.608 360.301 416.458 360.401 416.292 360.468C416.127 360.536 415.95 360.57 415.771 360.568C415.592 360.566 415.416 360.529 415.252 360.458C415.088 360.387 414.939 360.284 414.816 360.155L413.428 358.767L314.041 458.172L314.592 458.723C314.779 458.911 314.906 459.151 314.957 459.411C315.009 459.672 314.982 459.941 314.88 460.186C314.778 460.432 314.606 460.641 314.385 460.788C314.164 460.936 313.905 461.014 313.639 461.014L313.634 461.009Z" fill="#1C244A"/>
<path d="M346.637 494.023C346.46 494.023 346.285 493.988 346.121 493.92C345.958 493.852 345.809 493.752 345.685 493.626L344.198 492.139C344.069 492.015 343.966 491.867 343.895 491.702C343.824 491.538 343.787 491.362 343.785 491.183C343.783 491.004 343.817 490.827 343.885 490.661C343.952 490.496 344.052 490.346 344.179 490.219C344.305 490.093 344.455 489.993 344.621 489.925C344.786 489.858 344.964 489.824 345.142 489.826C345.321 489.827 345.497 489.865 345.662 489.936C345.826 490.006 345.974 490.109 346.098 490.238L346.648 490.789L446.013 391.368L444.421 389.776C444.178 389.522 444.043 389.183 444.046 388.831C444.05 388.479 444.191 388.143 444.44 387.894C444.689 387.645 445.025 387.504 445.377 387.5C445.728 387.497 446.068 387.631 446.321 387.875L448.865 390.42C449.117 390.672 449.259 391.014 449.259 391.37C449.259 391.727 449.117 392.069 448.865 392.321L347.585 493.626C347.461 493.752 347.314 493.852 347.151 493.92C346.988 493.988 346.814 494.023 346.637 494.023Z" fill="#1C244A"/>
<path d="M345.179 507.541C345.003 507.542 344.828 507.508 344.665 507.441C344.503 507.374 344.355 507.275 344.231 507.15L329.489 492.409C329.36 492.285 329.257 492.136 329.186 491.972C329.115 491.808 329.078 491.632 329.076 491.453C329.074 491.274 329.108 491.097 329.176 490.931C329.243 490.766 329.343 490.616 329.47 490.489C329.596 490.363 329.746 490.263 329.912 490.195C330.077 490.128 330.255 490.094 330.433 490.095C330.612 490.097 330.788 490.135 330.953 490.206C331.117 490.276 331.265 490.379 331.389 490.508L345.112 504.23C346.291 502.636 346.925 500.704 346.919 498.722C346.911 496.258 345.934 493.897 344.198 492.15L336.978 484.928C336.735 484.674 336.6 484.335 336.604 483.983C336.607 483.631 336.748 483.295 336.997 483.046C337.246 482.797 337.582 482.656 337.934 482.652C338.286 482.649 338.625 482.784 338.878 483.027L346.098 490.244C348.337 492.496 349.598 495.54 349.606 498.716C349.614 500.283 349.311 501.836 348.714 503.284C348.118 504.733 347.24 506.049 346.131 507.156C346.006 507.28 345.857 507.378 345.694 507.444C345.53 507.51 345.355 507.543 345.179 507.541Z" fill="#1C244A"/>
<path d="M313.348 475.717C312.992 475.717 312.649 475.577 312.396 475.326L297.659 460.579C297.534 460.455 297.435 460.308 297.368 460.145C297.3 459.982 297.266 459.808 297.268 459.632C297.267 459.455 297.301 459.28 297.368 459.116C297.435 458.953 297.534 458.804 297.659 458.679C299.908 456.444 302.952 455.193 306.123 455.2C309.293 455.207 312.332 456.472 314.571 458.717L321.785 465.934C322.029 466.187 322.163 466.527 322.16 466.878C322.156 467.23 322.015 467.567 321.766 467.816C321.518 468.064 321.181 468.206 320.83 468.209C320.478 468.213 320.139 468.078 319.885 467.834L312.671 460.618C311.098 459.036 309.008 458.073 306.784 457.904C304.56 457.735 302.349 458.372 300.555 459.698L314.274 473.426C314.46 473.614 314.587 473.853 314.639 474.113C314.69 474.372 314.663 474.642 314.562 474.887C314.461 475.132 314.29 475.341 314.07 475.489C313.85 475.637 313.591 475.716 313.326 475.717H313.348Z" fill="#1C244A"/>
<path d="M371.724 459.621C371.366 459.62 371.024 459.477 370.771 459.224L345.565 434.011C345.313 433.759 345.172 433.417 345.172 433.06C345.172 432.704 345.313 432.362 345.565 432.11L352.339 425.329C352.463 425.2 352.611 425.097 352.775 425.026C352.939 424.955 353.116 424.918 353.294 424.916C353.473 424.914 353.65 424.948 353.816 425.016C353.981 425.084 354.132 425.183 354.258 425.31C354.384 425.436 354.484 425.587 354.552 425.752C354.619 425.918 354.653 426.095 354.652 426.274C354.65 426.452 354.612 426.629 354.542 426.793C354.471 426.957 354.368 427.106 354.239 427.229L348.412 433.058L371.724 456.376L377.55 450.548C377.804 450.304 378.143 450.169 378.495 450.173C378.847 450.176 379.183 450.318 379.432 450.567C379.68 450.815 379.822 451.152 379.825 451.504C379.829 451.856 379.694 452.195 379.45 452.448L372.671 459.224C372.548 459.35 372.4 459.45 372.238 459.518C372.075 459.586 371.9 459.621 371.724 459.621Z" fill="#1C244A"/>
<path d="M337.932 485.286C337.755 485.287 337.58 485.253 337.416 485.186C337.253 485.119 337.104 485.02 336.979 484.895L319.907 467.818C319.655 467.566 319.514 467.224 319.514 466.867C319.514 466.511 319.655 466.169 319.907 465.917L349.645 436.17C349.902 435.911 350.25 435.763 350.615 435.757C350.792 435.754 350.969 435.786 351.134 435.851C351.3 435.916 351.451 436.013 351.578 436.137L368.65 453.258C368.901 453.51 369.041 453.851 369.041 454.206C369.041 454.561 368.901 454.901 368.65 455.153L338.912 484.9C338.784 485.028 338.63 485.128 338.462 485.195C338.293 485.261 338.113 485.292 337.932 485.286ZM322.754 466.887L337.932 482.069L365.781 454.206L350.637 439.013L322.754 466.887Z" fill="#1C244A"/>
<path d="M311.366 511.882C311.1 511.882 310.841 511.803 310.62 511.656C310.399 511.509 310.227 511.299 310.125 511.054C310.023 510.809 309.996 510.539 310.047 510.279C310.099 510.018 310.226 509.779 310.413 509.59L328.542 491.456L313.348 476.274L295.219 494.408C295.095 494.537 294.947 494.64 294.783 494.711C294.619 494.782 294.442 494.819 294.263 494.821C294.085 494.823 293.907 494.789 293.742 494.721C293.576 494.654 293.426 494.554 293.3 494.427C293.173 494.301 293.074 494.151 293.006 493.985C292.938 493.82 292.905 493.642 292.906 493.464C292.908 493.285 292.945 493.108 293.016 492.944C293.087 492.78 293.19 492.632 293.319 492.508L312.395 473.426C312.647 473.174 312.989 473.032 313.345 473.032C313.702 473.032 314.043 473.174 314.295 473.426L331.367 490.503C331.493 490.627 331.592 490.775 331.66 490.938C331.728 491.101 331.763 491.276 331.763 491.453C331.763 491.63 331.728 491.805 331.66 491.968C331.592 492.131 331.493 492.279 331.367 492.403L312.291 511.485C312.045 511.733 311.714 511.875 311.366 511.882Z" fill="#1C244A"/>
<path d="M318.579 529.741C317.005 529.746 315.446 529.438 313.992 528.836C312.538 528.233 311.218 527.348 310.109 526.232L278.652 494.711C277.533 493.609 276.644 492.295 276.037 490.846C275.429 489.398 275.114 487.843 275.111 486.272C275.107 483.088 276.355 480.031 278.586 477.761C278.843 477.518 279.183 477.383 279.536 477.383C279.89 477.383 280.23 477.518 280.486 477.761L327.043 524.332C327.295 524.584 327.437 524.926 327.437 525.282C327.437 525.638 327.295 525.98 327.043 526.232C325.935 527.347 324.616 528.231 323.164 528.833C321.713 529.435 320.156 529.744 318.584 529.741H318.579ZM279.622 480.686C278.439 482.308 277.802 484.264 277.804 486.272C277.808 487.49 278.054 488.695 278.526 489.817C278.999 490.94 279.689 491.957 280.558 492.811L312.003 524.332C312.864 525.198 313.888 525.884 315.016 526.351C316.143 526.818 317.353 527.057 318.573 527.053C320.572 527.054 322.517 526.409 324.119 525.213L310.395 511.491L279.622 480.686Z" fill="#1C244A"/>
<path d="M378.524 452.839C378.167 452.84 377.825 452.699 377.571 452.448L352.36 427.229C352.109 426.977 351.969 426.635 351.969 426.279C351.969 425.923 352.109 425.582 352.36 425.329L412.475 365.196C412.727 364.944 413.069 364.802 413.425 364.802C413.782 364.802 414.123 364.944 414.375 365.196L439.587 390.415C439.837 390.667 439.978 391.009 439.978 391.365C439.978 391.721 439.837 392.062 439.587 392.315L379.471 452.448C379.219 452.698 378.879 452.838 378.524 452.839ZM355.202 426.282L378.513 449.595L436.706 391.368L413.4 368.055L355.202 426.282Z" fill="#1C244A"/>
<path d="M445.374 390.172C445.017 390.172 444.674 390.029 444.421 389.776L414.81 360.155C414.684 360.031 414.585 359.883 414.517 359.72C414.449 359.556 414.414 359.382 414.414 359.205C414.414 359.028 414.449 358.853 414.517 358.69C414.585 358.527 414.684 358.379 414.81 358.255L423.549 349.512C423.674 349.387 423.822 349.287 423.985 349.219C424.148 349.151 424.323 349.116 424.499 349.116C424.676 349.116 424.851 349.151 425.014 349.219C425.177 349.287 425.325 349.387 425.449 349.512L455.067 379.133C455.318 379.385 455.46 379.727 455.46 380.083C455.46 380.439 455.318 380.781 455.067 381.033L446.321 389.776C446.197 389.901 446.05 390.001 445.887 390.069C445.725 390.137 445.55 390.172 445.374 390.172ZM417.657 359.202L445.374 386.928L452.214 380.069L424.502 352.349L417.657 359.202Z" fill="#1C244A"/>
<path d="M444.153 371.531C443.797 371.529 443.457 371.387 443.206 371.134L432.302 360.238C432.175 360.113 432.074 359.964 432.005 359.8C431.936 359.636 431.9 359.46 431.9 359.282C431.9 359.104 431.936 358.928 432.005 358.764C432.074 358.6 432.175 358.451 432.302 358.326L444.968 345.656C445.225 345.415 445.565 345.28 445.918 345.28C446.271 345.28 446.611 345.415 446.868 345.656L457.777 356.569C458.024 356.812 458.169 357.138 458.185 357.483C458.183 357.839 458.041 358.18 457.788 358.431L445.122 371.101C444.855 371.347 444.514 371.498 444.153 371.531ZM435.143 359.274L444.153 368.286L454.963 357.483L445.948 348.466L435.143 359.274Z" fill="#1C244A"/>
<path d="M451.404 353.363C451.139 353.362 450.881 353.282 450.661 353.135C450.441 352.987 450.27 352.777 450.168 352.532C450.067 352.288 450.041 352.018 450.092 351.758C450.143 351.498 450.27 351.259 450.457 351.071L502.703 298.804C502.827 298.676 502.975 298.573 503.139 298.502C503.303 298.431 503.48 298.394 503.658 298.392C503.837 298.39 504.014 298.424 504.18 298.492C504.345 298.559 504.495 298.659 504.622 298.785C504.748 298.912 504.848 299.062 504.916 299.228C504.983 299.393 505.017 299.57 505.015 299.749C505.014 299.928 504.976 300.105 504.905 300.269C504.834 300.433 504.732 300.581 504.603 300.705L452.351 352.972C452.1 353.222 451.759 353.363 451.404 353.363Z" fill="#1C244A"/>
<path d="M330.277 476.307L329.258 475.425L328.322 474.461L358.055 444.582L359.977 446.46L359.944 446.493L330.277 476.307Z" fill="#1C244A"/>
<path d="M302.928 503.31C302.752 503.311 302.578 503.276 302.415 503.208C302.252 503.139 302.105 503.04 301.981 502.914C301.729 502.662 301.588 502.32 301.588 501.964C301.588 501.607 301.729 501.265 301.981 501.013L320.953 481.981C321.075 481.844 321.223 481.733 321.389 481.656C321.554 481.578 321.734 481.536 321.917 481.53C322.1 481.525 322.282 481.556 322.452 481.624C322.622 481.691 322.777 481.793 322.906 481.922C323.036 482.051 323.138 482.205 323.206 482.375C323.273 482.545 323.306 482.727 323.301 482.91C323.296 483.093 323.254 483.273 323.177 483.439C323.1 483.605 322.99 483.754 322.853 483.876L303.881 502.914C303.629 503.167 303.286 503.31 302.928 503.31Z" fill="#1C244A"/>
<path d="M380.148 443.69C379.883 443.689 379.623 443.611 379.402 443.463C379.182 443.316 379.01 443.107 378.908 442.862C378.806 442.616 378.779 442.347 378.83 442.086C378.881 441.826 379.008 441.586 379.195 441.398L430.868 389.709C431.122 389.466 431.461 389.331 431.813 389.335C432.165 389.338 432.501 389.479 432.75 389.728C432.998 389.977 433.14 390.313 433.143 390.665C433.147 391.017 433.012 391.356 432.768 391.61L381.084 443.293C380.962 443.417 380.816 443.516 380.656 443.584C380.495 443.653 380.323 443.688 380.148 443.69Z" fill="#1C244A"/>
<path d="M376.014 439.486C375.749 439.485 375.49 439.406 375.27 439.258C375.05 439.11 374.879 438.901 374.778 438.656C374.677 438.411 374.65 438.142 374.701 437.882C374.753 437.622 374.88 437.383 375.066 437.195L389.633 422.619C389.886 422.375 390.225 422.24 390.577 422.244C390.929 422.247 391.265 422.389 391.514 422.637C391.763 422.886 391.904 423.223 391.907 423.574C391.911 423.926 391.776 424.265 391.533 424.519L376.966 439.095C376.713 439.346 376.37 439.487 376.014 439.486Z" fill="#1C244A"/>
<path d="M445.115 39.9052C453.975 39.9139 462.634 42.5501 469.997 47.4804C477.359 52.4107 483.095 59.4138 486.48 67.6045C489.864 75.7952 490.745 84.8057 489.01 93.497C487.276 102.188 483.005 110.17 476.736 116.434C470.468 122.697 462.483 126.961 453.793 128.686C445.102 130.411 436.095 129.52 427.911 126.126C419.726 122.731 412.732 116.986 407.811 109.616C402.89 102.246 400.265 93.5815 400.266 84.7187C400.263 78.829 401.422 72.9965 403.676 67.5553C405.93 62.1141 409.234 57.1708 413.4 53.0084C417.566 48.846 422.511 45.5462 427.953 43.2978C433.395 41.0494 439.227 39.8965 445.115 39.9052ZM472.331 94.4416V74.9903H454.797V57.4946H435.39V74.9903H417.85V94.4527H435.39V111.992H454.797V94.4527L472.331 94.4416Z" fill="white"/>
<path d="M472.337 74.9903V94.4471H454.797V111.992H435.39V94.4471H417.855V74.9903H435.39V57.4946H454.797V74.9903H472.337Z" fill="#79C8EF"/>
<path d="M445.117 130.882C435.987 130.892 427.06 128.193 419.464 123.126C411.868 118.06 405.946 110.853 402.445 102.419C398.945 93.9846 398.024 84.7012 399.799 75.7432C401.574 66.7851 405.965 58.555 412.417 52.094C418.869 45.633 427.092 41.2315 436.046 39.4463C444.999 37.661 454.281 38.5723 462.717 42.0648C471.152 45.5573 478.363 51.4742 483.436 59.0667C488.509 66.6593 491.217 75.5864 491.217 84.7187C491.198 96.9476 486.336 108.671 477.697 117.323C469.057 125.974 457.342 130.85 445.117 130.882ZM445.117 41.2439C436.519 41.234 428.111 43.7755 420.957 48.5466C413.803 53.3177 408.225 60.1041 404.928 68.0472C401.631 75.9904 400.763 84.7333 402.435 93.1698C404.106 101.606 408.241 109.358 414.318 115.443C420.394 121.528 428.138 125.673 436.57 127.355C445.002 129.036 453.744 128.178 461.688 124.889C469.633 121.6 476.423 116.028 481.201 108.877C485.979 101.727 488.529 93.3194 488.529 84.7187C488.51 73.2029 483.932 62.1633 475.796 54.0157C467.66 45.8681 456.629 41.2759 445.117 41.2439Z" fill="#1C244A"/>
<path d="M454.797 113.337H435.39C435.033 113.337 434.692 113.195 434.44 112.943C434.188 112.691 434.046 112.349 434.046 111.992V95.8188H417.85C417.493 95.8188 417.151 95.6772 416.899 95.4251C416.647 95.1731 416.506 94.8312 416.506 94.4747V74.9903C416.506 74.6338 416.647 74.2919 416.899 74.0399C417.151 73.7878 417.493 73.6462 417.85 73.6462H434.046V57.4946C434.046 57.1381 434.188 56.7962 434.44 56.5442C434.692 56.2921 435.033 56.1505 435.39 56.1505H454.797C454.973 56.1505 455.148 56.1852 455.311 56.2528C455.474 56.3203 455.622 56.4193 455.747 56.5442C455.872 56.669 455.971 56.8171 456.038 56.9802C456.106 57.1433 456.14 57.3181 456.14 57.4946V73.6462H472.331C472.688 73.6462 473.029 73.7878 473.281 74.0399C473.533 74.2919 473.675 74.6338 473.675 74.9903V94.4471C473.675 94.8036 473.533 95.1455 473.281 95.3976C473.029 95.6497 472.688 95.7913 472.331 95.7913H456.14V111.992C456.14 112.169 456.106 112.344 456.038 112.507C455.971 112.67 455.872 112.818 455.747 112.943C455.622 113.068 455.474 113.167 455.311 113.234C455.148 113.302 454.973 113.337 454.797 113.337ZM436.733 110.648H453.453V94.4471C453.453 94.2709 453.488 94.0964 453.555 93.9336C453.623 93.7708 453.722 93.623 453.847 93.4986C453.972 93.3743 454.12 93.2758 454.283 93.2088C454.446 93.1419 454.62 93.1078 454.797 93.1085H470.988V76.3344H454.797C454.44 76.3344 454.098 76.1928 453.847 75.9408C453.595 75.6887 453.453 75.3468 453.453 74.9903V58.8387H436.733V74.9903C436.733 75.3468 436.592 75.6887 436.34 75.9408C436.088 76.1928 435.746 76.3344 435.39 76.3344H419.193V93.1085H435.39C435.745 93.1085 436.086 93.2494 436.338 93.5003C436.59 93.7511 436.732 94.0916 436.733 94.4471V110.648Z" fill="#1C244A"/>
<path d="M260.442 523.924V539.216H246.642V553.021H231.359V539.216H217.559V523.924H231.359V510.119H246.642V523.924H260.442Z" fill="#79C8EF"/>
<path d="M246.641 554.365H231.353C230.997 554.365 230.655 554.224 230.403 553.972C230.151 553.72 230.01 553.378 230.01 553.021V540.56H217.553C217.196 540.56 216.855 540.419 216.603 540.167C216.351 539.915 216.209 539.573 216.209 539.216V523.924C216.21 523.569 216.353 523.228 216.605 522.977C216.856 522.726 217.197 522.586 217.553 522.586H230.01V510.125C230.01 509.768 230.151 509.426 230.403 509.174C230.655 508.922 230.997 508.781 231.353 508.781H246.641C246.998 508.781 247.339 508.922 247.591 509.174C247.843 509.426 247.985 509.768 247.985 510.125V522.586H260.442C260.797 522.586 261.138 522.726 261.39 522.977C261.642 523.228 261.784 523.569 261.786 523.924V539.216C261.786 539.393 261.751 539.568 261.683 539.731C261.616 539.894 261.517 540.042 261.392 540.167C261.267 540.292 261.119 540.391 260.956 540.458C260.793 540.526 260.618 540.56 260.442 540.56H247.985V553.043C247.979 553.396 247.835 553.732 247.584 553.979C247.332 554.227 246.994 554.365 246.641 554.365ZM232.697 551.677H245.297V539.216C245.297 539.04 245.332 538.865 245.4 538.702C245.467 538.539 245.566 538.391 245.691 538.266C245.816 538.141 245.964 538.042 246.127 537.975C246.29 537.907 246.465 537.872 246.641 537.872H259.098V525.268H246.641C246.465 525.268 246.29 525.233 246.127 525.166C245.964 525.098 245.816 524.999 245.691 524.875C245.566 524.75 245.467 524.602 245.4 524.438C245.332 524.275 245.297 524.101 245.297 523.924V511.469H232.697V523.924C232.697 524.101 232.662 524.275 232.595 524.438C232.527 524.602 232.428 524.75 232.304 524.875C232.179 524.999 232.031 525.098 231.868 525.166C231.705 525.233 231.53 525.268 231.353 525.268H218.896V537.872H231.353C231.71 537.872 232.052 538.014 232.304 538.266C232.556 538.518 232.697 538.86 232.697 539.216V551.677Z" fill="#1C244A"/>
<path d="M52.9785 110.059C52.9785 110.059 125.121 127.307 97.674 154.762C70.2267 182.218 52.9785 110.059 52.9785 110.059Z" fill="#79C8EF"/>
<path d="M1.33789 73.0457C1.33789 73.0457 63.4468 87.9193 39.8324 111.546C16.218 135.173 1.33789 73.0457 1.33789 73.0457Z" fill="#79C8EF"/>
<path d="M24.0449 127.345C24.0449 127.345 65.4858 137.261 49.73 153.032C33.9742 168.804 24.0449 127.345 24.0449 127.345Z" fill="#79C8EF"/>
<path d="M29.2153 118.256C28.1146 118.253 27.0195 118.099 25.9606 117.799C9.7532 113.221 0.424203 74.9848 0.0331995 73.3597C-0.0186694 73.1355 -0.0130615 72.9018 0.0495184 72.6803C0.112098 72.4587 0.229618 72.2566 0.391157 72.0927C0.553258 71.9304 0.754511 71.8126 0.975445 71.7508C1.19638 71.6891 1.42952 71.6854 1.65228 71.7402C3.27688 72.1258 41.5016 81.4576 46.078 97.6753C47.4713 102.606 45.687 107.591 40.7801 112.499C36.9527 116.328 33.0757 118.256 29.2153 118.256ZM3.22179 74.9242C5.42463 83.1212 14.0598 111.645 26.693 115.21C30.6746 116.311 34.6563 114.824 38.8802 110.599C43.1041 106.374 44.6021 102.385 43.5006 98.4079C39.9265 85.7654 11.4108 77.1553 3.22179 74.9242Z" fill="#1C244A"/>
<path d="M42.637 157.968C41.8566 157.966 41.0802 157.857 40.3295 157.643C29.2603 154.514 22.9987 128.75 22.7344 127.654C22.6823 127.43 22.6882 127.197 22.7514 126.976C22.8147 126.755 22.9333 126.554 23.096 126.392C23.2587 126.229 23.4601 126.111 23.6811 126.049C23.9021 125.986 24.1355 125.981 24.359 126.034C25.4604 126.299 51.2005 132.59 54.323 143.662C55.2978 147.116 54.0697 150.592 50.6774 153.991C48.0284 156.635 45.33 157.968 42.637 157.968ZM25.9175 129.218C28.1534 137.338 33.8477 153.016 41.062 155.054C43.5512 155.759 46.0734 154.79 48.7719 152.085C51.4704 149.38 52.4341 146.874 51.7347 144.373C49.7026 137.173 34.0294 131.46 25.9175 129.218Z" fill="#1C244A"/>
<path d="M85.3547 162.342C84.096 162.333 82.8448 162.147 81.6375 161.791C62.9134 156.508 52.147 112.213 51.7009 110.345C51.6474 110.122 51.6522 109.889 51.7149 109.668C51.7776 109.447 51.8961 109.246 52.0589 109.084C52.2216 108.922 52.4227 108.805 52.6433 108.742C52.8638 108.679 53.0967 108.674 53.32 108.726C55.2034 109.177 99.4639 119.964 104.751 138.671C106.348 144.323 104.294 150.047 98.6489 155.693C94.2157 160.122 89.7604 162.342 85.3547 162.342ZM54.8785 111.932C57.3072 120.955 67.3961 154.999 82.3699 159.23C87.0069 160.541 91.8476 158.717 96.7489 153.815C101.65 148.912 103.473 144.064 102.168 139.426C97.9109 124.464 63.8771 114.361 54.851 111.932H54.8785Z" fill="#1C244A"/>
<path d="M86.5559 154.162C83.6197 154.136 80.7555 153.249 78.3175 151.612C75.8794 149.975 73.9743 147.659 72.8378 144.951C72.7071 144.619 72.7134 144.249 72.8554 143.923C72.9974 143.596 73.2635 143.338 73.595 143.208C73.9266 143.077 74.2965 143.083 74.6233 143.225C74.9502 143.367 75.2073 143.633 75.338 143.965C77.1443 148.537 82.2494 151.771 87.2223 151.457C87.5763 151.439 87.9234 151.56 88.189 151.795C88.4546 152.03 88.6177 152.359 88.6431 152.713C88.6551 152.889 88.632 153.066 88.5753 153.234C88.5185 153.401 88.4292 153.555 88.3124 153.688C88.1957 153.821 88.0539 153.929 87.8951 154.006C87.7364 154.084 87.5639 154.129 87.3875 154.14C87.1067 154.156 86.8313 154.162 86.5559 154.162Z" fill="#1C244A"/>
<path d="M29.7656 111.039C27.6995 111.038 25.6682 110.507 23.8647 109.499C22.0613 108.49 20.5456 107.037 19.4618 105.277C19.299 104.971 19.261 104.613 19.3558 104.279C19.4506 103.945 19.6709 103.661 19.9705 103.486C20.2701 103.311 20.6258 103.258 20.9632 103.34C21.3005 103.421 21.5933 103.63 21.7803 103.922C23.851 107.453 28.6477 109.238 32.4806 107.905C32.8162 107.792 33.1829 107.816 33.5007 107.972C33.8186 108.128 34.062 108.404 34.1781 108.738C34.2942 109.073 34.2736 109.44 34.1207 109.759C33.9679 110.079 33.6951 110.325 33.3617 110.444C32.2044 110.841 30.989 111.042 29.7656 111.039Z" fill="#1C244A"/>
<path d="M444.928 279.607L458.867 293.549C461.68 296.698 463.182 300.804 463.064 305.025C462.946 309.247 461.217 313.263 458.232 316.249C455.246 319.235 451.232 320.965 447.011 321.083C442.791 321.201 438.686 319.699 435.539 316.884L421.578 302.914C421.578 302.914 435.495 299.306 444.708 279.821L444.928 279.607Z" fill="white"/>
<path d="M444.907 279.579L444.692 279.794C435.473 299.278 421.562 302.886 421.562 302.886L407.596 288.922C404.783 285.773 403.281 281.667 403.399 277.446C403.517 273.224 405.246 269.208 408.232 266.222C411.217 263.236 415.232 261.506 419.452 261.388C423.672 261.27 427.777 262.772 430.924 265.587L444.907 279.579Z" fill="#79C8EF"/>
<path d="M447.17 323.043C444.83 323.045 442.513 322.586 440.351 321.692C438.189 320.797 436.224 319.486 434.569 317.832L420.603 303.867C420.36 303.613 420.225 303.274 420.229 302.922C420.232 302.57 420.373 302.234 420.622 301.985C420.871 301.736 421.207 301.595 421.559 301.592C421.911 301.588 422.25 301.723 422.503 301.966L436.469 315.937C439.326 318.711 443.158 320.249 447.139 320.22C451.12 320.19 454.93 318.595 457.745 315.778C460.559 312.962 462.153 309.151 462.182 305.169C462.21 301.187 460.671 297.353 457.897 294.497L443.959 280.554L445.831 278.631L459.836 292.596C462.329 295.095 464.025 298.278 464.71 301.742C465.394 305.206 465.035 308.795 463.679 312.055C462.322 315.315 460.03 318.099 457.091 320.055C454.152 322.011 450.699 323.051 447.17 323.043Z" fill="#1C244A"/>
<path d="M421.579 304.258C421.402 304.259 421.227 304.225 421.063 304.158C420.899 304.091 420.751 303.992 420.626 303.867L406.665 289.897C404.164 287.402 402.46 284.221 401.769 280.757C401.077 277.292 401.43 273.7 402.782 270.437C404.134 267.173 406.425 264.384 409.363 262.425C412.302 260.465 415.756 259.422 419.288 259.428C424.013 259.43 428.545 261.304 431.893 264.639L445.854 278.609C445.983 278.733 446.086 278.882 446.156 279.046C446.227 279.21 446.265 279.387 446.266 279.565C446.268 279.744 446.234 279.921 446.167 280.087C446.099 280.252 445.999 280.403 445.873 280.529C445.747 280.655 445.596 280.755 445.431 280.823C445.265 280.891 445.088 280.924 444.909 280.923C444.731 280.921 444.554 280.883 444.39 280.813C444.226 280.742 444.078 280.639 443.954 280.51L429.993 266.589C427.152 263.747 423.298 262.15 419.279 262.15C415.261 262.15 411.407 263.747 408.565 266.589C405.724 269.432 404.127 273.287 404.127 277.307C404.127 281.326 405.724 285.181 408.565 288.024L422.526 301.994C422.651 302.118 422.751 302.266 422.819 302.43C422.887 302.593 422.922 302.768 422.922 302.944C422.922 303.121 422.887 303.296 422.819 303.459C422.751 303.622 422.651 303.77 422.526 303.895C422.4 304.015 422.251 304.108 422.088 304.171C421.926 304.233 421.753 304.263 421.579 304.258Z" fill="#1C244A"/>
<path d="M411.925 287.236C411.586 287.236 411.26 287.108 411.011 286.878C409.173 285.128 407.849 282.909 407.18 280.46C406.511 278.012 406.524 275.427 407.217 272.985C407.318 272.643 407.551 272.356 407.865 272.186C408.178 272.016 408.546 271.977 408.888 272.079C409.23 272.18 409.517 272.414 409.687 272.727C409.857 273.041 409.895 273.409 409.794 273.751C409.238 275.711 409.228 277.786 409.765 279.752C410.302 281.718 411.365 283.5 412.839 284.906C413.099 285.15 413.251 285.487 413.264 285.843C413.276 286.199 413.147 286.545 412.905 286.806C412.781 286.942 412.629 287.051 412.461 287.125C412.292 287.198 412.109 287.236 411.925 287.236Z" fill="#1C244A"/>
<path d="M421.578 304.258C421.252 304.258 420.936 304.139 420.691 303.923C420.446 303.708 420.287 303.41 420.245 303.086C420.204 302.762 420.281 302.434 420.464 302.163C420.646 301.892 420.921 301.697 421.237 301.614C421.369 301.581 434.691 297.862 443.502 279.243C443.571 279.073 443.673 278.919 443.803 278.79C443.934 278.661 444.089 278.56 444.26 278.493C444.431 278.427 444.613 278.396 444.796 278.402C444.979 278.409 445.159 278.453 445.325 278.531C445.49 278.61 445.638 278.722 445.759 278.86C445.88 278.998 445.971 279.159 446.027 279.333C446.083 279.508 446.103 279.692 446.086 279.874C446.068 280.057 446.014 280.234 445.925 280.394C436.563 300.226 422.509 304.082 421.914 304.214C421.805 304.245 421.692 304.26 421.578 304.258Z" fill="#1C244A"/>
<path d="M458.784 311.43C458.552 311.431 458.324 311.371 458.124 311.254C457.97 311.167 457.836 311.05 457.727 310.91C457.619 310.771 457.539 310.611 457.493 310.441C457.446 310.27 457.434 310.093 457.456 309.917C457.478 309.742 457.535 309.573 457.622 309.42C457.622 309.387 459.588 305.839 458.366 302.214C457.509 299.461 455.848 297.026 453.597 295.224C453.319 295 453.14 294.675 453.102 294.32C453.063 293.966 453.167 293.61 453.39 293.331C453.614 293.053 453.939 292.875 454.293 292.836C454.648 292.798 455.004 292.901 455.282 293.125C457.94 295.258 459.903 298.135 460.921 301.388C462.529 306.142 460.062 310.566 459.957 310.753C459.839 310.96 459.669 311.131 459.462 311.25C459.256 311.369 459.022 311.432 458.784 311.43Z" fill="#1C244A"/>
<path d="M179.834 165.229L359.283 344.725C360.303 345.757 360.876 347.149 360.876 348.601C360.876 350.052 360.303 351.445 359.283 352.476L230.681 481.088C229.65 482.109 228.258 482.682 226.807 482.682C225.356 482.682 223.964 482.109 222.932 481.088L43.5005 301.586C42.992 301.078 42.5886 300.474 42.3134 299.81C42.0382 299.145 41.8965 298.433 41.8965 297.714C41.8965 296.994 42.0382 296.282 42.3134 295.618C42.5886 294.953 42.992 294.35 43.5005 293.841L66.8506 270.446L72.231 280.235L74.5165 277.948L156.225 196.237L158.511 193.951L148.724 188.569L172.086 165.229C172.594 164.719 173.198 164.315 173.863 164.039C174.527 163.763 175.24 163.622 175.96 163.622C176.679 163.622 177.392 163.763 178.057 164.039C178.722 164.315 179.326 164.719 179.834 165.229ZM348.681 349.22L326.212 326.745L182.973 183.408L61.7125 304.726L216.082 459.147L227.437 470.484L348.681 349.22Z" fill="#79C8EF"/>
<path d="M326.213 326.712L348.682 349.187L227.421 470.484L216.082 459.147L225.174 450.047L246.542 428.678L243.447 425.577L252.66 416.361L288.583 380.427L280.548 372.39L316.471 336.457L326.213 326.712Z" fill="white"/>
<path d="M280.548 372.39L288.566 380.427L252.644 416.361L243.43 425.577L225.163 407.304L203.796 428.678L225.163 450.052L216.071 459.147L61.7129 304.726L182.973 183.408L326.213 326.69L316.465 336.44L280.548 372.39ZM232.675 252.647L182.28 202.231L80.5086 304.049L130.904 354.465L232.675 252.647ZM214.369 396.661L193.002 375.288L171.64 396.661L193.002 418.03L214.369 396.661ZM182.28 364.645L160.912 343.271L139.55 364.645L160.912 386.013L182.28 364.645Z" fill="white"/>
<path d="M182.279 202.231L232.674 252.647L130.903 354.448L80.5078 304.049L182.279 202.231ZM174.613 270.181L164.54 260.106L155.492 269.162L146.356 260.028L136.245 270.143L145.381 279.259L136.284 288.354L146.356 298.43L155.448 289.335L164.54 298.43L174.657 288.316L165.565 279.259L174.613 270.181Z" fill="#79C8EF"/>
<path d="M148.725 188.569L158.511 193.951L156.225 196.237L74.5168 277.97L72.2313 280.257L66.8509 270.445L65.1988 267.388C63.711 264.687 63.1412 261.575 63.5752 258.522C64.0093 255.469 65.4238 252.639 67.6054 250.46L72.8647 245.199C70.2244 242.51 68.7451 238.892 68.7451 235.124C68.7451 231.355 70.2244 227.737 72.8647 225.048L102.052 195.852C104.727 193.187 108.349 191.691 112.125 191.691C115.9 191.691 119.522 193.187 122.197 195.852L128.806 189.241C130.993 187.073 133.82 185.668 136.869 185.234C139.917 184.801 143.024 185.362 145.729 186.834L148.725 188.569ZM115.082 207.299L113.248 205.443C112.358 204.562 111.157 204.068 109.905 204.068C108.654 204.068 107.452 204.562 106.563 205.443L83.7687 228.243C82.8737 229.132 82.3672 230.339 82.36 231.601C82.3528 232.863 82.8454 234.076 83.7301 234.975L85.564 236.809C86.4622 237.716 87.6833 238.229 88.9594 238.236C90.2355 238.244 91.4623 237.744 92.3708 236.848L115.165 214.047C116.043 213.137 116.527 211.918 116.514 210.653C116.501 209.388 115.99 208.179 115.093 207.288L115.082 207.299Z" fill="white"/>
<path d="M164.547 260.106L174.62 270.181L165.566 279.237L174.658 288.332L164.547 298.446L155.455 289.351L146.363 298.446L136.29 288.371L145.383 279.276L136.252 270.143L146.363 260.023L155.494 269.162L164.547 260.106Z" fill="white"/>
<path d="M243.447 425.577L246.542 428.678L225.174 450.047L203.812 428.678L225.174 407.304L243.447 425.577Z" fill="#79C8EF"/>
<path d="M193.008 375.287L171.641 396.66L193.008 418.034L214.374 396.66L193.008 375.287Z" fill="#79C8EF"/>
<path d="M160.918 343.268L139.551 364.641L160.918 386.015L182.285 364.641L160.918 343.268Z" fill="#79C8EF"/>
<path d="M66.8503 271.812C66.6092 271.812 66.3725 271.747 66.1652 271.623C65.9578 271.5 65.7874 271.324 65.6718 271.112L64.0197 268.055C62.3902 265.098 61.7637 261.692 62.2344 258.348C62.7051 255.005 64.2475 251.904 66.63 249.512L70.9861 245.155C68.5059 242.155 67.2259 238.342 67.3938 234.453C67.5616 230.564 69.1654 226.875 71.8948 224.101L101.082 194.904C103.845 192.151 107.537 190.531 111.433 190.363C115.329 190.195 119.147 191.49 122.136 193.995L127.83 188.294C130.225 185.927 133.317 184.394 136.65 183.92C139.983 183.446 143.38 184.056 146.34 185.661L149.38 187.385C149.539 187.469 149.681 187.584 149.795 187.723C149.91 187.863 149.995 188.024 150.046 188.197C150.097 188.37 150.112 188.551 150.091 188.731C150.07 188.91 150.014 189.083 149.925 189.24C149.836 189.397 149.716 189.534 149.572 189.644C149.429 189.753 149.265 189.833 149.09 189.878C148.916 189.923 148.734 189.932 148.555 189.905C148.377 189.878 148.206 189.815 148.052 189.721L145.034 188.007C142.584 186.687 139.774 186.188 137.019 186.585C134.264 186.982 131.709 188.253 129.73 190.211L123.122 196.821C122.864 197.063 122.525 197.198 122.172 197.198C121.819 197.198 121.479 197.063 121.222 196.821C118.799 194.409 115.52 193.054 112.102 193.054C108.684 193.054 105.405 194.409 102.982 196.821L73.7947 226.018C71.408 228.454 70.0712 231.729 70.0712 235.14C70.0712 238.551 71.408 241.826 73.7947 244.263C73.9201 244.387 74.0196 244.535 74.0875 244.698C74.1554 244.861 74.1904 245.036 74.1904 245.213C74.1904 245.389 74.1554 245.564 74.0875 245.727C74.0196 245.891 73.9201 246.039 73.7947 246.163L68.5355 251.424C66.5633 253.398 65.2829 255.958 64.8858 258.72C64.4887 261.482 64.9963 264.299 66.3326 266.749L67.9848 269.817C68.1527 270.132 68.1891 270.501 68.0858 270.843C67.9826 271.185 67.7483 271.472 67.4341 271.641C67.2556 271.743 67.0556 271.802 66.8503 271.812Z" fill="#1C244A"/>
<path d="M226.804 484.035C225.909 484.036 225.022 483.861 224.194 483.518C223.366 483.176 222.614 482.674 221.98 482.041L42.5373 302.539C41.9032 301.906 41.4002 301.154 41.057 300.326C40.7138 299.498 40.5371 298.61 40.5371 297.714C40.5371 296.817 40.7138 295.93 41.057 295.102C41.4002 294.274 41.9032 293.521 42.5373 292.888L65.8984 269.52C66.0458 269.373 66.2254 269.262 66.423 269.196C66.6205 269.131 66.8307 269.112 67.0368 269.141C67.2429 269.17 67.4394 269.247 67.6108 269.366C67.7821 269.484 67.9236 269.641 68.0241 269.823L72.5454 278.042L156.297 194.271L148.075 189.748C147.893 189.647 147.736 189.504 147.618 189.332C147.499 189.16 147.422 188.963 147.392 188.757C147.363 188.551 147.382 188.341 147.448 188.144C147.514 187.947 147.625 187.768 147.772 187.622L171.139 164.248C171.768 163.615 172.516 163.112 173.34 162.769C174.165 162.426 175.048 162.249 175.941 162.249C176.837 162.246 177.724 162.422 178.551 162.765C179.378 163.108 180.129 163.612 180.76 164.248L360.208 343.75C360.842 344.383 361.345 345.135 361.688 345.962C362.031 346.79 362.208 347.677 362.208 348.573C362.208 349.469 362.031 350.356 361.688 351.184C361.345 352.011 360.842 352.763 360.208 353.396L231.629 482.041C230.995 482.675 230.243 483.177 229.415 483.519C228.587 483.861 227.7 484.037 226.804 484.035ZM66.5482 272.682L44.4373 294.789C43.6618 295.564 43.2261 296.617 43.2261 297.714C43.2261 298.811 43.6618 299.863 44.4373 300.639L223.88 480.141C224.657 480.914 225.709 481.348 226.804 481.348C227.9 481.348 228.952 480.914 229.729 480.141L358.33 351.501C359.104 350.726 359.539 349.676 359.542 348.581C359.546 348.037 359.44 347.497 359.232 346.993C359.024 346.49 358.717 346.034 358.33 345.651L178.882 166.149C178.498 165.765 178.043 165.46 177.542 165.252C177.04 165.045 176.503 164.938 175.96 164.938C175.418 164.938 174.88 165.045 174.379 165.252C173.878 165.46 173.422 165.765 173.039 166.149L150.939 188.255L159.15 192.772C159.332 192.873 159.489 193.014 159.607 193.186C159.725 193.357 159.802 193.554 159.832 193.76C159.861 193.966 159.842 194.176 159.776 194.374C159.711 194.572 159.6 194.751 159.453 194.899L73.1788 281.204C73.0321 281.355 72.8522 281.469 72.6533 281.538C72.4545 281.606 72.2424 281.627 72.034 281.599C71.8256 281.57 71.6268 281.493 71.4535 281.374C71.2803 281.255 71.1374 281.097 71.0365 280.912L66.5482 272.682Z" fill="#1C244A"/>
<path d="M227.438 471.828C227.082 471.826 226.741 471.684 226.49 471.431L60.7602 305.701C60.6356 305.576 60.5369 305.427 60.4698 305.264C60.4027 305.1 60.3685 304.925 60.3692 304.748C60.368 304.572 60.402 304.398 60.4691 304.235C60.5363 304.072 60.6352 303.925 60.7602 303.801L182.026 182.504C182.15 182.378 182.297 182.278 182.46 182.21C182.622 182.142 182.797 182.106 182.973 182.106C183.15 182.106 183.324 182.142 183.487 182.21C183.65 182.278 183.797 182.378 183.921 182.504L349.629 348.256C349.881 348.508 350.022 348.85 350.022 349.207C350.022 349.563 349.881 349.905 349.629 350.157L228.368 471.431C228.121 471.679 227.788 471.822 227.438 471.828ZM63.6129 304.726L227.438 468.583L346.804 349.187L182.973 185.33L63.6129 304.726Z" fill="#1C244A"/>
<path d="M130.904 355.792C130.728 355.793 130.553 355.758 130.391 355.69C130.228 355.622 130.08 355.522 129.957 355.396L79.5617 304.985C79.4363 304.861 79.3368 304.713 79.2689 304.55C79.201 304.387 79.166 304.212 79.166 304.035C79.166 303.858 79.201 303.683 79.2689 303.52C79.3368 303.357 79.4363 303.209 79.5617 303.085L181.333 201.283C181.585 201.031 181.926 200.89 182.283 200.89C182.639 200.89 182.981 201.031 183.233 201.283L233.628 251.716C233.879 251.969 234.019 252.31 234.019 252.666C234.019 253.022 233.879 253.364 233.628 253.616L131.857 355.418C131.601 355.663 131.259 355.797 130.904 355.792ZM82.4089 304.01L130.904 352.526L230.775 252.647L182.28 204.131L82.4089 304.01Z" fill="#1C244A"/>
<path d="M164.541 299.79C164.186 299.789 163.846 299.648 163.593 299.399L155.448 291.252L147.309 299.399C147.052 299.641 146.712 299.776 146.359 299.776C146.006 299.776 145.666 299.641 145.409 299.399L135.337 289.324C135.211 289.199 135.112 289.051 135.044 288.888C134.976 288.725 134.941 288.55 134.941 288.374C134.941 288.197 134.976 288.022 135.044 287.859C135.112 287.696 135.211 287.548 135.337 287.423L143.482 279.259L135.298 271.073C135.173 270.949 135.073 270.801 135.005 270.638C134.937 270.475 134.902 270.3 134.902 270.123C134.902 269.947 134.937 269.772 135.005 269.609C135.073 269.445 135.173 269.297 135.298 269.173L145.409 259.059C145.666 258.817 146.006 258.683 146.359 258.683C146.712 258.683 147.052 258.817 147.309 259.059L155.493 267.245L163.593 259.142C163.845 258.89 164.187 258.748 164.543 258.748C164.9 258.748 165.241 258.89 165.493 259.142L175.566 269.217C175.818 269.469 175.959 269.811 175.959 270.167C175.959 270.524 175.818 270.865 175.566 271.118L167.465 279.259L175.604 287.407C175.856 287.659 175.998 288.001 175.998 288.357C175.998 288.714 175.856 289.055 175.604 289.307L165.493 299.421C165.236 299.663 164.894 299.795 164.541 299.79ZM155.448 288.007C155.805 288.008 156.147 288.149 156.401 288.398L164.541 296.546L172.757 288.332L164.612 280.185C164.36 279.933 164.219 279.591 164.219 279.235C164.219 278.878 164.36 278.536 164.612 278.284L172.713 270.181L164.541 262.006L156.44 270.115C156.182 270.357 155.843 270.491 155.49 270.491C155.137 270.491 154.797 270.357 154.54 270.115L146.356 261.929L138.145 270.143L146.329 278.328C146.579 278.581 146.72 278.923 146.72 279.279C146.72 279.635 146.579 279.976 146.329 280.229L138.184 288.371L146.356 296.546L154.501 288.398C154.754 288.15 155.094 288.009 155.448 288.007Z" fill="#1C244A"/>
<path d="M89.0105 239.597H88.9554C87.3229 239.588 85.7604 238.932 84.6104 237.773L82.7765 235.939C81.6406 234.787 81.0074 233.232 81.0157 231.614C81.024 229.996 81.673 228.447 82.8206 227.307L105.614 204.512C106.773 203.411 108.31 202.798 109.907 202.798C111.505 202.798 113.041 203.411 114.2 204.512L116.034 206.346C117.183 207.495 117.834 209.05 117.846 210.676C117.862 211.478 117.716 212.276 117.417 213.021C117.118 213.766 116.672 214.443 116.105 215.011L93.3116 237.812C92.7478 238.378 92.0775 238.828 91.3393 239.134C90.6012 239.44 89.8097 239.598 89.0105 239.597ZM109.904 205.443C109.461 205.441 109.021 205.527 108.611 205.696C108.2 205.865 107.828 206.114 107.514 206.429L84.7205 229.224C84.3987 229.544 84.1431 229.924 83.9683 230.342C83.7935 230.761 83.7029 231.21 83.7017 231.664C83.697 232.107 83.7808 232.547 83.9482 232.958C84.1156 233.368 84.3632 233.741 84.6765 234.055L86.5158 235.889C86.8376 236.216 87.2207 236.475 87.6432 236.653C88.0657 236.831 88.5192 236.923 88.9775 236.925H89.0105C89.4581 236.927 89.9017 236.84 90.3156 236.67C90.7296 236.5 91.1058 236.25 91.4226 235.933L114.216 213.133C114.529 212.817 114.776 212.442 114.94 212.029C115.105 211.617 115.185 211.175 115.175 210.731C115.168 209.803 114.793 208.916 114.134 208.263L112.3 206.429C111.985 206.114 111.612 205.865 111.201 205.696C110.79 205.527 110.349 205.441 109.904 205.443Z" fill="#1C244A"/>
<path d="M72.1927 270.445C71.9274 270.444 71.6684 270.364 71.4481 270.216C71.2279 270.068 71.0562 269.858 70.9545 269.613C70.8529 269.368 70.8257 269.098 70.8765 268.838C70.9273 268.577 71.0537 268.337 71.24 268.148L144.347 195.042C144.6 194.798 144.939 194.664 145.291 194.667C145.643 194.671 145.979 194.812 146.228 195.061C146.477 195.31 146.618 195.646 146.621 195.998C146.625 196.35 146.49 196.689 146.247 196.943L73.1399 270.071C72.8862 270.316 72.5456 270.451 72.1927 270.445Z" fill="#1C244A"/>
<path d="M160.917 387.357C160.74 387.358 160.565 387.324 160.401 387.257C160.238 387.189 160.089 387.091 159.964 386.966L138.596 365.592C138.345 365.34 138.203 364.998 138.203 364.642C138.203 364.286 138.345 363.944 138.596 363.692L159.964 342.323C160.22 342.079 160.56 341.943 160.914 341.943C161.268 341.943 161.608 342.079 161.864 342.323L183.231 363.692C183.483 363.944 183.625 364.286 183.625 364.642C183.625 364.998 183.483 365.34 183.231 365.592L161.864 386.966C161.739 387.09 161.592 387.189 161.429 387.256C161.267 387.323 161.093 387.357 160.917 387.357ZM141.449 364.645L160.917 384.118L180.379 364.645L160.917 345.171L141.449 364.645Z" fill="#1C244A"/>
<path d="M151.494 371.982C151.138 371.982 150.796 371.841 150.544 371.589C150.292 371.337 150.15 370.995 150.15 370.638C150.15 370.282 150.292 369.94 150.544 369.688C150.796 369.436 151.138 369.294 151.494 369.294L160.553 369.261V350.041C160.553 349.685 160.695 349.343 160.947 349.091C161.199 348.839 161.541 348.697 161.897 348.697C162.253 348.697 162.595 348.839 162.847 349.091C163.099 349.343 163.241 349.685 163.241 350.041V370.6C163.241 370.955 163.1 371.296 162.849 371.548C162.598 371.8 162.258 371.942 161.903 371.944L151.505 371.982H151.494Z" fill="#1C244A"/>
<path d="M193.002 419.374C192.648 419.373 192.308 419.232 192.055 418.983L170.715 397.609C170.59 397.485 170.491 397.337 170.424 397.175C170.357 397.012 170.323 396.837 170.324 396.661C170.324 396.485 170.358 396.31 170.425 396.146C170.492 395.982 170.591 395.834 170.715 395.708L192.083 374.34C192.339 374.096 192.679 373.96 193.033 373.96C193.387 373.96 193.727 374.096 193.983 374.34L215.323 395.708C215.576 395.961 215.718 396.304 215.719 396.661C215.72 396.838 215.685 397.013 215.617 397.175C215.549 397.338 215.449 397.485 215.323 397.609L193.961 418.983C193.706 419.235 193.361 419.376 193.002 419.374ZM173.54 396.661L193.002 416.129L212.47 396.661L193.002 377.188L173.54 396.661Z" fill="#1C244A"/>
<path d="M194.021 403.999L183.629 403.961C183.273 403.961 182.931 403.819 182.679 403.567C182.427 403.315 182.285 402.973 182.285 402.616C182.285 402.26 182.427 401.918 182.679 401.666C182.931 401.414 183.273 401.272 183.629 401.272L192.677 401.305V382.102C192.677 381.745 192.819 381.404 193.071 381.151C193.323 380.899 193.664 380.758 194.021 380.758C194.377 380.758 194.719 380.899 194.971 381.151C195.223 381.404 195.364 381.745 195.364 382.102V402.655C195.363 403.012 195.223 403.354 194.973 403.608C194.848 403.733 194.7 403.831 194.536 403.899C194.373 403.966 194.197 404 194.021 403.999Z" fill="#1C244A"/>
<path d="M225.173 451.391C224.997 451.392 224.823 451.358 224.66 451.291C224.498 451.224 224.35 451.125 224.226 451L202.859 429.648C202.733 429.523 202.634 429.375 202.566 429.212C202.498 429.049 202.463 428.874 202.463 428.698C202.463 428.521 202.498 428.346 202.566 428.183C202.634 428.02 202.733 427.872 202.859 427.747L224.226 406.379C224.478 406.127 224.82 405.985 225.176 405.985C225.532 405.985 225.874 406.127 226.126 406.379L247.488 427.747C247.613 427.872 247.713 428.02 247.781 428.183C247.849 428.346 247.884 428.521 247.884 428.698C247.884 428.874 247.849 429.049 247.781 429.212C247.713 429.375 247.613 429.523 247.488 429.648L226.126 451.022C225.869 451.265 225.527 451.398 225.173 451.391ZM205.706 428.678L225.173 448.152L244.641 428.678L242.493 426.53L225.173 409.205L205.706 428.678Z" fill="#1C244A"/>
<path d="M215.758 436.016C215.401 436.016 215.06 435.874 214.808 435.622C214.556 435.37 214.414 435.028 214.414 434.672C214.414 434.315 214.556 433.973 214.808 433.721C215.06 433.469 215.401 433.328 215.758 433.328L224.817 433.295V414.075C224.817 413.718 224.959 413.376 225.211 413.124C225.463 412.872 225.804 412.73 226.161 412.73C226.517 412.73 226.859 412.872 227.111 413.124C227.363 413.376 227.504 413.718 227.504 414.075V434.633C227.503 434.988 227.362 435.328 227.111 435.58C226.861 435.832 226.521 435.974 226.166 435.977L215.769 436.016H215.758Z" fill="#1C244A"/>
<path d="M172.41 337.437C172.145 337.434 171.887 337.354 171.667 337.205C171.448 337.057 171.277 336.847 171.176 336.602C171.075 336.357 171.048 336.088 171.099 335.828C171.15 335.568 171.277 335.329 171.463 335.14L243.308 263.284C243.565 263.056 243.898 262.935 244.241 262.945C244.584 262.956 244.91 263.097 245.152 263.34C245.395 263.583 245.535 263.909 245.544 264.252C245.553 264.595 245.431 264.929 245.203 265.185L173.363 337.041C173.238 337.166 173.09 337.266 172.926 337.334C172.762 337.402 172.587 337.437 172.41 337.437Z" fill="#1C244A"/>
<path d="M180.935 345.959C180.67 345.959 180.41 345.88 180.19 345.733C179.969 345.586 179.797 345.376 179.695 345.131C179.593 344.886 179.566 344.616 179.617 344.356C179.668 344.095 179.795 343.856 179.982 343.668L251.828 271.801C251.952 271.672 252.1 271.569 252.264 271.498C252.428 271.427 252.605 271.39 252.783 271.388C252.962 271.386 253.139 271.42 253.305 271.488C253.47 271.555 253.621 271.655 253.747 271.782C253.873 271.908 253.973 272.058 254.041 272.224C254.108 272.389 254.142 272.567 254.14 272.745C254.139 272.924 254.101 273.101 254.03 273.265C253.96 273.429 253.857 273.577 253.728 273.701L181.882 345.568C181.631 345.818 181.29 345.959 180.935 345.959Z" fill="#1C244A"/>
<path d="M188.926 353.952C188.749 353.954 188.574 353.92 188.411 353.853C188.247 353.785 188.098 353.686 187.973 353.561C187.722 353.309 187.58 352.967 187.58 352.611C187.58 352.255 187.722 351.913 187.973 351.661L223.896 315.727C224.02 315.598 224.168 315.495 224.332 315.425C224.496 315.354 224.673 315.316 224.852 315.315C225.03 315.313 225.208 315.347 225.373 315.414C225.539 315.482 225.689 315.582 225.815 315.708C225.942 315.835 226.041 315.985 226.109 316.15C226.177 316.316 226.21 316.493 226.209 316.672C226.207 316.851 226.17 317.027 226.099 317.191C226.028 317.356 225.925 317.504 225.796 317.628L189.873 353.561C189.749 353.686 189.602 353.785 189.439 353.852C189.277 353.919 189.102 353.953 188.926 353.952Z" fill="#1C244A"/>
<path d="M203.074 368.11C202.809 368.107 202.551 368.027 202.331 367.878C202.112 367.73 201.941 367.52 201.84 367.275C201.739 367.03 201.713 366.761 201.763 366.501C201.814 366.241 201.941 366.001 202.127 365.813L273.967 293.951C274.22 293.707 274.559 293.573 274.911 293.576C275.263 293.58 275.599 293.721 275.848 293.97C276.097 294.219 276.238 294.555 276.241 294.907C276.245 295.259 276.11 295.598 275.867 295.852L204.027 367.713C203.902 367.839 203.754 367.939 203.59 368.007C203.427 368.075 203.251 368.11 203.074 368.11Z" fill="#1C244A"/>
<path d="M211.599 376.632C211.334 376.632 211.074 376.553 210.854 376.406C210.633 376.258 210.461 376.049 210.359 375.804C210.257 375.559 210.23 375.289 210.281 375.028C210.332 374.768 210.459 374.528 210.646 374.34L282.508 302.473C282.762 302.229 283.101 302.095 283.453 302.098C283.805 302.102 284.141 302.243 284.39 302.492C284.638 302.741 284.78 303.077 284.783 303.429C284.787 303.781 284.652 304.12 284.408 304.374L212.568 376.241C212.441 376.367 212.289 376.466 212.123 376.533C211.957 376.601 211.779 376.634 211.599 376.632Z" fill="#1C244A"/>
<path d="M219.59 384.625C219.413 384.626 219.238 384.592 219.075 384.525C218.911 384.458 218.762 384.359 218.638 384.234C218.386 383.982 218.244 383.64 218.244 383.284C218.244 382.927 218.386 382.585 218.638 382.333L254.56 346.4C254.814 346.156 255.153 346.021 255.505 346.025C255.856 346.028 256.193 346.17 256.442 346.419C256.69 346.667 256.832 347.004 256.835 347.356C256.839 347.707 256.704 348.047 256.46 348.3L220.537 384.234C220.414 384.359 220.266 384.458 220.103 384.525C219.941 384.592 219.766 384.626 219.59 384.625Z" fill="#1C244A"/>
<path d="M236.144 401.184C235.879 401.184 235.619 401.105 235.399 400.958C235.178 400.811 235.006 400.601 234.904 400.356C234.802 400.111 234.775 399.841 234.826 399.581C234.877 399.32 235.004 399.081 235.191 398.893L307.037 327.026C307.161 326.897 307.309 326.794 307.473 326.723C307.637 326.652 307.814 326.615 307.992 326.613C308.171 326.611 308.348 326.645 308.514 326.713C308.679 326.78 308.83 326.88 308.956 327.007C309.082 327.133 309.182 327.283 309.25 327.449C309.317 327.614 309.351 327.792 309.349 327.97C309.348 328.149 309.31 328.326 309.239 328.49C309.169 328.654 309.066 328.802 308.937 328.926L237.091 400.793C236.84 401.043 236.499 401.184 236.144 401.184Z" fill="#1C244A"/>
<path d="M244.625 409.668C244.359 409.668 244.1 409.589 243.879 409.442C243.658 409.294 243.486 409.085 243.384 408.84C243.282 408.594 243.255 408.325 243.306 408.064C243.358 407.804 243.485 407.564 243.672 407.376L315.517 335.509C315.771 335.265 316.11 335.131 316.462 335.134C316.814 335.138 317.15 335.279 317.399 335.528C317.647 335.777 317.789 336.113 317.792 336.465C317.796 336.817 317.661 337.156 317.417 337.41L245.572 409.265C245.448 409.391 245.301 409.492 245.138 409.561C244.976 409.63 244.801 409.666 244.625 409.668Z" fill="#1C244A"/>
<path d="M252.654 417.705C252.389 417.704 252.131 417.624 251.911 417.476C251.691 417.329 251.52 417.119 251.418 416.874C251.317 416.629 251.291 416.36 251.342 416.1C251.393 415.84 251.52 415.601 251.707 415.413L287.63 379.48C287.883 379.236 288.223 379.101 288.574 379.105C288.926 379.108 289.262 379.25 289.511 379.498C289.76 379.747 289.901 380.084 289.905 380.436C289.908 380.787 289.773 381.127 289.53 381.38L253.607 417.308C253.482 417.434 253.334 417.534 253.17 417.602C253.007 417.67 252.831 417.705 252.654 417.705Z" fill="#1C244A"/>
<path d="M380.485 544.031V559.323H366.684V573.128H351.396V559.323H337.596V544.031H351.396V530.226H366.684V544.031H380.485Z" fill="#79C8EF"/>
<path d="M366.685 574.472H351.397C351.041 574.472 350.699 574.331 350.447 574.078C350.195 573.826 350.054 573.485 350.054 573.128V560.667H337.58C337.224 560.667 336.882 560.526 336.63 560.274C336.378 560.022 336.236 559.68 336.236 559.323V544.031C336.236 543.855 336.271 543.68 336.339 543.517C336.406 543.355 336.505 543.207 336.63 543.082C336.755 542.958 336.903 542.86 337.066 542.793C337.229 542.726 337.404 542.692 337.58 542.692H350.037V530.226C350.037 530.05 350.072 529.875 350.139 529.713C350.207 529.55 350.306 529.402 350.431 529.278C350.556 529.153 350.704 529.055 350.867 528.988C351.03 528.921 351.205 528.887 351.381 528.887H366.668C367.024 528.887 367.365 529.028 367.617 529.279C367.869 529.53 368.011 529.871 368.012 530.226V542.692H380.464C380.64 542.692 380.815 542.726 380.978 542.793C381.141 542.86 381.289 542.958 381.414 543.082C381.538 543.207 381.637 543.355 381.705 543.517C381.773 543.68 381.808 543.855 381.808 544.031V559.323C381.808 559.68 381.666 560.022 381.414 560.274C381.162 560.526 380.82 560.667 380.464 560.667H368.012V573.128C368.012 573.482 367.873 573.821 367.625 574.073C367.376 574.324 367.039 574.468 366.685 574.472ZM352.741 571.784H365.341V559.323C365.341 559.147 365.376 558.972 365.444 558.809C365.511 558.646 365.61 558.498 365.735 558.373C365.86 558.248 366.008 558.149 366.171 558.081C366.334 558.014 366.509 557.979 366.685 557.979H379.142V545.375H366.685C366.329 545.375 365.987 545.233 365.735 544.981C365.483 544.729 365.341 544.387 365.341 544.031V531.559H352.741V544.02C352.741 544.196 352.706 544.371 352.639 544.534C352.571 544.697 352.472 544.846 352.347 544.97C352.223 545.095 352.075 545.194 351.912 545.262C351.749 545.329 351.574 545.364 351.397 545.364H338.94V558.001H351.397C351.574 558.001 351.749 558.036 351.912 558.103C352.075 558.171 352.223 558.27 352.347 558.395C352.472 558.52 352.571 558.668 352.639 558.831C352.706 558.994 352.741 559.169 352.741 559.345V571.784Z" fill="#1C244A"/>
<path d="M407.167 495.697V505.475H398.395V514.245H388.62V505.475H379.803V495.697H388.62V486.922H398.395V495.697H407.167Z" fill="#79C8EF"/>
<path d="M398.395 515.584H388.62C388.443 515.584 388.268 515.549 388.105 515.482C387.942 515.414 387.794 515.315 387.669 515.19C387.545 515.065 387.446 514.917 387.378 514.754C387.311 514.591 387.276 514.416 387.276 514.24V506.82H379.803C379.446 506.82 379.105 506.678 378.853 506.426C378.601 506.174 378.459 505.832 378.459 505.475V495.697C378.459 495.341 378.601 494.999 378.853 494.747C379.105 494.495 379.446 494.353 379.803 494.353H387.276V486.939C387.276 486.762 387.311 486.587 387.378 486.424C387.446 486.261 387.545 486.113 387.669 485.988C387.794 485.863 387.942 485.764 388.105 485.697C388.268 485.629 388.443 485.594 388.62 485.594H398.395C398.571 485.594 398.746 485.629 398.909 485.697C399.072 485.764 399.22 485.863 399.345 485.988C399.47 486.113 399.569 486.261 399.636 486.424C399.704 486.587 399.738 486.762 399.738 486.939V494.37H407.162C407.518 494.37 407.86 494.511 408.112 494.763C408.364 495.016 408.506 495.357 408.506 495.714V505.492C408.506 505.848 408.364 506.19 408.112 506.442C407.86 506.694 407.518 506.836 407.162 506.836H399.738V514.262C399.733 514.614 399.588 514.951 399.337 515.198C399.086 515.445 398.747 515.584 398.395 515.584ZM389.963 512.896H397.056V505.475C397.056 505.119 397.198 504.777 397.45 504.525C397.702 504.273 398.044 504.131 398.4 504.131H405.824V497.042H398.4C398.044 497.042 397.702 496.9 397.45 496.648C397.198 496.396 397.056 496.054 397.056 495.697V488.266H389.969V495.697C389.969 496.054 389.827 496.396 389.575 496.648C389.323 496.9 388.981 497.042 388.625 497.042H381.152V504.131H388.625C388.981 504.131 389.323 504.273 389.575 504.525C389.827 504.777 389.969 505.119 389.969 505.475L389.963 512.896Z" fill="#1C244A"/>
<path d="M428.689 537.305V547.083H419.922V555.853H410.147V547.083H401.33V537.305H410.147V528.529H419.922V537.305H428.689Z" fill="#79C8EF"/>
<path d="M419.916 557.197H410.141C409.785 557.197 409.443 557.055 409.191 556.803C408.939 556.551 408.797 556.209 408.797 555.853V548.427H401.324C400.968 548.426 400.627 548.283 400.376 548.032C400.124 547.78 399.982 547.439 399.98 547.083V537.305C399.98 536.948 400.122 536.606 400.374 536.354C400.626 536.102 400.968 535.961 401.324 535.961H408.797V528.529C408.799 528.173 408.941 527.832 409.192 527.581C409.444 527.329 409.785 527.187 410.141 527.185H419.916C420.093 527.185 420.267 527.22 420.43 527.288C420.593 527.355 420.741 527.454 420.866 527.579C420.991 527.704 421.09 527.852 421.158 528.015C421.225 528.178 421.26 528.353 421.26 528.529V535.966H428.689C429.045 535.966 429.387 536.108 429.639 536.36C429.891 536.612 430.033 536.954 430.033 537.31V547.088C430.031 547.444 429.889 547.785 429.637 548.037C429.386 548.289 429.045 548.431 428.689 548.433H421.287V555.858C421.287 556.037 421.251 556.213 421.181 556.377C421.111 556.542 421.01 556.69 420.882 556.815C420.754 556.94 420.603 557.038 420.437 557.103C420.272 557.169 420.094 557.201 419.916 557.197ZM411.485 554.509H418.572V547.083C418.572 546.726 418.714 546.384 418.966 546.132C419.218 545.88 419.56 545.739 419.916 545.739H427.345V538.649H419.916C419.56 538.648 419.219 538.505 418.968 538.254C418.716 538.002 418.574 537.661 418.572 537.305V529.874H411.485V537.305C411.485 537.481 411.45 537.656 411.382 537.819C411.315 537.982 411.216 538.13 411.091 538.255C410.966 538.38 410.818 538.479 410.655 538.547C410.492 538.614 410.317 538.649 410.141 538.649H402.668V545.739H410.141C410.317 545.739 410.492 545.773 410.655 545.841C410.818 545.909 410.966 546.008 411.091 546.132C411.216 546.257 411.315 546.405 411.382 546.568C411.45 546.732 411.485 546.906 411.485 547.083V554.509Z" fill="#1C244A"/>
<path d="M501.157 219.258V234.545H487.356V248.35H472.074V234.545H458.273V219.258H472.074V205.454H487.356V219.258H501.157Z" fill="#79C8EF"/>
<path d="M487.372 249.694H472.084C471.728 249.694 471.386 249.552 471.134 249.3C470.882 249.048 470.74 248.706 470.74 248.35V235.889H458.283C457.927 235.889 457.585 235.748 457.333 235.496C457.081 235.243 456.939 234.902 456.939 234.545V219.258C456.939 218.902 457.081 218.56 457.333 218.308C457.585 218.056 457.927 217.914 458.283 217.914H470.74V205.443C470.74 205.086 470.882 204.744 471.134 204.492C471.386 204.24 471.728 204.098 472.084 204.098H487.372C487.728 204.098 488.07 204.24 488.322 204.492C488.574 204.744 488.715 205.086 488.715 205.443V217.903H501.139C501.496 217.903 501.838 218.045 502.09 218.297C502.342 218.549 502.483 218.891 502.483 219.247V234.534C502.483 234.891 502.342 235.232 502.09 235.485C501.838 235.737 501.496 235.878 501.139 235.878H488.682V248.339C488.685 248.692 488.55 249.031 488.304 249.285C488.059 249.539 487.724 249.685 487.372 249.694ZM473.428 247.006H486.028V234.545C486.028 234.189 486.169 233.847 486.421 233.595C486.673 233.343 487.015 233.201 487.372 233.201H499.829V220.603H487.372C487.015 220.603 486.673 220.461 486.421 220.209C486.169 219.957 486.028 219.615 486.028 219.258V206.798H473.428V219.258C473.428 219.615 473.286 219.957 473.034 220.209C472.782 220.461 472.44 220.603 472.084 220.603H459.627V233.201H472.084C472.44 233.201 472.782 233.343 473.034 233.595C473.286 233.847 473.428 234.189 473.428 234.545V247.006Z" fill="#1C244A"/>
</g>
<defs>
<clipPath id="clip0_99_727">
<rect width="505" height="581" fill="white"/>
</clipPath>
</defs>
</svg>
