<svg xmlns="http://www.w3.org/2000/svg" width="363" height="232" fill="none" viewBox="0 0 363 232">
  <path fill="#E7F0FD" d="M326.696 27.588H193.611v177.299h133.085V27.588Z"/>
  <path stroke="#96BED5" stroke-miterlimit="10" strokeWidth="2.98" d="M331.778 22.94H198.694v177.299h133.084v-177.3Z"/>
  <path fill="#E7F0FD" d="M318.027 96.803v39.271l-12.212-6.27c-1.748 0-11.057 62.488-11.057 62.488H230.51s-9.311-62.488-11.055-62.488l-11.243 5.878V96.036c0-9.426 21.842-15.015 28.42-18.611 10.727-5.864 13.348-13.447 13.058-20.703h.416l-.427-.08c-1.377-8.67-4.603-11.116-4.67-19.717h41.254c-.617 7.169-1.007 14.624-6.046 19.872-1.051 1.094-3.162 1.69-5.807 1.955.229 6.926 4.089 14.812 14.201 18.664 8.604 3.277 29.416 11.415 29.416 19.387Z" style="mix-blend-mode:multiply"/>
  <path fill="#E7F0FD" d="M272.824 86.61c-6.266 0-7.249 31.937-5.567 43.97 1.246 8.897 21.615 13.734 24.853 9.588 7.43-9.524-7.354-53.558-19.286-53.558Zm-19.334 0c6.267 0 7.251 31.937 5.567 43.97-1.246 8.897-21.975 13.995-24.853 9.588-7.831-11.989 7.341-53.558 19.286-53.558Zm20.318 60.819c.152-3.09-13.854-6.844-31.063-1.753-13.295 3.93-9.268 24.866-3.729 24.823 2.753-.021 4.61-5.798 9.945-5.722 13.044.201 19.405-4.677 20.685-12.818.487-3.088 4.041-2.053 4.162-4.53Zm-8.097 16.228c-.723 3.12 19.086 1.509 21.551-7.837 2.179-8.272-6.359-10.048-10.441-5.905-2.889 2.932-2.655 3.824-4.94 7.965-2.763 4.99-5.78 4.054-6.17 5.777Z"/>
  <path fill="#E7F0FD" d="M287.904 160.682c-2.295 3.03-5.791 5.228-9.316 6.521-4.077 1.499-8.136 1.52-12.457 1.373-8.635-.288-18.928-1.33-25.222 5.853-3.077 3.513-4.871 8.164-4.488 12.859.121 1.472 1.175 2.733 2.753 2.733 1.377 0 2.859-1.254 2.74-2.733a12.06 12.06 0 0 1 2.983-9.112c2.575-2.87 6.051-4.001 10.004-4.223 8.589-.476 17.584 1.513 25.81-1.731 4.749-1.872 8.841-4.699 11.931-8.784.893-1.179.188-3.056-.984-3.741-1.404-.819-2.855-.201-3.747.982l-.007.003ZM152.146 27.588H19.061v177.299h133.085V27.588Z"/>
  <path stroke="#96BED5" stroke-miterlimit="10" strokeWidth="2.98" d="M157.23 22.94H24.146v177.299H157.23v-177.3Z"/>
  <path fill="#fff" d="M65.817 88.83c14.62 0 26.47-11.822 26.47-26.405 0-14.583-11.85-26.404-26.47-26.404-14.619 0-26.47 11.821-26.47 26.404S51.198 88.83 65.817 88.83Z"/>
  <path fill="#D1E2FB" d="m78.263 39.115-12.446 23.31V36.019a26.426 26.426 0 0 1 12.444 3.093l.002.004Z"/>
  <path fill="#96BED5" d="M92.29 62.425H65.817l12.446-23.31a26.445 26.445 0 0 1 10.251 9.716 26.357 26.357 0 0 1 3.776 13.594Z"/>
  <path fill="#C1C1E9" d="M92.29 62.425c0 5.27-1.58 10.42-4.54 14.787a26.458 26.458 0 0 1-12.06 9.715 26.53 26.53 0 0 1-15.446 1.312 26.487 26.487 0 0 1-13.533-7.541L65.822 62.43l26.468-.005Z"/>
  <path fill="#8383D3" d="M65.817 62.425 46.706 80.694a26.417 26.417 0 0 1-3.77-4.983l22.881-13.284Z"/>
  <path stroke="#fff" stroke-miterlimit="10" strokeWidth="2.98" d="m82.354 51.722 12.368-8.972h10.119M82.354 71.558l22.39 14.233"/>
  <path fill="#fff" d="M141.703 105.139H88.648v72.341h53.055v-72.341Zm0 79.352H39.347v4.397h102.356v-4.397Z"/>
  <path fill="#E7F0FD" d="M82.354 105.139H39.347v5.329h43.007v-5.329Zm0 11.17H39.347v5.328h43.007v-5.328Zm0 11.168H39.347v5.328h43.007v-5.328Zm0 11.169H39.347v5.329h43.007v-5.329Zm0 11.17H39.347v5.329h43.007v-5.329Zm0 11.168H39.347v5.328h43.007v-5.328Zm0 11.17H39.347v5.328h43.007v-5.328Zm59.349-133.039h-34.556v3.438h34.556v-3.438Zm0 5.612h-34.556v3.439h34.556v-3.438Zm-11.06 5.613h-23.496v3.438h23.496V50.34Zm11.06 36.96h-34.556v3.437h34.556v-3.438Zm0 5.612h-34.556v3.438h34.556v-3.438Z" style="mix-blend-mode:multiply"/>
</svg>
