<svg width="25" height="25" viewBox="0 0 25 25" fill="none" xmlns="http://www.w3.org/2000/svg">
<path fill-rule="evenodd" clip-rule="evenodd" d="M12.092 3.02295C7.08346 3.02295 3.02326 7.08315 3.02326 12.0917C3.02326 17.1002 7.08346 21.1604 12.092 21.1604C17.1005 21.1604 21.1607 17.1002 21.1607 12.0917C21.1607 7.08315 17.1005 3.02295 12.092 3.02295ZM2.01562 12.0917C2.01562 6.52665 6.52696 2.01532 12.092 2.01532C17.657 2.01532 22.1683 6.52665 22.1683 12.0917C22.1683 17.6567 17.657 22.168 12.092 22.168C6.52696 22.168 2.01562 17.6567 2.01562 12.0917Z" fill="white"/>
<path fill-rule="evenodd" clip-rule="evenodd" d="M12.092 3.02295C7.08346 3.02295 3.02326 7.08315 3.02326 12.0917C3.02326 17.1002 7.08346 21.1604 12.092 21.1604C17.1005 21.1604 21.1607 17.1002 21.1607 12.0917C21.1607 7.08315 17.1005 3.02295 12.092 3.02295ZM2.01562 12.0917C2.01562 6.52665 6.52696 2.01532 12.092 2.01532C17.657 2.01532 22.1683 6.52665 22.1683 12.0917C22.1683 17.6567 17.657 22.168 12.092 22.168C6.52696 22.168 2.01562 17.6567 2.01562 12.0917Z" fill="url(#paint0_linear_130_1169)"/>
<path fill-rule="evenodd" clip-rule="evenodd" d="M12.092 3.02295C7.08346 3.02295 3.02326 7.08315 3.02326 12.0917C3.02326 17.1002 7.08346 21.1604 12.092 21.1604C17.1005 21.1604 21.1607 17.1002 21.1607 12.0917C21.1607 7.08315 17.1005 3.02295 12.092 3.02295ZM2.01562 12.0917C2.01562 6.52665 6.52696 2.01532 12.092 2.01532C17.657 2.01532 22.1683 6.52665 22.1683 12.0917C22.1683 17.6567 17.657 22.168 12.092 22.168C6.52696 22.168 2.01562 17.6567 2.01562 12.0917Z" stroke="black" strokeWidth="0.755725" strokeLinecap="round" strokeLinejoin="round"/>
<path fill-rule="evenodd" clip-rule="evenodd" d="M12.092 3.02295C7.08346 3.02295 3.02326 7.08315 3.02326 12.0917C3.02326 17.1002 7.08346 21.1604 12.092 21.1604C17.1005 21.1604 21.1607 17.1002 21.1607 12.0917C21.1607 7.08315 17.1005 3.02295 12.092 3.02295ZM2.01562 12.0917C2.01562 6.52665 6.52696 2.01532 12.092 2.01532C17.657 2.01532 22.1683 6.52665 22.1683 12.0917C22.1683 17.6567 17.657 22.168 12.092 22.168C6.52696 22.168 2.01562 17.6567 2.01562 12.0917Z" stroke="url(#paint1_linear_130_1169)" strokeWidth="0.755725" strokeLinecap="round" strokeLinejoin="round"/>
<path d="M14.2483 15.2555C13.8251 15.6384 13.2104 15.85 12.3942 15.8903V17.1297H11.8602V15.9105C11.3362 15.8802 10.8425 15.7795 10.389 15.6082C9.92551 15.4369 9.56277 15.2051 9.30078 14.9431L9.61315 14.3285C9.86506 14.5703 10.1875 14.7718 10.5906 14.9431C10.9936 15.1044 11.4168 15.2051 11.8602 15.2354V12.414C11.3664 12.2931 10.9533 12.1621 10.6309 12.021C10.2983 11.8799 10.0263 11.6784 9.81467 11.4064C9.59299 11.1343 9.48216 10.7715 9.48216 10.3383C9.48216 9.78406 9.68368 9.32055 10.0867 8.94773C10.4898 8.5749 11.0843 8.35322 11.8702 8.29276V7.05338H12.4043V8.27261C12.8073 8.28269 13.2104 8.35322 13.5933 8.47414C13.9762 8.59505 14.3087 8.7462 14.5808 8.93765L14.3087 9.57246C14.0165 9.39109 13.7041 9.23994 13.3716 9.1291C13.0391 9.01826 12.7167 8.9578 12.3942 8.94773V11.7893C12.9182 11.9202 13.3515 12.0512 13.6941 12.1822C14.0266 12.3132 14.3087 12.5147 14.5405 12.7868C14.7722 13.0589 14.8831 13.4115 14.8831 13.8549C14.8831 14.4091 14.6715 14.8726 14.2483 15.2555ZM10.6812 11.1544C10.9533 11.3459 11.3463 11.5071 11.8602 11.6482V8.96788C11.3362 9.01826 10.9331 9.15933 10.6611 9.40116C10.389 9.65307 10.258 9.94528 10.258 10.308C10.2681 10.6809 10.3991 10.963 10.6812 11.1544ZM13.6739 14.8021C13.956 14.5703 14.1072 14.268 14.1072 13.9053C14.1072 13.5224 13.956 13.2302 13.6638 13.0387C13.3716 12.8473 12.9484 12.686 12.3942 12.545V15.2253C12.9585 15.1749 13.3817 15.0338 13.6739 14.8021Z" fill="white"/>
<path d="M14.2483 15.2555C13.8251 15.6384 13.2104 15.85 12.3942 15.8903V17.1297H11.8602V15.9105C11.3362 15.8802 10.8425 15.7795 10.389 15.6082C9.92551 15.4369 9.56277 15.2051 9.30078 14.9431L9.61315 14.3285C9.86506 14.5703 10.1875 14.7718 10.5906 14.9431C10.9936 15.1044 11.4168 15.2051 11.8602 15.2354V12.414C11.3664 12.2931 10.9533 12.1621 10.6309 12.021C10.2983 11.8799 10.0263 11.6784 9.81467 11.4064C9.59299 11.1343 9.48216 10.7715 9.48216 10.3383C9.48216 9.78406 9.68368 9.32055 10.0867 8.94773C10.4898 8.5749 11.0843 8.35322 11.8702 8.29276V7.05338H12.4043V8.27261C12.8073 8.28269 13.2104 8.35322 13.5933 8.47414C13.9762 8.59505 14.3087 8.7462 14.5808 8.93765L14.3087 9.57246C14.0165 9.39109 13.7041 9.23994 13.3716 9.1291C13.0391 9.01826 12.7167 8.9578 12.3942 8.94773V11.7893C12.9182 11.9202 13.3515 12.0512 13.6941 12.1822C14.0266 12.3132 14.3087 12.5147 14.5405 12.7868C14.7722 13.0589 14.8831 13.4115 14.8831 13.8549C14.8831 14.4091 14.6715 14.8726 14.2483 15.2555ZM10.6812 11.1544C10.9533 11.3459 11.3463 11.5071 11.8602 11.6482V8.96788C11.3362 9.01826 10.9331 9.15933 10.6611 9.40116C10.389 9.65307 10.258 9.94528 10.258 10.308C10.2681 10.6809 10.3991 10.963 10.6812 11.1544ZM13.6739 14.8021C13.956 14.5703 14.1072 14.268 14.1072 13.9053C14.1072 13.5224 13.956 13.2302 13.6638 13.0387C13.3716 12.8473 12.9484 12.686 12.3942 12.545V15.2253C12.9585 15.1749 13.3817 15.0338 13.6739 14.8021Z" fill="url(#paint2_linear_130_1169)"/>
<path d="M14.2483 15.2555C13.8251 15.6384 13.2104 15.85 12.3942 15.8903V17.1297H11.8602V15.9105C11.3362 15.8802 10.8425 15.7795 10.389 15.6082C9.92551 15.4369 9.56277 15.2051 9.30078 14.9431L9.61315 14.3285C9.86506 14.5703 10.1875 14.7718 10.5906 14.9431C10.9936 15.1044 11.4168 15.2051 11.8602 15.2354V12.414C11.3664 12.2931 10.9533 12.1621 10.6309 12.021C10.2983 11.8799 10.0263 11.6784 9.81467 11.4064C9.59299 11.1343 9.48216 10.7715 9.48216 10.3383C9.48216 9.78406 9.68368 9.32055 10.0867 8.94773C10.4898 8.5749 11.0843 8.35322 11.8702 8.29276V7.05338H12.4043V8.27261C12.8073 8.28269 13.2104 8.35322 13.5933 8.47414C13.9762 8.59505 14.3087 8.7462 14.5808 8.93765L14.3087 9.57246C14.0165 9.39109 13.7041 9.23994 13.3716 9.1291C13.0391 9.01826 12.7167 8.9578 12.3942 8.94773V11.7893C12.9182 11.9202 13.3515 12.0512 13.6941 12.1822C14.0266 12.3132 14.3087 12.5147 14.5405 12.7868C14.7722 13.0589 14.8831 13.4115 14.8831 13.8549C14.8831 14.4091 14.6715 14.8726 14.2483 15.2555ZM10.6812 11.1544C10.9533 11.3459 11.3463 11.5071 11.8602 11.6482V8.96788C11.3362 9.01826 10.9331 9.15933 10.6611 9.40116C10.389 9.65307 10.258 9.94528 10.258 10.308C10.2681 10.6809 10.3991 10.963 10.6812 11.1544ZM13.6739 14.8021C13.956 14.5703 14.1072 14.268 14.1072 13.9053C14.1072 13.5224 13.956 13.2302 13.6638 13.0387C13.3716 12.8473 12.9484 12.686 12.3942 12.545V15.2253C12.9585 15.1749 13.3817 15.0338 13.6739 14.8021Z" stroke="url(#paint3_linear_130_1169)" strokeWidth="0.755725" strokeLinejoin="round"/>
<defs>
<linearGradient id="paint0_linear_130_1169" x1="23.7569" y1="12.0917" x2="-1.34315" y2="12.0917" gradientUnits="userSpaceOnUse">
<stop stop-color="#6FB7C9"/>
<stop offset="1" stop-color="#3D5BAD"/>
</linearGradient>
<linearGradient id="paint1_linear_130_1169" x1="23.7569" y1="12.0917" x2="-1.34315" y2="12.0917" gradientUnits="userSpaceOnUse">
<stop stop-color="#6FB7C9"/>
<stop offset="1" stop-color="#3D5BAD"/>
</linearGradient>
<linearGradient id="paint2_linear_130_1169" x1="15.3231" y1="12.0915" x2="8.3704" y2="12.0915" gradientUnits="userSpaceOnUse">
<stop stop-color="#6FB7C9"/>
<stop offset="1" stop-color="#3D5BAD"/>
</linearGradient>
<linearGradient id="paint3_linear_130_1169" x1="15.3231" y1="12.0915" x2="8.3704" y2="12.0915" gradientUnits="userSpaceOnUse">
<stop stop-color="#6FB7C9"/>
<stop offset="1" stop-color="#3D5BAD"/>
</linearGradient>
</defs>
</svg>
