<svg width="16" height="16" viewBox="0 0 16 16" fill="none" xmlns="http://www.w3.org/2000/svg">
<path fill-rule="evenodd" clip-rule="evenodd" d="M14.5426 10.4588C12.549 8.04044 11.5552 8.25733 10.4625 8.78861C9.70597 9.15589 9.05303 9.47481 7.35567 7.77669C5.65831 6.07858 5.97647 5.42639 6.34375 4.67142C6.87654 3.57788 7.09268 2.58184 4.67209 0.58899C4.09547 0.116662 3.46671 -0.0647118 2.81225 0.06225C1.427 0.321464 0.449852 1.86314 0.449852 1.86314C-0.163797 2.72165 -1.00416 5.3032 4.41212 10.7202C7.97461 14.2835 10.3106 15.1382 11.7283 15.1382C12.4666 15.1382 12.9548 14.907 13.2375 14.7037C13.2533 14.6946 14.8086 13.7311 15.0709 12.3186C15.1933 11.6619 15.0157 11.0369 14.5426 10.4588Z" fill="black"/>
<path fill-rule="evenodd" clip-rule="evenodd" d="M14.5426 10.4588C12.549 8.04044 11.5552 8.25733 10.4625 8.78861C9.70597 9.15589 9.05303 9.47481 7.35567 7.77669C5.65831 6.07858 5.97647 5.42639 6.34375 4.67142C6.87654 3.57788 7.09268 2.58184 4.67209 0.58899C4.09547 0.116662 3.46671 -0.0647118 2.81225 0.06225C1.427 0.321464 0.449852 1.86314 0.449852 1.86314C-0.163797 2.72165 -1.00416 5.3032 4.41212 10.7202C7.97461 14.2835 10.3106 15.1382 11.7283 15.1382C12.4666 15.1382 12.9548 14.907 13.2375 14.7037C13.2533 14.6946 14.8086 13.7311 15.0709 12.3186C15.1933 11.6619 15.0157 11.0369 14.5426 10.4588Z" fill="url(#paint0_linear_114_1158)"/>
<defs>
<linearGradient id="paint0_linear_114_1158" x1="16.2993" y1="7.58055" x2="-2.51806" y2="7.58055" gradientUnits="userSpaceOnUse">
<stop stop-color="#6FB7C9"/>
<stop offset="1" stop-color="#3D5BAD"/>
</linearGradient>
</defs>
</svg>
