<svg xmlns="http://www.w3.org/2000/svg" width="26" height="31" fill="none" viewBox="0 0 26 31">
  <path fill="#407CE2" fill-rule="evenodd" d="M7.094.83h11.968c4.411 0 6.867 2.603 6.867 7.065v15.11c0 4.536-2.456 7.08-6.867 7.08H7.094c-4.341 0-6.869-2.544-6.869-7.08V7.896C.225 3.433 2.753.829 7.094.829Zm.385 6.816V7.63h4.268a1.13 1.13 0 0 1 1.116 1.14c0 .645-.5 1.157-1.116 1.157H7.48c-.615 0-1.114-.512-1.114-1.141 0-.63.499-1.141 1.114-1.141Zm0 8.894h11.196c.614 0 1.114-.512 1.114-1.141 0-.63-.5-1.142-1.114-1.142H7.479c-.615 0-1.114.513-1.114 1.142 0 .629.499 1.141 1.114 1.141Zm0 6.685h11.196c.57-.059 1-.557 1-1.141 0-.6-.43-1.097-1-1.156H7.479a1.112 1.112 0 0 0-1.07.542 1.187 1.187 0 0 0 0 1.228c.228.366.642.585 1.07.527Z" clip-rule="evenodd"/>
</svg>
